<svg width="142" height="163" viewBox="0 0 142 163" fill="none" xmlns="http://www.w3.org/2000/svg">
<path d="M98.5818 134.483C106.478 136.043 107.075 140.287 111.061 139.41C113.253 138.927 115.238 135.121 115.251 133.297C115.276 128.151 104.982 123.121 97.5897 124.163C90.1972 125.205 91.2224 133.026 98.5818 134.483Z" fill="#9556E1"/>
<path d="M49.4018 142.966C48.3729 150.95 44.1835 151.827 45.3254 155.752C45.9525 157.899 49.8565 159.634 51.7008 159.497C56.8346 159.179 61.171 148.56 59.6296 141.253C58.0882 133.946 50.3605 135.511 49.4018 142.966Z" fill="#9556E1"/>
<path d="M32.4179 116.936C29.2771 116.986 25.1137 117.206 22.4369 108.24C20.232 100.849 21.5771 87.627 27.7337 89.3342C32.6657 90.6994 30.5934 95.3123 30.6694 102.509C30.7454 109.705 36.8763 110.612 36.8763 110.612L32.4179 116.936Z" fill="#9556E1"/>
<path fill-rule="evenodd" clip-rule="evenodd" d="M31.1122 120.088C30.3767 119.997 29.7952 119.72 29.4272 119.242C27.9734 117.355 30.404 113.045 34.856 109.616C39.1103 106.339 43.6712 105.052 45.3364 106.591C50.3618 106.006 56.8831 107.274 65.9937 109.346C74.209 111.213 79.2111 109.727 83.2226 108.535C88.6941 106.909 92.3225 105.831 99.747 114.559C99.747 114.559 103.608 128.703 96.1844 138.975C96.5109 141.129 94.1802 144.715 90.3648 147.653C85.9128 151.083 81.1252 152.333 79.6714 150.446C79.3071 149.973 79.1867 149.348 79.2809 148.623L79.2131 148.635C75.1147 151.423 70.9987 152.32 69.6694 150.594C69.421 150.272 69.286 149.878 69.2551 149.431C69.0306 149.429 68.8045 149.427 68.5769 149.423C65.5104 150.889 62.8132 151.125 61.7847 149.789C61.6333 149.593 61.524 149.37 61.4548 149.125C58.5488 150.43 56.0318 150.592 55.0464 149.313C54.8106 149.007 54.677 148.637 54.6376 148.218C52.6135 148.785 50.9731 148.647 50.2222 147.672C50.1184 147.537 50.0344 147.39 49.9695 147.232C47.9958 147.764 46.4009 147.614 45.6636 146.657C45.4996 146.444 45.3851 146.2 45.3172 145.93C43.3895 146.431 41.8357 146.269 41.1108 145.328C40.6926 144.785 40.5958 144.042 40.7763 143.176C37.586 141.235 35.2903 138.973 33.6897 136.581C32.742 136.558 31.9977 136.274 31.5581 135.703C30.9858 134.96 31.0154 133.842 31.5335 132.549C30.5979 132.522 29.8629 132.238 29.4272 131.672C28.604 130.604 29.0263 128.758 30.3557 126.736C29.9721 126.59 29.6578 126.37 29.4272 126.071C28.4638 124.82 29.2062 122.505 31.1122 120.088Z" fill="url(#paint0_radial_926_3953)"/>
<path d="M34.2907 135.353C29.3575 141.715 25.3038 140.348 24.2997 144.311C23.7486 146.487 26.2403 149.958 27.8812 150.793C32.4641 153.126 41.5776 146.174 43.9551 139.086C46.3327 131.998 38.8955 129.418 34.2907 135.353Z" fill="#AD6EF9"/>
<path d="M88.6134 144.323C94.831 149.455 93.3375 153.456 97.277 154.598C99.4305 155.215 102.977 152.824 103.856 151.209C106.323 146.688 99.6391 137.37 92.6349 134.788C85.6307 132.206 82.8209 139.551 88.6134 144.323Z" fill="#AD6EF9"/>
<path d="M116.629 69.9227C116.629 69.9227 117.416 68.6122 122.664 59.2392C132.541 41.7572 121.844 32.253 119.109 13.2195C118.107 6.22648 116.333 -1.13952 112.064 3.97405C104.98 12.4489 108.49 20.0993 110.812 27.138C108.202 21.2809 105.779 19.3682 104.248 20.7235C101.37 23.325 100.867 31.9683 104.36 41.5684C104.36 41.5684 101.184 35.7566 98.7546 37.4173C94.189 40.635 96.3275 50.5025 101.103 55.6536C106.331 61.2967 107.791 65.7853 107.647 68.1914C107.542 71.7174 115.938 70.6802 116.629 69.9227Z" fill="url(#paint1_linear_926_3953)"/>
<path d="M133.591 83.4419C134.242 108.031 112.28 122.452 85.0992 123.138C57.9181 123.824 35.7807 110.645 35.1303 86.0554C34.4799 61.4659 57.0704 42.8525 84.2728 42.8268C103.049 42.8203 132.946 58.8316 133.591 83.4419Z" fill="white"/>
<path d="M95.1014 91.4985C95.1014 91.4985 99.1495 101.406 101.057 97.2925C101.989 95.0928 102.83 92.333 103.362 90.5157C103.362 90.5157 107.151 99.0361 109.467 95.8926C111.784 92.7491 110.51 87.3971 110.51 87.3971" stroke="#F088FE" stroke-width="2.70993" stroke-linecap="round" stroke-linejoin="round"/>
<path d="M77.8138 91.9044C80.9119 92.6892 84.06 90.8125 84.8453 87.7127C85.6305 84.6128 83.7556 81.4637 80.6575 80.6788C77.5594 79.894 74.4113 81.7707 73.6261 84.8706C72.8408 87.9705 74.7157 91.1196 77.8138 91.9044Z" fill="#003451"/>
<path d="M61.6972 84.7491C61.6972 84.7491 61.2322 83.2991 57.7488 73.0908C51.2599 54.0721 37.0519 55.7577 21.0343 45.1387C15.151 41.2503 8.49962 37.6779 9.44086 44.2557C11.1062 55.2024 19.097 57.6485 25.8859 60.634C19.7849 58.6999 16.7413 59.2388 16.7346 61.2799C16.7297 65.1978 22.8798 71.2744 32.3636 75.0535C32.3636 75.0535 25.9168 73.5647 25.5839 76.4557C24.9319 82.0081 33.7257 86.9781 40.7127 86.8162C48.4328 86.6514 52.7208 88.5592 54.4344 90.2922C56.9623 92.7089 61.7826 85.7699 61.6972 84.7491Z" fill="url(#paint2_linear_926_3953)"/>
<path d="M120.679 85.5372C123.777 86.322 126.925 84.4453 127.711 81.3455C128.496 78.2456 126.621 75.0965 123.523 74.3117C120.425 73.5268 117.277 75.4036 116.491 78.5034C115.706 81.6033 117.581 84.7524 120.679 85.5372Z" fill="#003451"/>
<ellipse rx="12.3363" ry="5.22971" transform="matrix(-0.917822 -0.396992 -0.396992 0.917822 100.237 48.8869)" fill="white"/>
<ellipse rx="12.3363" ry="5.22971" transform="matrix(-0.97987 -0.199639 -0.199639 0.97987 80.5799 44.2476)" fill="white"/>
<ellipse rx="12.3363" ry="5.22971" transform="matrix(-0.97987 -0.199639 -0.199639 0.97987 60.8885 44.6773)" fill="white"/>
<ellipse rx="12.3363" ry="5.22971" transform="matrix(-0.97987 -0.199639 -0.199639 0.97987 56.6854 53.0444)" fill="white"/>
<defs>
<radialGradient id="paint0_radial_926_3953" cx="0" cy="0" r="1" gradientUnits="userSpaceOnUse" gradientTransform="translate(70.2935 116.746) rotate(98.8629) scale(35.1474 138.522)">
<stop stop-color="#C8EBFF"/>
<stop offset="0.322917" stop-color="white"/>
<stop offset="1" stop-color="white"/>
</radialGradient>
<linearGradient id="paint1_linear_926_3953" x1="121.896" y1="4.0521" x2="105.377" y2="69.2625" gradientUnits="userSpaceOnUse">
<stop stop-color="#E0C1FD"/>
<stop offset="1" stop-color="#AD6EF9"/>
</linearGradient>
<linearGradient id="paint2_linear_926_3953" x1="39.6022" y1="47.5925" x2="30.1859" y2="84.7643" gradientUnits="userSpaceOnUse">
<stop stop-color="#E0C1FD"/>
<stop offset="1" stop-color="#AD6EF9"/>
</linearGradient>
</defs>
</svg>
