<svg width="1512" height="982" viewBox="0 0 1512 982" fill="none" xmlns="http://www.w3.org/2000/svg">
<rect x="-98.8079" y="-2848.83" width="1682.14" height="3859.52" fill="url(#paint0_linear_925_2584)"/>
<path d="M-15.8082 715.674C-8.94521 709.497 -2.10611 713.786 0.925049 716.36C4.01263 708.983 22.7159 703.663 31.6378 712.757C40.5597 721.85 39.3587 730.944 35.5841 737.807C38.5008 737.292 43.5139 737.635 46.7738 740.552C49.3818 742.885 50.2823 747.643 49.9964 749.474C51.7495 748.788 54.6789 748.157 57.5457 750.331C59.2988 751.661 59.7761 754.364 59.7761 757.366C62.8645 757.195 67.1539 758.396 68.0118 764.744C76.4189 763.2 83.4535 772.808 76.4189 778.641C70.7913 783.308 64.0083 777.726 61.3203 774.352C60.3481 776.068 57.5457 780.786 49.9964 782.244C43.0495 783.586 37.5858 778.47 35.5841 775.21C35.0121 776.297 32.8732 778.676 28.8926 779.499C24.9121 780.323 20.7142 778.012 19.1128 776.754C18.8269 778.584 16.9167 782.965 11.5635 785.848C6.21039 788.73 0.182327 784.647 -2.16253 782.244C-4.39301 785.79 -10.6383 792.951 -17.7759 793.225C-26.6978 793.568 -31.845 787.22 -32.7029 780.529C-44.7132 782.759 -46.7721 780.7 -52.434 776.754C-57.5813 780.7 -65.9885 779.671 -68.5621 772.808C-72.251 774.438 -76.37 773.58 -77.9153 771.607C-79.4122 769.696 -80.6185 764.788 -76.37 760.626C-72.4289 756.766 -66.16 755.993 -61.8707 758.396C-62.557 756.337 -63.2433 747.243 -52.434 743.468C-43.7866 740.449 -38.0789 746.214 -36.306 749.474C-36.0772 748.273 -34.8647 745.596 -31.845 744.498C-28.8253 743.4 -25.6686 744.04 -24.4677 744.498C-26.1263 743.354 -27.458 737.291 -24.9017 734.118C-21.7228 730.172 -18.2961 730.772 -14.8646 731.201C-18.4676 728.914 -20.6758 720.054 -15.8082 715.674Z" fill="url(#paint1_linear_925_2584)"/>
<path fill-rule="evenodd" clip-rule="evenodd" d="M73.4371 765.265C78.9094 767.417 81.8367 774.149 76.4189 778.641C70.7913 783.308 64.0083 777.726 61.3203 774.352C60.3481 776.068 57.5457 780.786 49.9964 782.244C43.0495 783.586 37.5858 778.47 35.5841 775.21C35.0121 776.297 32.8732 778.676 28.8926 779.499C24.9121 780.323 20.7142 778.012 19.1128 776.754C18.8269 778.584 16.9167 782.965 11.5635 785.848C6.21039 788.73 0.182335 784.647 -2.16253 782.244C-4.39301 785.79 -10.6383 792.951 -17.7759 793.225C-26.6978 793.568 -31.845 787.22 -32.7029 780.529C-44.0628 782.638 -46.5199 780.911 -51.5438 777.378C-51.8314 777.176 -52.1274 776.968 -52.434 776.754C-57.5813 780.7 -65.9885 779.671 -68.5621 772.808C-72.251 774.438 -76.37 773.58 -77.9153 771.607C-79.4122 769.696 -80.6185 764.788 -76.37 760.626C-76.0434 760.306 -75.7008 760.008 -75.3447 759.73C-71.5114 758.75 -64.282 757.766 -60.7607 760.455C-60.5891 755.479 -56.4713 749.646 -48.5789 749.302C-42.2649 749.028 -37.3693 752.734 -35.7107 754.621C-35.6822 753.22 -34.3896 750.091 -29.4483 748.787C-24.5069 747.483 -20.9267 749.73 -19.7543 751.017C-17.7339 746.517 -8.94502 741.907 3.23682 747.844C-3.90233 741.907 -14.0923 743.275 -19.7543 745.076C-19.5827 739.414 -13.8349 734.031 -8.94502 733.945C-11.0897 729.141 -10.6608 724.337 -7.22927 722.364C-3.79777 720.391 0.663185 720.991 4.26627 722.879C7.44041 719.876 16.0192 712.67 27.2573 719.447C36.2479 724.869 33.0333 735.718 30.2595 740.208C25.3982 740.35 16.1045 743.983 12.1587 750.502C23.3029 741.862 32.6956 740.062 42.0124 743.21C44.9287 744.195 47.8464 747.414 47.8464 752.218C53.1652 752.304 58.3978 753.934 55.8246 762.684C61.2292 760.453 63.974 762.855 66.5476 766.802C68.8279 765.788 71.1845 765.111 73.4371 765.265Z" fill="#D3FBFF"/>
<path d="M11.3887 726.31C3.49623 727.065 -0.650174 731.829 -1.73682 734.117C7.52824 726.156 20.0246 728.913 25.1147 731.286C23.8279 729.313 19.2811 725.556 11.3887 726.31Z" fill="#E8F8FF"/>
<path fill-rule="evenodd" clip-rule="evenodd" d="M78.6824 775.799C78.2178 776.797 77.4777 777.761 76.4189 778.639C70.7912 783.306 64.0083 777.724 61.3202 774.35C60.348 776.065 57.5456 780.784 49.9963 782.242C43.0494 783.584 37.5857 778.467 35.584 775.208C35.012 776.294 32.8731 778.673 28.8925 779.497C24.912 780.32 20.7141 778.01 19.1127 776.752C18.8268 778.582 16.9166 782.963 11.5634 785.845C6.21029 788.728 0.182236 784.644 -2.16263 782.242C-4.3931 785.788 -10.6384 792.948 -17.776 793.223C-26.6979 793.566 -31.8451 787.218 -32.703 780.526C-44.0629 782.636 -46.52 780.908 -51.5439 777.376C-51.8315 777.174 -52.1275 776.965 -52.4341 776.752C-57.5814 780.698 -65.9886 779.668 -68.5622 772.805C-72.2511 774.436 -76.3701 773.578 -77.9154 771.605C-78.2295 771.204 -78.5307 770.671 -78.7715 770.041C-75.0603 771.32 -68.9598 772.113 -65.9078 767.745C-63.7635 770.061 -61.0179 772.206 -58.2727 772.206C-58.0097 772.206 -57.7193 772.216 -57.4087 772.228C-55.0846 772.314 -51.6262 772.442 -50.0371 768.431C-46.0565 767.882 -40.772 767.745 -38.6273 767.745C-38.4843 770.404 -36.311 775.654 -28.7617 775.38C-19.3251 775.037 -19.4109 764.999 -19.754 764.056C-15.3789 767.23 -10.4032 770.061 -3.54018 766.286C0.115387 764.276 1.66663 763.269 2.20235 762.821C0.784737 765.184 -2.68282 768.5 -6.54275 770.061C-6.80011 776.495 -0.623398 778.297 3.83755 778.211C8.29851 778.125 13.7889 774.779 14.1321 771.262C17.4778 773.836 27.086 775.38 30.1743 772.72C32.645 770.593 32.9767 767.888 32.8338 766.801L43.2998 761.482C42.7851 765.714 43.7803 774.11 51.8786 773.836C59.977 773.561 61.7728 770.29 61.6584 768.688C62.8594 772.177 67.1145 778.708 74.5265 776.924C76.2569 776.507 77.6189 776.133 78.6824 775.799ZM2.37917 762.512C2.48428 762.512 2.47124 762.596 2.20235 762.821C2.26538 762.716 2.32438 762.613 2.37917 762.512Z" fill="#7EF6FF"/>
<path d="M32.4894 765.343C23.1385 766.201 15.6464 764.171 13.2729 761.826C14.1594 764.6 20.2561 770.645 31.3741 769.203C42.4922 767.762 45.6721 760.081 46.6443 756.85C45.958 758.509 42.5249 764.422 32.4894 765.343Z" fill="#7EF6FF"/>
<path d="M282.905 842.466L286.405 831.216L307.655 823.716H317.905L282.905 842.466Z" fill="#75C4FE"/>
<path d="M286.454 831.154L250.954 824.654C246.788 825.987 151.289 816.655 151.289 816.655C151.289 816.655 -15.7107 850.404 -17.7107 853.904C-19.7107 857.404 -70.7118 929.404 -67.7118 931.904C-65.3118 933.904 381.954 879.32 476.954 885.654L460.954 841.154L413.954 824.654H384.454C365.954 824.654 356.954 818.654 346.954 816.654C336.954 814.654 321.954 824.654 312.454 824.654C304.854 824.654 291.954 828.988 286.454 831.154Z" fill="#48B2FF"/>
<path d="M286.454 855.154L171.288 897.404L273.454 961.654H1090.95V915.154L1071.45 903.154L1023.45 882.654H926.454C923.121 878.654 915.754 870.654 912.954 870.654C910.154 870.654 897.121 867.654 890.954 866.154L870.454 840.654L858.454 819.654H833.954L821.454 822.154L811.954 816.654L808.954 799.654L787.454 796.154L774.954 799.654C767.621 801.654 752.454 805.654 750.454 805.654C748.454 805.654 734.954 810.987 728.454 813.654L719.454 811.154L713.954 808.154H691.954L678.454 805.654L662.954 811.154L645.454 796.154L634.954 790.654V780.654H617.954L604.954 747.154L586.954 743.654L568.454 738.654L556.454 743.654H550.454L509.454 785.654L505.954 780.654L460.954 819.654L446.454 805.654L421.954 827.654L411.954 819.654L387.954 831.654H377.954L363.454 843.154H345.454C338.287 849.154 323.454 861.154 321.454 861.154C319.454 861.154 297.287 857.154 286.454 855.154Z" fill="#75C4FE"/>
<path d="M345.329 843.154H363.704L344.204 865.029L345.329 843.154Z" fill="#48B2FF"/>
<path d="M377.829 832.154H388.579L389.454 846.529L378.579 907.279L363.704 864.029L377.829 832.154Z" fill="#48B2FF"/>
<path d="M405.954 828.029L411.829 819.404L421.704 828.029L407.079 861.029L405.954 846.529L410.329 838.529L405.954 828.029Z" fill="#48B2FF"/>
<path d="M434.704 843.154L446.204 804.779L460.829 819.404L446.204 854.654L423.204 913.529L434.704 843.154Z" fill="#48B2FF"/>
<path d="M486.204 818.279L505.704 780.154L509.329 785.279L511.454 814.529C500.621 847.945 478.879 914.904 478.579 915.404C478.279 915.904 475.954 917.195 474.829 917.779L476.454 856.279L487.454 844.279L486.204 818.279Z" fill="#48B2FF"/>
<path d="M565.954 762.654L568.204 738.154L588.454 743.904L569.954 768.904L565.954 762.654Z" fill="#48B2FF"/>
<path d="M616.949 781.859L618.038 780.779H634.938C634.938 780.779 625.037 807.32 621.204 812.404C600.371 822.07 558.454 841.454 557.454 841.654C556.471 841.85 595.895 802.743 616.949 781.859Z" fill="#48B2FF"/>
<path d="M674.704 837.654L679.204 805.904C674.121 807.32 663.754 810.304 662.954 810.904C662.154 811.504 665.954 828.987 667.954 837.654H674.704Z" fill="#48B2FF"/>
<path d="M711.704 851.904L718.704 810.904L728.704 814.529L714.954 851.904H711.704Z" fill="#48B2FF"/>
<path d="M142.788 834.906L150.913 816.656L251.038 824.781L142.788 834.906Z" fill="#75C4FE"/>
<path d="M272.756 871.853C155.147 839.18 20.8346 877.687 -31.6204 901.024V2471.85H1494.41L1484.05 838.007C1464.73 825.949 1410.34 805.335 1347.39 819.337C1268.71 836.84 1176.17 892.817 1092.95 871.853C958.607 838.007 769.698 843.84 687.91 880.017C606.122 916.194 570.922 864.848 526.404 857.847C481.886 850.846 472.568 888.185 413.557 880.017C354.545 871.849 314.168 861.351 272.756 871.853Z" fill="url(#paint2_linear_925_2584)"/>
<path d="M235.192 865.618C77.5921 836.018 -33.8079 877.951 -69.8079 902.618C-73.8079 907.284 -85.2079 937.016 -98.8079 1018.62C-15.8079 897.616 108.192 886.618 235.192 865.618Z" fill="#80FE80"/>
<path d="M1349.39 858.39C1349.39 780.819 1286.5 717.935 1208.93 717.935C1131.36 717.935 1068.48 780.819 1068.48 858.39" stroke="#AD6EF9" stroke-width="8.01072"/>
<path d="M1341.9 858.388C1341.9 784.952 1282.37 725.42 1208.93 725.42C1135.49 725.42 1075.96 784.952 1075.96 858.388" stroke="#F57AFF" stroke-width="8.01072"/>
<path d="M1335.49 858.388C1335.49 788.491 1278.83 731.829 1208.93 731.829C1139.03 731.829 1082.37 788.491 1082.37 858.388" stroke="#FFF43A" stroke-width="8.01072"/>
<path d="M1357.57 858.39C1357.57 776.298 1291.02 709.749 1208.93 709.749C1126.84 709.749 1060.29 776.298 1060.29 858.39" stroke="#9556E1" stroke-width="8.01072"/>
<path d="M1365.07 796.721C1476.27 755.121 1537.4 764.055 1554.07 773.721L1578.07 1063.72C1556.73 1070.05 1470.27 1058.12 1295.07 959.718C1119.87 861.318 875.401 846.116 781.067 859.116C847.067 831.116 879.067 814.718 977.067 804.718C1075.07 794.718 1226.07 848.721 1365.07 796.721Z" fill="#80FE80"/>
<path d="M1064.93 709.602C1059.32 704.553 1053.73 708.06 1051.25 710.164C1048.72 704.132 1033.43 699.783 1026.14 707.218C1018.84 714.652 1019.83 722.087 1022.91 727.698C1020.53 727.277 1016.43 727.557 1013.76 729.942C1011.63 731.85 1010.9 735.74 1011.13 737.236C1009.7 736.675 1007.3 736.16 1004.96 737.938C1003.52 739.025 1003.13 741.234 1003.13 743.689C1000.61 743.548 997.102 744.53 996.401 749.721C989.527 748.458 983.776 756.313 989.527 761.083C994.128 764.898 999.674 760.335 1001.87 757.576C1002.67 758.979 1004.96 762.836 1011.13 764.028C1016.81 765.125 1021.28 760.942 1022.91 758.277C1023.38 759.166 1025.13 761.111 1028.38 761.784C1031.64 762.457 1035.07 760.568 1036.38 759.54C1036.61 761.036 1038.17 764.618 1042.55 766.974C1046.93 769.331 1051.86 765.992 1053.77 764.028C1055.6 766.927 1060.7 772.782 1066.54 773.006C1073.83 773.287 1078.04 768.096 1078.74 762.626C1088.56 764.449 1090.24 762.766 1094.87 759.54C1099.08 762.766 1105.95 761.924 1108.06 756.313C1111.07 757.646 1114.44 756.945 1115.71 755.332C1116.93 753.769 1117.92 749.757 1114.44 746.354C1111.22 743.198 1106.09 742.567 1102.59 744.53C1103.15 742.847 1103.71 735.413 1094.87 732.327C1087.8 729.858 1083.14 734.571 1081.69 737.236C1081.5 736.254 1080.51 734.066 1078.04 733.168C1075.57 732.27 1072.99 732.794 1072.01 733.168C1073.36 732.233 1074.45 727.276 1072.36 724.682C1069.76 721.456 1066.96 721.946 1064.16 722.297C1067.1 720.427 1068.91 713.184 1064.93 709.602Z" fill="url(#paint3_linear_925_2584)"/>
<path fill-rule="evenodd" clip-rule="evenodd" d="M991.965 750.147C987.491 751.906 985.098 757.41 989.527 761.083C994.128 764.898 999.674 760.335 1001.87 757.576C1002.67 758.979 1004.96 762.836 1011.13 764.028C1016.81 765.125 1021.28 760.942 1022.91 758.277C1023.38 759.166 1025.13 761.111 1028.38 761.784C1031.64 762.457 1035.07 760.568 1036.38 759.54C1036.61 761.036 1038.17 764.618 1042.55 766.974C1046.93 769.331 1051.86 765.992 1053.77 764.028C1055.6 766.927 1060.7 772.782 1066.54 773.006C1073.83 773.287 1078.04 768.096 1078.74 762.626C1088.03 764.351 1090.04 762.938 1094.15 760.05C1094.38 759.885 1094.62 759.714 1094.87 759.54C1099.08 762.766 1105.95 761.924 1108.06 756.313C1111.07 757.646 1114.44 756.945 1115.71 755.332C1116.93 753.769 1117.92 749.757 1114.44 746.354C1114.18 746.093 1113.9 745.848 1113.6 745.622C1110.47 744.82 1104.56 744.016 1101.68 746.214C1101.54 742.146 1098.17 737.377 1091.72 737.096C1086.56 736.872 1082.56 739.902 1081.2 741.445C1081.18 740.299 1080.12 737.741 1076.08 736.675C1072.04 735.608 1069.11 737.446 1068.16 738.498C1066.5 734.819 1059.32 731.05 1049.36 735.904C1055.2 731.05 1063.53 732.168 1068.16 733.641C1068.01 729.012 1063.32 724.611 1059.32 724.541C1061.07 720.613 1060.72 716.685 1057.92 715.072C1055.11 713.459 1051.46 713.95 1048.52 715.493C1045.92 713.038 1038.91 707.147 1029.72 712.687C1022.37 717.12 1025 725.99 1027.27 729.66C1031.24 729.777 1038.84 732.747 1042.06 738.077C1032.95 731.013 1025.27 729.542 1017.66 732.115C1015.27 732.921 1012.89 735.552 1012.89 739.48C1008.54 739.55 1004.26 740.882 1006.36 748.036C1001.95 746.213 999.702 748.177 997.598 751.403C995.733 750.574 993.807 750.021 991.965 750.147Z" fill="#D3FBFF"/>
<path d="M1042.69 718.299C1049.15 718.916 1052.54 722.811 1053.42 724.681C1045.85 718.172 1035.63 720.426 1031.47 722.367C1032.52 720.754 1036.24 717.682 1042.69 718.299Z" fill="#E8F8FF"/>
<path d="M1088.99 751.333C1094.26 751.502 1099.51 748.785 1101.47 747.406C1100.14 749.556 1095.97 753.844 1089.97 753.788C1083.96 753.732 1079.94 750.164 1078.68 748.387C1079.91 749.299 1083.71 751.165 1088.99 751.333Z" fill="#7EF6FF"/>
<path fill-rule="evenodd" clip-rule="evenodd" d="M987.676 758.759C988.056 759.575 988.661 760.363 989.527 761.081C994.128 764.896 999.674 760.333 1001.87 757.574C1002.67 758.977 1004.96 762.834 1011.13 764.027C1016.81 765.124 1021.28 760.94 1022.91 758.275C1023.38 759.164 1025.13 761.109 1028.38 761.782C1031.64 762.455 1035.07 760.566 1036.38 759.538C1036.61 761.034 1038.17 764.616 1042.55 766.972C1046.93 769.329 1051.86 765.99 1053.77 764.027C1055.6 766.926 1060.7 772.78 1066.54 773.004C1073.83 773.285 1078.04 768.094 1078.74 762.624C1088.03 764.349 1090.04 762.936 1094.14 760.048C1094.38 759.883 1094.62 759.712 1094.87 759.538C1099.08 762.764 1105.95 761.922 1108.06 756.311C1111.07 757.644 1114.44 756.943 1115.71 755.33C1115.96 755.002 1116.21 754.566 1116.41 754.051C1113.37 755.097 1108.38 755.746 1105.89 752.174C1104.14 754.068 1101.89 755.821 1099.65 755.821C1099.43 755.821 1099.19 755.83 1098.94 755.839C1097.04 755.909 1094.21 756.014 1092.91 752.735C1089.66 752.286 1085.34 752.174 1083.58 752.174C1083.47 754.348 1081.69 758.641 1075.52 758.416C1067.8 758.136 1067.87 749.93 1068.15 749.158C1064.58 751.753 1060.51 754.068 1054.9 750.982C1051.91 749.338 1050.64 748.515 1050.2 748.148C1051.36 750.08 1054.2 752.792 1057.35 754.068C1057.56 759.328 1052.51 760.801 1048.87 760.731C1045.22 760.661 1040.73 757.925 1040.45 755.05C1037.72 757.154 1029.86 758.416 1027.33 756.242C1025.32 754.502 1025.04 752.291 1025.16 751.402L1016.6 747.054C1017.02 750.514 1016.21 757.378 1009.59 757.154C1002.97 756.929 1001.5 754.255 1001.59 752.945C1000.61 755.798 997.134 761.137 991.074 759.679C989.659 759.338 988.546 759.032 987.676 758.759ZM1050.06 747.896C1049.97 747.896 1049.98 747.965 1050.2 748.148C1050.15 748.063 1050.1 747.978 1050.06 747.896Z" fill="#7EF6FF"/>
<path d="M1025.44 750.21C1033.09 750.912 1039.21 749.252 1041.15 747.335C1040.43 749.603 1035.44 754.545 1026.35 753.367C1017.26 752.188 1014.66 745.909 1013.87 743.267C1014.43 744.623 1017.24 749.458 1025.44 750.21Z" fill="#7EF6FF"/>
<defs>
<linearGradient id="paint0_linear_925_2584" x1="742.264" y1="-2848.83" x2="742.264" y2="1010.69" gradientUnits="userSpaceOnUse">
<stop offset="0.411458" stop-color="#F5EAFF"/>
<stop offset="0.71875" stop-color="#74F1FF"/>
<stop offset="1" stop-color="#C1FFFB"/>
</linearGradient>
<linearGradient id="paint1_linear_925_2584" x1="44.6591" y1="704.659" x2="-67.225" y2="756.329" gradientUnits="userSpaceOnUse">
<stop stop-color="white"/>
<stop offset="0.203125" stop-color="#E8F8FF"/>
</linearGradient>
<linearGradient id="paint2_linear_925_2584" x1="731.392" y1="814.64" x2="731.392" y2="2471.85" gradientUnits="userSpaceOnUse">
<stop stop-color="#77FFC9"/>
<stop offset="1" stop-color="#1AFF1A"/>
</linearGradient>
<linearGradient id="paint3_linear_925_2584" x1="1015.49" y1="700.597" x2="1106.97" y2="742.841" gradientUnits="userSpaceOnUse">
<stop stop-color="white"/>
<stop offset="0.203125" stop-color="#E8F8FF"/>
</linearGradient>
</defs>
</svg>
