<svg width="56" height="51" viewBox="0 0 56 51" fill="none" xmlns="http://www.w3.org/2000/svg">
  <path
    d="M46.9252 28.4363C46.9252 28.4363 47.242 27.9087 49.3548 24.1353C53.3309 17.0974 49.0247 13.2712 47.9238 5.60874C47.5202 2.79352 46.8062 -0.171874 45.0876 1.88674C42.2355 5.29853 43.6486 8.37843 44.5836 11.212C43.5326 8.85409 42.5573 8.08408 41.9411 8.6297C40.7824 9.67703 40.5799 13.1566 41.9863 17.0214C41.9863 17.0214 40.7073 14.6817 39.7294 15.3503C37.8914 16.6456 38.7523 20.6181 40.6749 22.6918C42.7796 24.9636 43.3671 26.7706 43.3093 27.7393C43.2669 29.1588 46.647 28.7412 46.9252 28.4363Z"
    fill="#F57AFF" />
  <path fill-rule="evenodd" clip-rule="evenodd"
    d="M21.2747 19.3543C20.1412 18.7324 19.4789 17.9659 19.6183 17.2816C19.8504 16.1423 22.2174 15.6625 24.905 16.2101C25.9088 16.4146 26.8153 16.7335 27.5452 17.1121L27.5458 17.1087C27.778 15.9694 30.1449 15.4896 32.8325 16.0372C34.2701 16.3301 35.5083 16.8576 36.3135 17.4593C37.2668 16.9848 39.1823 17.1788 41.1611 18.0347C42.9093 18.7909 44.2472 19.8648 44.747 20.808C49.5791 23.6492 53.6044 28.194 53.7534 33.8782C54.0153 43.7774 45.1741 49.5829 34.2316 49.8591C23.289 50.1353 14.377 44.8295 14.1151 34.9303C13.987 30.0849 16.1004 25.816 19.5759 22.7188C18.4465 22.0976 17.7871 21.3327 17.9263 20.6498C18.1 19.797 19.4697 19.3138 21.2747 19.3543Z"
    fill="white" />
  <path
    d="M21.2747 19.3543L21.2642 19.8202C21.479 19.825 21.6692 19.6824 21.7248 19.475C21.7804 19.2676 21.6871 19.049 21.4988 18.9457L21.2747 19.3543ZM19.6183 17.2816L19.1617 17.1886V17.1886L19.6183 17.2816ZM24.905 16.2101L24.812 16.6667L24.905 16.2101ZM27.5452 17.1121L27.3305 17.5258C27.4604 17.5932 27.6144 17.5957 27.7464 17.5325C27.8784 17.4693 27.973 17.3477 28.002 17.2043L27.5452 17.1121ZM27.5458 17.1087L27.0892 17.0157L27.089 17.0166L27.5458 17.1087ZM32.8325 16.0372L32.9256 15.5806L32.8325 16.0372ZM36.3135 17.4593L36.0346 17.8326C36.1755 17.9379 36.3637 17.9549 36.5212 17.8765L36.3135 17.4593ZM41.1611 18.0347L40.9761 18.4624L41.1611 18.0347ZM44.747 20.808L44.3352 21.0262C44.3756 21.1024 44.4364 21.166 44.5108 21.2097L44.747 20.808ZM53.7534 33.8782L53.2876 33.8904L53.2876 33.8905L53.7534 33.8782ZM34.2316 49.8591L34.2198 49.3932L34.2316 49.8591ZM14.1151 34.9303L14.581 34.918L14.1151 34.9303ZM19.5759 22.7188L19.886 23.0667C19.9989 22.966 20.056 22.8168 20.039 22.6665C20.022 22.5161 19.9331 22.3834 19.8005 22.3105L19.5759 22.7188ZM17.9263 20.6498L18.3829 20.7429L17.9263 20.6498ZM21.4988 18.9457C20.9638 18.6522 20.5695 18.3397 20.3301 18.0466C20.0888 17.7511 20.0437 17.5279 20.075 17.3746L19.1617 17.1886C19.0535 17.7196 19.2699 18.2218 19.6082 18.6361C19.9485 19.0528 20.4521 19.4345 21.0506 19.7628L21.4988 18.9457ZM20.075 17.3746C20.1012 17.246 20.1937 17.0962 20.4219 16.9449C20.6523 16.7921 20.9915 16.6596 21.4334 16.57C22.3154 16.3912 23.5142 16.4023 24.812 16.6667L24.998 15.7535C23.6081 15.4703 22.2797 15.4475 21.2483 15.6565C20.7335 15.7609 20.2695 15.9276 19.9068 16.1681C19.5419 16.4101 19.2515 16.7475 19.1617 17.1886L20.075 17.3746ZM24.812 16.6667C25.7786 16.8637 26.6435 17.1694 27.3305 17.5258L27.7598 16.6985C26.9871 16.2976 26.0389 15.9655 24.998 15.7535L24.812 16.6667ZM28.002 17.2043L28.0027 17.2008L27.089 17.0166L27.0883 17.02L28.002 17.2043ZM28.0025 17.2018C28.0287 17.0731 28.1212 16.9233 28.3494 16.772C28.5798 16.6192 28.919 16.4867 29.361 16.3971C30.2429 16.2183 31.4418 16.2294 32.7395 16.4938L32.9256 15.5806C31.5357 15.2974 30.2073 15.2746 29.1758 15.4836C28.661 15.588 28.197 15.7547 27.8343 15.9952C27.4694 16.2372 27.1791 16.5746 27.0892 17.0157L28.0025 17.2018ZM32.7395 16.4938C34.1294 16.777 35.2985 17.2826 36.0346 17.8326L36.5925 17.086C35.7181 16.4326 34.4108 15.8832 32.9256 15.5806L32.7395 16.4938ZM36.5212 17.8765C36.8804 17.6977 37.4916 17.6192 38.3001 17.7111C39.0939 17.8014 40.023 18.0502 40.9761 18.4624L41.3461 17.607C40.3204 17.1633 39.3023 16.8871 38.4054 16.7851C37.5231 16.6847 36.6999 16.7464 36.1059 17.0421L36.5212 17.8765ZM40.9761 18.4624C42.6829 19.2007 43.9075 20.219 44.3352 21.0262L45.1588 20.5898C44.587 19.5107 43.1358 18.3811 41.3461 17.607L40.9761 18.4624ZM44.5108 21.2097C49.274 24.0104 53.1445 28.4339 53.2876 33.8904L54.2193 33.866C54.0643 27.954 49.8843 23.288 44.9832 20.4062L44.5108 21.2097ZM53.2876 33.8905C53.4142 38.6801 51.3463 42.4683 47.9103 45.1077C44.4615 47.7568 39.6184 49.2569 34.2198 49.3932L34.2433 50.325C39.7873 50.185 44.8361 48.6443 48.478 45.8468C52.1327 43.0396 54.3544 38.9755 54.2193 33.8659L53.2876 33.8905ZM34.2198 49.3932C28.8205 49.5295 23.9618 48.2869 20.4346 45.8282C16.921 43.379 14.7078 39.7119 14.581 34.918L13.6493 34.9426C13.7843 40.0479 16.1581 43.9833 19.9016 46.5928C23.6315 49.1927 28.7001 50.4649 34.2433 50.325L34.2198 49.3932ZM14.581 34.918C14.4569 30.2248 16.501 26.0831 19.886 23.0667L19.2659 22.3709C15.6997 25.5488 13.5171 29.945 13.6493 34.9426L14.581 34.918ZM17.4696 20.5568C17.3617 21.0868 17.577 21.5881 17.9141 22.0018C18.2531 22.4179 18.755 22.7991 19.3514 23.1271L19.8005 22.3105C19.2675 22.0173 18.8749 21.7055 18.6367 21.4131C18.3965 21.1184 18.3517 20.8958 18.3829 20.7429L17.4696 20.5568ZM21.2851 18.8884C20.3452 18.8673 19.4875 18.981 18.8244 19.231C18.1788 19.4744 17.6044 19.8953 17.4696 20.5568L18.3829 20.7429C18.4219 20.5516 18.6192 20.3044 19.1532 20.1031C19.6695 19.9085 20.3992 19.8008 21.2642 19.8202L21.2851 18.8884Z"
    fill="#003451" />
  <path
    d="M38.2573 37.1221C38.2573 37.1221 39.887 41.1105 40.6549 39.4547C41.0303 38.5691 41.3687 37.4581 41.5827 36.7264C41.5827 36.7264 43.1081 40.1566 44.0406 38.8911C44.9732 37.6256 44.4603 35.471 44.4603 35.471"
    stroke="#003451" stroke-width="0.932036" stroke-linecap="round" stroke-linejoin="round" />
  <path
    d="M31.2995 37.285C32.5468 37.6009 33.8141 36.8454 34.1302 35.5975C34.4464 34.3495 33.6916 33.0817 32.4443 32.7658C31.1971 32.4499 29.9298 33.2054 29.6136 34.4533C29.2975 35.7012 30.0523 36.969 31.2995 37.285Z"
    fill="#003451" />
  <path
    d="M48.5552 34.722C49.8024 35.0379 51.0697 34.2824 51.3859 33.0344C51.702 31.7865 50.9472 30.5187 49.7 30.2028C48.4527 29.8868 47.1854 30.6424 46.8693 31.8903C46.5531 33.1382 47.3079 34.406 48.5552 34.722Z"
    fill="#003451" />
  <path
    d="M24.8104 34.4056C24.8104 34.4056 24.6233 33.8218 23.2209 29.7122C20.6086 22.0557 14.8888 22.7343 8.44042 18.4593C6.07192 16.8939 3.39423 15.4558 3.77315 18.1038C4.44357 22.5107 7.66049 23.4955 10.3936 24.6974C7.93743 23.9187 6.71214 24.1357 6.70946 24.9574C6.70748 26.5347 9.18337 28.981 13.0014 30.5024C13.0014 30.5024 10.406 29.903 10.272 31.0669C10.0095 33.3022 13.5497 35.3029 16.3625 35.2378C19.4705 35.1714 21.1967 35.9395 21.8866 36.6371C22.9043 37.6101 24.8448 34.8166 24.8104 34.4056Z"
    fill="#F57AFF" />
</svg>
