<svg width="225" height="225" viewBox="0 0 225 225" fill="none" xmlns="http://www.w3.org/2000/svg">
<path d="M77.7772 88.7571C48.0546 86.5876 42.1177 106.959 18.336 122.666C9.61722 128.442 0.884621 135.45 10.409 137.979C26.3168 142.053 34.2887 132.564 42.2999 125.028C36.1226 132.234 35.0937 136.701 37.8759 137.894C43.2209 140.172 55.0812 135.3 65.7383 124.546C65.7383 124.546 59.9683 132.482 63.7215 134.613C70.9226 138.722 82.8051 129.6 86.6352 119.969C90.4652 110.338 97.5849 91.2785 77.7772 88.7571Z" fill="url(#paint0_linear_668_2)"/>
<path d="M28.1776 146.054C22.491 182.088 52.011 207.518 91.8488 213.756C131.687 219.994 166.775 204.872 172.462 168.838C178.148 132.804 148.51 101.087 108.513 95.8168C80.9047 92.1954 33.8604 109.989 28.1776 146.054Z" fill="white"/>
<path d="M108.571 169.218C103.864 169.776 99.5963 166.411 99.0378 161.702C98.4794 156.992 101.842 152.722 106.549 152.164C111.256 151.606 115.524 154.971 116.082 159.681C116.641 164.39 113.278 168.66 108.571 169.218Z" fill="#003451"/>
<path d="M158.977 136.614C184.426 152.121 177.42 172.149 187.646 198.752C191.385 208.52 194.419 219.297 185.198 215.821C169.885 209.892 168.912 197.536 166.771 186.748C167.611 196.203 165.852 200.436 162.895 199.79C157.221 198.538 150.4 187.681 147.977 172.735C147.977 172.735 148.06 182.548 143.768 182.1C135.519 181.26 131.15 166.931 133.63 156.867C136.11 146.804 141.391 127.155 158.977 136.614Z" fill="url(#paint1_linear_668_2)"/>
<path d="M46.7626 151.614C42.0559 152.172 37.7877 148.807 37.2292 144.098C36.6708 139.388 40.0337 135.118 44.7404 134.56C49.4471 134.002 53.7154 137.367 54.2738 142.077C54.8322 146.786 51.4693 151.056 46.7626 151.614Z" fill="#003451"/>
<ellipse cx="83.8744" cy="101.654" rx="18.2951" ry="7.75582" transform="rotate(-15.9373 83.8744 101.654)" fill="white"/>
<ellipse cx="113.672" cy="98.6063" rx="18.2951" ry="7.75582" transform="rotate(-4.06291 113.672 98.6063)" fill="white"/>
<ellipse cx="142.543" cy="103.034" rx="18.2951" ry="7.75582" transform="rotate(-4.06291 142.543 103.034)" fill="white"/>
<ellipse cx="147.116" cy="116.144" rx="18.2951" ry="7.75582" transform="rotate(-4.06291 147.116 116.144)" fill="white"/>
<path d="M83.2266 165.308C83.2266 165.308 75.3682 179.098 73.3545 172.683C72.4064 169.269 71.7013 165.049 71.2689 162.274C71.2689 162.274 64.0582 174.075 61.2566 169.007C58.4549 163.938 61.3578 156.313 61.3578 156.313" stroke="#F088FE" stroke-width="2.23535" stroke-linecap="round" stroke-linejoin="round"/>
<path d="M97.0811 57.3496L186.438 99.8149L168.41 137.749C168.41 137.749 165.422 123.5 129.422 107C93.4219 90.5 79.0535 95.2838 79.0535 95.2838L97.0811 57.3496Z" fill="#EFEFEF"/>
<circle cx="154.422" cy="52" r="47" fill="white"/>
<circle cx="103.422" cy="47" r="33" fill="white"/>
<circle cx="187.422" cy="90" r="33" fill="white"/>
<path d="M91.585 81.3905C101.548 84.5312 109.255 80.4686 111.864 78.0447C96.1615 83.6121 82.6245 73.4699 77.8188 67.7029C78.2562 70.9568 81.6219 78.2498 91.585 81.3905Z" fill="#DBDBDB"/>
<path d="M112.484 80.2327C121.197 83.6949 129.705 78.7079 132.869 75.7816C116.274 82.7428 106.033 71.1021 102.987 64.4116C102.522 68.2427 103.77 76.7705 112.484 80.2327Z" fill="#EDEDED"/>
<path d="M152.487 102.712C161.228 106.128 169.904 100.848 173.149 97.7816C156.272 105.232 146.129 93.4217 143.167 86.5855C142.632 90.5377 143.747 99.2961 152.487 102.712Z" fill="#EDEDED"/>
<path d="M172.518 123.282C182.784 127.711 191.398 124.273 194.422 122C177.153 126.14 163.814 113.911 159.304 107.279C159.431 110.768 162.253 118.853 172.518 123.282Z" fill="#DBDBDB"/>
<defs>
<linearGradient id="paint0_linear_668_2" x1="32.4509" y1="98.7435" x2="77.7309" y2="133.149" gradientUnits="userSpaceOnUse">
<stop stop-color="#E0C1FD"/>
<stop offset="1" stop-color="#AD6EF9"/>
</linearGradient>
<linearGradient id="paint1_linear_668_2" x1="190.061" y1="171.081" x2="133.218" y2="172.768" gradientUnits="userSpaceOnUse">
<stop stop-color="#E0C1FD"/>
<stop offset="1" stop-color="#AD6EF9"/>
</linearGradient>
</defs>
</svg>
