<svg width="523" height="331" viewBox="0 0 523 331" fill="none" xmlns="http://www.w3.org/2000/svg">
<path d="M161.085 169.026C118.202 188.052 47.4535 203.159 11.4983 206.514C8.35171 206.808 6.182 209.844 6.99609 212.897L34.6046 316.454C35.2364 318.824 37.4886 320.386 39.9303 320.154C76.0696 316.715 122.095 314.042 195.21 281.665C231.55 265.573 291.192 252.765 328.876 248.297C331.916 247.936 333.954 244.991 333.19 242.026L306.37 137.908C305.766 135.56 303.563 133.985 301.145 134.161C265.969 136.714 231.15 137.941 161.085 169.026Z" fill="#9852F7" stroke="#AD6EF9" stroke-width="4"/>
<path d="M310.239 153.544L392.774 169.481L329.863 220.192" stroke="#AD6EF9"/>
<path d="M51.4804 240.012L60.5969 237.578L61.5071 240.986L52.3906 243.421L51.4804 240.012ZM53.8855 247.716L64.1923 244.964L65.1314 248.481L50.4692 252.396L45.4125 233.46L59.7231 229.638L60.6622 233.155L50.707 235.813L53.8855 247.716ZM74.0351 246.103L60.8087 229.348L65.5428 228.084L77.1634 242.949L74.377 243.693L77.1482 224.985L81.5036 223.822L78.3635 244.947L74.0351 246.103ZM89.1525 229.952L98.2691 227.518L99.1793 230.926L90.0627 233.361L89.1525 229.952ZM91.5576 237.657L101.864 234.904L102.804 238.421L88.1413 242.336L83.0847 223.4L97.3952 219.579L98.3343 223.095L88.3791 225.754L91.5576 237.657ZM106.291 237.49L101.234 218.553L109.431 216.365C111.126 215.912 112.661 215.801 114.037 216.033C115.408 216.247 116.564 216.778 117.506 217.628C118.448 218.478 119.109 219.615 119.489 221.04C119.865 222.447 119.856 223.753 119.464 224.959C119.066 226.147 118.326 227.176 117.244 228.044C116.163 228.913 114.774 229.573 113.079 230.026L107.317 231.565L108.751 229.124L110.673 236.32L106.291 237.49ZM118.329 234.275L111.76 228.668L116.44 227.419L123.063 233.011L118.329 234.275ZM108.881 229.611L106.385 228.075L111.903 226.601C113.256 226.24 114.189 225.682 114.702 224.927C115.21 224.153 115.327 223.253 115.053 222.225C114.773 221.179 114.223 220.456 113.402 220.057C112.58 219.658 111.493 219.639 110.141 220.001L104.622 221.474L106.014 218.871L108.881 229.611ZM130.626 230.991L128.56 223.255L130.269 225.638L118.238 214.013L122.891 212.77L132.115 221.697L129.437 222.412L133.009 210.068L137.31 208.92L132.677 224.995L132.943 222.084L135.009 229.821L130.626 230.991ZM158.17 223.984C156.655 224.389 155.151 224.578 153.656 224.552C152.157 224.508 150.896 224.274 149.875 223.852L150.482 220.154C151.448 220.514 152.531 220.737 153.732 220.822C154.947 220.884 156.122 220.763 157.258 220.46C158.124 220.229 158.797 219.962 159.276 219.66C159.769 219.335 160.101 218.986 160.272 218.612C160.442 218.238 160.475 217.853 160.369 217.456C160.234 216.951 159.929 216.607 159.456 216.425C158.977 216.224 158.389 216.12 157.692 216.113C156.989 216.088 156.22 216.1 155.383 216.15C154.559 216.177 153.717 216.17 152.856 216.129C152.013 216.084 151.214 215.949 150.459 215.726C149.704 215.503 149.032 215.122 148.444 214.583C147.874 214.04 147.454 213.263 147.184 212.253C146.895 211.171 146.921 210.111 147.262 209.073C147.617 208.013 148.31 207.064 149.343 206.228C150.389 205.37 151.804 204.702 153.59 204.225C154.78 203.907 155.991 203.738 157.222 203.719C158.448 203.681 159.578 203.824 160.611 204.147L160.147 207.835C159.129 207.566 158.146 207.433 157.2 207.434C156.249 207.418 155.349 207.523 154.502 207.749C153.654 207.975 152.986 208.26 152.498 208.603C152.01 208.946 151.692 209.311 151.544 209.698C151.392 210.067 151.371 210.459 151.482 210.874C151.612 211.361 151.916 211.705 152.395 211.905C152.868 212.088 153.454 212.183 154.151 212.19C154.849 212.197 155.609 212.187 156.433 212.16C157.275 212.128 158.115 212.126 158.953 212.154C159.809 212.176 160.615 212.299 161.37 212.523C162.125 212.746 162.788 213.129 163.358 213.673C163.946 214.211 164.372 214.976 164.637 215.968C164.921 217.032 164.884 218.086 164.525 219.128C164.166 220.171 163.463 221.122 162.417 221.981C161.389 222.835 159.974 223.502 158.17 223.984ZM170.124 208.33L179.24 205.896L180.151 209.304L171.034 211.739L170.124 208.33ZM172.529 216.034L182.836 213.282L183.775 216.799L169.113 220.714L164.056 201.778L178.367 197.956L179.306 201.473L169.351 204.132L172.529 216.034ZM187.262 215.868L182.205 196.931L190.402 194.743C192.097 194.29 193.633 194.179 195.008 194.411C196.379 194.624 197.536 195.156 198.477 196.006C199.419 196.856 200.08 197.993 200.461 199.418C200.836 200.824 200.828 202.131 200.435 203.337C200.037 204.525 199.298 205.553 198.216 206.422C197.134 207.291 195.745 207.951 194.05 208.404L188.288 209.943L189.723 207.502L191.644 214.698L187.262 215.868ZM199.3 212.653L192.731 207.046L197.411 205.796L204.034 211.389L199.3 212.653ZM189.853 207.989L187.356 206.453L192.875 204.979C194.227 204.618 195.16 204.06 195.673 203.304C196.182 202.531 196.299 201.63 196.024 200.602C195.745 199.556 195.195 198.834 194.373 198.435C193.552 198.036 192.465 198.017 191.112 198.378L185.593 199.852L186.985 197.249L189.853 207.989ZM212.836 209.039L199.609 192.284L204.343 191.02L215.964 205.885L213.178 206.629L215.949 187.921L220.304 186.758L217.164 207.883L212.836 209.039ZM227.953 192.888L237.07 190.453L237.98 193.862L228.863 196.296L227.953 192.888ZM230.358 200.592L240.665 197.84L241.604 201.357L226.942 205.272L221.885 186.335L236.196 182.514L237.135 186.031L227.18 188.689L230.358 200.592ZM245.091 200.425L240.034 181.489L248.231 179.3C249.926 178.847 251.462 178.737 252.838 178.969C254.208 179.182 255.365 179.714 256.307 180.564C257.248 181.413 257.909 182.551 258.29 183.975C258.666 185.382 258.657 186.689 258.264 187.895C257.867 189.083 257.127 190.111 256.045 190.98C254.963 191.848 253.575 192.509 251.879 192.961L246.117 194.5L247.552 192.059L249.474 199.255L245.091 200.425ZM257.129 197.211L250.56 191.604L255.24 190.354L261.863 195.947L257.129 197.211ZM247.682 192.546L245.185 191.01L250.704 189.537C252.057 189.176 252.989 188.617 253.503 187.862C254.011 187.089 254.128 186.188 253.853 185.16C253.574 184.114 253.024 183.392 252.202 182.993C251.381 182.594 250.294 182.575 248.941 182.936L243.423 184.41L244.814 181.807L247.682 192.546ZM265.068 199.554L265.12 192.585L266.365 194.86C265.59 195.068 264.889 195.013 264.264 194.697C263.657 194.376 263.247 193.819 263.035 193.025C262.823 192.232 262.907 191.533 263.287 190.93C263.667 190.326 264.226 189.925 264.966 189.728C265.723 189.525 266.41 189.603 267.027 189.96C267.64 190.299 268.049 190.856 268.256 191.631C268.319 191.866 268.363 192.105 268.39 192.349C268.412 192.575 268.412 192.865 268.39 193.218C268.382 193.549 268.335 193.987 268.248 194.532L267.747 198.839L265.068 199.554ZM57.0102 286.876L60.3937 265.686L64.7221 264.53L78.2461 281.205L73.6472 282.433L62.2575 267.564L63.9889 267.102L61.5008 285.677L57.0102 286.876ZM60.1467 281.691L60.4214 278.053L70.1602 275.453L72.239 278.462L60.1467 281.691ZM80.2107 280.681L75.154 261.744L78.779 260.776L93.5924 271.427L91.834 271.896L88.1932 258.262L92.5215 257.106L97.5782 276.043L93.9802 277.004L79.1399 266.36L80.8983 265.89L84.5391 279.525L80.2107 280.681ZM106.766 273.589L104.7 265.853L106.408 268.236L94.3777 256.611L99.0307 255.368L108.254 264.295L105.576 265.01L109.148 252.666L113.449 251.518L108.816 267.593L109.082 264.682L111.148 272.419L106.766 273.589ZM128.001 267.919L122.944 248.982L127.327 247.812L131.43 263.178L140.925 260.642L141.879 264.213L128.001 267.919ZM141.944 264.196L145.328 243.005L149.656 241.849L163.18 258.525L158.581 259.753L147.192 244.884L148.923 244.422L146.435 262.996L141.944 264.196ZM145.081 259.011L145.356 255.373L155.094 252.772L157.173 255.782L145.081 259.011ZM165.145 258L160.088 239.064L163.713 238.096L178.526 248.747L176.768 249.216L173.127 235.582L177.456 234.426L182.512 253.363L178.914 254.323L164.074 243.68L165.832 243.21L169.473 256.844L165.145 258ZM196.223 250.049C194.726 250.449 193.284 250.583 191.896 250.451C190.522 250.296 189.248 249.902 188.074 249.269C186.918 248.631 185.92 247.787 185.079 246.736C184.256 245.681 183.654 244.44 183.274 243.016C182.893 241.591 182.797 240.216 182.984 238.891C183.189 237.561 183.643 236.329 184.344 235.195C185.046 234.061 185.966 233.091 187.103 232.285C188.235 231.461 189.559 230.846 191.074 230.442C192.751 229.994 194.332 229.871 195.816 230.074C197.318 230.272 198.67 230.78 199.874 231.598L197.754 234.947C196.876 234.408 195.986 234.076 195.083 233.95C194.175 233.806 193.243 233.862 192.287 234.117C191.368 234.363 190.567 234.731 189.887 235.222C189.207 235.713 188.659 236.303 188.245 236.993C187.848 237.679 187.595 238.432 187.486 239.254C187.395 240.07 187.47 240.929 187.71 241.831C187.946 242.715 188.307 243.488 188.793 244.15C189.298 244.808 189.895 245.344 190.585 245.758C191.289 246.15 192.049 246.392 192.865 246.483C193.7 246.569 194.568 246.492 195.469 246.251C196.335 246.02 197.138 245.661 197.877 245.173C198.629 244.663 199.304 243.971 199.902 243.097L203.236 245.597C202.415 246.647 201.374 247.563 200.115 248.343C198.873 249.119 197.575 249.688 196.223 250.049ZM199.08 246.098L197.18 238.983L201.184 237.914L203.236 245.597L199.08 246.098ZM216.363 244.671C213.676 245.389 211.375 245.201 209.46 244.109C207.545 243.017 206.217 241.082 205.476 238.304L202.644 227.7L207.026 226.53L209.815 236.972C210.296 238.775 211.013 239.975 211.964 240.571C212.915 241.167 214.058 241.287 215.393 240.931C216.727 240.574 217.659 239.901 218.186 238.91C218.714 237.919 218.737 236.521 218.255 234.718L215.467 224.276L219.795 223.12L222.627 233.724C223.368 236.502 223.181 238.841 222.066 240.743C220.951 242.644 219.05 243.954 216.363 244.671ZM226.297 241.67L229.681 220.48L234.009 219.324L247.533 236L242.934 237.228L231.545 222.359L233.276 221.897L230.788 240.471L226.297 241.67ZM229.434 236.486L229.708 232.848L239.447 230.247L241.526 233.257L229.434 236.486ZM258.464 233.429C256.967 233.828 255.525 233.962 254.137 233.831C252.763 233.676 251.489 233.282 250.315 232.649C249.159 232.011 248.161 231.166 247.32 230.116C246.497 229.06 245.895 227.82 245.515 226.395C245.134 224.971 245.038 223.596 245.225 222.27C245.43 220.941 245.884 219.708 246.585 218.574C247.287 217.44 248.207 216.47 249.344 215.664C250.476 214.84 251.8 214.226 253.315 213.821C254.992 213.373 256.573 213.251 258.057 213.453C259.558 213.651 260.911 214.16 262.115 214.978L259.995 218.326C259.117 217.788 258.227 217.456 257.324 217.33C256.416 217.186 255.484 217.241 254.528 217.497C253.608 217.742 252.808 218.11 252.128 218.601C251.448 219.092 250.9 219.683 250.485 220.373C250.089 221.059 249.836 221.812 249.727 222.633C249.636 223.45 249.711 224.309 249.951 225.211C250.187 226.094 250.548 226.867 251.034 227.53C251.538 228.187 252.136 228.723 252.826 229.138C253.53 229.53 254.29 229.771 255.106 229.862C255.941 229.948 256.809 229.871 257.71 229.63C258.576 229.399 259.379 229.04 260.118 228.553C260.87 228.043 261.545 227.351 262.143 226.476L265.477 228.977C264.656 230.027 263.615 230.942 262.356 231.723C261.114 232.499 259.816 233.067 258.464 233.429ZM261.321 229.478L259.421 222.363L263.425 221.294L265.477 228.977L261.321 229.478ZM271.115 217.588L280.232 215.154L281.142 218.563L272.025 220.997L271.115 217.588ZM273.52 225.293L283.827 222.541L284.766 226.057L270.104 229.973L265.047 211.036L279.358 207.215L280.297 210.732L270.342 213.39L273.52 225.293ZM289.874 224.925C289.152 225.118 288.465 225.041 287.812 224.693C287.172 224.323 286.749 223.75 286.542 222.975C286.334 222.199 286.421 221.51 286.801 220.906C287.194 220.279 287.751 219.87 288.472 219.677C289.212 219.48 289.899 219.557 290.534 219.909C291.164 220.243 291.583 220.798 291.79 221.573C291.997 222.349 291.915 223.057 291.545 223.696C291.17 224.318 290.613 224.728 289.874 224.925Z" fill="#F2FBFF"/>
<path d="M470.922 160.107C480.339 161.966 481.051 167.028 485.805 165.982C488.418 165.407 490.786 160.867 490.802 158.692C490.831 152.555 478.555 146.556 469.739 147.799C460.923 149.042 462.145 158.368 470.922 160.107Z" fill="#9556E1"/>
<path d="M412.277 170.225C411.05 179.746 406.054 180.792 407.416 185.473C408.164 188.034 412.819 190.102 415.019 189.94C421.141 189.56 426.313 176.897 424.475 168.182C422.636 159.468 413.42 161.334 412.277 170.225Z" fill="#9556E1"/>
<path d="M392.001 139.186C388.255 139.245 383.29 139.507 380.098 128.815C377.468 120.001 379.073 104.232 386.415 106.268C392.297 107.896 389.825 113.398 389.916 121.98C390.006 130.562 397.318 131.643 397.318 131.643L392.001 139.186Z" fill="#9556E1"/>
<path fill-rule="evenodd" clip-rule="evenodd" d="M390.459 142.946C389.581 142.837 388.887 142.507 388.448 141.937C386.714 139.687 389.613 134.546 394.922 130.457C399.999 126.547 405.44 125.012 407.424 126.852C413.416 126.157 421.19 127.67 432.048 130.138C441.846 132.366 447.811 130.593 452.595 129.172C459.121 127.233 463.448 125.947 472.302 136.355C472.302 136.355 476.904 153.215 468.06 165.465C468.455 168.032 465.675 172.313 461.121 175.821C455.812 179.911 450.102 181.401 448.368 179.151C447.934 178.587 447.79 177.842 447.902 176.978L447.791 176.998C442.91 180.313 438.011 181.377 436.428 179.322C436.133 178.939 435.972 178.473 435.935 177.943C435.666 177.942 435.395 177.939 435.122 177.934C431.467 179.681 428.253 179.96 427.027 178.368C426.847 178.134 426.717 177.869 426.634 177.577C423.171 179.131 420.173 179.323 418.998 177.799C418.717 177.433 418.557 176.992 418.511 176.49C416.092 177.17 414.131 177.007 413.234 175.843C413.111 175.683 413.01 175.507 412.933 175.319C410.586 175.948 408.691 175.768 407.813 174.628C407.618 174.376 407.482 174.086 407.401 173.766C405.099 174.365 403.244 174.173 402.378 173.05C401.88 172.403 401.764 171.518 401.979 170.487C398.171 168.171 395.431 165.471 393.522 162.617C392.389 162.59 391.499 162.252 390.973 161.57C390.291 160.684 390.326 159.352 390.943 157.812C389.835 157.776 388.965 157.437 388.448 156.766C387.466 155.491 387.97 153.289 389.557 150.876C389.099 150.703 388.724 150.44 388.448 150.083C387.299 148.591 388.185 145.829 390.459 142.946Z" fill="url(#paint0_radial_3_2709)"/>
<path d="M394.237 161.139C388.353 168.727 383.519 167.096 382.322 171.823C381.664 174.417 384.636 178.557 386.593 179.553C392.058 182.334 402.927 174.045 405.762 165.591C408.598 157.138 399.728 154.061 394.237 161.139Z" fill="#AD6EF9"/>
<path d="M459.007 171.837C466.422 177.958 464.641 182.73 469.339 184.092C471.907 184.828 476.137 181.976 477.185 180.049C480.127 174.658 472.156 163.546 463.803 160.466C455.45 157.387 452.099 166.146 459.007 171.837Z" fill="#AD6EF9"/>
<path d="M492.411 83.109C492.411 83.109 493.349 81.546 499.608 70.368C511.387 49.5193 498.63 38.1848 495.369 15.4858C494.173 7.14607 492.058 -1.63848 486.967 4.45986C478.518 14.5668 482.704 23.6905 485.474 32.0847C482.36 25.0996 479.471 22.8186 477.646 24.4349C474.213 27.5375 473.614 37.8453 477.78 49.2942C477.78 49.2942 473.991 42.3632 471.094 44.3436C465.649 48.181 468.2 59.9488 473.895 66.0918C480.13 72.8217 481.87 78.1748 481.699 81.0443C481.573 85.2493 491.586 84.0123 492.411 83.109Z" fill="url(#paint1_linear_3_2709)"/>
<path d="M512.663 99.2303C513.439 128.555 487.248 145.753 454.832 146.571C422.417 147.39 396.016 131.672 395.24 102.347C394.465 73.022 421.406 50.8241 453.847 50.7935C476.238 50.7857 511.894 69.8804 512.663 99.2303Z" fill="white"/>
<path d="M466.754 108.842C466.754 108.842 471.581 120.657 473.856 115.751C474.968 113.128 475.97 109.837 476.605 107.67C476.605 107.67 481.123 117.831 483.886 114.082C486.648 110.333 485.129 103.95 485.129 103.95" stroke="#F088FE" stroke-width="1.83971" stroke-linecap="round" stroke-linejoin="round"/>
<path d="M446.125 109.319C449.82 110.255 453.574 108.017 454.511 104.32C455.447 100.624 453.211 96.8679 449.516 95.932C445.822 94.996 442.067 97.2342 441.131 100.931C440.194 104.628 442.43 108.383 446.125 109.319Z" fill="#003451"/>
<path d="M426.919 100.791C426.919 100.791 426.364 99.062 422.21 86.8878C414.472 64.2065 397.527 66.2167 378.425 53.5527C371.409 48.9154 363.477 44.6551 364.599 52.4996C366.585 65.5545 376.115 68.4717 384.211 72.032C376.935 69.7255 373.305 70.3682 373.297 72.8024C373.292 77.4747 380.626 84.7216 391.936 89.2285C391.936 89.2285 384.248 87.4529 383.851 90.9007C383.073 97.5225 393.561 103.449 401.893 103.256C411.1 103.06 416.214 105.335 418.257 107.402C421.272 110.284 427.021 102.009 426.919 100.791Z" fill="url(#paint2_linear_3_2709)"/>
<path d="M497.261 101.73C500.956 102.666 504.711 100.428 505.647 96.7308C506.584 93.034 504.348 89.2783 500.653 88.3424C496.958 87.4064 493.204 89.6446 492.267 93.3414C491.331 97.0382 493.567 100.794 497.261 101.73Z" fill="#003451"/>
<ellipse cx="14.7121" cy="6.23685" rx="14.7121" ry="6.23685" transform="matrix(-0.917822 -0.396992 -0.396992 0.917822 488.857 58.1357)" fill="white"/>
<ellipse cx="14.7121" cy="6.23685" rx="14.7121" ry="6.23685" transform="matrix(-0.97987 -0.199639 -0.199639 0.97987 465.087 49.311)" fill="white"/>
<ellipse cx="14.7121" cy="6.23685" rx="14.7121" ry="6.23685" transform="matrix(-0.97987 -0.199639 -0.199639 0.97987 441.605 49.8325)" fill="white"/>
<ellipse cx="14.7121" cy="6.23685" rx="14.7121" ry="6.23685" transform="matrix(-0.97987 -0.199639 -0.199639 0.97987 436.596 59.8032)" fill="white"/>
<defs>
<radialGradient id="paint0_radial_3_2709" cx="0" cy="0" r="1" gradientUnits="userSpaceOnUse" gradientTransform="translate(437.18 138.959) rotate(98.8628) scale(41.9126 165.183)">
<stop stop-color="#C8EBFF"/>
<stop offset="0.322917" stop-color="white"/>
<stop offset="1" stop-color="white"/>
</radialGradient>
<linearGradient id="paint1_linear_3_2709" x1="498.692" y1="4.55295" x2="478.992" y2="82.3216" gradientUnits="userSpaceOnUse">
<stop stop-color="#E0C1FD"/>
<stop offset="1" stop-color="#AD6EF9"/>
</linearGradient>
<linearGradient id="paint2_linear_3_2709" x1="400.569" y1="56.479" x2="389.339" y2="100.809" gradientUnits="userSpaceOnUse">
<stop stop-color="#E0C1FD"/>
<stop offset="1" stop-color="#AD6EF9"/>
</linearGradient>
</defs>
</svg>
