<svg width="523" height="331" viewBox="0 0 523 331" fill="none" xmlns="http://www.w3.org/2000/svg">
<path d="M161.085 169.026C118.202 188.052 47.4535 203.159 11.4983 206.514C8.35171 206.808 6.182 209.844 6.99609 212.897L34.6046 316.454C35.2364 318.824 37.4886 320.386 39.9303 320.154C76.0696 316.715 122.095 314.042 195.21 281.665C231.55 265.573 291.192 252.765 328.876 248.297C331.916 247.936 333.954 244.991 333.19 242.026L306.37 137.908C305.766 135.56 303.563 133.985 301.145 134.161C265.969 136.714 231.15 137.941 161.085 169.026Z" fill="#9852F7" stroke="#AD6EF9" stroke-width="4"/>
<path d="M310.239 153.544L392.774 169.481L329.863 220.192" stroke="#AD6EF9"/>
<text transform="translate(41 225.944) rotate(-14.9511)" fill="#F2FBFF" xml:space="preserve" style="white-space: pre" font-family="Montserrat" font-size="28" font-weight="bold" letter-spacing="0em"><tspan x="0" y="27.538">EVERY SERVER,&#10;</tspan><tspan x="0" y="62.538">ANY LANGUAGE.</tspan></text>
<path d="M470.922 160.107C480.339 161.966 481.051 167.028 485.805 165.982C488.418 165.407 490.786 160.867 490.802 158.692C490.831 152.555 478.555 146.556 469.739 147.799C460.923 149.042 462.145 158.368 470.922 160.107Z" fill="#9556E1"/>
<path d="M412.277 170.225C411.05 179.746 406.054 180.792 407.416 185.473C408.164 188.034 412.819 190.102 415.019 189.94C421.141 189.56 426.313 176.897 424.475 168.182C422.636 159.468 413.42 161.334 412.277 170.225Z" fill="#9556E1"/>
<path d="M392.001 139.186C388.255 139.245 383.29 139.507 380.098 128.815C377.468 120.001 379.073 104.232 386.415 106.268C392.297 107.896 389.825 113.398 389.916 121.98C390.006 130.562 397.318 131.643 397.318 131.643L392.001 139.186Z" fill="#9556E1"/>
<path fill-rule="evenodd" clip-rule="evenodd" d="M390.459 142.946C389.581 142.837 388.887 142.507 388.448 141.937C386.714 139.687 389.613 134.546 394.922 130.457C399.999 126.547 405.44 125.012 407.424 126.852C413.416 126.157 421.19 127.67 432.048 130.138C441.846 132.366 447.811 130.593 452.595 129.172C459.121 127.233 463.448 125.947 472.302 136.355C472.302 136.355 476.904 153.215 468.06 165.465C468.455 168.032 465.675 172.313 461.121 175.821C455.812 179.911 450.102 181.401 448.368 179.151C447.934 178.587 447.79 177.842 447.902 176.978L447.791 176.998C442.91 180.313 438.011 181.377 436.428 179.322C436.133 178.939 435.972 178.473 435.935 177.943C435.666 177.942 435.395 177.939 435.122 177.934C431.467 179.681 428.253 179.96 427.027 178.368C426.847 178.134 426.717 177.869 426.634 177.577C423.171 179.131 420.173 179.323 418.998 177.799C418.717 177.433 418.557 176.992 418.511 176.49C416.092 177.17 414.131 177.007 413.234 175.843C413.111 175.683 413.01 175.507 412.933 175.319C410.586 175.948 408.691 175.768 407.813 174.628C407.618 174.376 407.482 174.086 407.401 173.766C405.099 174.365 403.244 174.173 402.378 173.05C401.88 172.403 401.764 171.518 401.979 170.487C398.171 168.171 395.431 165.471 393.522 162.617C392.389 162.59 391.499 162.252 390.973 161.57C390.291 160.684 390.326 159.352 390.943 157.812C389.835 157.776 388.965 157.437 388.448 156.766C387.466 155.491 387.97 153.289 389.557 150.876C389.099 150.703 388.723 150.44 388.448 150.083C387.299 148.591 388.185 145.829 390.459 142.946Z" fill="url(#paint0_radial_3_2709)"/>
<path d="M394.237 161.139C388.353 168.727 383.519 167.096 382.322 171.823C381.664 174.417 384.636 178.557 386.593 179.553C392.058 182.334 402.927 174.045 405.762 165.591C408.598 157.138 399.728 154.061 394.237 161.139Z" fill="#AD6EF9"/>
<path d="M459.007 171.837C466.422 177.958 464.641 182.73 469.339 184.092C471.907 184.828 476.137 181.976 477.185 180.049C480.127 174.658 472.156 163.546 463.803 160.466C455.45 157.387 452.099 166.146 459.007 171.837Z" fill="#AD6EF9"/>
<path d="M492.411 83.109C492.411 83.109 493.349 81.546 499.608 70.368C511.387 49.5193 498.63 38.1848 495.369 15.4858C494.173 7.14607 492.058 -1.63848 486.967 4.45986C478.518 14.5668 482.704 23.6905 485.474 32.0847C482.36 25.0996 479.471 22.8186 477.646 24.4349C474.213 27.5375 473.614 37.8453 477.78 49.2942C477.78 49.2942 473.991 42.3632 471.094 44.3436C465.649 48.181 468.2 59.9488 473.895 66.0918C480.13 72.8217 481.87 78.1748 481.699 81.0443C481.573 85.2493 491.586 84.0123 492.411 83.109Z" fill="url(#paint1_linear_3_2709)"/>
<path d="M512.663 99.2303C513.439 128.555 487.248 145.753 454.832 146.571C422.417 147.39 396.016 131.672 395.24 102.347C394.465 73.022 421.406 50.8241 453.847 50.7935C476.238 50.7857 511.894 69.8804 512.663 99.2303Z" fill="white"/>
<path d="M466.754 108.842C466.754 108.842 471.581 120.657 473.856 115.751C474.968 113.128 475.97 109.837 476.605 107.67C476.605 107.67 481.123 117.831 483.886 114.082C486.648 110.333 485.129 103.95 485.129 103.95" stroke="#F088FE" stroke-width="1.83971" stroke-linecap="round" stroke-linejoin="round"/>
<path d="M446.125 109.319C449.82 110.255 453.574 108.017 454.511 104.32C455.447 100.624 453.211 96.8679 449.516 95.932C445.822 94.996 442.067 97.2342 441.131 100.931C440.194 104.628 442.43 108.383 446.125 109.319Z" fill="#003451"/>
<path d="M426.919 100.791C426.919 100.791 426.364 99.062 422.21 86.8878C414.472 64.2065 397.527 66.2167 378.425 53.5527C371.409 48.9154 363.477 44.6551 364.599 52.4996C366.585 65.5545 376.115 68.4717 384.211 72.032C376.935 69.7255 373.305 70.3682 373.297 72.8024C373.292 77.4747 380.626 84.7216 391.936 89.2285C391.936 89.2285 384.248 87.4529 383.851 90.9007C383.073 97.5225 393.561 103.449 401.893 103.256C411.1 103.06 416.214 105.335 418.257 107.402C421.272 110.284 427.021 102.009 426.919 100.791Z" fill="url(#paint2_linear_3_2709)"/>
<path d="M497.261 101.73C500.956 102.666 504.711 100.428 505.647 96.7308C506.584 93.034 504.348 89.2783 500.653 88.3424C496.958 87.4064 493.204 89.6446 492.267 93.3414C491.331 97.0382 493.567 100.794 497.261 101.73Z" fill="#003451"/>
<ellipse cx="14.7121" cy="6.23685" rx="14.7121" ry="6.23685" transform="matrix(-0.917822 -0.396992 -0.396992 0.917822 488.857 58.1357)" fill="white"/>
<ellipse cx="14.7121" cy="6.23685" rx="14.7121" ry="6.23685" transform="matrix(-0.97987 -0.199639 -0.199639 0.97987 465.087 49.311)" fill="white"/>
<ellipse cx="14.7121" cy="6.23685" rx="14.7121" ry="6.23685" transform="matrix(-0.97987 -0.199639 -0.199639 0.97987 441.605 49.8325)" fill="white"/>
<ellipse cx="14.7121" cy="6.23685" rx="14.7121" ry="6.23685" transform="matrix(-0.97987 -0.199639 -0.199639 0.97987 436.596 59.8032)" fill="white"/>
<defs>
<radialGradient id="paint0_radial_3_2709" cx="0" cy="0" r="1" gradientUnits="userSpaceOnUse" gradientTransform="translate(437.18 138.959) rotate(98.8628) scale(41.9126 165.183)">
<stop stop-color="#C8EBFF"/>
<stop offset="0.322917" stop-color="white"/>
<stop offset="1" stop-color="white"/>
</radialGradient>
<linearGradient id="paint1_linear_3_2709" x1="498.692" y1="4.55295" x2="478.992" y2="82.3216" gradientUnits="userSpaceOnUse">
<stop stop-color="#E0C1FD"/>
<stop offset="1" stop-color="#AD6EF9"/>
</linearGradient>
<linearGradient id="paint2_linear_3_2709" x1="400.569" y1="56.479" x2="389.339" y2="100.809" gradientUnits="userSpaceOnUse">
<stop stop-color="#E0C1FD"/>
<stop offset="1" stop-color="#AD6EF9"/>
</linearGradient>
</defs>
</svg>
