<svg width="1414" height="230" viewBox="0 0 1414 230" fill="none" xmlns="http://www.w3.org/2000/svg">
<g clip-path="url(#clip0_52_1110)">
<rect x="-317" y="-245" width="2080" height="326" fill="#E6F7FF"/>
<path d="M-112.515 78.7136C-112.515 78.7136 -122.163 234.969 33.1629 152.974C67.5817 212.541 175.291 194.01 186.549 141.412C201.929 173.163 287.633 189.377 318.697 127.746C373.337 167.372 426.275 127.911 425.783 99.923C424.881 50.398 361.143 68.1086 361.143 68.1086C361.143 68.1086 337.993 -6.17854 260.808 45.9156C236.702 2.51293 172.063 6.36629 139.265 46.8718C127.703 8.27951 45.708 -4.23842 13.8666 42.0614C-23.7691 1.52856 -106.748 27.5761 -112.515 78.7136Z" fill="#E6F7FF"/>
<path d="M410.814 49.8555C410.814 49.8555 412.873 53.9819 416.616 60.2117C394.763 108.301 474.322 144.847 519.666 105.343C565.8 132.015 619.123 116.167 634.277 96.7044C660.213 112.552 707.062 122.416 733.018 86.4932C748.582 105.343 805.332 109.459 813.034 65.7033C812.36 28.698 764.735 41.9314 764.735 41.9314C764.735 41.9314 747.437 -13.5764 689.764 25.3487C671.751 -7.08209 623.453 -4.20283 598.946 26.0631C590.307 -2.77326 529.04 -12.1267 505.248 22.4688C477.126 -7.81761 415.124 11.6452 410.814 49.8555Z" fill="#E6F7FF"/>
<path fill-rule="evenodd" clip-rule="evenodd" d="M718.32 101.762C691.994 118.64 656.751 109.677 635.521 96.7044C620.367 116.167 567.044 132.015 520.91 105.343C491.603 130.876 448.002 124.639 426.728 104.05C422.39 131.538 371.936 165.446 319.941 127.739C288.877 189.369 203.173 173.155 187.793 141.404C176.535 194.002 68.8258 212.533 34.407 152.966C3.9418 169.048 -20.1769 175.965 -39.2666 176.693C-32.6339 154.223 -19.7301 106.442 -12.8261 80.5134C-3.75379 91.1299 19.2551 111.9 38.7123 110.047C48.5567 123.365 95.4623 157.531 138.314 138.422C172.596 123.134 184.255 108.502 185.799 103.098C205.874 111.205 252.857 123.25 280.19 106.572C307.522 89.8945 312.425 82.2507 311.46 80.5134C321.884 90.9369 349.564 110.047 376.896 103.098C404.229 96.1486 418.011 89.3927 421.486 86.8833C430.172 93.4462 453.914 104.256 479.394 94.9905C504.874 85.7251 512.788 76.0738 513.56 72.4062C523.211 82.6367 552.243 101.476 591.157 94.9905C630.071 88.5047 636.325 82.6367 634.588 80.5134C649.065 93.4462 685.432 116.069 715.081 103.098C716.286 102.57 717.363 102.127 718.32 101.762Z" fill="#7EF6FF"/>
<path d="M207.745 94.3163C203.459 94.7148 187.375 108.534 156.577 102.752C181.95 119.589 200.884 103.62 207.745 94.3163Z" fill="#7EF6FF"/>
<path d="M322.849 74.9748C297.257 90.6438 283.274 99.1501 245.742 84.3581C291.512 114.728 310.473 91.7563 322.849 74.9748Z" fill="#7EF6FF"/>
<path d="M381.031 72.3885C408.376 84.7484 423.308 91.4472 458.706 72.0963C417.075 107.93 395.401 87.4981 381.031 72.3885Z" fill="#7EF6FF"/>
<path d="M329.404 82.5615C356.749 94.9213 394.043 106.025 429.441 86.6739C387.81 122.508 343.774 97.6711 329.404 82.5615Z" fill="#7EF6FF"/>
<path opacity="0.25" d="M137.8 65.4925C148.655 70.3994 163.461 74.8074 177.514 67.1251C160.986 81.351 143.505 71.491 137.8 65.4925Z" fill="#7EF6FF"/>
<path d="M13.3144 82.5135C40.6589 94.8734 55.5916 101.572 90.9894 82.2213C49.3586 118.055 27.6844 97.6231 13.3144 82.5135Z" fill="#7EF6FF"/>
<path d="M69.4843 71.8885C96.8288 84.2484 111.762 90.9472 147.159 71.5963C105.529 107.43 83.8543 86.9981 69.4843 71.8885Z" fill="#7EF6FF"/>
<path d="M1568.01 82.5368C1568.01 82.5368 1576.19 215.012 1444.51 145.495C1415.32 195.997 1324.01 180.287 1314.46 135.694C1301.42 162.612 1228.76 176.359 1202.43 124.108C1156.1 157.703 1111.22 124.247 1111.64 100.518C1112.4 58.5304 1166.44 73.5457 1166.44 73.5457C1166.44 73.5457 1186.07 10.564 1251.5 54.7302C1271.94 17.9328 1326.74 21.1997 1354.55 55.5409C1364.35 22.8218 1433.87 12.2089 1460.87 51.4626C1492.77 17.0982 1563.12 39.1817 1568.01 82.5368Z" fill="#E6F7FF"/>
<path d="M1124.33 58.0695C1124.33 58.0695 1122.58 61.5679 1119.41 66.8496C1137.93 107.62 1070.48 138.605 1032.04 105.113C992.927 127.725 947.719 114.289 934.872 97.7886C912.883 111.225 866.431 111.565 844.425 81.109C832.151 93.3828 807.112 103.202 783.319 71.5055C783.89 40.1318 824.268 51.3513 824.268 51.3513C824.268 51.3513 838.933 4.29102 887.829 37.2922C903.1 9.797 944.049 12.2381 964.826 37.898C972.15 13.4501 1024.09 5.52007 1044.26 34.8506C1068.11 9.17341 1120.67 25.6743 1124.33 58.0695Z" fill="#E6F7FF"/>
<path fill-rule="evenodd" clip-rule="evenodd" d="M850.524 89.6996C872.613 119.473 911.967 111.131 933.817 97.7808C946.664 114.281 991.872 127.717 1030.99 105.105C1055.83 126.752 1092.8 121.464 1110.83 104.007C1114.51 127.312 1157.29 156.061 1201.37 124.092C1227.71 176.343 1300.37 162.597 1313.41 135.678C1322.95 180.271 1414.27 195.982 1443.45 145.48C1469.28 159.115 1489.73 164.979 1505.91 165.596C1500.29 146.546 1489.35 106.036 1483.5 84.053C1475.8 93.0539 1456.3 110.663 1439.8 109.092C1431.45 120.384 1391.69 149.35 1355.36 133.148C1326.29 120.187 1316.41 107.782 1315.1 103.2C1298.08 110.074 1258.25 120.285 1235.07 106.146C1211.9 92.0065 1207.74 85.5259 1208.56 84.053C1199.72 92.8902 1176.26 109.092 1153.08 103.2C1129.91 97.3088 1118.23 91.581 1115.28 89.4535C1107.92 95.0177 1087.79 104.182 1066.18 96.3269C1044.58 88.4716 1037.87 80.2891 1037.22 77.1797C1029.04 85.8532 1004.42 101.826 971.431 96.3269C938.438 90.8282 933.136 85.8532 934.609 84.053C922.335 95.0177 892.146 104.379 867.009 93.3812C853.352 87.4063 848.304 79.8083 847.8 80.0984C847.518 80.261 848.665 82.9027 850.524 89.6996Z" fill="#7EF6FF"/>
<path d="M1296.49 95.7607C1300.13 96.0986 1313.76 107.815 1339.88 102.913C1318.36 117.187 1302.31 103.648 1296.49 95.7607Z" fill="#7EF6FF"/>
<path d="M1198.91 79.3636C1220.6 92.648 1232.46 99.8597 1264.28 87.3189C1225.47 113.067 1209.4 93.5912 1198.91 79.3636Z" fill="#7EF6FF"/>
<path d="M1149.58 77.1805C1126.4 87.6593 1113.74 93.3387 1083.73 76.9327C1119.02 107.313 1137.4 89.9906 1149.58 77.1805Z" fill="#7EF6FF"/>
<path d="M1193.35 85.791C1170.16 96.2699 1138.55 105.684 1108.54 89.2776C1143.83 119.658 1181.16 98.6011 1193.35 85.791Z" fill="#7EF6FF"/>
<path opacity="0.25" d="M1355.79 71.3247C1346.59 75.4848 1334.04 79.2219 1322.12 72.7088C1336.13 84.7697 1350.96 76.4103 1355.79 71.3247Z" fill="white"/>
<path d="M1461.33 85.7586C1438.15 96.2375 1425.49 101.917 1395.48 85.5108C1430.78 115.891 1449.15 98.5687 1461.33 85.7586Z" fill="#7EF6FF"/>
<path d="M1413.71 76.7508C1390.53 87.2296 1377.87 92.909 1347.86 76.503C1383.15 106.883 1401.53 89.5609 1413.71 76.7508Z" fill="#7EF6FF"/>
</g>
<defs>
<clipPath id="clip0_52_1110">
<rect width="1414" height="230" fill="white"/>
</clipPath>
</defs>
</svg>
