<svg width="1414" height="640" viewBox="0 0 1414 640" fill="none" xmlns="http://www.w3.org/2000/svg">
<g clip-path="url(#clip0_52_1053)">
<path opacity="0.8" d="M354.419 622.091C363.412 606.522 374.633 570.55 347.574 551.222C320.515 531.895 303.013 534.847 297.644 538.74C312.676 508.81 323.495 449.915 246.506 453.781C249.405 426.078 229.46 412.442 219.125 409.087C221.406 397.141 220.333 371.961 197.784 366.807C175.235 361.653 162.886 367.612 159.531 371.236C154.967 366.003 143.424 356.664 133.76 361.172C145.84 349.898 152.283 311.244 131.344 298.761C154.699 297.151 211.474 230.309 168.389 184.405C180.066 147.361 154.296 111.524 116.849 132.462C111.211 127.63 96.7155 125.617 93.0915 132.462C95.1048 115.55 57.2547 91.7926 36.3163 113.536C35.9136 97.4298 21.4177 84.5432 10.9485 87.7645C21.8204 70.45 12.1566 33.8079 -22.0697 40.6532C-48.5329 45.9458 -51.0498 60.9432 -48.8866 68.4863C-51.5658 60.404 -59.5144 46.3013 -71.9998 49.1105C-60.7252 32.6013 -77.637 8.44163 -92.5355 7.23365C-85.4487 -10.1613 -100.052 -25.7846 -108.239 -31.4219H-629.284V622.091H354.419Z" fill="#E5F7FF" fill-opacity="0.6"/>
<rect x="-317.43" y="629.648" width="2080.47" height="320.327" fill="#E6F7FF"/>
<path opacity="0.8" d="M846.639 639.444C856.196 626.846 880.785 606.341 902.68 625.108C898.77 596.436 936.565 586.988 947.643 595.785C946.665 578.516 968.17 562.55 985.112 576.886C989.348 557.337 1017.04 548.212 1030.4 564.503C1040.5 555.054 1056.79 557.007 1059.07 562.546C1061.35 554.075 1072.43 545.278 1078.62 547.233C1066.24 541.042 1055.16 514.324 1078.62 503.572C1074.06 477.832 1071.13 440.689 1121.63 439.711C1124.24 411.039 1161.38 401.916 1174.09 412.017C1171.81 387.58 1201.13 360.213 1228.83 370.639C1230.13 348.483 1236.65 324.37 1269.88 331.864C1262.71 314.921 1278.35 298.631 1287.47 303.518C1285.13 291.528 1286.5 283.535 1287.47 281.037C1276.18 279.951 1254.5 271.132 1258.15 244.545C1261.8 217.958 1279.22 216.742 1287.47 219.457C1280.2 206.858 1271.12 177.751 1293.01 162.112C1314.91 146.473 1329.07 148.862 1333.41 152.012C1321.25 127.793 1312.5 80.1379 1374.79 83.2657C1372.45 60.8493 1388.59 49.8155 1396.95 47.1006C1395.1 37.4346 1395.97 17.06 1414.22 12.8895C1432.46 8.71899 1442.46 13.5411 1445.17 16.4735C1448.86 12.2392 1458.2 4.6825 1466.02 8.33005C1456.25 -0.792908 1451.04 -32.0703 1467.98 -42.1707C1449.08 -43.474 1403.14 -97.5602 1438 -134.704C1428.55 -164.679 1449.41 -193.677 1479.71 -176.734C1484.27 -180.644 1496 -182.273 1498.93 -176.734C1497.3 -190.419 1527.93 -209.643 1544.87 -192.049C1545.2 -205.081 1556.93 -215.509 1565.4 -212.902C1556.6 -226.913 1564.42 -256.562 1592.12 -251.023C1613.53 -246.74 1615.56 -234.605 1613.81 -228.501C1615.98 -235.041 1622.41 -246.453 1632.52 -244.18C1623.39 -257.538 1637.08 -277.088 1649.13 -278.065C1643.4 -292.14 1655.22 -304.782 1661.84 -309.344H2083.45V639.444H846.639Z" fill="#E5F7FF" fill-opacity="0.6"/>
<path d="M1157.96 616.104C1179.86 600.465 1194.02 602.854 1198.36 606.004C1186.2 581.785 1177.44 534.13 1239.74 537.258C1237.4 514.842 1253.53 503.808 1261.9 501.093C1260.05 491.427 1260.92 471.052 1279.17 466.882C1297.41 462.711 1307.4 467.533 1310.12 470.466C1313.81 466.231 1323.15 458.675 1330.97 462.322C1321.2 453.199 1315.98 421.922 1332.93 411.821C1314.03 410.518 1268.09 356.432 1302.95 319.289C1293.5 289.313 1314.35 260.315 1344.66 277.258C1349.22 273.348 1360.95 271.719 1363.88 277.258C1362.25 263.573 1392.88 244.349 1409.82 261.944C1410.15 248.911 1421.88 238.483 1430.35 241.09C1421.55 227.08 1429.37 197.43 1457.06 202.969C1478.48 207.252 1480.51 219.387 1478.76 225.491C1480.93 218.951 1487.36 207.539 1497.47 209.812C1488.34 196.454 1502.03 176.905 1514.08 175.927C1508.35 161.852 1520.16 149.21 1526.79 144.648H1948.4V641.778L1157.96 663.38V616.104Z" fill="#E6F7FF"/>
<path d="M489.506 639.444C479.948 626.846 455.36 606.341 433.465 625.108C437.375 596.436 399.579 586.988 388.502 595.785C389.479 578.516 367.975 562.55 351.032 576.886C346.797 557.337 319.102 548.212 305.743 564.503C295.643 555.054 279.352 557.007 277.071 562.546C274.79 554.075 263.712 545.278 257.522 547.233C269.903 541.042 280.981 514.324 257.522 503.572C262.083 477.832 265.016 440.689 214.514 439.711C211.907 411.039 174.764 401.916 162.057 412.017C164.337 387.58 135.014 360.213 107.319 370.639C106.016 348.483 99.4991 324.37 66.2655 331.864C73.4335 314.921 57.7942 298.631 48.6712 303.518C51.0171 291.528 49.6487 283.535 48.6712 281.037C59.9663 279.951 81.6442 271.132 77.995 244.545C74.3458 217.958 56.9253 216.742 48.6712 219.457C55.9478 206.858 65.0274 177.751 43.1323 162.112C21.2372 146.473 7.07483 148.862 2.73056 152.012C14.8945 127.793 23.6482 80.1379 -38.6486 83.2657C-36.3027 60.8493 -52.4417 49.8155 -60.8044 47.1006C-58.9581 37.4346 -59.8269 17.06 -78.0728 12.8895C-96.3188 8.71899 -106.311 13.5411 -109.026 16.4735C-112.718 12.2392 -122.059 4.6825 -129.878 8.33005C-120.104 -0.792908 -114.891 -32.0703 -131.833 -42.1707C-112.936 -43.474 -66.9949 -97.5602 -101.858 -134.704C-92.4089 -164.679 -113.261 -193.677 -143.563 -176.734C-148.124 -180.644 -159.854 -182.273 -162.786 -176.734C-161.157 -190.419 -191.784 -209.643 -208.727 -192.049C-209.053 -205.081 -220.782 -215.509 -229.253 -212.902C-220.456 -226.913 -228.276 -256.562 -255.971 -251.023C-277.384 -246.74 -279.42 -234.605 -277.67 -228.501C-279.838 -235.041 -286.27 -246.453 -296.372 -244.18C-287.249 -257.538 -300.934 -277.088 -312.989 -278.065C-307.255 -292.14 -319.071 -304.782 -325.696 -309.344H-747.307V639.444H489.506Z" fill="#E6F7FF"/>
<path d="M550.396 640.56C542.227 658.647 484.466 662.731 477.464 634.725C474.115 615.471 485.037 607.517 501.386 604.823C513.781 602.781 527.155 606.428 533.767 609.929C532.503 605.65 532.95 595.634 544.853 589.8C556.755 583.965 569.066 589.508 573.734 593.009C573.928 586.007 576.709 569.554 586.278 559.752C598.239 547.499 620.993 544.29 639.664 557.126C639.372 539.331 655.125 529.414 672.629 527.662C690.132 525.91 696.842 529.414 710.261 541.23C705.594 526.793 708.511 488.862 739.142 469.9C769.773 450.938 809.302 457.358 831.619 477.779C836.87 462.026 868.376 441.605 899.299 464.36C930.222 487.114 916.511 519.932 914.032 529.414C921.908 522.266 927.013 520.516 937.078 520.662C947.142 520.808 953.998 529.705 954.144 541.23C955.894 534.96 968.584 534.229 970.918 541.23C983.754 523.873 1002.28 524.748 1018.76 527.957C1035.24 531.166 1043.41 550.275 1041.52 563.986C1051.87 559.902 1062.37 566.028 1066.9 570.55C1071.42 575.072 1072.88 583.386 1070.25 595.493C1079 594.909 1083.62 601.471 1084.84 604.825C1089.16 599.671 1101.61 590.006 1116.78 592.573C1135.74 595.782 1135.89 611.387 1135.74 618.972C1144.64 609.783 1181.4 604.678 1179.36 632.829C1177.72 655.35 1151.25 651.062 1138.22 646.103C1138.03 647.902 1134.58 652.375 1122.32 655.875C1110.07 659.376 1099.42 653.153 1095.63 649.603C1094.56 651.597 1090.2 655.875 1081.34 657.042C1072.47 658.209 1065.1 652.569 1062.52 649.603C1061.06 655 1048.78 666.494 1011.32 669.295C973.865 672.095 949.233 652.083 941.6 641.727C940.919 643.331 938.157 647.357 932.556 650.624C926.955 653.892 917.678 651.986 913.74 650.624C912.281 654.903 904.374 666.949 882.671 668.857C856.126 671.191 843.337 660.64 837.016 653.833C833.564 657.091 828.412 666.961 809.302 666.961C795.159 666.961 785.137 661.759 781.734 657.48C775.316 672.358 747.312 680.235 733.017 659.23C723.974 672.65 686.05 672.65 675.254 655.438C652.208 670.316 624.202 665.648 604.073 645.811C601.448 654.271 566.732 673.233 550.396 640.56Z" fill="#E6F7FF"/>
<path d="M837.309 488.281C840.712 492.511 847.548 505.61 847.665 524.164C853.937 501.701 843.289 492.22 837.309 488.281Z" fill="#E6F7FF"/>
<path d="M980.254 584.842C967.212 586.589 962.382 576.57 961.589 571.31C961.853 587.809 972.746 589.788 978.941 588.635C979.087 594.761 987.693 597.97 992.653 593.594C985.943 594.615 982.15 589.218 980.254 584.842Z" fill="#E6F7FF"/>
<path fill-rule="evenodd" clip-rule="evenodd" d="M477.47 634.725C484.471 662.731 542.233 658.647 550.401 640.56C566.738 673.233 601.453 654.271 604.079 645.811C624.208 665.648 652.214 670.316 675.26 655.438C686.055 672.65 723.98 672.65 733.023 659.23C747.318 680.235 775.322 672.358 781.74 657.48C785.143 661.759 795.165 666.961 809.308 666.961C825.505 666.961 831.675 659.87 835.282 655.725C835.93 654.98 836.496 654.33 837.022 653.833C843.343 660.64 856.132 671.191 882.677 668.857C904.38 666.949 912.287 654.903 913.746 650.624C917.684 651.986 926.961 653.892 932.562 650.624C938.163 647.357 940.925 643.331 941.605 641.727C949.239 652.083 973.87 672.095 1011.33 669.295C1048.79 666.494 1061.07 655 1062.53 649.603C1065.1 652.569 1072.47 658.209 1081.34 657.042C1090.21 655.875 1094.57 651.597 1095.64 649.603C1099.43 653.153 1110.08 659.376 1122.33 655.875C1134.58 652.375 1138.03 647.902 1138.23 646.103C1151.26 651.062 1177.73 655.35 1179.36 632.829C1179.45 631.556 1179.47 630.352 1179.41 629.212C1178.21 634.701 1174.08 640.222 1164.19 643.476C1145.06 649.777 1122.19 632.682 1113.14 623.347C1114.8 625.486 1099.14 632.682 1088.05 632.682C1063.9 632.682 1049.06 619.457 1044.59 611.386C1044.59 611.386 1032.63 626.556 1001.41 632.682C961.792 640.458 932.662 616.637 922.938 603.218C922.84 608.469 919.145 619.555 905.142 621.888C891.139 624.222 882.582 613.915 880.054 608.469C877.72 611.484 868.677 621.888 850.59 618.971C832.811 616.104 820.542 602.732 816.749 593.883C816.645 594.15 816.534 594.44 816.415 594.752C813.978 601.134 808.119 616.475 786.702 625.097C766.504 633.229 745.471 625.681 736.525 618.971C735.358 625.778 722.989 639.859 682.847 641.726C642.706 643.593 621.39 629.668 615.75 622.472C614.875 625.584 608.749 632.507 591.245 635.308C573.742 638.108 561.003 629.668 556.822 625.097C556.044 627.529 546.028 640.267 522.106 641.726C495.902 643.324 481.728 634.249 476.962 625.78C476.741 628.449 476.895 631.421 477.47 634.725Z" fill="#E6F7FF"/>
<path d="M716.682 552.75C723.44 565.148 735.644 587.32 772.985 582.652C754.023 591.55 721.058 588.924 716.682 552.75Z" fill="#E6F7FF"/>
<path d="M775.523 475.804C749.976 478.248 736.554 493.669 733.037 501.074C763.027 475.303 803.477 484.227 819.953 491.91C815.788 485.523 801.07 473.36 775.523 475.804Z" fill="#E6F7FF"/>
<path d="M618.907 627.122C635.564 626.875 645.052 617.598 647.715 612.991C626.966 628.099 601.261 620.213 591.002 614.382C593.364 618.732 602.251 627.369 618.907 627.122Z" fill="#E6F7FF"/>
<path d="M397.09 557.299C397.323 540.496 411.774 539.212 418.969 540.671C418.969 530.756 428.723 523.169 440.263 523.164C454.266 523.158 465.935 530.168 465.352 543.004C473.812 542.712 481.105 545.909 483.439 555.828C488.999 579.459 465.352 578.875 465.352 578.875C465.352 578.875 436.179 591.127 425.679 569.551C416.052 572.469 396.857 574.103 397.09 557.299Z" fill="#E6F7FF"/>
<path fill-rule="evenodd" clip-rule="evenodd" d="M397.099 556.799C397.094 556.962 397.09 557.126 397.088 557.291C396.855 574.095 416.05 572.461 425.677 569.543C436.177 591.119 465.35 578.867 465.35 578.867C465.35 578.867 488.997 579.451 483.437 555.82C481.914 549.35 478.281 545.74 473.591 544.093C478.197 554.407 473.945 562.516 464.474 567.778C453.972 573.612 441.136 569.236 428.592 559.026C420.991 569.883 401.015 571.646 397.099 556.799Z" fill="#7EF6FF"/>
<path d="M431.342 561.806C441.046 561.662 446.575 556.257 448.126 553.573C436.037 562.375 421.06 557.781 415.083 554.383C416.459 556.918 421.637 561.95 431.342 561.806Z" fill="#7EF6FF"/>
<path d="M443.482 529.629C433.807 528.861 427.795 533.722 425.998 536.249C438.861 528.622 453.34 534.603 458.971 538.547C457.839 535.895 453.157 530.398 443.482 529.629Z" fill="white"/>
<path d="M1194.24 641.143C1194.24 654.56 1230.99 655.729 1230.12 638.226C1229.24 620.722 1194.24 622.472 1194.24 641.143Z" fill="#E6F7FF"/>
<path d="M1137.8 557.179C1137.8 565.04 1159.33 565.725 1158.82 555.47C1158.31 545.215 1137.8 546.24 1137.8 557.179Z" fill="#E6F7FF"/>
<path d="M440.686 648.554C440.686 656.415 465.801 657.1 465.203 646.845C464.605 636.59 440.686 637.615 440.686 648.554Z" fill="#E6F7FF"/>
<path d="M425.783 632.867C425.783 638.226 441.04 638.693 440.677 631.702C440.314 624.711 425.783 625.41 425.783 632.867Z" fill="#E6F7FF"/>
<path d="M1159.41 531.825C1152.52 537.776 1144.87 531.679 1141.91 527.887C1139.72 530.652 1134.9 534.311 1130.09 535.332C1125.28 536.353 1117.4 534.457 1112.44 527.018C1111.13 535.332 1091 536.645 1093.04 522.35C1094.68 510.915 1105.78 512.14 1111.13 514.182C1110.4 511.604 1109.16 504.259 1116.53 500.029C1124.4 495.507 1130.72 500.321 1133.15 503.676C1134.52 501.342 1138.81 497.345 1145.11 500.029C1151.42 502.713 1151.24 509.412 1150.37 512.425C1151.24 511.891 1154.28 511.142 1159.41 512.425C1165.83 514.03 1168.02 524.386 1159.41 531.825Z" fill="#E6F7FF"/>
</g>
<defs>
<clipPath id="clip0_52_1053">
<rect width="1414" height="640" fill="white"/>
</clipPath>
</defs>
</svg>
