<svg width="177" height="34" viewBox="0 0 177 34" fill="none" xmlns="http://www.w3.org/2000/svg">
<path d="M63.1488 27.6395L53.8205 5.65625C53.6891 5.19415 53.0979 4.99609 52.7037 4.99609H52.4409C51.9811 4.99609 51.4555 5.32617 51.2585 5.72226L41.8644 27.6395C41.7988 27.7055 41.7988 27.7713 41.7988 27.8373C41.7988 28.0354 41.9958 28.2335 42.193 28.2335H44.8206C45.0178 28.2335 45.2148 28.0354 45.2806 27.9034C45.2806 27.8373 47.12 23.4805 47.12 23.4805H57.9592L59.7986 27.9694C59.7986 27.9694 59.93 28.3656 60.3898 28.3656H62.7548C63.0174 28.3656 63.2802 28.1015 63.2802 27.8373C63.2146 27.7713 63.1488 27.6395 63.1488 27.6395ZM48.1709 20.5757L52.5067 10.1453L56.7766 20.5757H48.1709Z" fill="#003451"/>
<path d="M106.835 19.9847C106.835 15.8258 104.142 13.0531 100.266 13.0531C98.0323 13.0531 96.4555 13.9773 95.536 15.2316V5.52734C95.536 5.32931 95.339 5.19727 95.2076 5.19727H92.7768C92.5798 5.19727 92.4484 5.32931 92.3828 5.52734V27.9065C92.3828 28.1046 92.514 28.2367 92.7112 28.2367H95.2076C95.4046 28.2367 95.536 28.1046 95.536 27.9065V20.1828C95.536 18.1362 96.9811 16.0238 99.6745 16.0238C102.039 16.0238 103.616 17.8063 103.616 20.5128V27.9726C103.616 28.1707 103.747 28.3027 103.945 28.3027H106.441C106.638 28.3027 106.769 28.1707 106.769 27.9726L106.835 19.9847Z" fill="#003451"/>
<path d="M112.616 6.18476C111.368 6.18476 110.383 7.04297 110.383 8.36326C110.383 9.68358 111.368 10.5418 112.616 10.5418C113.93 10.5418 114.916 9.61756 114.916 8.36326C114.916 7.10898 113.93 6.11875 112.616 6.18476Z" fill="#003451"/>
<path d="M145.987 20.575C145.987 20.509 145.987 20.4429 145.987 20.3109C145.987 20.2448 145.987 20.1788 145.987 20.1128V20.0467C145.987 19.7828 145.922 19.5847 145.922 19.4527C145.462 15.6898 142.768 13.1152 138.892 13.1152C134.425 13.1152 131.338 16.482 131.338 20.8389C131.338 25.2621 134.688 28.5628 139.287 28.5628C142.177 28.5628 143.885 27.6386 144.936 26.7804C144.936 26.7804 145.199 26.5823 145.002 26.3184L143.951 24.5359C143.885 24.4038 143.622 24.4038 143.425 24.5359C142.637 25.13 141.454 25.8561 139.615 25.8561C136.856 25.8561 134.885 24.1397 134.425 21.7632H145.725C145.922 21.7632 145.987 21.6311 145.987 21.4332C145.987 21.4332 145.987 21.037 145.987 20.7071C145.987 20.641 145.987 20.575 145.987 20.575ZM134.425 19.4527C134.885 17.1422 136.593 15.6898 138.892 15.6898C140.995 15.6898 142.703 17.2082 142.834 19.4527H134.425Z" fill="#003451"/>
<path d="M74.5136 13.1168C74.5136 13.1168 73.9224 13.0508 73.5938 13.0508C70.9663 13.0508 69.1925 14.5031 68.6013 16.2195L68.4699 13.6449C68.4699 13.4469 68.2729 13.3148 68.0757 13.3148H66.1049C65.9079 13.3148 65.7109 13.5129 65.7109 13.7109V27.8382C65.7109 28.0363 65.9079 28.2342 66.1049 28.2342H68.6013C68.7983 28.2342 68.9955 28.1024 68.9955 27.9043V20.3785C68.9955 18.2661 70.4407 16.2195 73.1998 16.2195C73.6596 16.2195 74.2508 16.3516 74.2508 16.3516C74.4478 16.3516 74.5792 16.2855 74.645 16.0875L74.842 13.5789C74.842 13.2488 74.7106 13.1168 74.5136 13.1168Z" fill="#003451"/>
<path d="M87.5878 24.668C87.719 24.6019 87.8504 24.668 87.9162 24.8L88.9672 26.7804C89.033 26.9124 88.9672 27.0445 88.8358 27.1105C87.8504 27.7707 86.4052 28.4968 83.9088 28.4968C79.1791 28.4968 75.8945 25.13 75.8945 20.8389C75.8945 16.416 79.3761 13.1152 83.9088 13.1152C86.471 13.1152 87.9818 13.9074 88.9672 14.5676C89.033 14.6336 89.1644 14.6996 89.033 14.8976L87.9162 16.8781C87.8504 17.0101 87.719 17.0101 87.5878 16.9441C86.7994 16.482 85.7484 16.0199 84.303 16.0199C81.2813 16.0199 79.1791 18.0664 79.1791 20.8389C79.1791 23.5456 81.2155 25.5922 84.1716 25.5922C85.7484 25.5922 86.7338 25.13 87.5878 24.668Z" fill="#003451"/>
<path d="M113.928 13.3809H111.432C111.235 13.3809 111.104 13.5129 111.104 13.7109V27.8383C111.104 28.0362 111.235 28.1682 111.432 28.1682H113.928C114.125 28.1682 114.257 28.0362 114.257 27.8383V13.7109C114.257 13.5129 114.125 13.3809 113.928 13.3809Z" fill="#003451"/>
<path d="M129.104 24.9345C129.038 24.8685 128.775 24.8685 128.512 25.0006C127.987 25.2645 127.33 25.5946 126.213 25.5946C124.374 25.5946 123.257 24.8025 123.257 22.8219V16.0224H128.775C128.972 16.0224 129.104 15.8904 129.104 15.6923V13.7118C129.104 13.5138 128.972 13.3818 128.775 13.3818H123.257V8.62866C123.257 8.43061 123.126 8.29858 122.929 8.29858H120.498C120.301 8.29858 120.169 8.43061 120.169 8.62866V13.3818H117.41C117.213 13.3818 117.082 13.5138 117.082 13.7118V15.6923C117.082 15.8904 117.213 16.0224 117.41 16.0224H120.104V23.02C120.104 26.5189 122.337 28.4992 125.622 28.4992C127.921 28.4992 129.301 27.707 129.958 27.245C130.089 27.113 130.155 26.9809 130.089 26.8488L129.104 24.9345Z" fill="#003451"/>
<path d="M159.65 24.7364C159.782 24.6703 159.913 24.7364 159.979 24.8682L161.03 26.8488C161.096 26.9808 161.03 27.1129 160.898 27.1789C159.913 27.839 158.468 28.5652 155.972 28.5652C151.242 28.5652 147.957 25.1984 147.957 20.9073C147.957 16.4844 151.439 13.1836 155.972 13.1836C158.533 13.1836 160.044 13.9758 161.03 14.6359C161.096 14.7019 161.227 14.768 161.096 14.966L159.979 16.9464C159.913 17.0785 159.782 17.0785 159.65 17.0124C158.862 16.5504 157.811 16.0883 156.366 16.0883C153.344 16.0883 151.242 18.1348 151.242 20.9073C151.242 23.614 153.278 25.6606 156.234 25.6606C157.811 25.5946 158.862 25.1984 159.65 24.7364Z" fill="#003451"/>
<path d="M175.615 24.9992C175.55 24.9332 175.287 24.9332 175.024 25.0653C174.499 25.3292 173.842 25.6594 172.725 25.6594C170.886 25.6594 169.769 24.8672 169.769 22.8866V16.0871H175.287C175.484 16.0871 175.615 15.955 175.615 15.757V13.7765C175.615 13.5785 175.484 13.4465 175.287 13.4465H169.769V8.69336C169.769 8.4953 169.637 8.36328 169.44 8.36328H167.01C166.813 8.36328 166.681 8.4953 166.681 8.69336V13.4465H163.922C163.725 13.4465 163.594 13.5785 163.594 13.7765V15.757C163.594 15.955 163.725 16.0871 163.922 16.0871H166.616V23.0847C166.616 26.5836 168.849 28.5639 172.134 28.5639C174.433 28.5639 175.813 27.7718 176.469 27.3097C176.601 27.1777 176.667 27.0456 176.601 26.9135L175.615 24.9992Z" fill="#003451"/>
<path d="M30.4539 25.1639C31.9039 22.7208 32.7364 19.8683 32.7364 16.8213C32.7364 7.78144 25.4082 0.453125 16.3682 0.453125C7.32831 0.453125 0 7.78144 0 16.8213C0 19.8683 0.832555 22.7208 2.2826 25.1639C2.43972 25.4287 2.81247 25.4433 2.99916 25.1985L5.37968 22.0774C5.47998 21.9458 5.49836 21.7699 5.43186 21.6183C4.78698 20.1502 4.42904 18.5276 4.42904 16.8213C4.42904 10.2275 9.77439 4.88217 16.3682 4.88217C22.9621 4.88217 28.3074 10.2275 28.3074 16.8213C28.3074 18.5276 27.9495 20.1504 27.3045 21.6185C27.238 21.7699 27.2565 21.9458 27.3567 22.0774L29.7373 25.1985C29.924 25.4433 30.2967 25.4287 30.4539 25.1639Z" fill="#003451"/>
<path d="M25.376 24.6825C25.3709 24.6758 25.3609 24.6754 25.3553 24.6816C25.3498 24.6881 25.3395 24.6876 25.3346 24.6805L17.8284 13.9083C17.1207 12.8925 15.6176 12.8925 14.9098 13.9083L7.40368 24.6805C7.39877 24.6876 7.38856 24.6881 7.38289 24.6816C7.37731 24.6752 7.36726 24.6756 7.36224 24.6825L4.92971 27.9995C4.80069 28.1756 4.81792 28.4195 4.97454 28.5716C7.92136 31.4295 11.9398 33.1888 16.3692 33.1888C20.7986 33.1888 24.8168 31.4295 27.7637 28.5716C27.9204 28.4197 27.9375 28.1756 27.8086 27.9998L25.376 24.6825Z" fill="#003451"/>
</svg>
