<svg width="237" height="317" viewBox="0 0 237 317" fill="none" xmlns="http://www.w3.org/2000/svg">
<path d="M173.691 218.923C185.195 228.345 182.468 235.779 189.726 237.824C193.716 238.947 200.267 234.476 201.878 231.517C206.402 223.156 194.018 205.991 181.068 201.248C168.118 196.504 162.973 210.136 173.691 218.923Z" fill="#9556E1"/>
<path d="M170.79 257.381C184.106 264.031 189.867 258.065 194.676 264.041C197.305 267.314 195.846 275.538 193.693 278.426C187.792 286.526 166.953 282.558 157.383 272.393C147.813 262.229 158.358 251.169 170.79 257.381Z" fill="#9556E1"/>
<path d="M93.6181 225.369C88.4616 228.031 81.7529 231.814 69.9596 219.178C60.2403 208.759 51.6056 185.775 63.1952 183.543C72.4777 181.751 72.8376 191.086 78.8742 202.932C84.9109 214.777 95.8005 211.242 95.8005 211.242L93.6181 225.369Z" fill="#9556E1"/>
<path fill-rule="evenodd" clip-rule="evenodd" d="M125.419 294.406C125.081 296.043 125.261 297.491 126.036 298.635C129.104 303.161 140.332 301.215 151.113 294.287C161.417 287.667 167.584 278.893 165.433 274.177C170.407 263.883 172.415 248.996 174.564 227.969C176.501 209.015 183.429 199.449 188.985 191.778C196.563 181.315 201.588 174.376 187.916 151.947C187.916 151.947 159.746 133.042 131.783 141.18C127.299 138.872 117.741 141.152 108.51 147.083C97.7289 154.011 91.476 163.296 94.5441 167.823C95.313 168.957 96.5942 169.685 98.2525 170.029L98.1894 170.14C89.0685 176.797 84.0779 184.917 86.8839 189.057C87.4088 189.831 88.1724 190.416 89.1318 190.819C88.9678 191.306 88.8051 191.798 88.6438 192.293C83.1807 197.739 80.686 203.323 82.8566 206.526C83.1747 206.995 83.5806 207.395 84.0646 207.727C79.0758 212.949 76.8754 218.201 78.9542 221.268C79.4526 222.003 80.1662 222.568 81.0583 222.968C78.327 226.866 77.4235 230.476 79.0089 232.815C79.2267 233.136 79.4855 233.425 79.7824 233.681C77.1753 237.492 76.3374 241.006 77.8917 243.299C78.2381 243.81 78.6884 244.239 79.2302 244.587C76.7104 248.334 75.9182 251.781 77.4503 254.041C78.3352 255.347 79.8988 256.114 81.9346 256.378C83.846 264.645 87.116 271.247 91.1774 276.463C90.5288 278.51 90.6027 280.318 91.5324 281.69C92.7403 283.472 95.2131 284.251 98.4255 284.117C97.8001 286.136 97.8826 287.92 98.8019 289.276C100.539 291.838 104.89 292.326 110.296 291.01C110.331 291.942 110.583 292.782 111.071 293.502C113.105 296.502 118.722 296.659 125.419 294.406Z" fill="url(#paint0_radial_49_2225)"/>
<path d="M127.841 281.887C139.743 290.806 146.295 286.385 150.023 292.954C152.07 296.559 149.331 303.963 146.817 306.253C139.795 312.652 120.158 304.731 112.453 293.268C104.748 281.806 116.733 273.569 127.841 281.887Z" fill="#AD6EF9"/>
<path d="M191.395 76.0976C191.395 76.0976 190.335 73.4798 182.337 55.318C167.517 21.3138 141.604 26.535 110.478 9.41602C99.0447 3.12318 86.2041 -2.44664 89.0051 9.53628C93.637 29.4096 108.827 32.7329 121.795 37.1288C110.251 34.4714 104.736 35.9204 105.034 39.6853C105.675 46.8239 117.87 57.1725 135.919 62.6875C135.919 62.6875 123.812 60.9161 123.562 66.3461C123.236 76.6594 140.174 84.4709 153.083 83.1487C167.221 81.706 175.466 84.5413 178.857 87.4273C183.943 91.5017 191.744 77.9595 191.395 76.0976Z" fill="url(#paint1_linear_49_2225)"/>
<path d="M234.407 141.994C230.564 187.273 187.289 209.249 137.244 204.94C87.2001 200.631 49.2566 171.898 53.1005 126.619C56.9444 81.3402 102.233 51.7951 152.182 57.3213C186.655 61.1562 238.265 96.6778 234.407 141.994Z" fill="white"/>
<path d="M187.62 174.664C176.209 185.121 160.746 153.13 158.262 147.759C158.057 147.314 158.22 146.814 158.643 146.564C160.782 145.3 167.502 141.632 176.558 139.625C185.853 137.565 192.423 138.967 194.284 139.467C194.622 139.558 194.866 139.826 194.932 140.169C195.62 143.766 198.946 164.285 187.62 174.664Z" fill="#003451"/>
<path d="M130.268 146.099C135.796 148.175 141.96 145.374 144.037 139.844C146.113 134.314 143.316 128.148 137.789 126.072C132.262 123.996 126.098 126.797 124.021 132.327C121.944 137.858 124.741 144.024 130.268 146.099Z" fill="#003451"/>
<path d="M135.668 176.397C142.361 178.91 149.825 175.519 152.34 168.822C154.855 162.126 151.468 154.659 144.775 152.146C138.082 149.633 130.618 153.024 128.103 159.721C125.588 166.417 128.975 173.883 135.668 176.397Z" fill="url(#paint2_radial_49_2225)"/>
<path d="M218.004 173.412C224.697 175.926 232.161 172.535 234.676 165.838C237.191 159.141 233.804 151.675 227.111 149.162C220.418 146.648 212.954 150.039 210.439 156.736C207.924 163.433 211.311 170.899 218.004 173.412Z" fill="url(#paint3_radial_49_2225)"/>
<path d="M110.507 117.239C110.507 117.239 109.288 114.704 100.316 96.9119C83.6024 63.7639 58.0342 70.464 26.0234 55.1104C14.2688 49.4928 1.18931 44.6491 4.58559 56.4453C10.4186 76.0512 25.6624 78.4933 38.8442 82.2281C27.1887 80.2419 21.7568 82.0027 22.2641 85.7391C23.2521 92.909 36.0517 102.463 54.3667 106.964C54.3667 106.964 42.1916 105.88 42.3183 111.255C42.5383 121.58 59.8937 128.436 72.637 126.362C86.721 124.095 95.0524 126.495 98.6289 129.23C103.869 133.008 110.923 119.085 110.507 117.239Z" fill="url(#paint4_linear_49_2225)"/>
<path d="M210.272 143.193C215.799 145.269 221.964 142.468 224.041 136.938C226.117 131.407 223.32 125.241 217.793 123.166C212.266 121.09 206.102 123.891 204.025 129.421C201.948 134.951 204.745 141.117 210.272 143.193Z" fill="#003451"/>
<path d="M215.388 129.568C217.154 130.231 219.123 129.337 219.787 127.57C220.45 125.803 219.557 123.834 217.791 123.171C216.025 122.508 214.056 123.402 213.392 125.169C212.729 126.936 213.623 128.905 215.388 129.568Z" fill="white"/>
<path d="M135.623 132.326C137.388 132.989 139.358 132.095 140.021 130.328C140.684 128.561 139.791 126.592 138.025 125.928C136.259 125.265 134.29 126.16 133.627 127.927C132.963 129.693 133.857 131.663 135.623 132.326Z" fill="white"/>
<ellipse cx="22.7897" cy="9.6612" rx="22.7897" ry="9.6612" transform="matrix(-0.868132 -0.496334 -0.496334 0.868132 204.828 74.6419)" fill="white"/>
<ellipse cx="22.7897" cy="9.6612" rx="22.7897" ry="9.6612" transform="matrix(-0.951684 -0.30708 -0.30708 0.951684 169.766 56.9779)" fill="white"/>
<ellipse cx="22.7897" cy="9.6612" rx="22.7897" ry="9.6612" transform="matrix(-0.951684 -0.30708 -0.30708 0.951684 133.523 53.7357)" fill="white"/>
<ellipse cx="22.7897" cy="9.6612" rx="22.7897" ry="9.6612" transform="matrix(-0.951684 -0.30708 -0.30708 0.951684 124.09 68.2357)" fill="white"/>
<path d="M138.937 225.409C149.553 235.857 156.62 232.35 159.469 239.372C161.013 243.212 157.294 250.185 154.493 252.107C146.656 257.501 128.261 246.993 122.182 234.615C116.104 222.236 129.065 215.674 138.937 225.409Z" fill="#AD6EF9"/>
<path d="M182.756 166.748C179.044 160.197 171.028 160.179 167.537 164.081C170.434 168.931 178.289 178.412 184.328 176.758C191.877 174.691 194.892 163.081 195.442 158.153C189.584 152.491 184.393 164.197 182.756 166.748Z" fill="#F088FE"/>
<defs>
<radialGradient id="paint0_radial_49_2225" cx="0" cy="0" r="1" gradientUnits="userSpaceOnUse" gradientTransform="translate(161.502 213.221) rotate(-169.681) scale(81.3826 313.089)">
<stop stop-color="#C8EBFF"/>
<stop offset="0.322917" stop-color="white"/>
<stop offset="1" stop-color="white"/>
</radialGradient>
<linearGradient id="paint1_linear_49_2225" x1="100.048" y1="-4.88507" x2="177.914" y2="91.9677" gradientUnits="userSpaceOnUse">
<stop stop-color="#E0C1FD"/>
<stop offset="1" stop-color="#AD6EF9"/>
</linearGradient>
<radialGradient id="paint2_radial_49_2225" cx="0" cy="0" r="1" gradientUnits="userSpaceOnUse" gradientTransform="translate(140.221 164.271) rotate(-173.632) scale(15.7292 11.8323)">
<stop stop-color="#F088FE"/>
<stop offset="1" stop-color="white" stop-opacity="0"/>
</radialGradient>
<radialGradient id="paint3_radial_49_2225" cx="0" cy="0" r="1" gradientUnits="userSpaceOnUse" gradientTransform="translate(222.557 161.287) rotate(-173.632) scale(15.7292 11.8323)">
<stop stop-color="#F088FE"/>
<stop offset="1" stop-color="white" stop-opacity="0"/>
</radialGradient>
<linearGradient id="paint4_linear_49_2225" x1="60.6227" y1="54.8746" x2="52.8532" y2="125.286" gradientUnits="userSpaceOnUse">
<stop stop-color="#E0C1FD"/>
<stop offset="1" stop-color="#AD6EF9"/>
</linearGradient>
</defs>
</svg>
