<svg width="142" height="163" viewBox="0 0 142 163" fill="none" xmlns="http://www.w3.org/2000/svg">
<path d="M98.0284 134.249C105.925 135.808 106.522 140.053 110.508 139.176C112.699 138.693 114.684 134.887 114.698 133.063C114.723 127.917 104.429 122.886 97.0363 123.929C89.6438 124.971 90.669 132.791 98.0284 134.249Z" fill="#9556E1"/>
<path d="M48.8484 142.731C47.8195 150.715 43.6301 151.593 44.772 155.518C45.3991 157.665 49.3031 159.399 51.1474 159.263C56.2812 158.944 60.6176 148.326 59.0762 141.019C57.5348 133.712 49.8071 135.277 48.8484 142.731Z" fill="#9556E1"/>
<path d="M31.8645 116.702C28.7237 116.751 24.5603 116.971 21.8835 108.006C19.6786 100.615 21.0237 87.3926 27.1802 89.0998C32.1123 90.465 30.04 95.0779 30.116 102.274C30.192 109.47 36.3229 110.377 36.3229 110.377L31.8645 116.702Z" fill="#9556E1"/>
<path fill-rule="evenodd" clip-rule="evenodd" d="M30.5589 119.854C29.8233 119.762 29.2418 119.486 28.8739 119.008C27.4201 117.121 29.8506 112.811 34.3026 109.381C38.557 106.104 43.1178 104.817 44.783 106.356C49.8084 105.771 56.3297 107.04 65.4403 109.111C73.6556 110.979 78.6578 109.493 82.6693 108.301C88.1407 106.675 91.7691 105.597 99.1936 114.324C99.1936 114.324 103.054 128.468 95.631 138.741C95.9575 140.894 93.6268 144.48 89.8115 147.419C85.3594 150.848 80.5718 152.099 79.118 150.211C78.7537 149.738 78.6333 149.113 78.7275 148.388L78.6598 148.401C74.5614 151.188 70.4453 152.085 69.1161 150.36C68.8676 150.037 68.7326 149.644 68.7018 149.196C68.4772 149.195 68.2512 149.193 68.0235 149.189C64.957 150.655 62.2598 150.89 61.2313 149.555C61.0799 149.358 60.9707 149.136 60.9014 148.89C57.9954 150.196 55.4784 150.358 54.493 149.078C54.2573 148.772 54.1237 148.403 54.0842 147.983C52.0601 148.55 50.4197 148.413 49.6688 147.438C49.565 147.303 49.481 147.156 49.4161 146.998C47.4424 147.53 45.8475 147.379 45.1102 146.422C44.9462 146.209 44.8317 145.966 44.7639 145.696C42.8361 146.196 41.2824 146.035 40.5575 145.094C40.1392 144.551 40.0424 143.807 40.2229 142.942C37.0327 141.001 34.737 138.738 33.1364 136.347C32.1887 136.324 31.4443 136.04 31.0047 135.469C30.4324 134.726 30.4621 133.608 30.9801 132.315C30.0445 132.287 29.3095 132.003 28.8739 131.438C28.0507 130.369 28.4729 128.524 29.8023 126.501C29.4187 126.356 29.1044 126.136 28.8739 125.836C27.9105 124.586 28.6528 122.271 30.5589 119.854Z" fill="url(#paint0_radial_5_1505)"/>
<path d="M33.7373 135.118C28.8041 141.481 24.7504 140.113 23.7463 144.077C23.1952 146.252 25.6869 149.724 27.3278 150.559C31.9107 152.891 41.0242 145.94 43.4017 138.852C45.7793 131.764 38.3421 129.184 33.7373 135.118Z" fill="#AD6EF9"/>
<path d="M88.06 144.088C94.2776 149.221 92.784 153.222 96.7236 154.364C98.8771 154.981 102.424 152.59 103.303 150.974C105.77 146.454 99.0857 137.136 92.0815 134.554C85.0773 131.971 82.2675 139.316 88.06 144.088Z" fill="#AD6EF9"/>
<path d="M116.075 69.6883C116.075 69.6883 116.862 68.3778 122.111 59.0048C131.987 41.5228 121.29 32.0186 118.556 12.9851C117.553 5.99211 115.78 -1.37389 111.511 3.73967C104.426 12.2145 107.936 19.8649 110.259 26.9036C107.648 21.0465 105.226 19.1338 103.695 20.4891C100.817 23.0907 100.314 31.734 103.807 41.3341C103.807 41.3341 100.63 35.5223 98.2012 37.1829C93.6356 40.4006 95.7741 50.2681 100.55 55.4192C105.778 61.0623 107.237 65.5509 107.094 67.9571C106.988 71.4831 115.384 70.4458 116.075 69.6883Z" fill="url(#paint1_linear_5_1505)"/>
<path d="M133.038 83.2076C133.688 107.797 111.727 122.218 84.5458 122.904C57.3647 123.59 35.2273 110.411 34.5769 85.821C33.9265 61.2315 56.517 42.6182 83.7194 42.5925C102.495 42.5859 132.393 58.5972 133.038 83.2076Z" fill="white"/>
<path d="M94.548 91.2641C94.548 91.2641 98.5961 101.171 100.503 97.0582C101.436 94.8585 102.277 92.0986 102.808 90.2813C102.808 90.2813 106.597 98.8018 108.914 95.6582C111.23 92.5147 109.956 87.1627 109.956 87.1627" stroke="#F088FE" stroke-width="2.70993" stroke-linecap="round" stroke-linejoin="round"/>
<path d="M77.2604 91.67C80.3585 92.4548 83.5066 90.5781 84.2919 87.4783C85.0771 84.3784 83.2022 81.2293 80.1041 80.4445C77.006 79.6597 73.8579 81.5364 73.0727 84.6362C72.2874 87.7361 74.1623 90.8852 77.2604 91.67Z" fill="#003451"/>
<path d="M61.1439 84.5147C61.1439 84.5147 60.679 83.0647 57.1955 72.8564C50.7066 53.8378 36.4986 55.5233 20.481 44.9043C14.5977 41.0159 7.94634 37.4436 8.88758 44.0213C10.5529 54.968 18.5437 57.4142 25.3326 60.3996C19.2316 58.4655 16.188 59.0045 16.1813 61.0456C16.1764 64.9634 22.3265 71.04 31.8104 74.8191C31.8104 74.8191 25.3635 73.3303 25.0306 76.2213C24.3786 81.7738 33.1724 86.7437 40.1594 86.5819C47.8795 86.417 52.1675 88.3248 53.8811 90.0578C56.409 92.4746 61.2293 85.5355 61.1439 84.5147Z" fill="url(#paint2_linear_5_1505)"/>
<path d="M120.126 85.3028C123.224 86.0877 126.372 84.2109 127.157 81.1111C127.942 78.0112 126.067 74.8621 122.969 74.0773C119.871 73.2925 116.723 75.1692 115.938 78.269C115.153 81.3689 117.028 84.518 120.126 85.3028Z" fill="#003451"/>
<ellipse cx="12.3363" cy="5.22971" rx="12.3363" ry="5.22971" transform="matrix(-0.917822 -0.396992 -0.396992 0.917822 113.082 48.75)" fill="white"/>
<ellipse cx="12.3363" cy="5.22971" rx="12.3363" ry="5.22971" transform="matrix(-0.97987 -0.199639 -0.199639 0.97987 93.1586 41.3516)" fill="white"/>
<ellipse cx="12.3363" cy="5.22971" rx="12.3363" ry="5.22971" transform="matrix(-0.97987 -0.199639 -0.199639 0.97987 73.4672 41.7812)" fill="white"/>
<ellipse cx="12.3363" cy="5.22971" rx="12.3363" ry="5.22971" transform="matrix(-0.97987 -0.199639 -0.199639 0.97987 69.264 50.1484)" fill="white"/>
<defs>
<radialGradient id="paint0_radial_5_1505" cx="0" cy="0" r="1" gradientUnits="userSpaceOnUse" gradientTransform="translate(69.7401 116.512) rotate(98.8629) scale(35.1474 138.522)">
<stop stop-color="#C8EBFF"/>
<stop offset="0.322917" stop-color="white"/>
<stop offset="1" stop-color="white"/>
</radialGradient>
<linearGradient id="paint1_linear_5_1505" x1="121.343" y1="3.81773" x2="104.823" y2="69.0281" gradientUnits="userSpaceOnUse">
<stop stop-color="#E0C1FD"/>
<stop offset="1" stop-color="#AD6EF9"/>
</linearGradient>
<linearGradient id="paint2_linear_5_1505" x1="39.049" y1="47.3581" x2="29.6326" y2="84.5299" gradientUnits="userSpaceOnUse">
<stop stop-color="#E0C1FD"/>
<stop offset="1" stop-color="#AD6EF9"/>
</linearGradient>
</defs>
</svg>
