<svg width="44" height="43" viewBox="0 0 44 43" fill="none" xmlns="http://www.w3.org/2000/svg">
<path d="M37.9226 23.9682C37.9226 23.9682 38.1932 23.5174 39.9982 20.2937C43.3951 14.2811 39.7162 11.0123 38.7756 4.46601C38.4308 2.06089 37.8209 -0.472528 36.3526 1.2862C33.916 4.20099 35.1233 6.83223 35.922 9.25306C35.0241 7.23859 34.1909 6.58076 33.6645 7.0469C32.6746 7.94165 32.5016 10.9144 33.7031 14.2162C33.7031 14.2162 32.6104 12.2173 31.775 12.7884C30.2048 13.8951 30.9402 17.2889 32.5828 19.0605C34.3808 21.0014 34.8828 22.5452 34.8334 23.3727C34.7972 24.5854 37.6848 24.2287 37.9226 23.9682Z" fill="#AD6EF9"/>
<path d="M43.7561 28.6173C43.9798 37.0745 36.4266 42.0343 27.0781 42.2703C17.7296 42.5062 10.1157 37.9733 9.89204 29.5162C9.66835 21.059 17.438 14.6573 26.7938 14.6484C33.2515 14.6462 43.5342 20.153 43.7561 28.6173Z" fill="white"/>
<path d="M30.5174 31.3887C30.5174 31.3887 31.9096 34.7961 32.5657 33.3815C32.8864 32.6249 33.1755 31.6757 33.3584 31.0507C33.3584 31.0507 34.6615 33.9812 35.4582 32.9C36.2549 31.8188 35.8168 29.9781 35.8168 29.9781" stroke="#003451" stroke-width="0.932036" stroke-linecap="round" stroke-linejoin="round"/>
<path d="M24.5731 31.5278C25.6387 31.7978 26.7214 31.1523 26.9915 30.0862C27.2615 29.02 26.6167 27.9369 25.5512 27.667C24.4856 27.3971 23.4029 28.0425 23.1328 29.1087C22.8627 30.1748 23.5076 31.2579 24.5731 31.5278Z" fill="#003451"/>
<path d="M39.3152 29.3382C40.3807 29.6081 41.4635 28.9627 41.7335 27.8965C42.0036 26.8304 41.3588 25.7473 40.2932 25.4774C39.2277 25.2074 38.145 25.8529 37.8749 26.919C37.6048 27.9852 38.2496 29.0683 39.3152 29.3382Z" fill="#003451"/>
<path d="M19.0295 29.0679C19.0295 29.0679 18.8695 28.5692 17.6715 25.0582C15.4397 18.5171 10.5531 19.0968 5.04411 15.4446C3.02064 14.1072 0.733007 12.8786 1.05673 15.1409C1.62949 18.9058 4.37779 19.7471 6.71273 20.7739C4.61439 20.1087 3.56759 20.2941 3.5653 20.9961C3.56361 22.3436 5.67883 24.4335 8.94065 25.7333C8.94065 25.7333 6.72336 25.2212 6.60886 26.2155C6.38461 28.1252 9.40912 29.8345 11.8122 29.7789C14.4674 29.7222 15.9422 30.3783 16.5315 30.9744C17.401 31.8056 19.0588 29.419 19.0295 29.0679Z" fill="#AD6EF9"/>
<ellipse cx="4.24288" cy="1.79867" rx="4.24288" ry="1.79867" transform="matrix(-0.917822 -0.396992 -0.396992 0.917822 36.8923 16.7662)" fill="white"/>
<ellipse cx="4.24288" cy="1.79867" rx="4.24288" ry="1.79867" transform="matrix(-0.97987 -0.199639 -0.199639 0.97987 30.0403 14.2224)" fill="white"/>
<ellipse cx="4.24288" cy="1.79867" rx="4.24288" ry="1.79867" transform="matrix(-0.97987 -0.199639 -0.199639 0.97987 23.2676 14.3701)" fill="white"/>
<ellipse cx="4.24288" cy="1.79867" rx="4.24288" ry="1.79867" transform="matrix(-0.97987 -0.199639 -0.199639 0.97987 21.822 17.2476)" fill="white"/>
</svg>
