<svg width="226" height="205" viewBox="0 0 226 205" fill="none" xmlns="http://www.w3.org/2000/svg">
<path d="M97.5671 162.077C85.8562 164.39 84.9714 170.685 79.0597 169.384C75.8099 168.668 72.8657 163.023 72.8458 160.318C72.8092 152.687 88.0752 145.226 99.0385 146.772C110.002 148.318 108.481 159.916 97.5671 162.077Z" fill="#9556E1"/>
<path d="M170.502 174.653C172.027 186.493 178.241 187.794 176.547 193.615C175.617 196.799 169.827 199.372 167.092 199.169C159.479 198.697 153.048 182.95 155.334 172.113C157.619 161.277 169.08 163.597 170.502 174.653Z" fill="#9556E1"/>
<path d="M195.69 136.041C200.347 136.114 206.522 136.44 210.492 123.144C213.762 112.183 211.767 92.5743 202.636 95.1061C195.322 97.1307 198.395 103.972 198.283 114.644C198.17 125.316 189.078 126.661 189.078 126.661L195.69 136.041Z" fill="#F088FE"/>
<path fill-rule="evenodd" clip-rule="evenodd" d="M197.601 140.726C198.694 140.591 199.558 140.18 200.104 139.471C202.26 136.672 198.655 130.28 192.053 125.194C185.748 120.337 178.989 118.428 176.515 120.703C169.061 119.834 159.388 121.715 145.872 124.788C133.689 127.558 126.27 125.354 120.321 123.586C112.207 121.175 106.826 119.577 95.8151 132.519C95.8151 132.519 90.0878 153.502 101.103 168.737C100.62 171.931 104.076 177.248 109.734 181.606C116.337 186.692 123.437 188.546 125.593 185.747C126.134 185.044 126.312 184.116 126.171 183.038L126.257 183.054C132.34 187.196 138.453 188.531 140.426 185.97C140.796 185.489 140.997 184.903 141.041 184.236C141.369 184.234 141.699 184.23 142.032 184.225C146.584 186.404 150.59 186.755 152.116 184.773C152.34 184.482 152.502 184.152 152.605 183.789C156.915 185.725 160.647 185.965 162.109 184.068C162.458 183.614 162.656 183.066 162.715 182.445C165.717 183.287 168.151 183.082 169.265 181.636C169.42 181.435 169.545 181.214 169.642 180.977C172.567 181.765 174.931 181.542 176.024 180.123C176.267 179.808 176.437 179.447 176.537 179.048C179.397 179.79 181.702 179.552 182.777 178.156C183.398 177.349 183.541 176.245 183.272 174.959C188.001 172.082 191.405 168.728 193.778 165.182C195.186 165.148 196.292 164.728 196.944 163.88C197.792 162.779 197.749 161.123 196.983 159.208C198.37 159.167 199.46 158.746 200.106 157.907C201.326 156.323 200.701 153.588 198.731 150.59C199.299 150.375 199.764 150.048 200.106 149.605C201.536 147.749 200.432 144.313 197.601 140.726Z" fill="url(#paint0_radial_78_2634)"/>
<path d="M192.914 163.361C200.23 172.797 206.242 170.769 207.731 176.647C208.548 179.873 204.853 185.022 202.419 186.26C195.623 189.719 182.107 179.41 178.581 168.898C175.055 158.386 186.085 154.56 192.914 163.361Z" fill="#AD6EF9"/>
<path d="M84.3221 26.4035C54.5995 24.2341 48.6626 44.6052 24.8809 60.3125C16.1621 66.0888 7.42954 73.0967 16.9539 75.6257C32.8617 79.6993 40.8336 70.21 48.8449 62.6741C42.6676 69.8806 41.6386 74.3476 44.4208 75.5401C49.7658 77.8183 61.6261 72.9466 72.2833 62.1922C72.2833 62.1922 66.5132 70.1289 70.2664 72.2596C77.4675 76.3688 89.35 67.2467 93.1801 57.6156C97.0102 47.9845 104.13 28.925 84.3221 26.4035Z" fill="url(#paint1_linear_78_2634)"/>
<path d="M34.7221 83.7007C29.0355 119.734 58.5555 145.165 98.3934 151.402C138.231 157.64 173.32 142.518 179.006 106.484C184.693 70.4505 155.054 38.734 115.058 33.4633C87.4492 29.8419 40.405 47.6352 34.7221 83.7007Z" fill="white"/>
<path d="M115.116 106.865C110.409 107.423 106.141 104.057 105.583 99.348C105.024 94.6386 108.387 90.3684 113.094 89.8103C117.8 89.2522 122.069 92.6175 122.627 97.3269C123.185 102.036 119.823 106.306 115.116 106.865Z" fill="#003451"/>
<path d="M165.521 74.2604C190.971 89.7672 183.964 109.796 194.191 136.399C197.93 146.166 200.964 156.944 191.743 153.467C176.43 147.538 175.456 135.183 173.316 124.395C174.155 133.849 172.397 138.082 169.44 137.436C163.766 136.184 156.945 125.327 154.521 110.382C154.521 110.382 154.605 120.194 150.312 119.747C142.064 118.907 137.695 104.578 140.175 94.5139C142.655 84.4502 147.936 64.8019 165.521 74.2604Z" fill="url(#paint2_linear_78_2634)"/>
<path d="M53.3077 89.2608C48.6009 89.8189 44.3327 86.4536 43.7743 81.7442C43.2159 77.0348 46.5787 72.7647 51.2855 72.2066C55.9922 71.6485 60.2604 75.0138 60.8188 79.7232C61.3773 84.4326 58.0144 88.7027 53.3077 89.2608Z" fill="#003451"/>
<ellipse cx="90.4192" cy="39.3001" rx="18.2951" ry="7.75582" transform="rotate(-15.9373 90.4192 39.3001)" fill="white"/>
<ellipse cx="120.217" cy="36.2527" rx="18.2951" ry="7.75582" transform="rotate(-4.06291 120.217 36.2527)" fill="white"/>
<ellipse cx="149.088" cy="40.6802" rx="18.2951" ry="7.75582" transform="rotate(-4.06291 149.088 40.6802)" fill="white"/>
<ellipse cx="153.661" cy="53.7907" rx="18.2951" ry="7.75582" transform="rotate(-4.06291 153.661 53.7907)" fill="white"/>
<path d="M89.7714 102.955C89.7714 102.955 81.913 116.745 79.8993 110.329C78.9512 106.915 78.2461 102.695 77.8137 99.9206C77.8137 99.9206 70.603 111.721 67.8014 106.653C64.9997 101.585 67.9026 93.9598 67.9026 93.9598" stroke="#F088FE" stroke-width="2.23535" stroke-linecap="round" stroke-linejoin="round"/>
<path d="M112.349 176.67C103.128 184.282 105.343 190.216 99.5009 191.91C96.3073 192.825 91.047 189.278 89.7437 186.882C86.0854 180.178 95.9979 166.359 106.385 162.53C116.773 158.7 120.94 169.593 112.349 176.67Z" fill="#AD6EF9"/>
<defs>
<radialGradient id="paint0_radial_78_2634" cx="0" cy="0" r="1" gradientUnits="userSpaceOnUse" gradientTransform="translate(139.497 135.769) rotate(81.1371) scale(52.1271 205.441)">
<stop stop-color="#C8EBFF"/>
<stop offset="0.322917" stop-color="white"/>
<stop offset="1" stop-color="white"/>
</radialGradient>
<linearGradient id="paint1_linear_78_2634" x1="38.9958" y1="36.3899" x2="84.2758" y2="70.7951" gradientUnits="userSpaceOnUse">
<stop stop-color="#E0C1FD"/>
<stop offset="1" stop-color="#AD6EF9"/>
</linearGradient>
<linearGradient id="paint2_linear_78_2634" x1="196.606" y1="108.727" x2="139.762" y2="110.414" gradientUnits="userSpaceOnUse">
<stop stop-color="#E0C1FD"/>
<stop offset="1" stop-color="#AD6EF9"/>
</linearGradient>
</defs>
</svg>
