<svg width="360" height="493" viewBox="0 0 360 493" fill="none" xmlns="http://www.w3.org/2000/svg">
<path d="M185.915 405.788C181.594 398.443 173.298 379.085 174.68 360.419" stroke="#AD6EF9" stroke-width="3" stroke-linecap="round"/>
<path d="M158.653 415.333C159.613 406.865 164.613 386.407 176.935 372.317" stroke="#AD6EF9" stroke-width="3" stroke-linecap="round"/>
<path d="M168.254 410.407C181.915 373.626 172.194 380.044 173.576 361.378" stroke="#AD6EF9" stroke-width="3" stroke-linecap="round"/>
<path d="M77.8014 403.142C58.7463 401.969 54.8236 411.348 46.2059 406.937C41.4691 404.511 39.2046 394.584 40.2711 390.392C43.3109 378.57 69.9541 373.223 86.2871 380.062C102.62 386.902 95.5626 404.227 77.8014 403.142Z" fill="#9556E1"/>
<path d="M67.2373 458.505C54.5677 460.723 53.6281 467.828 47.2164 466.146C43.7087 465.221 40.4978 458.756 40.5114 455.644C40.4514 446.983 56.9724 439.037 68.8436 441.186C80.7149 443.334 79.0676 456.436 67.2373 458.505Z" fill="#9556E1"/>
<path d="M122.143 455.583C125.683 459.134 130.204 464.019 143.245 456.735C153.994 450.729 167.168 434.096 158.221 429.2C151.056 425.274 148.295 432.86 140.2 441.013C132.105 449.166 124.078 443.382 124.078 443.382L122.143 455.583Z" fill="#9556E1"/>
<path fill-rule="evenodd" clip-rule="evenodd" d="M83.6935 466.98C83.3946 468.391 82.7517 469.473 81.7433 470.11C77.7482 472.634 69.5297 467.21 63.3869 457.995C57.5159 449.188 55.6656 440.106 59.0011 437.116C58.6237 427.244 62.1816 414.761 67.7496 397.37C72.7699 381.689 70.5912 371.717 68.8439 363.721C66.4608 352.814 64.8804 345.581 83.4644 332.546C83.4644 332.546 112.311 327.316 131.642 343.429C135.991 343.153 142.771 348.264 148.03 356.153C154.173 365.367 155.914 374.883 151.919 377.407C150.918 378.039 149.653 378.173 148.222 377.873L148.234 377.992C153.15 386.414 154.292 394.565 150.64 396.872C149.958 397.303 149.153 397.502 148.256 397.49C148.217 397.935 148.176 398.382 148.132 398.832C150.574 405.033 150.618 410.317 147.792 412.102C147.377 412.364 146.917 412.541 146.418 412.636C148.563 418.497 148.489 423.416 145.782 425.126C145.134 425.535 144.375 425.735 143.531 425.744C144.346 429.777 143.814 432.949 141.749 434.253C141.465 434.432 141.159 434.572 140.834 434.672C141.581 438.591 141.029 441.664 139.005 442.942C138.555 443.227 138.051 443.41 137.503 443.499C138.201 447.335 137.636 450.337 135.642 451.597C134.49 452.324 132.989 452.391 131.287 451.898C126.912 457.788 122.037 461.887 117.014 464.614C116.82 466.46 116.136 467.867 114.925 468.632C113.352 469.625 111.126 469.387 108.629 468.171C108.424 469.98 107.742 471.36 106.548 472.114C104.286 473.543 100.671 472.424 96.8451 469.513C96.4944 470.241 96.0033 470.821 95.3663 471.223C92.719 472.896 88.2171 471.078 83.6935 466.98Z" fill="url(#paint0_radial_71_94)"/>
<path d="M117.467 464.287C113.671 476.567 119.174 480.612 114.913 485.557C112.575 488.271 105.753 488.196 103.158 486.816C95.9089 482.963 96.6425 464.68 103.729 455.076C110.815 445.471 121.004 452.828 117.467 464.287Z" fill="#AD6EF9"/>
<path d="M67.7544 304.834C67.7544 304.834 66.9714 302.522 61.9638 286.12C52.4869 255.498 72.3976 244.3 83.1204 215.536C87.0565 204.967 92.3217 194.078 97.2467 203.503C105.424 219.127 97.3526 229.871 91.342 240.063C97.4014 231.812 101.829 229.65 103.757 232.283C107.365 237.318 105.217 250.972 96.5113 264.763C96.5113 264.763 103.439 256.774 106.665 260.189C112.695 266.757 106.012 281.425 96.8146 287.841C86.7448 294.87 82.9455 301.377 82.3531 305.18C81.3214 310.716 68.5757 306.25 67.7544 304.834Z" fill="url(#paint1_linear_71_94)"/>
<path d="M47.9636 344.842C55.6467 378.481 90.5115 390.425 127.684 381.887C164.857 373.35 190.345 347.729 182.662 314.09C174.979 280.452 137.799 263.03 100.827 272.472C75.3124 279.005 40.2662 311.177 47.9636 344.842Z" fill="white"/>
<ellipse cx="143.071" cy="274.161" rx="19.6942" ry="8.34892" transform="rotate(-39.0246 143.071 274.161)" fill="white"/>
<ellipse cx="162.821" cy="275.097" rx="19.6942" ry="8.34892" transform="rotate(-39.0246 162.821 275.097)" fill="white"/>
<ellipse cx="167.944" cy="289.573" rx="19.6942" ry="8.34892" transform="rotate(-39.0246 167.944 289.573)" fill="white"/>
<ellipse cx="119.938" cy="275.097" rx="19.6942" ry="8.34892" transform="rotate(-39.0246 119.938 275.097)" fill="white"/>
<path d="M166.949 327.45C166.949 327.45 167.291 325.043 170.029 308.043C175.129 276.37 197.94 275.204 220.292 254.188C228.506 246.488 238.013 239.079 238.299 249.683C238.621 267.357 226.703 273.354 216.822 279.876C225.903 275.193 230.838 275.223 231.397 278.433C232.458 284.597 224.413 295.813 210.504 304.309C210.504 304.309 220.249 300.233 221.55 304.693C224.068 313.255 211.566 323.44 200.527 325.063C188.334 326.878 182.099 331.033 179.868 334.221C176.54 338.703 167.089 329.079 166.949 327.45Z" fill="url(#paint2_linear_71_94)"/>
<path d="M139.042 379.213C155.335 361.831 149.453 350.666 160.57 345.837C166.65 343.219 177.945 348.894 181.128 353.299C190.058 365.621 173.971 395.444 154.414 405.646C134.856 415.848 123.859 395.377 139.042 379.213Z" fill="#AD6EF9"/>
<path d="M295.422 68.425C296.642 135.465 212.084 309.911 175.843 349.82" stroke="#AD6EF9" stroke-width="3" stroke-linecap="round"/>
<path d="M198.635 119.411C199.855 186.451 212.3 310.02 176.059 349.929" stroke="#AD6EF9" stroke-width="3" stroke-linecap="round"/>
<path d="M279.002 204.099C277.12 232.828 225.424 328.539 176.166 350.144" stroke="#AD6EF9" stroke-width="3" stroke-linecap="round"/>
<path d="M76.816 357.877C83.9401 366.994 100.027 342.533 100.027 342.533C97.1211 339.684 94.1712 337.404 89.9904 335.716C87.1559 334.571 83.629 333.742 81.6196 333.48C79.3159 333.179 76.3736 333.108 75.0174 333.092C74.5743 333.087 74.1883 333.377 74.0815 333.807C73.2931 336.982 70.6012 349.924 76.816 357.877Z" fill="#003451"/>
<path d="M80.21 354.641C83.2285 351.085 88.2819 351.891 90.0785 354.59C87.75 357.209 81.8168 362.102 78.1822 360.493C73.6389 358.482 72.9416 351.202 73.1055 348.186C77.3836 345.383 79.4428 352.942 80.21 354.641Z" fill="#F57AFF"/>
<path fill-rule="evenodd" clip-rule="evenodd" d="M303.729 18.5889C314.694 9.11727 342.127 2.97335 352.063 27.1107C366.386 61.9054 329.457 77.9155 308.052 82.4736C309.143 83.6667 309.828 85.2412 309.88 86.9836C309.997 90.8479 306.958 94.0749 303.094 94.1914C302.687 94.2037 302.219 94.2282 301.699 94.2555L301.698 94.2556C297.667 94.4672 290.489 94.844 283.714 90.9662C280.359 89.0456 279.196 84.7688 281.116 81.4136C281.43 80.8656 281.807 80.376 282.232 79.9489C266.249 72.6902 247.944 55.9577 249.852 34.2825C252.462 4.62353 279.42 -6.46531 303.729 18.5889Z" fill="#AD6EF9"/>
<mask id="mask0_71_94" style="mask-type:alpha" maskUnits="userSpaceOnUse" x="249" y="4" width="107" height="91">
<path fill-rule="evenodd" clip-rule="evenodd" d="M303.729 18.5889C314.694 9.11727 342.127 2.97335 352.063 27.1107C366.386 61.9054 329.457 77.9155 308.052 82.4736C309.143 83.6667 309.828 85.2412 309.88 86.9836C309.997 90.8479 306.958 94.0749 303.094 94.1914C302.687 94.2037 302.219 94.2282 301.699 94.2555L301.698 94.2556C297.667 94.4672 290.489 94.844 283.714 90.9662C280.359 89.0456 279.196 84.7688 281.116 81.4136C281.43 80.8656 281.807 80.376 282.232 79.9489C266.249 72.6902 247.944 55.9577 249.852 34.2825C252.462 4.62353 279.42 -6.46531 303.729 18.5889Z" fill="#F57AFF"/>
</mask>
<g mask="url(#mask0_71_94)">
<path d="M295.416 76.8006C282.288 76.7828 243.594 45.8284 252.903 21.2632L242.576 29.1094C243.262 42.6947 245.135 70.9862 247.137 75.4702C249.138 79.9543 266.159 90.3487 274.42 94.9855L310.404 102.62C327.495 87.7719 361.915 57.6714 362.861 56.0581C364.044 54.0416 339.128 -18.64 344.174 16.12C351.003 63.1539 302.13 76.8098 295.416 76.8006Z" fill="#9E4EFF"/>
<path d="M253.568 19.7218C253.967 18.8909 254.439 18.1132 254.975 17.3884C258.568 11.8598 267.265 -0.185796 267.493 -0.520111C267.766 -0.918552 301.338 -3.58321 318.09 -4.86574L346.467 14.6172C328.004 3.75597 310.645 19.3104 303.601 25.6227L303.58 25.6415C292.678 8.1141 264.215 4.90388 254.975 17.3884C254.286 18.4489 253.785 19.2696 253.568 19.7218Z" fill="#BB83FF"/>
</g>
<path d="M270.198 12.9192C265.832 13.6542 256.922 18.1671 256.204 30.3386C255.307 45.5528 291.893 8.8932 270.198 12.9192Z" fill="#BB83FF"/>
<path fill-rule="evenodd" clip-rule="evenodd" d="M288.741 132.589C299.705 123.117 327.139 116.973 337.075 141.111C351.398 175.905 314.468 191.916 293.064 196.474C294.154 197.667 294.839 199.241 294.892 200.984C295.008 204.848 291.97 208.075 288.106 208.191C287.698 208.204 287.231 208.228 286.711 208.256L286.71 208.256C282.679 208.467 275.5 208.844 268.726 204.966C265.371 203.046 264.208 198.769 266.128 195.414C266.442 194.866 266.818 194.376 267.244 193.949C251.261 186.69 232.956 169.958 234.864 148.282C237.474 118.624 264.432 107.535 288.741 132.589Z" fill="#FFF43A"/>
<mask id="mask1_71_94" style="mask-type:alpha" maskUnits="userSpaceOnUse" x="234" y="118" width="107" height="91">
<path fill-rule="evenodd" clip-rule="evenodd" d="M288.741 132.589C299.705 123.117 327.139 116.973 337.075 141.111C351.398 175.905 314.468 191.916 293.064 196.474C294.154 197.667 294.839 199.241 294.892 200.984C295.008 204.848 291.97 208.075 288.106 208.191C287.698 208.204 287.231 208.228 286.711 208.256L286.71 208.256C282.679 208.467 275.5 208.844 268.726 204.966C265.371 203.046 264.208 198.769 266.128 195.414C266.442 194.866 266.818 194.376 267.244 193.949C251.261 186.69 232.956 169.958 234.864 148.282C237.474 118.624 264.432 107.535 288.741 132.589Z" fill="#F57AFF"/>
</mask>
<g mask="url(#mask1_71_94)">
<path d="M280.427 190.801C267.3 190.783 228.606 159.828 237.915 135.263L227.587 143.109C228.274 156.695 230.147 184.986 232.148 189.47C234.15 193.954 251.171 204.349 259.432 208.985L295.415 216.62C312.507 201.772 346.927 171.671 347.873 170.058C349.056 168.042 324.139 95.36 329.186 130.12C336.014 177.154 287.142 190.81 280.427 190.801Z" fill="#FAEB00"/>
<path d="M238.579 133.722C238.979 132.891 239.451 132.113 239.987 131.388C243.579 125.86 252.277 113.814 252.505 113.48C252.777 113.081 286.35 110.417 303.102 109.134L331.479 128.617C313.016 117.756 295.657 133.31 288.612 139.623L288.591 139.641C277.69 122.114 249.227 118.904 239.987 131.388C239.298 132.449 238.797 133.27 238.579 133.722Z" fill="#FFFCC5"/>
</g>
<path d="M255.21 126.919C250.844 127.654 241.934 132.167 241.216 144.339C240.318 159.553 276.905 122.893 255.21 126.919Z" fill="#FFFCC5"/>
<path fill-rule="evenodd" clip-rule="evenodd" d="M197.757 20.9118C211.079 5.80374 247.711 -7.81759 265.935 23.561C293.239 70.5707 240.477 100.044 212.446 109.222C214.466 110.163 216.003 112.05 216.399 114.414C217.037 118.227 214.463 121.835 210.65 122.474C210.04 122.576 209.363 122.703 208.627 122.841C203.056 123.889 194.077 125.578 184.824 121.837C181.24 120.388 179.509 116.308 180.958 112.724C181.342 111.773 181.912 110.953 182.608 110.288C158.74 104.11 128.006 84.1454 126.498 52.6594C124.516 11.3161 159.562 -9.02685 197.757 20.9118Z" fill="#D9FBFF"/>
<path d="M150.505 19.4083C144.63 21.2416 133.205 29.1333 134.505 46.0333C136.13 67.1583 179.631 9.78327 150.505 19.4083Z" fill="white"/>
<mask id="mask2_71_94" style="mask-type:alpha" maskUnits="userSpaceOnUse" x="126" y="4" width="148" height="121">
<path fill-rule="evenodd" clip-rule="evenodd" d="M197.757 20.9118C211.079 5.80374 247.711 -7.81759 265.935 23.561C293.239 70.5707 240.477 100.044 212.446 109.222C214.466 110.163 216.003 112.05 216.399 114.414C217.037 118.227 214.463 121.835 210.65 122.474C210.04 122.576 209.363 122.703 208.627 122.841C203.056 123.889 194.077 125.578 184.824 121.837C181.24 120.388 179.509 116.308 180.958 112.724C181.342 111.773 181.912 110.953 182.608 110.288C158.74 104.11 128.006 84.1454 126.498 52.6594C124.516 11.3161 159.562 -9.02685 197.757 20.9118Z" fill="#B6E9FF"/>
</mask>
<g mask="url(#mask2_71_94)">
<path d="M197.254 102.657C179.169 105.101 120.051 69.7407 128.254 34.1539L115.504 46.9033C119.004 65.4867 126.904 104.103 130.504 109.903C134.104 115.703 159.504 126.82 171.754 131.653L222.754 135.403C243.504 111.737 285.254 63.8039 286.254 61.4039C287.504 58.4039 239.517 -37.0229 253.004 9.90679C271.254 73.4076 206.504 101.407 197.254 102.657Z" fill="#B4F7FF"/>
<path d="M128.88 31.9075C129.274 30.6878 129.777 29.5279 130.38 28.4287C134.288 20.138 144.003 1.9109 144.255 1.40747C144.555 0.80747 190.296 -9.17586 213.13 -14.0925L255.88 7.40736C228.407 -4.08123 207.421 20.6078 198.905 30.6271L198.88 30.6569C180.568 8.56452 140.759 9.49494 130.38 28.4287C129.63 30.0189 129.094 31.2436 128.88 31.9075Z" fill="white"/>
</g>
<path d="M53.798 318.393C55.3347 316.12 59.3577 312.217 62.9418 313.164C66.5261 314.11 67.8875 318.904 68.3188 322.277" stroke="#003451" stroke-width="4.33465" stroke-linecap="round" stroke-linejoin="round"/>
<path d="M116.468 341.945C118.005 339.672 122.028 335.77 125.612 336.716C129.196 337.663 130.557 342.457 130.989 345.83" stroke="#003451" stroke-width="4.33465" stroke-linecap="round" stroke-linejoin="round"/>
<path d="M159.653 64.919C160.205 62.2314 162.433 57.0886 166.107 56.5947C169.781 56.1009 172.87 60.0116 174.557 62.9646" stroke="#003451" stroke-width="4.33465" stroke-linecap="round" stroke-linejoin="round"/>
<path d="M226.567 62.7568C227.119 60.0693 229.347 54.9265 233.021 54.4326C236.695 53.9387 239.784 57.8495 241.471 60.8025" stroke="#003451" stroke-width="4.33465" stroke-linecap="round" stroke-linejoin="round"/>
<path d="M207.736 71.9421C206.947 74.57 204.272 79.4951 200.569 79.6613C196.866 79.8275 194.136 75.6583 192.717 72.5674" stroke="#003451" stroke-width="4.33465" stroke-linecap="round" stroke-linejoin="round"/>
<path d="M257.34 160.107C257.9 158.267 259.789 154.822 262.385 154.716C264.981 154.61 266.883 157.54 267.869 159.71" stroke="#003451" stroke-width="3" stroke-linecap="round" stroke-linejoin="round"/>
<path d="M304.181 162.945C304.741 161.105 306.63 157.66 309.227 157.554C311.823 157.448 313.725 160.378 314.711 162.548" stroke="#003451" stroke-width="3" stroke-linecap="round" stroke-linejoin="round"/>
<path d="M290.443 168.131C289.722 169.914 287.535 173.178 284.94 173.054C282.344 172.929 280.71 169.842 279.92 167.593" stroke="#003451" stroke-width="3" stroke-linecap="round" stroke-linejoin="round"/>
<path d="M278.47 46.7298C278.935 45.2024 280.503 42.3426 282.658 42.2545C284.814 42.1663 286.393 44.5987 287.211 46.4006" stroke="#003451" stroke-width="3" stroke-linecap="round" stroke-linejoin="round"/>
<path d="M317.359 49.0853C317.823 47.5579 319.392 44.6981 321.547 44.6099C323.702 44.5218 325.281 46.9542 326.099 48.7561" stroke="#003451" stroke-width="3" stroke-linecap="round" stroke-linejoin="round"/>
<path d="M305.952 53.3909C305.354 54.8711 303.538 57.5806 301.383 57.4773C299.229 57.374 297.872 54.8112 297.216 52.9439" stroke="#003451" stroke-width="3" stroke-linecap="round" stroke-linejoin="round"/>
<defs>
<radialGradient id="paint0_radial_71_94" cx="0" cy="0" r="1" gradientUnits="userSpaceOnUse" gradientTransform="translate(83.1922 390.206) rotate(13.2699) scale(70.3254 270.558)">
<stop stop-color="#C8EBFF"/>
<stop offset="0.322917" stop-color="white"/>
<stop offset="1" stop-color="white"/>
</radialGradient>
<linearGradient id="paint1_linear_71_94" x1="81.8829" y1="200.29" x2="85.5313" y2="307.621" gradientUnits="userSpaceOnUse">
<stop stop-color="#E0C1FD"/>
<stop offset="1" stop-color="#AD6EF9"/>
</linearGradient>
<linearGradient id="paint2_linear_71_94" x1="191.732" y1="263.04" x2="216.541" y2="319.005" gradientUnits="userSpaceOnUse">
<stop stop-color="#E0C1FD"/>
<stop offset="1" stop-color="#AD6EF9"/>
</linearGradient>
</defs>
</svg>
