<svg width="176" height="385" viewBox="0 0 176 385" fill="none" xmlns="http://www.w3.org/2000/svg">
<path d="M158.486 345.589L154.962 337.037L143.08 366.271L145.319 371.703L158.486 345.589Z" fill="#2B27B4"/>
<path d="M145.281 371.448L20.5805 358.219L16.281 351.068L143.185 366.363L145.281 371.448Z" fill="#2B27B4"/>
<path d="M155.118 336.863L24.301 329.13L16.2839 351.07L143.188 366.365L155.118 336.863Z" fill="#4C48D9"/>
<path d="M54.898 293.468C37.8138 287.14 38.009 277.44 28.7856 277.964C23.7151 278.254 17.9084 286.045 17.2216 290.115C15.3135 301.606 36.5044 316.554 53.3989 316.886C70.2933 317.219 70.8183 299.374 54.898 293.468Z" fill="#78E7FE"/>
<path d="M64.3949 352.693C54.3071 362.157 57.6504 369.102 50.8914 371.368C47.1914 372.605 40.492 368.683 38.6694 365.875C33.5102 358.121 43.6855 341.234 55.6299 336.168C67.5742 331.103 73.8164 343.858 64.3949 352.693Z" fill="#78E7FE"/>
<path d="M104.942 341.386C107.288 344.259 110.257 348.184 120.388 343.778C128.737 340.144 139.65 328.868 133.424 324.61C128.438 321.197 125.851 326.578 119.297 331.985C112.743 337.393 107.259 332.548 107.259 332.548L104.942 341.386Z" fill="#78E7FE"/>
<path fill-rule="evenodd" clip-rule="evenodd" d="M71.2333 357.759C70.9975 358.8 70.5102 359.595 69.7569 360.056C66.7756 361.88 60.7562 357.781 56.3121 350.901C52.0669 344.329 50.7949 337.596 53.2885 335.418C53.1127 328.112 55.8777 318.918 60.1825 306.112C64.0625 294.57 62.558 287.173 61.3514 281.241C59.7057 273.15 58.6144 267.784 72.4962 258.344C72.4962 258.344 93.8873 254.784 108.01 266.91C111.23 266.755 116.187 270.606 119.991 276.494C124.435 283.374 125.621 290.43 122.639 292.253C121.892 292.71 120.955 292.795 119.899 292.558L119.906 292.637C123.454 298.92 124.212 304.962 121.486 306.63C120.976 306.942 120.378 307.08 119.714 307.062C119.68 307.392 119.645 307.724 119.607 308.058C121.345 312.668 121.32 316.573 119.212 317.862C118.904 318.051 118.564 318.176 118.195 318.242C119.719 322.598 119.611 326.235 117.592 327.471C117.107 327.767 116.543 327.907 115.918 327.904C116.478 330.895 116.05 333.236 114.509 334.178C114.298 334.308 114.071 334.407 113.83 334.478C114.34 337.384 113.9 339.651 112.389 340.574C112.053 340.78 111.677 340.91 111.27 340.97C111.746 343.815 111.296 346.029 109.808 346.939C108.948 347.465 107.837 347.498 106.583 347.115C103.287 351.421 99.6399 354.399 95.8987 356.361C95.7358 357.726 95.2149 358.761 94.3107 359.314C93.1363 360.032 91.4904 359.831 89.655 358.903C89.4848 360.241 88.9658 361.255 88.0738 361.801C86.3864 362.833 83.7258 361.967 80.9284 359.775C80.6614 360.308 80.2927 360.73 79.8184 361.02C77.8432 362.228 74.5342 360.837 71.2333 357.759Z" fill="url(#paint0_radial_24_242)"/>
<path d="M93.2089 353.65C94.0711 367.681 87.178 370.559 90.429 376.915C92.2133 380.403 99.4823 382.085 102.596 381.289C111.296 379.067 115.238 359.446 110.188 347.409C105.137 335.372 92.4091 340.56 93.2089 353.65Z" fill="#78E7FE"/>
<path d="M121.443 296.572C138.834 292.026 139.568 282.534 148.607 283.921C153.541 284.694 158.47 292.859 158.731 296.951C159.478 308.407 137.216 320.979 120.629 319.628C104.041 318.277 105.251 300.786 121.443 296.572Z" fill="#78E7FE"/>
<path d="M53.4689 243.669C53.4689 243.669 52.2924 242.307 44.3184 232.488C29.3438 214.194 39.8414 201.016 39.1853 178.385C38.9417 170.07 39.5174 161.168 45.4986 166.242C55.4223 174.649 52.8891 184.23 51.6106 192.863C53.4611 185.543 55.8869 182.837 57.9352 184.101C61.7976 186.54 64.1197 196.466 61.9982 208.306C61.9982 208.306 64.5147 200.925 67.6667 202.363C73.6105 205.177 73.1146 217.055 68.6104 223.992C63.6804 231.59 62.8902 237.091 63.5407 239.853C64.3722 243.923 54.4232 244.408 53.4689 243.669Z" fill="url(#paint1_linear_24_242)"/>
<path d="M36.5083 262.765C40.7 291.423 69.0786 303.735 100.75 299.063C132.422 294.392 155.453 274.649 151.261 245.991C147.069 217.334 117.117 200.284 85.5539 205.726C63.7702 209.495 32.3062 234.084 36.5083 262.765Z" fill="white"/>
<path d="M82.7838 264.372C82.7838 264.372 80.0805 276.68 77.0403 272.292C75.516 269.927 73.9856 266.895 73.0032 264.893C73.0032 264.893 70.3215 275.54 67.0017 272.359C63.682 269.178 64.0834 262.713 64.0834 262.713" stroke="#4C48D9" stroke-width="2.19461" stroke-linecap="round" stroke-linejoin="round"/>
<path d="M102.915 261.351C99.479 262.884 95.4493 261.34 93.9148 257.902C92.3802 254.464 93.9219 250.433 97.3582 248.9C100.795 247.366 104.824 248.91 106.359 252.348C107.893 255.787 106.352 259.817 102.915 261.351Z" fill="#003451"/>
<path d="M120.177 249.819C120.177 249.819 120.425 248.044 122.413 235.5C126.115 212.131 142.937 211.228 159.384 195.687C165.427 189.992 172.425 184.51 172.656 192.33C172.926 205.365 164.147 209.81 156.872 214.639C163.561 211.168 167.2 211.181 167.619 213.548C168.412 218.092 162.5 226.379 152.258 232.671C152.258 232.671 159.437 229.647 160.405 232.934C162.278 239.244 153.076 246.779 144.938 247.996C135.948 249.358 131.357 252.434 129.718 254.789C127.272 258.101 120.284 251.021 120.177 249.819Z" fill="url(#paint2_linear_24_242)"/>
<path d="M51.9071 262.599C48.4708 264.133 44.4411 262.589 42.9066 259.15C41.3721 255.712 42.9137 251.682 46.35 250.148C49.7863 248.614 53.816 250.158 55.3506 253.596C56.8851 257.035 55.3434 261.065 51.9071 262.599Z" fill="#003451"/>
<ellipse cx="68.251" cy="215.97" rx="14.5252" ry="6.15764" transform="rotate(-33.227 68.251 215.97)" fill="white"/>
<ellipse cx="90.1203" cy="206.619" rx="14.5252" ry="6.15764" transform="rotate(-21.3526 90.1203 206.619)" fill="white"/>
<ellipse cx="113.057" cy="203.168" rx="14.5252" ry="6.15764" transform="rotate(-21.3526 113.057 203.168)" fill="white"/>
<ellipse cx="119.612" cy="212.025" rx="14.5252" ry="6.15764" transform="rotate(-21.3526 119.612 212.025)" fill="white"/>
<path d="M8.77148 2.2616C10.3117 70.0556 16.8396 256.804 21.2191 338.283" stroke="#003451" stroke-width="3" stroke-linecap="round"/>
<path d="M149.25 9.3584C150.79 77.1524 148.066 161.62 156.095 345.583" stroke="#003451" stroke-width="3" stroke-linecap="round"/>
<defs>
<radialGradient id="paint0_radial_24_242" cx="0" cy="0" r="1" gradientUnits="userSpaceOnUse" gradientTransform="translate(71.6824 300.979) rotate(14.0982) scale(52.0085 200.092)">
<stop stop-color="#C8EBFF"/>
<stop offset="0.322917" stop-color="white"/>
<stop offset="1" stop-color="white"/>
</radialGradient>
<linearGradient id="paint1_linear_24_242" x1="34.1083" y1="168.31" x2="66.3899" y2="240.639" gradientUnits="userSpaceOnUse">
<stop stop-color="#74F1FF"/>
<stop offset="1" stop-color="#AD6EF9"/>
</linearGradient>
<linearGradient id="paint2_linear_24_242" x1="138.336" y1="202.269" x2="156.737" y2="243.498" gradientUnits="userSpaceOnUse">
<stop stop-color="#74F1FF"/>
<stop offset="1" stop-color="#AD6EF9"/>
</linearGradient>
</defs>
</svg>
