<svg width="188" height="384" viewBox="0 0 188 384" fill="none" xmlns="http://www.w3.org/2000/svg">
<path d="M164.75 333.83L161.009 325.37L149.874 354.896L152.25 360.269L164.75 333.83Z" fill="#F055FD"/>
<path d="M152.206 360.015L27.2102 349.962L22.7302 342.922L149.982 354.985L152.206 360.015Z" fill="#F055FD"/>
<path d="M161.16 325.192L30.1882 320.788L22.7316 342.925L149.983 354.988L161.16 325.192Z" fill="#F57AFF"/>
<path d="M55.5866 289.332C38.9523 281.901 39.7808 272.235 30.5428 272.156C25.4642 272.114 19.1609 279.509 18.2097 283.526C15.555 294.867 35.7241 311.167 52.5607 312.603C69.3973 314.038 71.087 296.266 55.5866 289.332Z" fill="#9556E1"/>
<path d="M61.1971 349.043C50.5125 357.828 53.395 364.976 46.5024 366.796C42.7295 367.788 36.3007 363.437 34.6654 360.516C30.0237 352.442 41.2806 336.256 53.5304 331.981C65.7801 327.706 71.1756 340.843 61.1971 349.043Z" fill="#9556E1"/>
<path d="M102.396 340.414C104.549 343.434 107.256 347.545 117.652 343.811C126.221 340.73 137.847 330.191 131.913 325.535C127.161 321.803 124.228 327.003 117.334 331.971C110.441 336.939 105.285 331.747 105.285 331.747L102.396 340.414Z" fill="#9556E1"/>
<path fill-rule="evenodd" clip-rule="evenodd" d="M67.6908 354.564C67.3872 355.586 66.8493 356.347 66.0682 356.757C62.9742 358.382 57.2354 353.898 53.2503 346.743C49.4438 339.908 48.6142 333.107 51.2439 331.096C51.5455 323.794 54.9053 314.8 60.0378 302.302C64.6636 291.038 63.6455 283.558 62.829 277.56C61.7154 269.379 60.9769 263.954 75.4459 255.44C75.4459 255.44 97.0217 253.286 110.323 266.306C113.545 266.36 118.241 270.527 121.653 276.653C125.638 283.808 126.36 290.926 123.266 292.551C122.491 292.958 121.55 292.982 120.512 292.676L120.514 292.757C123.642 299.256 124.004 305.334 121.175 306.819C120.647 307.096 120.041 307.196 119.381 307.134C119.325 307.463 119.268 307.793 119.209 308.126C120.639 312.836 120.359 316.728 118.172 317.877C117.852 318.045 117.504 318.147 117.133 318.189C118.371 322.64 118.028 326.266 115.93 327.368C115.427 327.632 114.853 327.735 114.229 327.691C114.591 330.709 114.011 333.013 112.413 333.852C112.193 333.968 111.961 334.052 111.716 334.107C112.036 337.041 111.448 339.274 109.88 340.098C109.531 340.281 109.149 340.387 108.739 340.419C109.028 343.29 108.434 345.47 106.889 346.281C105.998 346.749 104.887 346.71 103.662 346.247C100.091 350.33 96.2566 353.063 92.3942 354.778C92.1426 356.129 91.5552 357.128 90.6166 357.621C89.3978 358.261 87.7687 357.953 85.998 356.907C85.7405 358.23 85.1566 359.207 84.2314 359.693C82.48 360.612 79.8813 359.575 77.2329 357.204C76.9315 357.719 76.5354 358.118 76.0424 358.377C73.9929 359.453 70.7828 357.849 67.6908 354.564Z" fill="url(#paint0_radial_24_243)"/>
<path d="M89.8839 351.885C89.8277 365.942 82.7612 368.364 85.5901 374.918C87.1426 378.516 94.2863 380.669 97.4458 380.078C106.272 378.429 111.487 359.108 107.234 346.767C102.981 334.425 89.9411 338.77 89.8839 351.885Z" fill="#AD6EF9"/>
<path d="M117.793 297.911C135.444 294.511 136.797 285.087 145.726 287.062C150.598 288.156 154.983 296.625 154.977 300.725C154.973 312.206 131.938 323.296 115.474 320.864C99.0099 318.433 101.36 301.058 117.793 297.911Z" fill="#AD6EF9"/>
<path d="M59.1529 236.41C59.1529 236.41 58.1612 234.908 51.5155 224.147C39.0169 204.079 51.1215 192.36 53.3801 169.832C54.2073 161.555 55.9227 152.801 61.2021 158.601C69.9627 168.214 66.2187 177.39 63.8411 185.787C66.6173 178.766 69.3708 176.394 71.2396 177.911C74.7563 180.827 75.7832 190.969 72.1572 202.438C72.1572 202.438 75.6018 195.441 78.5428 197.272C84.0755 200.828 82.0567 212.543 76.6982 218.843C70.8323 225.745 69.3415 231.098 69.6315 233.921C69.933 238.064 60.0041 237.267 59.1529 236.41Z" fill="url(#paint1_linear_24_243)"/>
<path d="M39.8785 253.169C40.3515 282.128 66.9118 297.986 98.9211 297.425C130.93 296.864 156.308 280.245 155.835 251.286C155.362 222.327 127.851 201.569 95.8497 202.908C73.7622 203.846 39.3983 224.186 39.8785 253.169Z" fill="white"/>
<path d="M85.5641 260.721C85.5641 260.721 81.301 272.579 78.8501 267.837C77.6424 265.296 76.5146 262.092 75.7975 259.981C75.7975 259.981 71.7694 270.194 68.8861 266.613C66.0029 263.032 67.232 256.672 67.232 256.672" stroke="#F088FE" stroke-width="2.19461" stroke-linecap="round" stroke-linejoin="round"/>
<path d="M105.918 260.306C102.313 261.385 98.515 259.336 97.4352 255.729C96.3554 252.122 98.4024 248.323 102.007 247.244C105.612 246.164 109.41 248.214 110.49 251.821C111.57 255.428 109.523 259.227 105.918 260.306Z" fill="#003451"/>
<path d="M124.519 251.09C124.519 251.09 124.993 249.361 128.577 237.177C135.252 214.478 152.051 215.745 170.359 202.447C177.084 197.577 184.728 193.04 183.952 200.825C182.544 213.786 173.268 217.066 165.432 220.919C172.511 218.337 176.119 218.818 176.229 221.219C176.432 225.827 169.504 233.285 158.538 238.208C158.538 238.208 166.046 236.132 166.584 239.516C167.63 246.015 157.536 252.304 149.308 252.466C140.218 252.66 135.27 255.121 133.342 257.245C130.49 260.216 124.47 252.296 124.519 251.09Z" fill="url(#paint2_linear_24_243)"/>
<path d="M55.172 254.985C51.567 256.064 47.7693 254.015 46.6894 250.408C45.6096 246.801 47.6567 243.002 51.2616 241.923C54.8666 240.843 58.6643 242.893 59.7441 246.5C60.8239 250.107 58.7769 253.906 55.172 254.985Z" fill="#003451"/>
<ellipse cx="77.3747" cy="210.842" rx="14.5252" ry="6.15764" transform="rotate(-25.841 77.3747 210.842)" fill="white"/>
<ellipse cx="100.264" cy="204.389" rx="14.5252" ry="6.15764" transform="rotate(-13.9666 100.264 204.389)" fill="white"/>
<ellipse cx="123.455" cy="203.913" rx="14.5252" ry="6.15764" transform="rotate(-13.9666 123.455 203.913)" fill="white"/>
<ellipse cx="128.817" cy="213.536" rx="14.5252" ry="6.15764" transform="rotate(-13.9666 128.817 213.536)" fill="white"/>
<path d="M9 12.5C12.2636 80.2329 21.0299 246.359 27.4798 327.7" stroke="#003451" stroke-width="3" stroke-linecap="round"/>
<path d="M141.5 7C144.764 74.7329 154.392 193.395 162.36 333.887" stroke="#003451" stroke-width="3" stroke-linecap="round"/>
<defs>
<radialGradient id="paint0_radial_24_243" cx="0" cy="0" r="1" gradientUnits="userSpaceOnUse" gradientTransform="translate(71.8483 297.932) rotate(17.8445) scale(52.006 200.095)">
<stop stop-color="#C8EBFF"/>
<stop offset="0.322917" stop-color="white"/>
<stop offset="1" stop-color="white"/>
</radialGradient>
<linearGradient id="paint1_linear_24_243" x1="49.6403" y1="159.188" x2="72.356" y2="235.067" gradientUnits="userSpaceOnUse">
<stop stop-color="#E0C1FD"/>
<stop offset="1" stop-color="#AD6EF9"/>
</linearGradient>
<linearGradient id="paint2_linear_24_243" x1="148.64" y1="206.269" x2="161.588" y2="249.522" gradientUnits="userSpaceOnUse">
<stop stop-color="#E0C1FD"/>
<stop offset="1" stop-color="#AD6EF9"/>
</linearGradient>
</defs>
</svg>
