<svg width="268" height="308" viewBox="0 0 268 308" fill="none" xmlns="http://www.w3.org/2000/svg">
<path d="M185.341 253.824C200.271 256.772 201.399 264.797 208.936 263.139C213.079 262.226 216.833 255.029 216.858 251.581C216.905 241.851 197.442 232.34 183.465 234.311C169.488 236.282 171.427 251.068 185.341 253.824Z" fill="#AD6EF9"/>
<path d="M92.3568 269.859C90.4116 284.954 82.4906 286.613 84.6496 294.034C85.8353 298.094 93.2165 301.373 96.7035 301.116C106.41 300.513 114.609 280.437 111.695 266.622C108.78 252.807 94.1695 255.765 92.3568 269.859Z" fill="#AD6EF9"/>
<path d="M60.2435 220.645C54.3052 220.739 46.4334 221.155 41.3723 204.204C37.2035 190.23 39.7469 165.23 51.387 168.458C60.712 171.039 56.794 179.761 56.9377 193.367C57.0814 206.973 68.6729 208.687 68.6729 208.687L60.2435 220.645Z" fill="#AD6EF9"/>
<path fill-rule="evenodd" clip-rule="evenodd" d="M57.8056 226.61C56.4162 226.437 55.3177 225.914 54.6225 225.012C51.8738 221.443 56.4692 213.294 64.8866 206.811C72.9309 200.614 81.5547 198.181 84.7026 201.092C94.2037 199.986 106.533 202.385 123.757 206.301C139.289 209.832 148.747 207.022 156.332 204.769C166.676 201.695 173.537 199.656 187.574 216.157C187.574 216.157 194.873 242.897 180.84 262.319C181.456 266.391 177.049 273.169 169.837 278.725C161.419 285.209 152.367 287.572 149.619 284.004C148.931 283.111 148.703 281.931 148.88 280.561L148.74 280.587C140.994 285.853 133.217 287.547 130.705 284.285C130.236 283.676 129.98 282.934 129.921 282.09C129.493 282.087 129.062 282.082 128.628 282.075C122.836 284.842 117.742 285.285 115.798 282.762C115.513 282.391 115.306 281.971 115.175 281.508C109.681 283.976 104.923 284.282 103.06 281.863C102.614 281.285 102.362 280.586 102.287 279.793C98.4601 280.866 95.3587 280.605 93.9389 278.762C93.7422 278.507 93.5831 278.228 93.4604 277.928C89.7281 278.934 86.7121 278.65 85.3178 276.84C85.0085 276.438 84.7923 275.979 84.6639 275.47C81.0198 276.416 78.0827 276.111 76.7123 274.332C75.9218 273.306 75.7387 271.901 76.0794 270.265C70.0476 266.596 65.707 262.318 62.6806 257.797C60.8886 257.752 59.481 257.216 58.6498 256.137C57.5672 254.731 57.6239 252.615 58.6046 250.17C56.8357 250.118 55.4461 249.581 54.6225 248.512C53.0658 246.491 53.8646 243.001 56.3793 239.176C55.6535 238.901 55.0587 238.484 54.6225 237.918C52.8014 235.554 54.2039 231.179 57.8056 226.61Z" fill="url(#paint0_radial_40_557)"/>
<path d="M63.7844 255.467C54.4572 267.497 46.7928 264.911 44.8944 272.405C43.8525 276.518 48.5635 283.082 51.6659 284.66C60.3307 289.07 77.5617 275.928 82.0569 262.526C86.5522 249.124 72.4907 244.246 63.7844 255.467Z" fill="#AD6EF9"/>
<path d="M166.496 272.429C178.252 282.134 175.428 289.698 182.877 291.858C186.948 293.024 193.654 288.503 195.316 285.448C199.98 276.901 187.342 259.284 174.1 254.402C160.857 249.52 155.544 263.407 166.496 272.429Z" fill="#AD6EF9"/>
<path d="M219.464 131.76C219.464 131.76 220.952 129.282 230.875 111.56C249.548 78.5072 229.324 60.5376 224.154 24.5509C222.258 11.3293 218.905 -2.59761 210.834 7.0706C197.439 23.094 204.076 37.5586 208.467 50.8667C203.531 39.7926 198.95 36.1763 196.056 38.7387C190.615 43.6575 189.664 59.9994 196.268 78.1503C196.268 78.1503 190.262 67.1619 185.669 70.3017C177.037 76.3854 181.08 95.0419 190.11 104.781C199.994 115.45 202.753 123.937 202.482 128.486C202.283 135.153 218.157 133.192 219.464 131.76Z" fill="url(#paint1_linear_40_557)"/>
<path d="M251.536 157.321C252.766 203.812 211.244 231.077 159.853 232.375C108.461 233.672 66.606 208.753 65.3763 162.262C64.1465 115.771 106.858 80.5784 158.29 80.5298C193.79 80.5175 250.317 110.79 251.536 157.321Z" fill="white"/>
<path d="M178.759 172.55C178.759 172.55 186.413 191.281 190.019 183.505C191.782 179.346 193.372 174.128 194.377 170.692C194.377 170.692 201.541 186.801 205.921 180.858C210.3 174.914 207.892 164.795 207.892 164.795" stroke="#AD6EF9" stroke-width="5.12366" stroke-linecap="round" stroke-linejoin="round"/>
<path d="M115.604 159.788C115.604 159.788 114.725 157.047 108.139 137.746C95.8707 101.787 69.0076 104.974 38.7231 84.897C27.5996 77.5451 15.0238 70.7909 16.8034 83.2275C19.952 103.924 35.0602 108.549 47.896 114.194C36.3609 110.537 30.6063 111.556 30.5937 115.415C30.5844 122.823 42.2124 134.312 60.1435 141.457C60.1435 141.457 47.9545 138.642 47.325 144.108C46.0922 154.606 62.7188 164.003 75.9291 163.697C90.5255 163.385 98.6328 166.992 101.873 170.269C106.652 174.838 115.766 161.718 115.604 159.788Z" fill="url(#paint2_linear_40_557)"/>
<path d="M227.119 161.286C232.976 162.77 238.929 159.221 240.413 153.361C241.898 147.5 238.353 141.546 232.495 140.062C226.638 138.578 220.686 142.126 219.201 147.987C217.716 153.848 221.261 159.802 227.119 161.286Z" fill="#003451"/>
<ellipse cx="23.3243" cy="9.88781" rx="23.3243" ry="9.88781" transform="matrix(-0.917822 -0.396992 -0.396992 0.917822 213.803 92.1719)" fill="white"/>
<ellipse cx="23.3243" cy="9.88781" rx="23.3243" ry="9.88781" transform="matrix(-0.97987 -0.199639 -0.199639 0.97987 176.132 78.1797)" fill="white"/>
<ellipse cx="23.3243" cy="9.88781" rx="23.3243" ry="9.88781" transform="matrix(-0.97987 -0.199639 -0.199639 0.97987 138.901 78.9922)" fill="white"/>
<ellipse cx="23.3243" cy="9.88781" rx="23.3243" ry="9.88781" transform="matrix(-0.97987 -0.199639 -0.199639 0.97987 130.956 94.8125)" fill="white"/>
<path d="M132.725 168.141C135.448 168.798 147.006 173.248 156.71 176.31L134.754 186.941" stroke="#003451" stroke-width="6" stroke-linecap="round" stroke-linejoin="round"/>
<defs>
<radialGradient id="paint0_radial_40_557" cx="0" cy="0" r="1" gradientUnits="userSpaceOnUse" gradientTransform="translate(131.887 220.291) rotate(98.8631) scale(66.4509 261.9)">
<stop stop-color="#C8EBFF"/>
<stop offset="0.322917" stop-color="white"/>
<stop offset="1" stop-color="white"/>
</radialGradient>
<linearGradient id="paint1_linear_40_557" x1="229.423" y1="7.21817" x2="198.19" y2="130.511" gradientUnits="userSpaceOnUse">
<stop stop-color="#AD6EF9"/>
<stop offset="1" stop-color="#7E60F3"/>
</linearGradient>
<linearGradient id="paint2_linear_40_557" x1="73.8295" y1="89.5363" x2="56.026" y2="159.817" gradientUnits="userSpaceOnUse">
<stop stop-color="#AD6EF9"/>
<stop offset="1" stop-color="#7E60F3"/>
</linearGradient>
</defs>
</svg>
