<svg width="143" height="43" viewBox="0 0 143 43" fill="none" xmlns="http://www.w3.org/2000/svg">
<path d="M118.937 4.60025C118.539 4.58357 118.142 4.64755 117.769 4.78836C117.397 4.92916 117.056 5.14387 116.769 5.41958C116.481 5.69529 116.253 6.0263 116.096 6.39271C115.94 6.75911 115.859 7.15334 115.859 7.55168C115.859 7.95002 115.94 8.34425 116.096 8.71066C116.253 9.07706 116.481 9.40807 116.769 9.68378C117.056 9.95949 117.397 10.1742 117.769 10.315C118.142 10.4558 118.539 10.5198 118.937 10.5031C119.335 10.5198 119.732 10.4558 120.105 10.315C120.478 10.1742 120.818 9.95949 121.105 9.68378C121.393 9.40807 121.622 9.07706 121.778 8.71066C121.934 8.34425 122.015 7.95002 122.015 7.55168C122.015 7.15334 121.934 6.75911 121.778 6.39271C121.622 6.0263 121.393 5.69529 121.105 5.41958C120.818 5.14387 120.478 4.92916 120.105 4.78836C119.732 4.64755 119.335 4.58357 118.937 4.60025Z" fill="#003451"/>
<path d="M111.856 13.2031H108.944C108.668 13.2114 108.401 13.3065 108.183 13.4749C107.964 13.6434 107.804 13.8765 107.726 14.1412C107.709 14.1853 107.683 14.2254 107.65 14.2589C107.617 14.2924 107.577 14.3185 107.533 14.3356C107.489 14.3527 107.442 14.3604 107.395 14.3581C107.348 14.3559 107.301 14.3438 107.259 14.3225C105.877 13.6531 104.364 13.299 102.828 13.286C101.354 13.2848 99.8977 13.6133 98.5666 14.2475C97.2355 14.8817 96.0631 15.8056 95.1352 16.9515C94.2073 18.0974 93.5474 19.4363 93.2038 20.8702C92.8602 22.3041 92.8417 23.7967 93.1495 25.2387C93.4574 26.6807 94.0838 28.0356 94.983 29.2042C95.8821 30.3728 97.0312 31.3255 98.3462 31.9926C99.6611 32.6597 101.109 33.0242 102.583 33.0596C104.057 33.095 105.52 32.8002 106.865 32.197V32.197C107.27 32.0052 107.477 32.1503 107.503 32.4354C107.436 35.9802 105.622 37.5557 102.419 37.5557C101.655 37.5891 100.895 37.4215 100.216 37.0696C99.5362 36.7177 98.9611 36.1937 98.5475 35.5501C98.477 35.4381 98.379 35.3461 98.2629 35.2826C98.1469 35.2191 98.0165 35.1863 97.8842 35.1873H94.0595C93.9644 35.1861 93.8702 35.2067 93.7843 35.2475C93.6984 35.2884 93.623 35.3484 93.5639 35.423C93.5048 35.4976 93.4637 35.5848 93.4436 35.6778C93.4235 35.7708 93.425 35.8672 93.448 35.9595C94.3549 39.2659 97.708 42.1007 102.58 42.1007C109.768 42.1007 112.602 37.3225 112.602 32.0778V13.9494C112.602 13.7515 112.524 13.5617 112.384 13.4217C112.244 13.2818 112.054 13.2031 111.856 13.2031ZM102.828 28.0562C101.859 28.0562 100.911 27.7686 100.105 27.2299C99.2983 26.6912 98.6699 25.9255 98.2988 25.0297C97.9278 24.1338 97.8307 23.1481 98.0199 22.1971C98.209 21.246 98.676 20.3725 99.3616 19.6868C100.047 19.0012 100.921 18.5343 101.872 18.3451C102.823 18.1559 103.809 18.253 104.704 18.6241C105.6 18.9951 106.366 19.6235 106.905 20.4298C107.443 21.236 107.731 22.1839 107.731 23.1535C107.73 24.4534 107.213 25.6996 106.293 26.6187C105.374 27.5378 104.128 28.0548 102.828 28.0562V28.0562Z" fill="#003451"/>
<path d="M60.4929 13.3684C58.5187 13.0771 56.5026 13.3896 54.7092 14.265C54.6721 14.2835 54.6309 14.2923 54.5894 14.2904C54.548 14.2885 54.5077 14.2761 54.4724 14.2543C54.4371 14.2325 54.4079 14.202 54.3877 14.1658C54.3675 14.1296 54.3568 14.0888 54.3568 14.0473V5.35107C54.3568 5.15177 54.2776 4.96064 54.1367 4.81971C53.9958 4.67878 53.8046 4.59961 53.6053 4.59961H50.0139C49.8155 4.60098 49.6256 4.68075 49.4858 4.82153C49.346 4.96231 49.2676 5.15266 49.2676 5.35107V31.9839C49.2676 32.0824 49.2871 32.1799 49.3249 32.2707C49.3627 32.3616 49.4181 32.4441 49.488 32.5135C49.5578 32.5829 49.6407 32.6377 49.7319 32.6749C49.823 32.7121 49.9206 32.7309 50.019 32.7302H53.1855C53.3985 32.731 53.607 32.669 53.7849 32.5519C53.9628 32.4348 54.1022 32.2679 54.1858 32.072C54.1986 32.0402 54.2179 32.0113 54.2425 31.9872C54.267 31.9632 54.2963 31.9445 54.3284 31.9323C54.3605 31.9202 54.3949 31.9148 54.4292 31.9165C54.4635 31.9183 54.4971 31.9271 54.5278 31.9425C56.1166 32.7621 57.898 33.1352 59.6821 33.022C61.4662 32.9087 63.1862 32.3134 64.6586 31.2996C66.131 30.2857 67.3006 28.8912 68.0428 27.2649C68.785 25.6385 69.0719 23.8412 68.873 22.0646C68.6315 19.8936 67.6786 17.8634 66.1628 16.2904C64.647 14.7175 62.6535 13.6901 60.4929 13.3684V13.3684ZM59.0366 28.0556C58.0669 28.0556 57.1191 27.7681 56.3128 27.2294C55.5066 26.6907 54.8782 25.925 54.5071 25.0291C54.1361 24.1333 54.039 23.1475 54.2281 22.1965C54.4173 21.2455 54.8842 20.3719 55.5699 19.6863C56.2555 19.0006 57.1291 18.5337 58.0801 18.3445C59.0312 18.1554 60.0169 18.2524 60.9128 18.6235C61.8086 18.9946 62.5743 19.623 63.113 20.4292C63.6517 21.2354 63.9392 22.1833 63.9392 23.153C63.9379 24.4528 63.4209 25.699 62.5018 26.6181C61.5826 27.5373 60.3364 28.0542 59.0366 28.0556V28.0556Z" fill="#003451"/>
<path d="M142.035 16.7948C140.709 13.3588 136.936 12.1305 133.51 12.7939C132.571 12.9732 131.668 13.304 130.836 13.7734C130.774 13.8045 130.639 13.9133 130.504 14.0014C130.432 14.0305 130.352 14.0335 130.279 14.0098C130.205 13.9861 130.142 13.9373 130.1 13.8719C130.016 13.676 129.877 13.5091 129.699 13.392C129.521 13.2749 129.313 13.2129 129.1 13.2137V13.2137H129.058H125.949C125.85 13.2137 125.751 13.2333 125.66 13.2714C125.568 13.3095 125.485 13.3653 125.416 13.4356C125.346 13.5059 125.29 13.5894 125.253 13.6812C125.216 13.7729 125.197 13.8712 125.197 13.9703V32.0158C125.197 32.2096 125.274 32.3955 125.411 32.5325C125.548 32.6695 125.734 32.7465 125.928 32.7465H129.597C129.791 32.7465 129.977 32.6695 130.114 32.5325C130.251 32.3955 130.328 32.2096 130.328 32.0158V21.3398C130.328 19.1217 131.649 17.3752 133.904 17.3752C136.391 17.3752 137.444 19.044 137.444 21.1844V31.9899C137.444 32.1906 137.523 32.383 137.665 32.5249C137.807 32.6668 138 32.7465 138.2 32.7465H141.854C142.054 32.7452 142.246 32.665 142.387 32.5234C142.529 32.3818 142.609 32.1901 142.61 31.9899V20.2774C142.633 19.0912 142.438 17.9109 142.035 16.7948V16.7948Z" fill="#003451"/>
<path d="M120.776 13.2031H117.102C116.69 13.2031 116.355 13.5372 116.355 13.9494V31.9845C116.355 32.3967 116.69 32.7308 117.102 32.7308H120.776C121.188 32.7308 121.522 32.3967 121.522 31.9845V13.9494C121.522 13.5372 121.188 13.2031 120.776 13.2031Z" fill="#003451"/>
<path d="M80.8148 13.2129C74.9742 13.2129 70.626 18.3021 70.9681 23.9459C71.1505 26.2749 72.1549 28.4632 73.8021 30.1199C75.4493 31.7765 77.6318 32.7936 79.9597 32.9893V32.9893C86.8525 33.5076 89.4696 29.3097 90.2107 27.5477C90.2456 27.4626 90.259 27.3703 90.2498 27.2789C90.2405 27.1874 90.2089 27.0996 90.1577 27.0233C90.1064 26.947 90.0372 26.8844 89.956 26.8412C89.8749 26.798 89.7844 26.7754 89.6925 26.7755H85.6242C85.3879 26.7796 85.1612 26.8699 84.9868 27.0294C82.8878 28.89 80.0219 28.4235 79.6488 28.351H79.6125C78.7654 28.1573 77.9802 27.7547 77.3284 27.1799C76.6767 26.6051 76.1792 25.8764 75.8811 25.0601C75.8653 25.018 75.8598 24.9727 75.8652 24.928C75.8706 24.8833 75.8867 24.8406 75.9122 24.8035C75.9376 24.7663 75.9716 24.7359 76.0113 24.7147C76.051 24.6935 76.0952 24.6822 76.1402 24.6818H89.7702C89.8845 24.6824 89.9979 24.6606 90.1038 24.6175C90.2097 24.5744 90.306 24.5108 90.3874 24.4304C90.4687 24.3501 90.5334 24.2545 90.5778 24.1491C90.6222 24.0437 90.6454 23.9306 90.646 23.8163V22.8472C90.4025 17.7113 86.6503 13.2129 80.8148 13.2129ZM85.0749 20.7586H76.6377C76.5932 20.7597 76.549 20.7511 76.5081 20.7336C76.4672 20.7161 76.4305 20.69 76.4005 20.6571C76.3705 20.6242 76.348 20.5852 76.3344 20.5428C76.3208 20.5004 76.3164 20.4556 76.3216 20.4114C76.5807 18.8566 78.5086 17.3744 80.8563 17.3744C83.204 17.3744 85.137 18.8515 85.391 20.4114C85.3971 20.4558 85.3934 20.5009 85.3801 20.5437C85.3668 20.5865 85.3443 20.6259 85.3142 20.659C85.284 20.6921 85.247 20.7182 85.2056 20.7354C85.1642 20.7526 85.1196 20.7606 85.0749 20.7586V20.7586Z" fill="#003451"/>
<path fill-rule="evenodd" clip-rule="evenodd" d="M18.5519 21.0912L7.29036 32.358C7.21781 32.425 7.16076 32.5071 7.12321 32.5985C7.08566 32.6899 7.06851 32.7883 7.07295 32.887C7.07739 32.9857 7.10332 33.0823 7.14893 33.1699C7.19453 33.2575 7.25872 33.3342 7.337 33.3945C10.6618 36.042 14.7863 37.4836 19.0365 37.4836C23.2867 37.4836 27.4112 36.042 30.736 33.3945C30.8143 33.3342 30.8785 33.2575 30.9241 33.1699C30.9697 33.0823 30.9956 32.9857 31 32.887C31.0045 32.7883 30.9873 32.6899 30.9498 32.5985C30.9122 32.5071 30.8552 32.425 30.7826 32.358L19.5159 21.0912C19.3877 20.964 19.2145 20.8926 19.0339 20.8926C18.8533 20.8926 18.6801 20.964 18.5519 21.0912" fill="#003451"/>
<path fill-rule="evenodd" clip-rule="evenodd" d="M10.3994 24.5841C9.57979 23.39 9.01847 22.0379 8.75137 20.6143C8.72474 20.4554 8.64328 20.3109 8.52115 20.2058C8.39902 20.1007 8.24393 20.0417 8.08283 20.0391H1.07091C0.975544 20.0393 0.881291 20.0595 0.794194 20.0983C0.707097 20.1372 0.629081 20.1938 0.565153 20.2646C0.501225 20.3353 0.452797 20.4187 0.422978 20.5092C0.393158 20.5998 0.382606 20.6956 0.391998 20.7905C0.785696 24.2925 2.15992 27.6122 4.35661 30.3678C4.41694 30.4418 4.4922 30.5022 4.57747 30.5452C4.66274 30.5881 4.75611 30.6126 4.85148 30.617C4.94685 30.6214 5.04208 30.6056 5.13094 30.5707C5.2198 30.5358 5.30031 30.4826 5.3672 30.4144L10.3217 25.46C10.4355 25.3464 10.5057 25.1964 10.5199 25.0362C10.5341 24.876 10.4914 24.716 10.3994 24.5841" fill="#003451"/>
<path fill-rule="evenodd" clip-rule="evenodd" d="M10.3002 11.8759L5.34574 6.9214C5.27845 6.85402 5.19783 6.80143 5.10905 6.76699C5.02026 6.73256 4.92527 6.71704 4.83014 6.72143C4.73501 6.72582 4.64185 6.75002 4.55662 6.79249C4.47138 6.83496 4.39595 6.89475 4.33515 6.96805C2.13847 9.72364 0.764237 13.0433 0.370539 16.5453C0.360936 16.642 0.372026 16.7396 0.403072 16.8316C0.434119 16.9236 0.484408 17.008 0.550596 17.0791C0.616784 17.1502 0.697352 17.2064 0.78694 17.2439C0.876528 17.2814 0.973081 17.2995 1.07018 17.2968H8.05619C8.21654 17.2944 8.37103 17.2361 8.49306 17.1321C8.61509 17.028 8.69702 16.8846 8.72473 16.7267C8.98839 15.3014 9.54805 13.9473 10.3676 12.7517C10.463 12.6218 10.5086 12.462 10.4963 12.3013C10.4839 12.1406 10.4143 11.9897 10.3002 11.8759" fill="#003451"/>
<path fill-rule="evenodd" clip-rule="evenodd" d="M17.6547 7.68898V0.687416C17.6551 0.591619 17.6355 0.496795 17.597 0.409079C17.5584 0.321363 17.5019 0.24271 17.4311 0.178221C17.3603 0.113731 17.2767 0.0648405 17.1857 0.0347126C17.0948 0.00458465 16.9985 -0.00610957 16.9032 0.00332626C13.3998 0.395215 10.0792 1.77163 7.32594 3.97312C7.25194 4.03345 7.19151 4.10871 7.14857 4.19398C7.10564 4.27925 7.08117 4.37262 7.07677 4.46799C7.07237 4.56336 7.08813 4.65859 7.12303 4.74745C7.15793 4.83632 7.21117 4.91682 7.27929 4.98371L12.2338 9.933C12.348 10.046 12.4983 10.1153 12.6585 10.1285C12.8186 10.1418 12.9783 10.0983 13.1096 10.0056C14.3049 9.18794 15.6565 8.6268 17.0794 8.35752C17.2383 8.33089 17.3829 8.24943 17.488 8.1273C17.593 8.00516 17.652 7.85008 17.6547 7.68898Z" fill="#003451"/>
<path fill-rule="evenodd" clip-rule="evenodd" d="M30.735 3.97312C27.9817 1.77163 24.6611 0.395215 21.1577 0.00332626C21.0624 -0.00610957 20.9661 0.00458465 20.8752 0.0347126C20.7843 0.0648405 20.7007 0.113731 20.6298 0.178221C20.559 0.24271 20.5025 0.321363 20.464 0.409079C20.4255 0.496795 20.4058 0.591619 20.4063 0.687416V7.68898C20.4087 7.84933 20.4669 8.00382 20.571 8.12585C20.675 8.24788 20.8184 8.3298 20.9763 8.35752C22.4011 8.62583 23.7547 9.18702 24.9513 10.0056C25.0826 10.0983 25.2423 10.1418 25.4024 10.1285C25.5626 10.1153 25.7129 10.046 25.8272 9.933L30.7816 4.98371C30.8497 4.91682 30.903 4.83632 30.9379 4.74745C30.9728 4.65859 30.9885 4.56336 30.9841 4.46799C30.9797 4.37262 30.9553 4.27925 30.9123 4.19398C30.8694 4.10871 30.809 4.03345 30.735 3.97312" fill="#003451"/>
<path fill-rule="evenodd" clip-rule="evenodd" d="M30.0153 17.2957H37.0168C37.1126 17.2962 37.2075 17.2765 37.2952 17.238C37.3829 17.1995 37.4615 17.143 37.526 17.0722C37.5905 17.0013 37.6394 16.9177 37.6695 16.8268C37.6997 16.7359 37.7104 16.6396 37.7009 16.5443C37.306 13.0398 35.926 9.7191 33.7208 6.96701C33.66 6.88949 33.5831 6.82601 33.4955 6.78092C33.4079 6.73583 33.3116 6.7102 33.2132 6.70577C33.1148 6.70134 33.0166 6.71822 32.9253 6.75526C32.834 6.7923 32.7518 6.84862 32.6843 6.92037L27.735 11.8748C27.6219 11.9891 27.5527 12.1394 27.5394 12.2996C27.5262 12.4597 27.5697 12.6194 27.6624 12.7507C28.4902 13.9387 29.0637 15.2849 29.3467 16.7049C29.3744 16.8629 29.4564 17.0062 29.5784 17.1103C29.7004 17.2144 29.8549 17.2726 30.0153 17.275" fill="#003451"/>
<path fill-rule="evenodd" clip-rule="evenodd" d="M29.3476 20.6143C29.0783 22.0372 28.5171 23.3889 27.6995 24.5841C27.6068 24.7154 27.5633 24.8751 27.5766 25.0352C27.5898 25.1954 27.659 25.3458 27.7721 25.46L32.7214 30.4144C32.7884 30.487 32.8705 30.544 32.9619 30.5816C33.0533 30.6191 33.1518 30.6363 33.2505 30.6318C33.3491 30.6274 33.4457 30.6015 33.5333 30.5559C33.621 30.5103 33.6976 30.4461 33.7579 30.3678C35.9594 27.6145 37.3358 24.2939 37.7277 20.7905C37.7371 20.6952 37.7264 20.599 37.6963 20.508C37.6662 20.4171 37.6173 20.3335 37.5528 20.2626C37.4883 20.1918 37.4096 20.1353 37.3219 20.0968C37.2342 20.0583 37.1394 20.0386 37.0436 20.0391H30.0161C29.855 20.0417 29.6999 20.1007 29.5778 20.2058C29.4556 20.3109 29.3742 20.4554 29.3476 20.6143" fill="#003451"/>
</svg>
