<svg width="1412" height="837" viewBox="0 0 1412 837" fill="none" xmlns="http://www.w3.org/2000/svg">
<g clip-path="url(#clip0_13_2132)">
<path opacity="0.8" d="M359.231 823.435C368.223 807.865 379.444 771.894 352.385 752.566C325.327 733.238 307.824 736.191 302.455 740.084C317.488 710.153 328.306 651.259 251.317 655.125C254.217 627.421 234.271 613.785 223.936 610.43C226.218 598.485 225.144 573.305 202.595 568.151C180.046 562.997 167.698 568.956 164.342 572.58C159.779 567.347 148.236 558.008 138.572 562.516C150.652 551.242 157.094 512.588 136.156 500.105C159.51 498.494 216.286 431.653 173.201 385.749C184.878 348.704 159.108 312.867 121.66 333.806C116.023 328.974 101.527 326.961 97.9032 333.806C99.9165 316.893 62.0663 293.136 41.1279 314.88C40.7253 298.774 26.2294 285.887 15.7602 289.108C26.632 271.794 16.9682 235.152 -17.258 241.997C-43.7213 247.29 -46.2382 262.287 -44.0749 269.83C-46.7542 261.748 -54.7027 247.645 -67.1881 250.454C-55.9136 233.945 -72.8254 209.785 -87.7238 208.577C-80.637 191.182 -95.2403 175.559 -103.428 169.922H-624.472V823.435H359.231Z" fill="#AD6EF9"/>
<path opacity="0.5" d="M552.403 1076.13C550.341 1041.07 540.029 1002.91 487.439 1014.77C498.782 987.962 474.033 962.183 459.596 969.917C463.309 950.943 461.143 938.294 459.596 934.342C477.47 932.623 511.775 918.667 506 876.595C500.225 834.523 472.658 832.598 459.596 836.894C471.111 816.958 485.479 770.898 450.831 746.149C416.183 721.401 393.772 725.182 386.898 730.166C406.147 691.841 419.999 616.429 321.417 621.379C325.13 585.906 299.59 568.445 286.357 564.149C289.279 548.853 287.904 516.611 259.03 510.012C230.157 503.412 214.346 511.043 210.049 515.683C204.206 508.983 189.425 497.025 177.051 502.797C192.519 488.36 200.768 438.865 173.957 422.882C203.862 420.819 276.561 335.231 221.392 276.453C236.344 229.018 203.346 183.13 155.396 209.941C148.178 203.754 129.616 201.177 124.976 209.941C127.554 188.286 79.0881 157.865 52.2772 185.708C51.7616 165.084 33.2001 148.583 19.7947 152.708C33.7157 130.537 21.3416 83.6182 -22.4839 92.3833C-56.3693 99.1604 -59.592 118.364 -56.822 128.023C-60.2527 117.674 -70.4305 99.6155 -86.4177 103.213C-71.981 82.0732 -93.636 51.1376 -112.713 49.5908C-103.638 27.3171 -122.337 7.31207 -132.821 0.09375H-800V1076.13H552.403Z" fill="#D1AAFF"/>
<path opacity="0.5" d="M527.839 840.444C526.228 813.063 518.175 783.263 477.104 792.524C485.962 771.586 466.634 751.453 455.36 757.493C458.259 742.675 456.568 732.797 455.36 729.71C469.319 728.368 496.109 717.469 491.599 684.612C487.09 651.755 465.561 650.251 455.36 653.607C464.353 638.037 475.573 602.066 448.515 582.738C421.456 563.41 403.953 566.363 398.585 570.255C413.617 540.325 424.435 481.431 347.447 485.296C350.346 457.593 330.401 443.957 320.066 440.602C322.347 428.657 321.274 403.477 298.724 398.323C276.175 393.169 263.827 399.128 260.472 402.752C255.908 397.519 244.365 388.18 234.701 392.688C246.781 381.413 253.224 342.759 232.285 330.277C255.64 328.666 312.415 261.824 269.33 215.921C281.007 178.876 255.237 143.039 217.789 163.978C212.152 159.146 197.656 157.133 194.032 163.978C196.046 147.065 158.196 123.308 137.257 145.052C136.854 128.945 122.359 116.059 111.889 119.28C122.761 101.966 113.097 65.3236 78.8712 72.1688C52.4079 77.4615 49.891 92.4589 52.0543 100.002C49.3751 91.9197 41.4265 77.8169 28.9411 80.6261C40.2156 64.117 23.3039 39.9573 8.4054 38.7493C15.4922 21.3543 0.888916 5.73101 -7.29852 0.09375H-528.343V840.444H527.839Z" fill="url(#paint0_linear_13_2132)"/>
<path opacity="0.5" d="M448.437 1110.05C459.982 1094.83 489.685 1070.06 516.134 1092.73C511.411 1058.09 557.067 1046.68 570.449 1057.31C569.268 1036.45 595.245 1017.16 615.711 1034.48C620.828 1010.86 654.283 999.839 670.42 1019.52C682.621 1008.1 702.3 1010.46 705.055 1017.15C707.81 1006.92 721.192 996.295 728.671 998.656C713.714 991.178 700.332 958.903 728.671 945.915C723.16 914.821 719.618 869.953 780.624 868.772C783.773 834.136 828.642 823.116 843.992 835.317C841.236 805.798 876.659 772.739 910.114 785.333C911.689 758.569 919.56 729.441 959.706 738.494C951.047 718.027 969.939 698.348 980.96 704.252C978.126 689.768 979.779 680.112 980.96 677.095C967.315 675.783 941.129 665.13 945.537 633.013C949.945 600.896 970.989 599.427 980.96 602.707C972.17 587.488 961.202 552.327 987.651 533.435C1014.1 514.543 1031.21 517.429 1036.46 521.234C1021.76 491.978 1011.19 434.411 1086.44 438.19C1083.61 411.111 1103.1 397.782 1113.21 394.503C1110.97 382.826 1112.02 358.214 1134.07 353.176C1156.11 348.138 1168.18 353.963 1171.46 357.505C1175.92 352.39 1187.2 343.262 1196.65 347.668C1184.84 336.648 1178.54 298.865 1199.01 286.664C1176.18 285.089 1120.68 219.754 1162.8 174.885C1151.38 138.675 1176.57 103.646 1213.18 124.112C1218.69 119.389 1232.86 117.422 1236.4 124.112C1234.43 107.581 1271.43 84.3594 1291.89 105.613C1292.29 89.8696 1306.46 77.2734 1316.69 80.4221C1306.06 63.4979 1315.51 27.6816 1348.96 34.3726C1374.83 39.546 1377.29 54.2055 1375.18 61.5786C1377.79 53.6784 1385.56 39.8934 1397.77 42.6393C1386.75 26.5022 1403.28 2.88698 1417.84 1.70622C1410.91 -15.2967 1425.19 -30.5679 1433.19 -36.0781H1942.49V1110.05H448.437Z" fill="#D1AAFF"/>
<ellipse cx="1454.57" cy="296.261" rx="417.311" ry="359.378" fill="url(#paint1_radial_13_2132)"/>
<path opacity="0.8" d="M851.45 840.788C861.008 828.19 885.596 807.685 907.491 826.452C903.582 797.78 941.377 788.331 952.455 797.129C951.477 779.86 972.981 763.894 989.924 778.23C994.16 758.681 1021.85 749.556 1035.21 765.847C1045.31 756.398 1061.6 758.351 1063.89 763.89C1066.17 755.419 1077.24 746.621 1083.43 748.576C1071.05 742.386 1059.98 715.668 1083.43 704.916C1078.87 679.176 1075.94 642.033 1126.44 641.055C1129.05 612.383 1166.19 603.26 1178.9 613.36C1176.62 588.924 1205.94 561.557 1233.64 571.983C1234.94 549.827 1241.46 525.714 1274.69 533.208C1267.52 516.265 1283.16 499.975 1292.28 504.862C1289.94 492.872 1291.31 484.878 1292.28 482.381C1280.99 481.295 1259.31 472.476 1262.96 445.889C1266.61 419.302 1284.03 418.085 1292.28 420.801C1285.01 408.202 1275.93 379.095 1297.82 363.456C1319.72 347.816 1333.88 350.206 1338.23 353.355C1326.06 329.137 1317.31 281.482 1379.6 284.609C1377.26 262.193 1393.4 251.159 1401.76 248.444C1399.91 238.778 1400.78 218.404 1419.03 214.233C1437.27 210.063 1447.27 214.885 1449.98 217.817C1453.67 213.583 1463.01 206.026 1470.83 209.674C1461.06 200.551 1455.85 169.273 1472.79 159.173C1453.89 157.87 1407.95 103.784 1442.81 66.6401C1433.37 36.6646 1454.22 7.66665 1484.52 24.6093C1489.08 20.6994 1500.81 19.0709 1503.74 24.6093C1502.11 10.9243 1532.74 -8.29908 1549.68 9.2952C1550.01 -3.7376 1561.74 -14.165 1570.21 -11.5585C1561.41 -25.5688 1569.23 -55.2183 1596.93 -49.6793C1618.34 -45.3967 1620.38 -33.2611 1618.63 -27.1576C1620.79 -33.6975 1627.23 -45.1091 1637.33 -42.836C1628.21 -56.1946 1641.89 -75.7438 1653.95 -76.7213C1648.21 -90.7967 1660.03 -103.439 1666.65 -108H2088.26V840.788H851.45Z" fill="#AD6EF9"/>
<path d="M1162.77 817.448C1184.67 801.809 1198.83 804.198 1203.17 807.348C1191.01 783.129 1182.26 735.474 1244.55 738.602C1242.21 716.185 1258.35 705.151 1266.71 702.437C1264.86 692.771 1265.73 672.396 1283.98 668.225C1302.22 664.055 1312.22 668.877 1314.93 671.809C1318.62 667.575 1327.96 660.018 1335.78 663.666C1326.01 654.543 1320.8 623.266 1337.74 613.165C1318.84 611.862 1272.9 557.776 1307.76 520.632C1298.31 490.657 1319.17 461.659 1349.47 478.601C1354.03 474.692 1365.76 473.063 1368.69 478.601C1367.06 464.916 1397.69 445.693 1414.63 463.287C1414.96 450.255 1426.69 439.827 1435.16 442.434C1426.36 428.423 1434.18 398.774 1461.88 404.313C1483.29 408.596 1485.33 420.731 1483.57 426.835C1485.74 420.295 1492.17 408.883 1502.28 411.156C1493.15 397.798 1506.84 378.248 1518.89 377.271C1513.16 363.195 1524.98 350.554 1531.6 345.992H1953.21V843.122L1162.77 864.724V817.448Z" fill="#9853F7"/>
<path d="M494.318 840.788C484.76 828.19 460.172 807.685 438.276 826.452C442.186 797.78 404.391 788.331 393.313 797.129C394.291 779.86 372.787 763.894 355.844 778.23C351.608 758.681 323.914 749.556 310.555 765.847C300.455 756.398 284.164 758.351 281.883 763.89C279.602 755.419 268.524 746.621 262.334 748.576C274.715 742.386 285.793 715.668 262.334 704.916C266.895 679.176 269.827 642.033 219.325 641.055C216.719 612.383 179.575 603.26 166.868 613.36C169.149 588.924 139.825 561.557 112.13 571.983C110.827 549.827 104.311 525.714 71.0771 533.208C78.2452 516.265 62.6058 499.975 53.4828 504.862C55.8287 492.872 54.4603 484.878 53.4828 482.381C64.778 481.295 86.4558 472.476 82.8067 445.889C79.1575 419.302 61.737 418.085 53.4828 420.801C60.7595 408.202 69.839 379.095 47.9439 363.456C26.0488 347.816 11.8865 350.206 7.54221 353.355C19.7061 329.137 28.4599 281.482 -33.837 284.609C-31.491 262.193 -47.63 251.159 -55.9927 248.444C-54.1464 238.778 -55.0153 218.404 -73.2612 214.233C-91.5071 210.063 -101.499 214.885 -104.214 217.817C-107.907 213.583 -117.247 206.026 -125.067 209.674C-115.292 200.551 -110.079 169.273 -127.022 159.173C-108.124 157.87 -62.1833 103.784 -97.0461 66.6401C-87.5973 36.6646 -108.45 7.66665 -138.751 24.6093C-143.312 20.6994 -155.042 19.0709 -157.974 24.6093C-156.345 10.9243 -186.972 -8.29908 -203.915 9.2952C-204.241 -3.7376 -215.97 -14.165 -224.442 -11.5585C-215.645 -25.5688 -223.464 -55.2183 -251.159 -49.6793C-272.572 -45.3967 -274.609 -33.2611 -272.858 -27.1576C-275.026 -33.6975 -281.458 -45.1091 -291.561 -42.836C-282.438 -56.1946 -296.122 -75.7438 -308.177 -76.7213C-302.443 -90.7967 -314.26 -103.439 -320.885 -108H-742.496V840.788H494.318Z" fill="#9853F7"/>
<path d="M555.207 841.904C547.039 859.991 489.277 864.075 482.276 836.069C478.926 816.815 489.848 808.861 506.197 806.167C518.593 804.125 531.966 807.772 538.579 811.272C537.315 806.994 537.762 796.978 549.664 791.143C561.567 785.309 573.878 790.852 578.545 794.352C578.74 787.351 581.521 770.898 591.089 761.096C603.05 748.843 625.805 745.634 644.475 758.47C644.184 740.675 659.937 730.757 677.44 729.006C694.944 727.254 701.654 730.757 715.073 742.574C710.405 728.137 713.323 690.206 743.954 671.244C774.585 652.282 814.114 658.702 836.431 679.123C841.682 663.37 873.188 642.949 904.111 665.703C935.034 688.458 921.323 721.276 918.843 730.757C926.72 723.61 931.825 721.86 941.89 722.006C951.954 722.151 958.81 731.049 958.955 742.574C960.706 736.304 973.396 735.573 975.73 742.574C988.566 725.216 1007.09 726.092 1023.57 729.301C1040.06 732.51 1048.22 751.619 1046.33 765.33C1056.68 761.246 1067.19 767.372 1071.71 771.894C1076.23 776.416 1077.69 784.73 1075.06 796.836C1083.81 796.253 1088.43 802.815 1089.65 806.169C1093.98 801.015 1106.42 791.349 1121.59 793.917C1140.55 797.126 1140.7 812.731 1140.55 820.316C1149.45 811.126 1186.21 806.021 1184.17 834.173C1182.53 856.694 1156.06 852.406 1143.03 847.446C1142.84 849.245 1139.39 853.718 1127.14 857.219C1114.88 860.72 1104.23 854.496 1100.44 850.947C1099.37 852.94 1095.02 857.219 1086.15 858.386C1077.28 859.553 1069.91 853.913 1067.33 850.947C1065.87 856.344 1053.59 867.838 1016.13 870.639C978.676 873.439 954.045 853.427 946.411 843.07C945.731 844.675 942.969 848.701 937.368 851.968C931.767 855.235 922.49 853.329 918.551 851.968C917.093 856.247 909.185 868.293 887.483 870.201C860.937 872.535 848.148 861.984 841.828 855.177C838.375 858.435 833.223 868.305 814.114 868.305C799.97 868.305 789.949 863.102 786.546 858.824C780.128 873.702 752.124 881.578 737.829 860.574C728.786 873.993 690.861 873.993 680.066 856.782C657.02 871.66 629.014 866.992 608.885 847.155C606.259 855.615 571.544 874.577 555.207 841.904Z" fill="#9853F7"/>
<path d="M842.12 689.625C845.524 693.855 852.36 706.954 852.477 725.507C858.749 703.044 848.101 693.563 842.12 689.625Z" fill="#9853F7"/>
<path d="M985.066 786.186C972.024 787.933 967.193 777.914 966.4 772.654C966.664 789.153 977.557 791.131 983.753 789.979C983.899 796.105 992.505 799.314 997.464 794.938C990.755 795.959 986.962 790.562 985.066 786.186Z" fill="#9853F7"/>
<path fill-rule="evenodd" clip-rule="evenodd" d="M482.282 836.069C489.283 864.075 547.045 859.991 555.213 841.904C571.55 874.577 606.265 855.615 608.891 847.155C629.02 866.992 657.025 871.66 680.072 856.782C690.867 873.993 728.791 873.993 737.835 860.574C752.129 881.578 780.133 873.702 786.551 858.824C789.955 863.102 799.976 868.305 814.12 868.305C830.317 868.305 836.487 861.214 840.093 857.069C840.742 856.324 841.307 855.674 841.833 855.177C848.154 861.984 860.943 872.535 887.489 870.201C909.191 868.293 917.099 856.247 918.557 851.968C922.496 853.33 931.772 855.235 937.374 851.968C942.975 848.701 945.736 844.675 946.417 843.07C954.051 853.427 978.682 873.439 1016.14 870.639C1053.6 867.838 1065.88 856.344 1067.34 850.947C1069.91 853.913 1077.29 859.553 1086.15 858.386C1095.02 857.219 1099.38 852.941 1100.45 850.947C1104.24 854.496 1114.89 860.72 1127.14 857.219C1139.39 853.718 1142.85 849.245 1143.04 847.446C1156.07 852.406 1182.54 856.694 1184.17 834.173C1184.27 832.9 1184.28 831.695 1184.22 830.556C1183.03 836.045 1178.89 841.566 1169.01 844.82C1149.87 851.121 1127 834.026 1117.95 824.691C1119.61 826.83 1103.95 834.026 1092.87 834.026C1068.71 834.026 1053.87 820.801 1049.4 812.73C1049.4 812.73 1037.44 827.9 1006.22 834.026C966.604 841.802 937.473 817.981 927.749 804.562C927.652 809.813 923.957 820.898 909.954 823.232C895.951 825.566 887.394 815.258 884.866 809.813C882.532 812.827 873.488 823.232 855.401 820.315C837.623 817.447 825.353 804.076 821.561 795.227C821.457 795.494 821.346 795.784 821.227 796.096C818.789 802.478 812.93 817.819 791.513 826.441C771.315 834.573 750.283 827.025 741.336 820.315C740.17 827.122 727.8 841.203 687.659 843.07C647.517 844.937 626.202 831.012 620.562 823.816C619.687 826.927 613.561 833.851 596.057 836.652C578.553 839.452 565.815 831.012 561.633 826.441C560.855 828.872 550.84 841.611 526.918 843.07C500.713 844.667 486.539 835.592 481.773 827.124C481.552 829.793 481.707 832.765 482.282 836.069Z" fill="#9853F7"/>
<path d="M721.493 754.094C728.252 766.492 740.455 788.663 777.796 783.996C758.834 792.893 725.869 790.268 721.493 754.094Z" fill="#9853F7"/>
<path d="M780.335 677.148C754.788 679.592 741.366 695.012 737.849 702.417C767.839 676.647 808.289 685.571 824.765 693.254C820.599 686.867 805.882 674.704 780.335 677.148Z" fill="#9853F7"/>
<path d="M623.719 828.466C640.375 828.218 649.864 818.942 652.526 814.334C631.778 829.442 606.073 821.557 595.814 815.726C598.175 820.076 607.062 828.713 623.719 828.466Z" fill="#9853F7"/>
<path d="M401.902 758.643C402.135 741.839 416.585 740.556 423.781 742.014C423.781 732.1 433.534 724.513 445.075 724.508C459.078 724.501 470.747 731.512 470.163 744.348C478.623 744.056 485.917 747.253 488.25 757.172C493.81 780.803 470.163 780.218 470.163 780.218C470.163 780.218 440.991 792.471 430.491 770.895C420.864 773.812 401.668 775.446 401.902 758.643Z" fill="#9853F7"/>
<path fill-rule="evenodd" clip-rule="evenodd" d="M401.911 758.143C401.906 758.306 401.902 758.47 401.9 758.635C401.666 775.438 420.862 773.805 430.489 770.887C440.989 792.463 470.161 780.211 470.161 780.211C470.161 780.211 493.808 780.795 488.248 757.164C486.726 750.694 483.093 747.084 478.402 745.437C483.008 755.751 478.757 763.86 469.286 769.121C458.784 774.956 445.948 770.58 433.403 760.37C425.803 771.227 405.827 772.99 401.911 758.143Z" fill="#8126FF"/>
<path d="M436.153 763.15C445.858 763.006 451.386 757.601 452.938 754.916C440.849 763.719 425.872 759.124 419.895 755.727C421.271 758.261 426.449 763.294 436.153 763.15Z" fill="#8126FF"/>
<path d="M448.294 730.973C438.618 730.205 432.607 735.066 430.81 737.593C443.673 729.965 458.151 735.947 463.783 739.891C462.651 737.238 457.969 731.741 448.294 730.973Z" fill="#CEA6FF"/>
<path d="M1199.05 842.487C1199.05 855.904 1235.81 857.073 1234.93 839.569C1234.06 822.066 1199.05 823.816 1199.05 842.487Z" fill="#9853F7"/>
<path d="M1142.61 758.523C1142.61 766.384 1164.14 767.068 1163.63 756.814C1163.12 746.559 1142.61 747.584 1142.61 758.523Z" fill="#9853F7"/>
<path d="M430.595 834.211C430.595 839.57 445.852 840.036 445.489 833.045C445.125 826.054 430.595 826.754 430.595 834.211Z" fill="#9853F7"/>
<path d="M1164.22 733.169C1157.34 739.12 1149.68 733.023 1146.72 729.231C1144.53 731.996 1139.71 735.655 1134.9 736.676C1130.09 737.697 1122.21 735.801 1117.25 728.362C1115.94 736.676 1095.81 737.989 1097.85 723.694C1099.49 712.258 1110.59 713.484 1115.94 715.526C1115.21 712.947 1113.97 705.603 1121.34 701.373C1129.21 696.851 1135.53 701.665 1137.97 705.02C1139.33 702.686 1143.63 698.689 1149.93 701.373C1156.23 704.057 1156.05 710.755 1155.18 713.769C1156.05 713.234 1159.09 712.486 1164.22 713.769C1170.64 715.374 1172.83 725.73 1164.22 733.169Z" fill="#9853F7"/>
</g>
<defs>
<linearGradient id="paint0_linear_13_2132" x1="-0.251892" y1="0.09375" x2="-0.251892" y2="840.444" gradientUnits="userSpaceOnUse">
<stop stop-color="#D1AAFF"/>
<stop offset="1" stop-color="#D1AAFF" stop-opacity="0"/>
</linearGradient>
<radialGradient id="paint1_radial_13_2132" cx="0" cy="0" r="1" gradientUnits="userSpaceOnUse" gradientTransform="translate(1454.57 296.261) rotate(90) scale(359.378 588.163)">
<stop stop-color="#E3FFA8" stop-opacity="0.62"/>
<stop offset="0.912568" stop-color="#FFF0FE" stop-opacity="0"/>
</radialGradient>
<clipPath id="clip0_13_2132">
<rect width="1412" height="837" fill="white"/>
</clipPath>
</defs>
</svg>
