<svg width="1488" height="1460" viewBox="0 0 1488 1460" fill="none" xmlns="http://www.w3.org/2000/svg">
<g clip-path="url(#clip0_52_2262)">
<path d="M38.4422 49.5859L93.1562 88.6674C28.822 172.242 106.384 290.688 232.045 359.832C472.05 491.892 832.005 619.599 1473.73 619.599L1605.99 1449.92C863.846 1518.5 -104.055 1035.98 -104.055 339.39C-104.055 160.5 -14.2676 71.8323 38.4422 49.5859Z" fill="#7D2CEC"/>
<path d="M82.437 80.9961L93.1576 88.6669C28.8233 172.241 106.385 290.688 232.047 359.832C472.052 491.892 903.037 617.149 1544.76 617.149V830.24C937.328 854.734 297.146 622.619 121.703 399.159C5.35988 250.975 29.7272 103.242 82.437 80.9961Z" fill="#C8EBFF"/>
<path d="M82.437 80.9961L85.5753 83.3115C11.4832 141.98 74.8003 309.324 186.61 399.159C398.476 569.387 920.182 722.47 1561.91 722.47L1544.76 830.24C937.328 854.734 297.146 622.619 121.703 399.159C5.35988 250.975 29.7272 103.242 82.437 80.9961Z" fill="#7EF6FF"/>
<path d="M82.4357 80.9966L64.9078 68.6543C26.178 80.9966 -103.636 256.487 110.68 525.3C295.124 756.647 912.833 1042.11 1554.56 1042.11L1544.76 830.241C937.326 854.734 297.145 622.62 121.701 399.16C5.35853 250.976 29.7259 103.243 82.4357 80.9966Z" fill="#F186FE"/>
<path d="M82.4357 80.9966L64.9078 68.6543C26.178 80.9966 -103.636 256.487 110.68 525.3C295.124 756.647 912.833 1042.11 1554.56 1042.11V969.852C947.123 994.346 257.879 642.215 82.4357 418.754C-33.9071 270.57 29.7259 103.243 82.4357 80.9966Z" fill="#F46BFF"/>
<path d="M49.7527 57.6699L64.9079 68.6536C26.1782 80.9959 -103.636 256.486 110.68 525.299C295.124 756.646 912.833 1042.11 1554.56 1042.11L1608.44 1212.33C1001.01 1236.83 410.722 1042.11 64.9079 641.642C-58.2249 499.05 -152.623 206.887 49.7527 57.6699Z" fill="#9853F7"/>
<path d="M-401.388 123.938C-409.232 141.306 -464.696 145.227 -471.419 118.335C-474.636 99.8473 -464.148 92.209 -448.449 89.6228C-436.546 87.6619 -423.705 91.1634 -417.355 94.5249C-418.569 90.4164 -418.14 80.7989 -406.711 75.1964C-395.282 69.5939 -383.46 74.9163 -378.978 78.2777C-378.792 71.5548 -376.121 55.7558 -366.933 46.3436C-355.448 34.5784 -333.598 31.497 -315.67 43.8225C-315.95 26.7349 -300.824 17.2119 -284.016 15.53C-267.209 13.8481 -260.766 17.2119 -247.88 28.5587C-252.362 14.6956 -249.561 -21.7265 -220.148 -39.9346C-190.735 -58.1426 -152.778 -51.9779 -131.349 -32.3692C-126.307 -47.4959 -96.0533 -67.1046 -66.3601 -45.2549C-36.667 -23.4053 -49.8328 8.10783 -52.2139 17.2119C-44.6505 10.3488 -39.7484 8.66808 -30.0841 8.80814C-20.4198 8.9482 -13.8369 17.492 -13.6968 28.5587C-12.0161 22.5379 0.169312 21.8358 2.41031 28.5587C14.7358 11.8914 32.5237 12.7317 48.3506 15.8131C64.1777 18.8945 72.0211 37.2439 70.2003 50.4097C80.1447 46.488 90.2292 52.3706 94.5711 56.7125C98.913 61.0544 100.314 69.0379 97.7925 80.6631C106.196 80.1028 110.632 86.404 111.799 89.6245C115.954 84.6757 127.906 75.3942 142.472 77.8593C160.68 80.9407 160.82 95.9255 160.68 103.209C169.224 94.3848 204.52 89.4826 202.559 116.515C200.99 138.14 175.574 134.022 163.061 129.26C162.875 130.988 159.56 135.283 147.795 138.644C136.03 142.006 125.805 136.03 122.163 132.622C121.136 134.536 116.953 138.644 108.437 139.765C99.9215 140.885 92.8437 135.47 90.3693 132.622C88.9686 137.804 77.1754 148.841 41.2075 151.53C5.23959 154.219 -18.4122 135.003 -25.7422 125.058C-26.3958 126.599 -29.0476 130.465 -34.426 133.602C-39.8044 136.74 -48.7123 134.909 -52.494 133.602C-53.8946 137.711 -61.4876 149.278 -82.3272 151.11C-107.817 153.351 -120.097 143.22 -126.167 136.684C-129.481 139.812 -134.429 149.289 -152.778 149.289C-166.359 149.289 -175.982 144.294 -179.25 140.185C-185.413 154.471 -212.303 162.035 -226.029 141.866C-234.713 154.752 -271.129 154.752 -281.495 138.224C-303.625 152.511 -330.517 148.029 -349.845 128.98C-352.367 137.104 -385.701 155.312 -401.388 123.938Z" fill="#E8F8FF"/>
<path d="M-125.887 -22.2734C-122.619 -18.2116 -116.054 -5.63407 -115.942 12.1818C-109.92 -9.38773 -120.144 -18.4918 -125.887 -22.2734Z" fill="white"/>
<path d="M11.374 70.4476C-1.14948 72.1249 -5.78764 62.5041 -6.54919 57.4533C-6.29559 73.2961 4.16409 75.1961 10.1135 74.0892C10.2536 79.9718 18.5172 83.0532 23.2793 78.8513C16.8365 79.8318 13.1949 74.6495 11.374 70.4476Z" fill="white"/>
<path fill-rule="evenodd" clip-rule="evenodd" d="M-471.415 118.335C-464.692 145.227 -409.228 141.306 -401.384 123.938C-385.697 155.312 -352.363 137.104 -349.842 128.98C-330.513 148.029 -303.621 152.511 -281.491 138.224C-271.125 154.752 -234.709 154.752 -226.025 141.866C-212.299 162.035 -185.409 154.471 -179.246 140.185C-175.978 144.294 -166.355 149.289 -152.775 149.289C-137.221 149.289 -131.297 142.48 -127.834 138.5C-127.211 137.784 -126.668 137.16 -126.163 136.684C-120.093 143.22 -107.813 153.351 -82.3233 151.11C-61.4837 149.278 -53.8907 137.711 -52.4901 133.602C-48.7084 134.909 -39.8005 136.74 -34.4221 133.602C-29.0437 130.465 -26.3919 126.599 -25.7383 125.058C-18.4084 135.003 5.24344 154.219 41.2114 151.53C77.1793 148.841 88.9725 137.804 90.3731 132.622C92.8475 135.47 99.9254 140.885 108.441 139.765C116.957 138.644 121.14 134.536 122.167 132.622C125.809 136.03 136.033 142.006 147.799 138.644C159.564 135.283 162.879 130.988 163.065 129.26C175.578 134.022 200.994 138.14 202.563 116.515C202.651 115.292 202.664 114.135 202.606 113.041C201.46 118.312 197.489 123.613 187.999 126.738C169.622 132.789 147.661 116.374 138.977 107.41C140.564 109.464 125.531 116.374 114.886 116.374C91.6955 116.374 77.443 103.675 73.1478 95.9246C73.1478 95.9246 61.6627 110.491 31.6894 116.374C-6.35461 123.84 -34.3265 100.967 -43.6639 88.0812C-43.7573 93.1234 -47.3056 103.768 -60.7515 106.009C-74.1975 108.25 -82.4144 98.3524 -84.8422 93.1234C-87.0832 96.018 -95.767 106.009 -113.135 103.208C-130.206 100.454 -141.987 87.6143 -145.629 79.1172C-145.729 79.3737 -145.836 79.6525 -145.95 79.9517C-148.291 86.0803 -153.917 100.811 -174.482 109.09C-193.876 116.899 -214.073 109.651 -222.663 103.208C-223.784 109.744 -235.661 123.265 -274.206 125.058C-312.751 126.85 -333.219 113.479 -338.635 106.569C-339.475 109.557 -345.358 116.206 -362.165 118.895C-378.972 121.584 -391.205 113.479 -395.22 109.09C-395.967 111.425 -405.584 123.657 -428.554 125.058C-453.717 126.592 -467.327 117.878 -471.903 109.746C-472.116 112.309 -471.967 115.163 -471.415 118.335Z" fill="#7EF6FF"/>
</g>
<defs>
<clipPath id="clip0_52_2262">
<rect width="1488" height="1460" fill="white"/>
</clipPath>
</defs>
</svg>
