<svg width="945" height="508" viewBox="0 0 945 508" fill="none" xmlns="http://www.w3.org/2000/svg">
<path d="M566.513 45.9739C525.633 9.182 484.895 34.7332 466.84 50.0631C448.449 6.11978 337.042 -25.5671 283.898 28.5987C230.754 82.7645 237.908 136.93 260.392 177.81C243.018 174.744 213.157 176.789 193.74 194.163C178.205 208.062 172.841 236.405 174.544 247.306C164.102 243.219 146.653 239.462 129.576 252.416C119.134 260.338 116.291 276.434 116.291 294.318C97.8946 293.296 72.3446 300.45 67.2347 338.264C17.1569 329.066 -24.745 386.297 17.1569 421.045C50.6783 448.844 91.0812 415.595 107.093 395.495C112.884 405.715 129.576 433.821 174.544 442.507C215.923 450.5 248.469 420.023 260.392 400.605C263.799 407.078 276.539 421.25 300.25 426.155C323.96 431.061 348.965 417.298 358.504 409.803C360.207 420.705 371.585 446.8 403.471 463.969C435.358 481.139 471.264 456.815 485.231 442.507C498.517 463.628 535.718 506.28 578.233 507.915C631.377 509.959 662.037 472.145 667.147 432.287C738.687 445.573 750.95 433.309 784.676 409.803C815.336 433.309 865.414 427.177 880.744 386.297C902.717 396.008 927.252 390.898 936.457 379.145C945.373 367.76 952.558 338.527 927.252 313.737C903.777 290.741 866.436 286.142 840.886 300.45C844.974 288.186 849.062 234.02 784.676 211.536C733.168 193.549 699.169 227.888 688.609 247.306C687.246 240.152 680.024 224.209 662.037 217.668C644.05 211.127 625.247 214.943 618.093 217.668C627.973 210.855 635.905 174.74 620.678 155.838C601.743 132.333 581.332 135.91 560.892 138.465C582.354 124.839 595.507 72.0687 566.513 45.9739Z" fill="#E9F8FF"/>
<path fill-rule="evenodd" clip-rule="evenodd" d="M34.9106 341.373C2.31952 354.193 -15.1115 394.286 17.1569 421.045C50.6783 448.844 91.0813 415.595 107.093 395.495C112.884 405.715 129.576 433.822 174.544 442.507C215.923 450.5 248.469 420.023 260.392 400.605C263.799 407.078 276.54 421.25 300.25 426.155C323.96 431.061 348.965 417.298 358.504 409.803C360.207 420.705 371.585 446.8 403.471 463.969C435.358 481.139 471.264 456.815 485.231 442.507C498.517 463.628 535.718 506.28 578.233 507.915C631.377 509.959 662.037 472.145 667.147 432.287C734.813 444.854 749.448 434.563 779.373 413.521C781.087 412.316 782.85 411.076 784.676 409.803C815.336 433.309 865.414 427.177 880.744 386.297C902.717 396.008 927.252 390.898 936.457 379.145C945.373 367.76 952.558 338.527 927.252 313.737C925.308 311.832 923.268 310.054 921.148 308.402C898.315 302.565 855.252 296.702 834.277 312.719C833.255 283.081 808.727 248.333 761.715 246.289C724.106 244.654 694.945 266.729 685.065 277.971C684.895 269.622 677.196 250.984 647.762 243.217C618.329 235.449 597.003 248.838 590.02 256.503C577.985 229.698 525.634 202.235 453.072 237.599C495.597 202.235 556.294 210.385 590.02 221.116C588.998 187.39 554.761 155.325 525.634 154.814C538.409 126.198 535.854 97.5818 515.414 85.8288C494.974 74.0759 468.402 77.6529 446.94 88.8948C428.033 71.0099 376.933 28.0846 309.993 68.4534C256.44 100.749 275.588 165.372 292.11 192.114C321.067 192.966 376.425 214.605 399.928 253.434C333.548 201.967 277.599 191.248 222.104 209.999C204.732 215.869 187.353 235.038 187.353 263.654C155.671 264.165 124.503 273.874 139.83 325.996C107.637 312.71 91.288 327.018 75.958 350.524C62.3722 344.486 48.3314 340.45 34.9106 341.373Z" fill="#D3FBFF"/>
<path d="M404.526 109.329C451.538 113.825 476.236 142.203 482.709 155.829C427.521 108.407 353.086 124.828 322.767 138.967C330.432 127.214 357.514 104.832 404.526 109.329Z" fill="#E9F8FF"/>
<path d="M741.786 350.016C780.214 351.243 818.436 331.45 832.744 321.4C823.035 337.071 792.682 368.31 748.94 367.901C705.199 367.492 675.868 341.5 666.67 328.554C675.697 335.197 703.359 348.79 741.786 350.016Z" fill="#7EF6FF"/>
<path fill-rule="evenodd" clip-rule="evenodd" d="M3.67505 404.127C6.44287 410.07 10.8503 415.807 17.1549 421.036C50.6763 448.834 91.0793 415.585 107.091 395.486C112.882 405.706 129.574 433.812 174.542 442.497C215.921 450.49 248.467 420.014 260.39 400.596C263.797 407.068 276.538 421.24 300.248 426.146C323.958 431.051 348.963 417.288 358.502 409.794C360.205 420.695 371.583 446.79 403.469 463.959C435.356 481.129 471.262 456.805 485.229 442.497C498.515 463.619 535.716 506.27 578.231 507.905C631.375 509.949 662.035 472.135 667.145 432.277C734.811 444.844 749.446 434.553 779.371 413.511C781.085 412.306 782.848 411.066 784.674 409.794C815.334 433.299 865.412 427.168 880.742 386.288C902.715 395.998 927.25 390.888 936.455 379.135C938.325 376.748 940.118 373.576 941.552 369.825C919.446 377.446 883.109 382.17 864.929 356.149C852.157 369.946 835.802 382.72 819.45 382.72C817.884 382.72 816.154 382.784 814.304 382.853C800.461 383.365 779.86 384.126 770.395 360.237C746.684 356.966 715.207 356.149 702.432 356.149C701.58 371.99 688.635 403.263 643.667 401.627C587.457 399.583 587.968 339.797 590.012 334.176C563.951 353.083 534.313 369.946 493.433 347.462C471.659 335.486 462.419 329.49 459.228 326.82C467.672 340.893 488.327 360.65 511.318 369.946C512.851 408.27 476.06 419.001 449.488 418.49C422.916 417.979 390.212 398.05 388.168 377.099C368.239 392.429 311.007 401.627 292.611 385.786C277.894 373.114 275.919 357 276.77 350.528L214.429 318.846C217.495 344.055 211.567 394.065 163.329 392.429C115.09 390.794 104.394 371.308 105.075 361.77C97.921 382.55 72.5754 421.454 28.4252 410.825C18.1207 408.345 10.0097 406.113 3.67505 404.127ZM458.175 324.978C457.548 324.978 457.626 325.48 459.228 326.82C458.852 326.194 458.501 325.58 458.175 324.978Z" fill="#7EF6FF"/>
<path d="M278.822 341.833C334.52 346.943 379.148 334.849 393.285 320.882C388.005 337.404 351.69 373.413 285.465 364.828C219.239 356.243 200.298 310.492 194.507 291.244C198.595 301.123 219.045 336.349 278.822 341.833Z" fill="#7EF6FF"/>
</svg>
