<svg width="1493" height="118" viewBox="0 0 1493 118" fill="none" xmlns="http://www.w3.org/2000/svg">
<g clip-path="url(#clip0_13_2133)">
<rect width="1493" height="118" fill="white"/>
<path d="M1578.82 7.30242C1578.82 7.30242 1587 139.778 1455.32 70.261C1426.14 120.763 1334.82 105.052 1325.27 60.4592C1312.24 87.3779 1239.57 101.125 1213.24 48.8732C1166.91 82.4683 1122.03 49.0124 1122.45 25.284C1123.21 -16.7039 1177.25 -1.68867 1177.25 -1.68867C1177.25 -1.68867 1196.88 -64.6703 1262.32 -20.5042C1282.75 -57.3016 1337.56 -54.0347 1365.36 -19.6935C1375.16 -52.4126 1444.68 -63.0255 1471.68 -23.7718C1503.58 -58.1362 1573.94 -36.0527 1578.82 7.30242Z" fill="#9853F7"/>
<path d="M1135.14 -14.1649C1135.14 -14.1649 1133.39 -10.6665 1130.22 -5.3848C1148.75 35.3861 1081.3 66.3702 1042.85 32.8782C1003.74 55.4908 958.531 42.0549 945.683 25.5542C923.694 38.9902 877.243 39.3306 855.236 8.87458C842.962 21.1484 817.924 30.9675 794.13 -0.728882C794.702 -32.1026 835.079 -20.8831 835.079 -20.8831C835.079 -20.8831 849.744 -67.9434 898.64 -34.9421C913.912 -62.4374 954.86 -59.9963 975.637 -34.3364C982.961 -58.7843 1034.9 -66.7143 1055.08 -37.3837C1078.92 -63.061 1131.48 -46.5601 1135.14 -14.1649Z" fill="#9853F7"/>
<path fill-rule="evenodd" clip-rule="evenodd" d="M861.336 17.4653C883.425 47.2387 922.779 38.897 944.629 25.5464C957.476 42.047 1002.68 55.483 1041.8 32.8704C1066.64 54.5177 1103.61 49.2295 1121.65 31.7729C1125.32 55.0777 1168.1 83.827 1212.18 51.8575C1238.52 104.109 1311.18 90.3623 1324.22 63.4436C1333.76 108.037 1425.08 123.747 1454.26 73.2454C1480.09 86.8803 1500.54 92.7445 1516.72 93.3617C1511.1 74.3117 1500.16 33.8015 1494.31 11.8187C1486.62 20.8195 1467.11 38.4284 1450.61 36.8573C1442.27 48.1493 1402.5 77.1156 1366.17 60.9141C1337.1 47.9529 1327.22 35.5481 1325.91 30.9659C1308.89 37.8392 1269.06 48.0511 1245.88 33.9116C1222.71 19.7721 1218.55 13.2915 1219.37 11.8187C1210.54 20.6558 1187.07 36.8573 1163.9 30.9659C1140.72 25.0744 1129.04 19.3466 1126.09 17.2192C1118.73 22.7833 1098.6 31.9478 1077 24.0925C1055.39 16.2373 1048.68 8.05469 1048.03 4.94531C1039.85 13.6188 1015.23 29.5912 982.242 24.0925C949.25 18.5938 943.948 13.6188 945.421 11.8187C933.147 22.7833 902.958 32.1442 877.821 21.1468C864.164 15.1719 859.115 7.57395 858.612 7.86398C858.33 8.02658 859.476 10.6684 861.336 17.4653Z" fill="#8126FF"/>
<path d="M1307.31 23.5263C1310.94 23.8642 1324.58 35.5802 1350.69 30.6783C1329.18 44.9527 1313.12 31.4139 1307.31 23.5263Z" fill="#8126FF"/>
<path d="M1209.72 7.1292C1231.41 20.4136 1243.27 27.6254 1275.09 15.0845C1236.28 40.8328 1220.21 21.3568 1209.72 7.1292Z" fill="#8126FF"/>
<path d="M1160.39 4.9461C1137.21 15.425 1124.55 21.1043 1094.54 4.69831C1129.83 35.0786 1148.21 17.7562 1160.39 4.9461Z" fill="#8126FF"/>
<path d="M1204.16 13.5567C1180.98 24.0355 1149.36 33.4492 1119.35 17.0432C1154.64 47.4235 1191.98 26.3668 1204.16 13.5567Z" fill="#8126FF"/>
<path opacity="0.25" d="M1366.6 -0.909675C1357.4 3.25038 1344.85 6.98757 1332.93 0.474469C1346.95 12.5353 1361.77 4.17588 1366.6 -0.909675Z" fill="white"/>
<path d="M1472.15 13.5242C1448.96 24.0031 1436.3 29.6824 1406.29 13.2764C1441.59 43.6567 1459.96 26.3343 1472.15 13.5242Z" fill="#8126FF"/>
<path d="M1424.52 4.51642C1401.34 14.9953 1388.68 20.6746 1358.67 4.26862C1393.96 34.6489 1412.34 17.3265 1424.52 4.51642Z" fill="#8126FF"/>
<path d="M-101.703 6.47924C-101.703 6.47924 -111.351 162.734 43.9745 80.7392C78.3933 140.306 186.103 121.776 197.36 69.1779C212.74 100.929 298.445 117.143 329.508 55.5121C384.149 95.1377 437.086 55.6763 436.594 27.6886C435.692 -21.8363 371.955 -4.12579 371.955 -4.12579C371.955 -4.12579 348.805 -78.4129 271.62 -26.3188C247.514 -69.7214 182.874 -65.8681 150.076 -25.3626C138.515 -63.9549 56.5196 -76.4728 24.6782 -30.173C-12.9575 -70.7058 -95.9364 -44.6583 -101.703 6.47924Z" fill="#9853F7"/>
<path d="M421.626 -22.3788C421.626 -22.3788 423.685 -18.2525 427.428 -12.0227C405.575 36.0667 485.133 72.6125 530.478 33.1086C576.612 59.7803 629.935 43.9325 645.088 24.47C671.025 40.3178 717.873 50.1818 743.83 14.2588C759.394 33.1086 816.144 37.2249 823.845 -6.53105C823.172 -43.5364 775.546 -30.303 775.546 -30.303C775.546 -30.303 758.249 -85.8108 700.576 -46.8857C682.563 -79.3165 634.264 -76.4372 609.757 -46.1712C601.119 -75.0076 539.851 -84.3611 516.059 -49.7656C487.938 -80.052 425.935 -60.5891 421.626 -22.3788Z" fill="#9853F7"/>
<path fill-rule="evenodd" clip-rule="evenodd" d="M729.132 29.5281C702.806 46.4054 667.563 37.4424 646.332 24.47C631.179 43.9325 577.856 59.7803 531.722 33.1086C502.414 58.6412 458.814 52.4045 437.54 31.8152C433.202 59.3032 382.748 93.2119 330.753 55.5043C299.689 117.135 213.985 100.921 198.604 69.1701C187.347 121.768 79.6375 140.298 45.2187 80.7314C14.7535 96.8136 -9.36516 103.73 -28.4549 104.459C-21.8222 81.9887 -8.91843 34.2076 -2.01437 8.27903C7.05792 18.8955 30.0668 39.6653 49.524 37.8122C59.3684 51.1311 106.274 85.297 149.126 66.1873C183.408 50.8995 195.067 36.268 196.611 30.8632C216.686 38.9704 263.669 51.0153 291.001 34.3377C318.334 17.6602 323.237 10.0163 322.272 8.27903C332.695 18.7025 360.375 37.8122 387.708 30.8632C415.041 23.9143 428.823 17.1583 432.297 14.6489C440.984 21.2119 464.726 32.0214 490.206 22.7561C515.685 13.4908 523.599 3.8394 524.372 0.171875C534.023 10.4023 563.054 29.2418 601.969 22.7561C640.883 16.2704 647.137 10.4023 645.4 8.27903C659.877 21.2119 696.243 43.8347 725.892 30.8632C727.097 30.336 728.175 29.8925 729.132 29.5281Z" fill="#8126FF"/>
<path d="M218.557 22.0819C214.271 22.4805 198.186 36.2995 167.388 30.5177C192.762 47.3544 211.696 31.3853 218.557 22.0819Z" fill="#8126FF"/>
<path d="M333.661 2.74039C308.068 18.4094 294.086 26.9157 256.554 12.1237C302.323 42.4939 321.284 19.5219 333.661 2.74039Z" fill="#8126FF"/>
<path d="M391.843 0.154156C419.187 12.514 434.12 19.2128 469.518 -0.138116C427.887 35.6955 406.213 15.2637 391.843 0.154156Z" fill="#8126FF"/>
<path d="M340.216 10.3271C367.561 22.687 404.854 33.7904 440.252 14.4395C398.622 50.2731 354.586 25.4367 340.216 10.3271Z" fill="#8126FF"/>
<path opacity="0.25" d="M148.611 -6.74183C159.467 -1.83502 174.273 2.573 188.325 -5.10923C171.798 9.11658 154.316 -0.743396 148.611 -6.74183Z" fill="#8126FF"/>
<path d="M24.1261 10.2792C51.4705 22.639 66.4032 29.3378 101.801 9.98688C60.1703 45.8205 38.496 25.3887 24.1261 10.2792Z" fill="#8126FF"/>
<path d="M80.296 -0.345844C107.64 12.014 122.573 18.7128 157.971 -0.638116C116.34 35.1955 94.6659 14.7637 80.296 -0.345844Z" fill="#8126FF"/>
<circle cx="1132" cy="3" r="7" fill="#9853F7"/>
</g>
<defs>
<clipPath id="clip0_13_2133">
<rect width="1493" height="118" fill="white"/>
</clipPath>
</defs>
</svg>
