<svg width="427" height="240" viewBox="0 0 427 240" fill="none" xmlns="http://www.w3.org/2000/svg">
<path d="M201.465 1.1868C254.341 -6.94799 282.812 28.7265 290.439 47.5805C313.319 32.9585 338.738 47.5805 349.542 69.1934C354.626 67.2868 412.459 53.9406 424.535 102.241C434.195 140.881 403.986 160.71 387.674 165.794L387.66 166.042C387.439 170.092 386.817 181.49 378.141 190.58C364.795 204.561 352.72 204.35 344.458 204.561C343.398 214.73 330.095 235.829 285.353 238.88C240.612 241.931 218.411 214.73 212.903 200.748C210.149 204.35 200.145 214.85 179.855 219.179C156.023 224.263 140.241 211.976 132.826 204.561L132.813 204.571C129.202 207.12 119.777 213.774 102.321 211.552C86.6764 209.561 74.5686 197.359 70.544 190.58C47.0294 202.867 0.000152588 213.586 0.000152588 158.168C0.000152588 102.749 36.8618 99.9107 55.2926 105.419C50.2083 100.758 45.4406 76.1842 64.19 58.3894C81.4773 41.9822 110.796 42.2893 122.023 50.763C126.472 37.6271 148.588 9.32159 201.465 1.1868Z" fill="#CEA6FF"/>
<path fill-rule="evenodd" clip-rule="evenodd" d="M423.689 99.1985C423.992 100.184 424.274 101.198 424.534 102.241C434.194 140.881 403.986 160.71 387.674 165.794C387.669 165.873 387.665 165.956 387.66 166.041C387.439 170.091 386.817 181.49 378.141 190.58C365.261 204.073 353.565 204.347 345.338 204.54C345.04 204.547 344.746 204.554 344.457 204.561C343.398 214.73 330.094 235.829 285.353 238.88C240.612 241.931 218.411 214.73 212.903 200.748C210.149 204.35 200.145 214.85 179.855 219.179C156.023 224.263 140.24 211.976 132.826 204.561L132.813 204.571C129.202 207.12 119.777 213.774 102.32 211.552C86.6762 209.561 74.5685 197.359 70.5439 190.58C47.0293 202.867 0 213.586 0 158.168C0 150.272 0.748164 143.444 2.08461 137.556C14.2369 120.306 37.478 101.389 66.0959 118.136C66.0959 95.5747 75.6289 67.6143 102.639 66.3432C124.247 65.3264 136.082 71.6482 137.989 74.0844L131.873 82.5443C140.983 73.7528 170.323 56.6147 214.81 58.3942C259.297 60.1736 282.07 76.719 287.896 84.7692C288.32 77.3532 293.362 62.9035 310.14 64.4323C326.918 65.961 330.477 87.7365 330.159 98.4331C338.315 88.9004 361.427 71.1058 388.628 76.1896C403.437 78.9574 415.213 88.6953 423.689 99.1985Z" fill="#AD6EF9"/>
<path fill-rule="evenodd" clip-rule="evenodd" d="M205.91 144.182C169.304 144.944 138.544 127.128 127.74 118.125C131.851 128.086 145.261 144.491 168.288 152.911C170.559 162.316 167.494 179.925 138.862 187.082C108.357 194.709 81.8763 178.609 72.4493 169.605C70.225 174.054 59.9929 183.396 36.8596 185.176C18.7442 186.569 6.5916 175.453 0.340698 165.987C4.63371 212.52 48.2009 202.261 70.5419 190.588C74.5665 197.367 86.6743 209.569 102.318 211.56C119.774 213.782 129.2 207.127 132.811 204.578L132.824 204.569C140.238 211.984 156.021 224.271 179.853 219.186C200.143 214.858 210.147 204.357 212.901 200.756C218.409 214.738 240.61 241.938 285.351 238.888C330.093 235.837 343.396 214.738 344.456 204.569C344.744 204.562 345.038 204.555 345.336 204.548C353.563 204.355 365.259 204.08 378.139 190.588C386.815 181.498 387.437 170.099 387.658 166.049L387.672 165.802C394.388 163.708 403.462 159.115 411.137 151.737C410.552 151.873 409.949 152.011 409.328 152.15C412.733 149.125 415.803 145.56 418.178 141.481C391.168 172.464 343.715 144.394 330.793 128.93C339.664 151.741 356.506 158.457 370.09 161.838C368.279 185.51 344.062 195.855 322.213 198.204C292.661 201.382 284.081 181.998 283.445 166.11C261.828 174.757 252.178 161.813 249.251 151.938C266.21 145.832 277.812 135.535 285.987 121.62C275.819 130.836 251.669 143.228 205.91 144.182Z" fill="#9853F7"/>
<path d="M202.192 66.8451C167.129 70.1989 148.708 91.3636 143.881 101.527C185.041 66.1576 240.557 78.405 263.17 88.9498C257.454 80.1841 237.254 63.4912 202.192 66.8451Z" fill="#CEA6FF"/>
<path d="M374.273 87.5861C354.666 89.4964 344.365 101.552 341.666 107.34C364.683 87.1945 395.727 94.1705 408.372 100.177C405.175 95.1839 393.88 85.6758 374.273 87.5861Z" fill="#CEA6FF"/>
</svg>
