<svg width="1488" height="736" viewBox="0 0 1488 736" fill="none" xmlns="http://www.w3.org/2000/svg">
<g clip-path="url(#clip0_52_2262)">
<path d="M38.4422 -674.414L93.1562 -635.333C28.822 -551.758 106.384 -433.312 232.045 -364.168C472.05 -232.108 832.005 -104.401 1473.73 -104.401L1605.99 725.92C863.846 794.501 -104.055 311.984 -104.055 -384.61C-104.055 -563.5 -14.2676 -652.168 38.4422 -674.414Z" fill="#7D2CEC"/>
<path d="M82.437 -643.004L93.1576 -635.333C28.8233 -551.759 106.385 -433.312 232.047 -364.168C472.052 -232.108 903.037 -106.851 1544.76 -106.851V106.24C937.328 130.734 297.146 -101.381 121.703 -324.841C5.35988 -473.025 29.7272 -620.758 82.437 -643.004Z" fill="#C8EBFF"/>
<path d="M82.437 -643.004L85.5753 -640.689C11.4832 -582.02 74.8003 -414.676 186.61 -324.841C398.476 -154.613 920.182 -1.52985 1561.91 -1.52985L1544.76 106.24C937.328 130.734 297.146 -101.381 121.703 -324.841C5.35988 -473.025 29.7272 -620.758 82.437 -643.004Z" fill="#7EF6FF"/>
<path d="M82.4357 -643.003L64.9078 -655.346C26.178 -643.003 -103.636 -467.513 110.68 -198.7C295.124 32.6467 912.833 318.107 1554.56 318.107L1544.76 106.241C937.326 130.734 297.145 -101.38 121.701 -324.84C5.35853 -473.024 29.7259 -620.757 82.4357 -643.003Z" fill="#F186FE"/>
<path d="M82.4357 -643.003L64.9078 -655.346C26.178 -643.003 -103.636 -467.513 110.68 -198.7C295.124 32.6467 912.833 318.107 1554.56 318.107V245.852C947.123 270.346 257.879 -81.7855 82.4357 -305.246C-33.9071 -453.43 29.7259 -620.757 82.4357 -643.003Z" fill="#F46BFF"/>
<path d="M49.7527 -666.33L64.9079 -655.346C26.1782 -643.004 -103.636 -467.514 110.68 -198.701C295.124 32.646 912.833 318.107 1554.56 318.107L1608.44 488.335C1001.01 512.828 410.722 318.107 64.9079 -82.3577C-58.2249 -224.95 -152.623 -517.113 49.7527 -666.33Z" fill="#9853F7"/>
</g>
<defs>
<clipPath id="clip0_52_2262">
<rect width="1488" height="736" fill="white"/>
</clipPath>
</defs>
</svg>
