<svg width="350" height="151" viewBox="0 0 350 151" fill="none" xmlns="http://www.w3.org/2000/svg">
<path d="M150.966 76.3479C135.339 89.8555 117.969 76.0168 111.238 67.4091C106.275 73.685 95.3434 81.9904 84.4182 84.3078C73.493 86.6253 55.6183 82.3214 44.3618 65.437C41.3864 84.3078 -4.30507 87.2875 0.329871 54.8428C4.03783 28.8871 29.2432 31.6681 41.3824 36.3031C39.7271 30.451 36.9113 13.7807 53.6329 4.18051C71.5106 -6.08336 85.8558 4.84281 91.3736 12.4572C94.4635 7.16012 104.219 -1.91113 118.521 4.18051C132.823 10.2722 132.426 25.4756 130.44 32.3159C132.426 31.102 139.312 29.4025 150.966 32.3159C165.533 35.9577 170.499 59.4635 150.966 76.3479Z" fill="#BB83FF"/>
<path d="M163.822 126.863C164.046 110.728 177.922 109.496 184.832 110.896C184.832 101.376 194.197 94.091 205.279 94.0859C218.725 94.0798 229.93 100.812 229.369 113.137C237.493 112.857 244.496 115.926 246.737 125.451C252.076 148.142 229.369 147.581 229.369 147.581C229.369 147.581 201.357 159.346 191.274 138.628C182.03 141.43 163.598 142.999 163.822 126.863Z" fill="#BD86FF"/>
<path d="M285.607 94.2843C292.218 99.9988 299.566 94.1442 302.414 90.5026C304.514 93.1577 309.138 96.6714 313.76 97.6518C318.383 98.6322 325.945 96.8114 330.707 89.6683C331.966 97.6518 351.296 98.9124 349.335 85.1863C347.766 74.2054 337.103 75.3819 331.967 77.3428C332.668 74.867 333.859 67.8144 326.785 63.753C319.221 59.4107 313.152 64.0332 310.818 67.2545C309.511 65.0135 305.384 61.1759 299.333 63.753C293.282 66.3301 293.45 72.7621 294.291 75.656C293.45 75.1425 290.537 74.4235 285.607 75.656C279.444 77.1967 277.343 87.1411 285.607 94.2843Z" fill="#AD6EF9"/>
</svg>
