<svg width="780" height="536" viewBox="0 0 780 536" fill="none" xmlns="http://www.w3.org/2000/svg">
<g clip-path="url(#clip0_64_2414)">
<path d="M-29.6663 495.14C-40.176 518.411 -114.495 523.666 -123.503 487.633C-127.813 462.86 -113.76 452.625 -92.7247 449.16C-76.7756 446.532 -59.569 451.224 -51.0611 455.728C-52.6876 450.223 -52.1121 437.336 -36.7979 429.829C-21.4837 422.322 -5.6441 429.454 0.36145 433.958C0.611679 424.95 4.18999 403.78 16.5014 391.169C31.8906 375.404 61.1677 371.275 85.1899 387.79C84.8146 364.894 105.083 352.134 127.604 349.88C150.125 347.627 158.758 352.134 176.024 367.338C170.018 348.762 173.772 299.959 213.183 275.562C252.595 251.164 303.454 259.424 332.168 285.699C338.924 265.43 379.462 239.156 419.249 268.433C459.036 297.71 441.394 339.935 438.204 352.134C448.338 342.938 454.907 340.686 467.856 340.874C480.806 341.061 489.626 352.509 489.814 367.338C492.066 359.271 508.394 358.33 511.396 367.338C527.912 345.005 551.746 346.131 572.953 350.26C594.161 354.389 604.67 378.976 602.231 396.617C615.555 391.362 629.068 399.244 634.886 405.062C640.704 410.88 642.58 421.577 639.202 437.154C650.463 436.404 656.406 444.847 657.97 449.162C663.537 442.531 679.552 430.094 699.07 433.398C723.468 437.526 723.655 457.605 723.468 467.364C734.916 455.541 782.21 448.972 779.582 485.193C777.48 514.17 743.424 508.652 726.658 502.271C726.408 504.586 721.966 510.341 706.202 514.845C690.437 519.35 676.737 511.342 671.857 506.775C670.481 509.34 664.876 514.845 653.465 516.347C642.055 517.848 632.571 510.591 629.256 506.775C627.379 513.719 611.577 528.508 563.382 532.111C515.188 535.715 483.496 509.966 473.674 496.641C472.798 498.705 469.245 503.885 462.038 508.089C454.832 512.293 442.896 509.841 437.828 508.089C435.952 513.594 425.778 529.093 397.854 531.548C363.699 534.551 347.245 520.976 339.112 512.218C334.671 516.409 328.042 529.109 303.454 529.109C285.257 529.109 272.363 522.415 267.984 516.91C259.726 536.052 223.695 546.187 205.303 519.162C193.667 536.428 144.872 536.428 130.982 514.282C101.33 533.425 65.2965 527.42 39.3976 501.896C36.0194 512.781 -8.64686 537.179 -29.6663 495.14Z" fill="#AD6EF9"/>
<path d="M339.482 299.217C343.861 304.659 352.657 321.512 352.807 345.385C360.877 316.483 347.177 304.284 339.482 299.217Z" fill="#AD6EF9"/>
<path d="M523.403 423.457C506.622 425.704 500.407 412.813 499.387 406.045C499.726 427.274 513.742 429.819 521.714 428.336C521.901 436.219 532.974 440.347 539.355 434.717C530.722 436.031 525.842 429.087 523.403 423.457Z" fill="#AD6EF9"/>
<path fill-rule="evenodd" clip-rule="evenodd" d="M-123.501 487.635C-114.493 523.668 -40.1741 518.413 -29.6644 495.142C-8.64491 537.181 36.0214 512.783 39.3995 501.898C65.2985 527.421 101.332 533.427 130.984 514.284C144.874 536.43 193.669 536.43 205.305 519.164C223.697 546.189 259.728 536.054 267.986 516.912C272.365 522.417 285.259 529.111 303.456 529.111C324.297 529.111 332.235 519.987 336.875 514.654C337.71 513.695 338.437 512.859 339.114 512.22C347.247 520.978 363.701 534.553 397.856 531.55C425.78 529.095 435.954 513.596 437.83 508.091C442.898 509.843 454.834 512.295 462.04 508.091C469.247 503.887 472.8 498.707 473.676 496.643C483.498 509.968 515.189 535.717 563.384 532.113C611.579 528.51 627.381 513.721 629.258 506.777C632.573 510.593 642.057 517.85 653.467 516.349C664.878 514.847 670.483 509.342 671.859 506.777C676.739 511.344 690.439 519.352 706.204 514.847C721.968 510.343 726.41 504.588 726.66 502.273C743.426 508.654 777.482 514.172 779.584 485.195C779.703 483.555 779.72 482.003 779.642 480.535C778.108 487.6 772.787 494.705 760.068 498.893C735.445 507.001 706.018 485.005 694.382 472.994C696.509 475.747 676.366 485.005 662.102 485.005C631.028 485.005 611.931 467.989 606.176 457.605C606.176 457.605 590.786 477.123 550.624 485.005C499.648 495.01 462.167 464.361 449.656 447.095C449.531 453.851 444.776 468.115 426.76 471.117C408.743 474.12 397.733 460.858 394.48 453.851C391.477 457.73 379.841 471.117 356.57 467.364C333.695 463.674 317.909 446.47 313.029 435.084C312.895 435.428 312.753 435.801 312.6 436.202C309.463 444.414 301.925 464.152 274.369 475.246C248.381 485.709 221.32 475.997 209.809 467.364C208.308 476.122 192.393 494.239 140.745 496.641C89.0972 499.043 61.6719 481.127 54.4152 471.868C53.2891 475.872 45.4068 484.78 22.886 488.383C0.365158 491.987 -16.025 481.127 -21.405 475.246C-22.4059 478.374 -35.2928 494.764 -66.0713 496.641C-99.7852 498.697 -118.022 487.022 -124.155 476.126C-124.44 479.561 -124.241 483.384 -123.501 487.635Z" fill="#9E4EFF"/>
<path d="M184.281 382.156C192.977 398.109 208.679 426.635 256.723 420.629C232.326 432.077 189.911 428.699 184.281 382.156Z" fill="#AD6EF9"/>
<path d="M58.478 477.845C79.909 477.527 92.1176 465.591 95.543 459.663C68.8466 479.101 35.7735 468.956 22.574 461.453C25.6124 467.05 37.047 478.163 58.478 477.845Z" fill="#AD6EF9"/>
<rect x="154.475" y="1.5" width="547.785" height="435.922" rx="3.5" fill="#003451" stroke="#9E4EFF" stroke-width="3"/>
<text fill="#75C4FE" xml:space="preserve" style="white-space: pre" font-family="Space Mono" font-size="15" letter-spacing="0em"><tspan x="295.103" y="114.712">helloworld</tspan><tspan x="285.918" y="138.712">&#39;hello, world! this sentence is so </tspan><tspan x="212.441" y="162.712">long that it wraps onto a second&#13;&#10;</tspan><tspan x="212.441" y="186.712">    line.</tspan><tspan x="285.918" y="234.712">&#39;hello, world! this sentence is so </tspan><tspan x="212.441" y="258.712">long that it wraps onto a second&#13;&#10;</tspan><tspan x="212.441" y="282.712">    line.</tspan></text>
<text fill="#B6E9FF" xml:space="preserve" style="white-space: pre" font-family="Space Mono" font-size="15" letter-spacing="0em"><tspan x="285.918" y="114.712"> </tspan><tspan x="386.948" y="114.712">() {&#13;&#10;</tspan><tspan x="276.733" y="138.712">(</tspan><tspan x="295.103" y="186.712">&#39;);&#13;&#10;</tspan><tspan x="276.733" y="234.712">(</tspan><tspan x="295.103" y="282.712">&#39;);&#13;&#10;</tspan></text>
<text fill="#FFF43A" xml:space="preserve" style="white-space: pre" font-family="Space Mono" font-size="15" letter-spacing="0em"><tspan x="212.441" y="114.712">function</tspan></text>
<text fill="#AD6EF9" xml:space="preserve" style="white-space: pre" font-family="Space Mono" font-size="15" letter-spacing="0em"><tspan x="212.441" y="138.712">  alert</tspan><tspan x="267.549" y="234.712">t</tspan></text>
<text fill="#F57AFF" xml:space="preserve" style="white-space: pre" font-family="Space Mono" font-size="15" letter-spacing="0em"><tspan x="212.441" y="90.712">&#60;pre&#62;&#13;&#10;</tspan><tspan x="212.441" y="210.712">}&#13;&#10;</tspan><tspan x="212.441" y="234.712">&#60;/pre&#62; </tspan></text>
<text fill="#00F500" xml:space="preserve" style="white-space: pre" font-family="Space Mono" font-size="15" letter-spacing="0em"><tspan x="212.441" y="306.712">}&#13;&#10;</tspan><tspan x="212.441" y="330.712">&#60;/pre&#62;</tspan></text>
<path d="M325.799 445.669C321.236 455.774 288.966 458.055 285.055 442.41C283.183 431.653 289.285 427.209 298.419 425.704C305.344 424.564 312.815 426.601 316.509 428.557C315.803 426.166 316.053 420.571 322.702 417.311C329.352 414.052 336.229 417.148 338.837 419.104C338.946 415.192 340.499 406.001 345.845 400.524C352.527 393.679 365.239 391.887 375.67 399.058C375.507 389.116 384.308 383.576 394.086 382.597C403.865 381.618 407.613 383.576 415.11 390.177C412.503 382.112 414.132 360.921 431.245 350.328C448.358 339.734 470.441 343.321 482.909 354.729C485.842 345.928 503.444 334.52 520.719 347.232C537.995 359.944 530.335 378.279 528.95 383.576C533.35 379.583 536.202 378.605 541.825 378.686C547.447 378.768 551.277 383.739 551.359 390.177C552.337 386.674 559.426 386.266 560.73 390.177C567.901 380.48 578.25 380.969 587.458 382.762C596.666 384.555 601.23 395.23 600.17 402.89C605.956 400.608 611.823 404.031 614.349 406.557C616.876 409.083 617.69 413.728 616.224 420.492C621.113 420.166 623.693 423.832 624.373 425.705C626.79 422.826 633.744 417.426 642.219 418.86C652.812 420.653 652.894 429.371 652.812 433.609C657.783 428.475 678.318 425.623 677.177 441.35C676.264 453.932 661.477 451.536 654.197 448.766C654.089 449.771 652.16 452.27 645.315 454.225C638.47 456.181 632.521 452.704 630.403 450.721C629.805 451.835 627.371 454.225 622.417 454.877C617.462 455.529 613.344 452.378 611.905 450.721C611.09 453.736 604.229 460.158 583.302 461.722C562.376 463.287 548.615 452.107 544.351 446.321C543.971 447.217 542.428 449.466 539.299 451.292C536.169 453.117 530.987 452.052 528.787 451.292C527.972 453.682 523.554 460.412 511.43 461.478C496.6 462.782 489.455 456.887 485.924 453.084C483.995 454.904 481.117 460.418 470.441 460.418C462.54 460.418 456.941 457.512 455.039 455.122C451.454 463.434 435.809 467.834 427.823 456.1C422.771 463.597 401.584 463.597 395.553 453.981C382.678 462.293 367.032 459.685 355.787 448.603C354.32 453.329 334.926 463.922 325.799 445.669Z" fill="#AD6EF9"/>
<path d="M486.084 360.6C487.985 362.963 491.804 370.28 491.87 380.646C495.374 368.097 489.425 362.8 486.084 360.6Z" fill="#AD6EF9"/>
<path d="M565.943 414.545C558.656 415.521 555.958 409.923 555.515 406.985C555.662 416.202 561.748 417.308 565.209 416.664C565.291 420.086 570.099 421.879 572.869 419.434C569.121 420.005 567.002 416.99 565.943 414.545Z" fill="#AD6EF9"/>
<path fill-rule="evenodd" clip-rule="evenodd" d="M285.057 442.406C288.968 458.051 321.237 455.77 325.801 445.665C334.928 463.919 354.322 453.325 355.789 448.599C367.034 459.681 382.68 462.289 395.555 453.977C401.586 463.593 422.773 463.593 427.825 456.096C435.811 467.83 451.456 463.43 455.041 455.118C456.943 457.508 462.541 460.415 470.443 460.415C479.492 460.415 482.939 456.453 484.953 454.137C485.316 453.721 485.632 453.358 485.926 453.081C489.457 456.883 496.602 462.778 511.431 461.474C523.556 460.408 527.974 453.678 528.789 451.288C530.989 452.048 536.171 453.113 539.301 451.288C542.43 449.462 543.973 447.213 544.353 446.317C548.617 452.103 562.378 463.283 583.304 461.718C604.231 460.154 611.092 453.732 611.907 450.717C613.346 452.374 617.464 455.525 622.419 454.873C627.373 454.221 629.807 451.831 630.405 450.717C632.523 452.7 638.472 456.177 645.317 454.221C652.162 452.266 654.091 449.767 654.199 448.762C661.479 451.532 676.266 453.928 677.179 441.346C677.23 440.637 677.238 439.966 677.205 439.331C676.537 442.396 674.226 445.479 668.707 447.296C658.015 450.816 645.238 441.266 640.186 436.051C641.109 437.246 632.363 441.266 626.17 441.266C612.677 441.266 604.385 433.877 601.886 429.368C601.886 429.368 595.204 437.843 577.766 441.266C555.631 445.61 539.357 432.302 533.925 424.805C533.87 427.739 531.806 433.932 523.983 435.236C516.16 436.539 511.38 430.781 509.967 427.739C508.663 429.423 503.611 435.236 493.507 433.606C483.574 432.004 476.72 424.533 474.601 419.59C474.543 419.739 474.481 419.901 474.415 420.075C473.053 423.641 469.78 432.211 457.815 437.028C446.531 441.571 434.78 437.354 429.783 433.606C429.131 437.409 422.22 445.275 399.795 446.318C377.369 447.361 365.461 439.582 362.31 435.562C361.821 437.3 358.399 441.168 348.62 442.733C338.841 444.297 331.725 439.582 329.389 437.028C328.954 438.387 323.359 445.503 309.994 446.318C295.353 447.211 287.434 442.139 284.773 437.408C284.649 438.899 284.735 440.559 285.057 442.406Z" fill="#AD6EF9"/>
<path d="M418.695 396.611C422.471 403.538 429.289 415.924 450.15 413.316C439.556 418.287 421.14 416.82 418.695 396.611Z" fill="#AD6EF9"/>
<path d="M364.072 438.159C373.378 438.021 378.679 432.838 380.166 430.264C368.575 438.705 354.214 434.299 348.483 431.042C349.802 433.472 354.767 438.297 364.072 438.159Z" fill="#AD6EF9"/>
<path d="M299.006 416.27C299.006 420.662 313.037 421.044 312.703 415.315C312.369 409.586 299.006 410.159 299.006 416.27Z" fill="#AD6EF9"/>
<path d="M290.682 407.502C290.682 410.496 299.205 410.756 299.002 406.851C298.799 402.945 290.682 403.336 290.682 407.502Z" fill="#AD6EF9"/>
</g>
<defs>
<clipPath id="clip0_64_2414">
<rect width="780" height="536" fill="white"/>
</clipPath>
</defs>
</svg>
