<svg width="353" height="748" viewBox="0 0 353 748" fill="none" xmlns="http://www.w3.org/2000/svg">
<g clip-path="url(#clip0_35_469)">
<path d="M697.004 318.149C697.219 296.636 692.13 275.403 682.186 256.332C691.6 237.651 696.408 216.983 696.207 196.059C696.207 146.246 670.776 104.717 637.071 95.2942C633.833 46.0577 592.499 7.0081 541.925 7.0081C525.848 6.96896 510.022 10.9943 495.912 18.7108C481.802 26.4273 469.864 37.5852 461.207 51.1511C453.449 49.1797 445.475 48.1873 437.471 48.197C421.863 48.1627 406.484 51.9579 392.679 59.2506C378.874 66.5432 367.063 77.1115 358.279 90.0312C347.064 91.6804 336.76 97.1484 329.101 105.515C322.24 87.3152 309.993 71.6473 293.999 60.6064C278.005 49.5655 259.026 43.6781 239.6 43.7319C234.364 43.7329 229.136 44.1587 223.968 45.0053C217.415 38.3992 209.619 33.1584 201.032 29.5857C192.445 26.0131 183.236 24.1794 173.937 24.1901C156.405 24.1942 139.501 30.7278 126.513 42.5203C113.524 54.3129 105.379 70.5215 103.662 87.994C101.967 87.8242 100.271 87.705 98.576 87.705C59.5816 87.705 27.9624 130.897 27.9624 184.175C27.8385 201.375 31.3033 218.411 38.1348 234.192C19.3497 251.527 6.98999 280.899 6.98999 314.21C6.98999 338.2 13.3986 360.051 23.9441 377.029C20.3268 387.895 18.5002 399.277 18.5358 410.73C18.5358 450.34 39.4739 483.261 67.0412 490.018C72.297 518.202 88.4203 540.443 108.969 547.913C108.969 549.221 108.969 550.528 108.969 551.835C108.969 596.352 135.383 632.43 167.969 632.43C174.315 632.415 180.585 631.049 186.364 628.423C196.333 659.103 222.154 680.971 252.485 680.971H252.773C263.115 714.656 288.547 738.51 318.301 738.51C330.765 738.403 342.867 734.304 352.836 726.812C357.009 727.802 361.281 728.309 365.569 728.323C393.475 728.323 417.584 707.355 429.011 676.964C443.524 670.75 455.934 658.628 464.614 642.787C467.307 643.888 470.184 644.464 473.092 644.485C485.214 644.485 495.488 634.875 499.184 621.514C543.112 618.288 578.054 574.195 579.139 519.747C611.963 508.236 635.427 477.624 635.427 441.647C635.423 434.392 634.454 427.169 632.545 420.17C668.793 413.837 697.004 370.628 697.004 318.149ZM406.818 499.424C378.929 499.424 334.492 522.005 331 557.863C326.827 556.872 322.555 556.365 318.267 556.352C316.068 556.359 313.872 556.495 311.689 556.759C299.38 534.959 278.137 520.392 253.859 519.849C260.596 509.288 264.173 497.016 264.166 484.484C264.157 474.199 261.749 464.058 257.134 454.87C252.518 445.682 245.823 437.701 237.583 431.563C247.046 419.869 252.206 405.272 252.197 390.221C252.21 375.582 247.334 361.358 238.345 349.813C249.808 337.605 256.188 321.477 256.181 304.719C256.18 301.446 255.936 298.177 255.452 294.94C270.958 308.367 290.782 315.74 311.282 315.704C327.194 315.737 342.797 311.3 356.316 302.896C369.836 294.493 380.73 282.46 387.762 268.165C390.718 268.567 393.697 268.771 396.68 268.777C405.955 268.797 415.133 266.889 423.634 263.175C432.135 259.461 439.773 254.02 446.067 247.198C453.374 268.183 465.632 285.177 480.721 295.228C472.034 302.891 465.074 312.315 460.301 322.876C455.527 333.437 453.051 344.893 453.035 356.485C453.016 375.593 459.721 394.096 471.973 408.744C470.744 411.513 469.669 414.346 468.752 417.233C438.438 428.727 415.363 460.459 409.972 499.577C408.92 499.475 407.886 499.424 406.818 499.424Z" fill="url(#paint0_linear_35_469)"/>
<g style="mix-blend-mode:multiply">
<g style="mix-blend-mode:multiply">
<path d="M697.005 318.149C697.221 296.636 692.131 275.402 682.188 256.331C691.602 237.651 696.409 216.983 696.209 196.059C696.209 146.245 670.777 104.717 637.073 95.294C633.834 46.0575 592.501 7.00787 541.927 7.00787C530.915 6.9959 519.983 8.88558 509.612 12.5937C582.023 0.878842 636.954 60.3194 639.463 98.5541C673.185 107.994 709.484 240.576 617.559 256.348C627.512 275.416 632.602 296.652 632.377 318.166C632.377 370.645 604.182 413.905 567.765 420.136C569.688 427.133 570.663 434.357 570.664 441.614C570.664 477.59 547.182 508.202 514.359 519.713C513.274 574.162 478.332 618.186 434.404 621.48C430.725 634.841 420.45 644.451 408.328 644.451C405.421 644.429 402.544 643.853 399.851 642.753C391.239 658.594 378.828 670.716 364.248 676.93C352.821 707.321 328.644 728.289 300.806 728.289C296.523 728.277 292.256 727.77 288.09 726.778V729.749C297.112 735.398 307.526 738.42 318.167 738.475C330.63 738.369 342.732 734.269 352.702 726.778C356.874 727.768 361.146 728.275 365.434 728.289C393.341 728.289 417.45 707.321 428.877 676.93C443.39 670.716 455.8 658.594 464.48 642.753C467.173 643.854 470.05 644.43 472.957 644.451C485.08 644.451 495.354 634.841 499.05 621.48C542.978 618.254 577.92 574.162 579.005 519.713C611.828 508.202 635.293 477.59 635.293 441.614C635.289 434.358 634.32 427.135 632.41 420.136C668.794 413.837 697.005 370.628 697.005 318.149Z" fill="#E0C1FD"/>
</g>
</g>
<g style="mix-blend-mode:multiply">
<path d="M318.269 556.352C316.07 556.36 313.873 556.496 311.69 556.76C299.382 534.96 278.138 520.393 253.86 519.849C260.598 509.289 264.175 497.017 264.168 484.484C264.159 474.199 261.75 464.058 257.135 454.871C252.52 445.683 245.825 437.702 237.584 431.563C247.047 419.87 252.207 405.273 252.199 390.222C252.212 375.582 247.336 361.359 238.347 349.814C249.81 337.606 256.189 321.477 256.183 304.72C256.181 301.447 255.938 298.178 255.454 294.941L255.928 295.331C214.425 263.939 193.08 199.422 193.08 199.422C201.658 247.232 210.831 294.89 178.719 312.462C227.785 361.614 206.439 412.141 196.47 436.114C242.348 469.272 207.643 518.797 188.892 559.544C233.973 528.797 282.241 556.76 302.179 582.329C306.18 558.356 331.001 557.864 331.001 557.864C326.829 556.873 322.557 556.366 318.269 556.352V556.352Z" fill="#E0C1FD"/>
</g>
<path opacity="0.5" d="M69.7546 166.882C73.4845 141.245 88.5057 116.525 133.638 120.124C132.044 72.1778 158.17 50.6155 190.891 68.1878" stroke="#F1E4FD" stroke-width="17.399" stroke-linecap="round" stroke-linejoin="round"/>
<path d="M74.1615 220.635C81.2777 220.635 87.0466 214.858 87.0466 207.731C87.0466 200.605 81.2777 194.828 74.1615 194.828C67.0452 194.828 61.2764 200.605 61.2764 207.731C61.2764 214.858 67.0452 220.635 74.1615 220.635Z" fill="#F1E4FD"/>
<g style="mix-blend-mode:multiply">
<path d="M284.917 311.545C293.432 314.31 302.329 315.713 311.28 315.705C327.193 315.738 342.795 311.301 356.315 302.897C369.834 294.494 380.729 282.461 387.76 268.166C390.716 268.568 393.695 268.772 396.678 268.778C405.953 268.798 415.131 266.89 423.632 263.176C432.133 259.462 439.772 254.021 446.065 247.199C446.065 247.199 456.967 220.356 460.154 207.164C445.387 241.12 410.682 263.107 379.572 251.511C372.79 285.229 327.488 312.666 284.917 311.545Z" fill="#E0C1FD"/>
</g>
<g style="mix-blend-mode:multiply">
<g style="mix-blend-mode:multiply">
<path d="M354.636 640.398V658.871" stroke="#E0C1FD" stroke-width="4.34974" stroke-linecap="round" stroke-linejoin="round"/>
</g>
<g style="mix-blend-mode:multiply">
<path d="M362.045 651.039H347.227" stroke="#E0C1FD" stroke-width="4.34974" stroke-linecap="round" stroke-linejoin="round"/>
</g>
</g>
<g style="mix-blend-mode:multiply">
<g style="mix-blend-mode:multiply">
<path d="M343.545 728.339C339.257 728.325 334.985 727.819 330.813 726.828V729.799C333.624 731.508 336.566 732.989 339.612 734.23C343.788 732.506 347.766 730.337 351.48 727.761C348.852 728.142 346.2 728.335 343.545 728.339V728.339Z" fill="#E0C1FD"/>
</g>
</g>
</g>
<defs>
<linearGradient id="paint0_linear_35_469" x1="352" y1="7.00781" x2="352" y2="738.51" gradientUnits="userSpaceOnUse">
<stop stop-color="#E0C1FD"/>
<stop offset="1" stop-color="#F57AFF"/>
</linearGradient>
<clipPath id="clip0_35_469">
<rect width="353" height="748" fill="white"/>
</clipPath>
</defs>
</svg>
