<svg width="773" height="210" viewBox="0 0 773 210" fill="none" xmlns="http://www.w3.org/2000/svg">
<path d="M119.655 178.938C111.811 196.306 56.3467 200.227 49.6237 173.335C46.4073 154.847 56.8949 147.209 72.5938 144.623C84.4967 142.662 97.3382 146.163 103.688 149.525C102.474 145.416 102.903 135.799 114.332 130.196C125.761 124.594 137.583 129.916 142.065 133.278C142.251 126.555 144.922 110.756 154.11 101.344C165.595 89.5784 187.445 86.497 205.373 98.8225C205.092 81.7349 220.219 72.2119 237.027 70.53C253.834 68.8481 260.277 72.2119 273.163 83.5587C268.681 69.6956 271.482 33.2735 300.895 15.0654C330.308 -3.14264 368.265 3.02209 389.694 22.6308C394.736 7.50407 424.99 -12.1046 454.683 9.74506C484.376 31.5947 471.21 63.1078 468.829 72.2119C476.392 65.3488 481.295 63.6681 490.959 63.8081C500.623 63.9482 507.206 72.492 507.346 83.5587C509.027 77.5379 521.212 76.8358 523.453 83.5587C535.779 66.8914 553.567 67.7317 569.394 70.8131C585.221 73.8945 593.064 92.2439 591.243 105.41C601.188 101.488 611.272 107.371 615.614 111.712C619.956 116.054 621.357 124.038 618.836 135.663C627.239 135.103 631.675 141.404 632.842 144.625C636.997 139.676 648.949 130.394 663.515 132.859C681.723 135.941 681.863 150.925 681.723 158.209C690.267 149.385 725.563 144.483 723.602 171.515C722.033 193.14 696.617 189.022 684.104 184.26C683.918 185.988 680.603 190.283 668.838 193.644C657.072 197.006 646.848 191.03 643.206 187.622C642.179 189.536 637.996 193.644 629.48 194.765C620.964 195.885 613.887 190.47 611.412 187.622C610.012 192.804 598.218 203.841 562.25 206.53C526.283 209.219 502.631 190.003 495.301 180.058C494.647 181.599 491.995 185.465 486.617 188.602C481.239 191.74 472.331 189.909 468.549 188.602C467.148 192.711 459.555 204.278 438.716 206.11C413.226 208.351 400.946 198.22 394.876 191.684C391.562 194.812 386.614 204.289 368.265 204.289C354.684 204.289 345.061 199.294 341.793 195.185C335.63 209.471 308.74 217.035 295.014 196.866C286.33 209.752 249.914 209.752 239.548 193.224C217.418 207.511 190.526 203.029 171.197 183.98C168.676 192.104 135.342 210.312 119.655 178.938Z" fill="#AD6EF9"/>
<path d="M395.16 32.7188C398.428 36.7805 404.993 49.3581 405.105 67.174C411.127 45.6045 400.903 36.5004 395.16 32.7188Z" fill="#CEA6FF"/>
<path d="M532.421 125.44C519.897 127.117 515.259 117.496 514.498 112.445C514.751 128.288 525.211 130.188 531.16 129.081C531.3 134.964 539.564 138.045 544.326 133.844C537.883 134.824 534.242 129.642 532.421 125.44Z" fill="#CEA6FF"/>
<path fill-rule="evenodd" clip-rule="evenodd" d="M49.6315 173.335C56.3545 200.227 111.819 196.306 119.663 178.938C135.349 210.312 168.684 192.104 171.205 183.98C190.534 203.029 217.426 207.511 239.556 193.224C249.922 209.752 286.338 209.752 295.022 196.866C308.748 217.035 335.638 209.471 341.801 195.185C345.069 199.294 354.692 204.289 368.272 204.289C383.826 204.289 389.75 197.48 393.213 193.5C393.836 192.784 394.379 192.16 394.884 191.684C400.953 198.22 413.234 208.351 438.724 206.11C459.563 204.278 467.156 192.711 468.557 188.602C472.338 189.909 481.246 191.74 486.625 188.602C492.003 185.465 494.655 181.599 495.309 180.058C502.639 190.003 526.29 209.219 562.258 206.53C598.226 203.841 610.019 192.804 611.42 187.622C613.894 190.47 620.972 195.885 629.488 194.765C638.004 193.644 642.187 189.536 643.214 187.622C646.856 191.03 657.08 197.006 668.845 193.644C680.611 190.283 683.925 185.988 684.112 184.26C696.624 189.022 722.041 193.14 723.61 171.515C723.698 170.292 723.711 169.135 723.653 168.041C722.507 173.312 718.536 178.613 709.046 181.738C690.669 187.789 668.708 171.374 660.024 162.41C661.611 164.464 646.578 171.374 635.933 171.374C612.742 171.374 598.49 158.675 594.195 150.925C594.195 150.925 582.71 165.491 552.736 171.374C514.692 178.84 486.72 155.967 477.383 143.081C477.29 148.123 473.741 158.768 460.295 161.009C446.849 163.25 438.632 153.352 436.205 148.123C433.964 151.018 425.28 161.009 407.912 158.208C390.841 155.454 379.059 142.614 375.418 134.117C375.318 134.374 375.211 134.652 375.097 134.952C372.756 141.08 367.13 155.811 346.565 164.09C327.17 171.899 306.974 164.651 298.384 158.208C297.263 164.744 285.386 178.265 246.841 180.058C208.296 181.85 187.828 168.479 182.412 161.569C181.572 164.557 175.689 171.206 158.882 173.895C142.074 176.584 129.842 168.479 125.827 164.09C125.08 166.425 115.463 178.657 92.4925 180.058C67.3304 181.592 53.72 172.878 49.1434 164.746C48.9311 167.309 49.0795 170.163 49.6315 173.335Z" fill="#9853F7"/>
<path d="M279.328 94.6172C285.818 106.522 297.536 127.812 333.392 123.33C315.184 131.874 283.53 129.353 279.328 94.6172Z" fill="#CEA6FF"/>
<path d="M668.982 65.215C669.207 49.0799 683.082 47.8473 689.992 49.2479C689.992 39.7274 699.357 32.4425 710.439 32.4375C723.885 32.4314 735.09 39.1631 734.529 51.4886C742.653 51.2084 749.656 54.2781 751.897 63.8026C757.236 86.4935 734.529 85.9324 734.529 85.9324C734.529 85.9324 706.517 97.6976 696.435 76.9798C687.191 79.7812 668.758 81.3501 668.982 65.215Z" fill="#CEA6FF"/>
<path fill-rule="evenodd" clip-rule="evenodd" d="M668.994 64.7279C668.988 64.8888 668.985 65.0511 668.982 65.215C668.758 81.3502 687.191 79.7812 696.435 76.9799C706.517 97.6977 734.529 85.9324 734.529 85.9324C734.529 85.9324 757.236 86.4936 751.897 63.8027C750.436 57.5916 746.949 54.1255 742.448 52.5432C746.87 62.4469 742.788 70.2332 733.693 75.2856C723.609 80.8881 711.283 76.6863 699.238 66.8819C691.937 77.3117 672.744 79.0012 668.994 64.7279Z" fill="#9853F7"/>
<path d="M335.832 20.7367C311.3 23.0832 298.413 37.8908 295.035 45.0013C323.833 20.2557 362.674 28.8245 378.495 36.202C374.495 30.0692 360.363 18.3902 335.832 20.7367Z" fill="#CEA6FF"/>
<path d="M185.445 166.031C201.439 165.793 210.551 156.886 213.107 152.462C193.183 166.969 168.501 159.397 158.65 153.798C160.917 157.975 169.451 166.269 185.445 166.031Z" fill="#AD6EF9"/>
<path d="M701.873 69.5419C711.192 69.4035 716.5 64.2136 717.99 61.6359C706.381 70.0881 692 65.6767 686.261 62.4144C687.582 64.8479 692.554 69.6803 701.873 69.5419Z" fill="#9853F7"/>
<path d="M713.529 38.6464C704.239 37.9085 698.466 42.5766 696.741 45.0029C709.092 37.6789 722.995 43.4221 728.402 47.2093C727.316 44.6624 722.82 39.3842 713.529 38.6464Z" fill="#AD6EF9"/>
<path d="M737.891 179.496C737.891 192.38 773.186 193.502 772.346 176.695C771.506 159.887 737.891 161.568 737.891 179.496Z" fill="#CEA6FF"/>
<path d="M191.625 62.2416C191.625 69.7901 212.304 70.4475 211.812 60.6004C211.319 50.7533 191.625 51.7381 191.625 62.2416Z" fill="#CEA6FF"/>
<path d="M14.3086 186.617C14.3086 194.165 38.425 194.823 37.8508 184.975C37.2766 175.128 14.3086 176.113 14.3086 186.617Z" fill="#CEA6FF"/>
<path d="M0 171.549C0 176.695 14.6502 177.143 14.3014 170.43C13.9525 163.717 0 164.389 0 171.549Z" fill="#CEA6FF"/>
<path d="M212.38 37.8936C205.769 43.6082 198.42 37.7536 195.572 34.112C193.472 36.7671 188.848 40.2807 184.226 41.2612C179.604 42.2416 172.042 40.4208 167.28 33.2776C166.021 41.2612 146.69 42.5217 148.651 28.7957C150.22 17.8148 160.883 18.9913 166.019 20.9522C165.319 18.4764 164.127 11.4238 171.202 7.36237C178.765 3.02011 184.834 7.64256 187.168 10.8639C188.476 8.62292 192.603 4.78523 198.653 7.36237C204.704 9.93951 204.536 16.3715 203.696 19.2654C204.536 18.7518 207.449 18.0328 212.38 19.2654C218.542 20.8061 220.643 30.7505 212.38 37.8936Z" fill="#CEA6FF"/>
</svg>
