<svg width="354" height="748" viewBox="0 0 354 748" fill="none" xmlns="http://www.w3.org/2000/svg">
<g clip-path="url(#clip0_34_389)">
<path d="M345.004 318.149C345.219 296.636 340.13 275.403 330.186 256.332C339.6 237.651 344.408 216.983 344.207 196.059C344.207 146.246 318.776 104.717 285.071 95.2942C281.833 46.0577 240.499 7.0081 189.925 7.0081C173.848 6.96896 158.022 10.9943 143.912 18.7108C129.802 26.4273 117.864 37.5852 109.207 51.1511C101.449 49.1797 93.4749 48.1873 85.471 48.197C69.8629 48.1627 54.4844 51.9579 40.6793 59.2506C26.8742 66.5432 15.0629 77.1115 6.27853 90.0312C-4.93566 91.6804 -15.2399 97.1484 -22.8994 105.515C-29.7602 87.3152 -42.0068 71.6473 -58.0009 60.6064C-73.995 49.5655 -92.9742 43.6781 -112.4 43.7319C-117.636 43.7329 -122.864 44.1587 -128.032 45.0053C-134.585 38.3992 -142.381 33.1584 -150.968 29.5857C-159.555 26.0131 -168.764 24.1794 -178.063 24.1901C-195.595 24.1942 -212.499 30.7278 -225.487 42.5203C-238.476 54.3129 -246.621 70.5215 -248.338 87.994C-250.033 87.8242 -251.729 87.705 -253.424 87.705C-292.418 87.705 -324.038 130.897 -324.038 184.175C-324.161 201.375 -320.697 218.411 -313.865 234.192C-332.65 251.527 -345.01 280.899 -345.01 314.21C-345.01 338.2 -338.601 360.051 -328.056 377.029C-331.673 387.895 -333.5 399.277 -333.464 410.73C-333.464 450.34 -312.526 483.261 -284.959 490.018C-279.703 518.202 -263.58 540.443 -243.031 547.913C-243.031 549.221 -243.031 550.528 -243.031 551.835C-243.031 596.352 -216.617 632.43 -184.031 632.43C-177.685 632.415 -171.415 631.049 -165.636 628.423C-155.667 659.103 -129.846 680.971 -99.5148 680.971H-99.2267C-88.8847 714.656 -63.4533 738.51 -33.6989 738.51C-21.2352 738.403 -9.13311 734.304 0.836328 726.812C5.00865 727.802 9.2809 728.309 13.5689 728.323C41.4753 728.323 65.5839 707.355 77.0109 676.964C91.5236 670.75 103.934 658.628 112.614 642.787C115.307 643.888 118.184 644.464 121.092 644.485C133.214 644.485 143.488 634.875 147.184 621.514C191.112 618.288 226.054 574.195 227.139 519.747C259.963 508.236 283.427 477.624 283.427 441.647C283.423 434.392 282.454 427.169 280.545 420.17C316.793 413.837 345.004 370.628 345.004 318.149ZM54.8183 499.424C26.9288 499.424 -17.5078 522.005 -21.0003 557.863C-25.1727 556.872 -29.4449 556.365 -33.7329 556.352C-35.9317 556.359 -38.1283 556.495 -40.3113 556.759C-52.6199 534.959 -73.8632 520.392 -98.1414 519.849C-91.4036 509.288 -87.8268 497.016 -87.8336 484.484C-87.8427 474.199 -90.2511 464.058 -94.8665 454.87C-99.4819 445.682 -106.177 437.701 -114.417 431.563C-104.954 419.869 -99.7943 405.272 -99.8029 390.221C-99.7898 375.582 -104.666 361.358 -113.655 349.813C-102.192 337.605 -95.8124 321.477 -95.8189 304.719C-95.8202 301.446 -96.0638 298.177 -96.5478 294.94C-81.0416 308.367 -61.2176 315.74 -40.7182 315.704C-24.806 315.737 -9.20343 311.3 4.31614 302.896C17.8357 294.493 28.7304 282.46 35.7619 268.165C38.7177 268.567 41.6969 268.771 44.6798 268.777C53.9547 268.797 63.1328 266.889 71.6337 263.175C80.1347 259.461 87.7733 254.02 94.0668 247.198C101.374 268.183 113.632 285.177 128.721 295.228C120.034 302.891 113.074 312.315 108.301 322.876C103.527 333.437 101.051 344.893 101.035 356.485C101.016 375.593 107.721 394.096 119.973 408.744C118.744 411.513 117.669 414.346 116.752 417.233C86.4377 428.727 63.3629 460.459 57.9715 499.577C56.9204 499.475 55.8864 499.424 54.8183 499.424Z" fill="url(#paint0_linear_34_389)"/>
<g style="mix-blend-mode:multiply">
<g style="mix-blend-mode:multiply">
<path d="M345.005 318.149C345.221 296.636 340.131 275.402 330.188 256.331C339.602 237.651 344.409 216.983 344.209 196.059C344.209 146.245 318.777 104.717 285.073 95.294C281.834 46.0575 240.501 7.00787 189.927 7.00787C178.915 6.9959 167.983 8.88558 157.612 12.5937C230.023 0.878842 284.954 60.3194 287.463 98.5541C321.185 107.994 357.484 240.576 265.559 256.348C275.512 275.416 280.602 296.652 280.377 318.166C280.377 370.645 252.182 413.905 215.765 420.136C217.688 427.133 218.663 434.357 218.664 441.614C218.664 477.59 195.182 508.202 162.359 519.713C161.274 574.162 126.332 618.186 82.4039 621.48C78.7249 634.841 68.4505 644.451 56.3283 644.451C53.4206 644.429 50.5436 643.853 47.8513 642.753C39.2386 658.594 26.8282 670.716 12.2477 676.93C0.82064 707.321 -23.3557 728.289 -51.1944 728.289C-55.4768 728.277 -59.7436 727.77 -63.9099 726.778V729.749C-54.8882 735.398 -44.4736 738.42 -33.8334 738.475C-21.3697 738.369 -9.26758 734.269 0.701863 726.778C4.87419 727.768 9.14642 728.275 13.4344 728.289C41.3408 728.289 65.4498 707.321 76.8769 676.93C91.3895 670.716 103.8 658.594 112.48 642.753C115.173 643.854 118.05 644.43 120.957 644.451C133.08 644.451 143.354 634.841 147.05 621.48C190.978 618.254 225.92 574.162 227.005 519.713C259.828 508.202 283.293 477.59 283.293 441.614C283.289 434.358 282.32 427.135 280.41 420.136C316.794 413.837 345.005 370.628 345.005 318.149Z" fill="#E0C1FD"/>
</g>
</g>
<path d="M138.965 382.676C138.965 382.676 122.113 356.53 135.117 330.367" stroke="#F1E4FD" stroke-width="17.399" stroke-linecap="round" stroke-linejoin="round"/>
<g style="mix-blend-mode:multiply">
<path d="M-67.0833 311.545C-58.568 314.31 -49.671 315.713 -40.7196 315.705C-24.8074 315.738 -9.20486 311.301 4.31471 302.897C17.8343 294.494 28.7289 282.461 35.7605 268.166C38.7163 268.568 41.6955 268.772 44.6783 268.778C53.9532 268.798 63.1313 266.89 71.6323 263.176C80.1332 259.462 87.7719 254.021 94.0654 247.199C94.0654 247.199 104.967 220.356 108.154 207.164C93.3873 241.12 58.6823 263.107 27.5715 251.511C20.7899 285.229 -24.5116 312.666 -67.0833 311.545Z" fill="#E0C1FD"/>
</g>
<path d="M267.73 142.883V172.544" stroke="#F1E4FD" stroke-width="4.34974" stroke-linecap="round" stroke-linejoin="round"/>
<path d="M279.631 159.969H255.844" stroke="#F1E4FD" stroke-width="4.34974" stroke-linecap="round" stroke-linejoin="round"/>
<g style="mix-blend-mode:multiply">
<g style="mix-blend-mode:multiply">
<path d="M296.854 133.688V152.16" stroke="#E0C1FD" stroke-width="4.34974" stroke-linecap="round" stroke-linejoin="round"/>
</g>
<g style="mix-blend-mode:multiply">
<path d="M304.263 144.328H289.445" stroke="#E0C1FD" stroke-width="4.34974" stroke-linecap="round" stroke-linejoin="round"/>
</g>
</g>
<path d="M20.6069 604.586V634.247" stroke="#F1E4FD" stroke-width="4.34974" stroke-linecap="round" stroke-linejoin="round"/>
<path d="M32.5041 621.672H8.71753" stroke="#F1E4FD" stroke-width="4.34974" stroke-linecap="round" stroke-linejoin="round"/>
<g style="mix-blend-mode:multiply">
<g style="mix-blend-mode:multiply">
<path d="M2.63647 640.398V658.871" stroke="#E0C1FD" stroke-width="4.34974" stroke-linecap="round" stroke-linejoin="round"/>
</g>
<g style="mix-blend-mode:multiply">
<path d="M10.0449 651.039H-4.77295" stroke="#E0C1FD" stroke-width="4.34974" stroke-linecap="round" stroke-linejoin="round"/>
</g>
</g>
<g style="mix-blend-mode:multiply">
<g style="mix-blend-mode:multiply">
<path d="M345.005 318.148C345.22 296.635 340.13 275.401 330.187 256.331C331.764 253.308 333.222 250.15 334.544 246.891C326.434 251.671 317.495 254.874 308.198 256.331C318.141 275.401 323.231 296.635 323.015 318.148C323.015 370.627 294.804 413.887 258.403 420.118C260.313 427.117 261.282 434.34 261.286 441.596C261.286 477.572 237.821 508.184 204.981 519.695C203.913 574.144 168.971 618.168 125.043 621.462C121.347 634.823 111.073 644.433 98.9504 644.433C96.0426 644.412 93.1655 643.836 90.4734 642.735C81.8607 658.576 69.4503 670.698 54.8698 676.912C44.9856 703.194 25.6238 722.413 2.51538 727.133C6.10277 727.872 9.75432 728.253 13.4167 728.271C41.3232 728.271 65.4322 707.303 76.8592 676.912C91.3719 670.698 103.782 658.576 112.463 642.735C115.155 643.836 118.032 644.412 120.94 644.433C133.062 644.433 143.336 634.823 147.032 621.462C190.96 618.236 225.903 574.144 226.988 519.695C259.811 508.184 283.275 477.572 283.275 441.596C283.272 434.34 282.302 427.117 280.393 420.118C316.793 413.836 345.005 370.627 345.005 318.148Z" fill="#E0C1FD"/>
</g>
<g style="mix-blend-mode:multiply">
<path d="M211.237 9.38281C207.515 10.2274 203.847 11.293 200.251 12.5745C206.037 11.6328 211.886 11.1335 217.748 11.0806C215.611 10.4355 213.441 9.87518 211.237 9.38281Z" fill="#E0C1FD"/>
</g>
</g>
</g>
<defs>
<linearGradient id="paint0_linear_34_389" x1="0.000396729" y1="7.00781" x2="0.000396729" y2="738.51" gradientUnits="userSpaceOnUse">
<stop stop-color="#E0C1FD"/>
<stop offset="1" stop-color="#F57AFF"/>
</linearGradient>
<clipPath id="clip0_34_389">
<rect width="354" height="748" fill="white"/>
</clipPath>
</defs>
</svg>
