<svg width="675" height="210" viewBox="0 0 675 210" fill="none" xmlns="http://www.w3.org/2000/svg">
<path d="M70.6117 178.938C62.7683 196.306 7.30368 200.227 0.580706 173.335C-2.63568 154.847 7.85197 147.209 23.5508 144.623C35.4537 142.662 48.2952 146.163 54.6447 149.525C53.4308 145.416 53.8603 135.799 65.2894 130.196C76.7184 124.594 88.5396 129.916 93.0216 133.278C93.2084 126.555 95.8789 110.756 105.067 101.344C116.552 89.5784 138.402 86.497 156.33 98.8225C156.05 81.7349 171.176 72.2119 187.984 70.53C204.791 68.8481 211.234 72.2119 224.12 83.5587C219.638 69.6956 222.439 33.2735 251.852 15.0654C281.265 -3.14264 319.222 3.02209 340.651 22.6308C345.693 7.50407 375.947 -12.1046 405.64 9.74506C435.333 31.5947 422.167 63.1078 419.786 72.2119C427.349 65.3488 432.252 63.6681 441.916 63.8081C451.58 63.9482 458.163 72.492 458.303 83.5587C459.984 77.5379 472.169 76.8358 474.41 83.5587C486.736 66.8914 504.524 67.7317 520.351 70.8131C536.178 73.8945 544.021 92.2439 542.2 105.41C552.145 101.488 562.229 107.371 566.571 111.712C570.913 116.054 572.314 124.038 569.793 135.663C578.196 135.103 582.632 141.404 583.799 144.625C587.954 139.676 599.906 130.394 614.472 132.859C632.68 135.941 632.82 150.925 632.68 158.209C641.224 149.385 676.52 144.483 674.559 171.515C672.99 193.14 647.574 189.022 635.061 184.26C634.875 185.988 631.56 190.283 619.795 193.644C608.03 197.006 597.805 191.03 594.163 187.622C593.136 189.536 588.953 193.644 580.437 194.765C571.922 195.885 564.844 190.47 562.369 187.622C560.969 192.804 549.175 203.841 513.208 206.53C477.24 209.219 453.588 190.003 446.258 180.058C445.604 181.599 442.952 185.465 437.574 188.602C432.196 191.74 423.288 189.909 419.506 188.602C418.105 192.711 410.512 204.278 389.673 206.11C364.183 208.351 351.903 198.22 345.833 191.684C342.519 194.812 337.571 204.289 319.222 204.289C305.641 204.289 296.018 199.294 292.75 195.185C286.587 209.471 259.697 217.035 245.971 196.866C237.287 209.752 200.871 209.752 190.505 193.224C168.375 207.511 141.483 203.029 122.155 183.98C119.633 192.104 86.2987 210.312 70.6117 178.938Z" fill="#E8F8FF"/>
<path d="M346.113 32.7266C349.381 36.7884 355.946 49.3659 356.058 67.1818C362.08 45.6123 351.856 36.5082 346.113 32.7266Z" fill="white"/>
<path d="M483.374 125.448C470.851 127.125 466.212 117.504 465.451 112.453C465.704 128.296 476.164 130.196 482.113 129.089C482.254 134.972 490.517 138.053 495.279 133.851C488.836 134.832 485.195 129.649 483.374 125.448Z" fill="white"/>
<path fill-rule="evenodd" clip-rule="evenodd" d="M0.584612 173.335C7.30759 200.227 62.7722 196.306 70.6156 178.938C86.3026 210.312 119.637 192.104 122.158 183.98C141.487 203.029 168.379 207.511 190.509 193.224C200.875 209.752 237.291 209.752 245.975 196.866C259.701 217.035 286.591 209.471 292.754 195.185C296.022 199.294 305.645 204.289 319.225 204.289C334.779 204.289 340.703 197.48 344.166 193.5C344.789 192.784 345.332 192.16 345.837 191.684C351.907 198.22 364.187 208.351 389.677 206.11C410.516 204.278 418.109 192.711 419.51 188.602C423.292 189.909 432.199 191.74 437.578 188.602C442.956 185.465 445.608 181.599 446.262 180.058C453.592 190.003 477.243 209.219 513.211 206.53C549.179 203.841 560.973 192.804 562.373 187.622C564.848 190.47 571.925 195.885 580.441 194.765C588.957 193.644 593.14 189.536 594.167 187.622C597.809 191.03 608.033 197.006 619.799 193.644C631.564 190.283 634.879 185.988 635.065 184.26C647.578 189.022 672.994 193.14 674.563 171.515C674.651 170.292 674.664 169.135 674.606 168.041C673.46 173.312 669.489 178.613 659.999 181.738C641.622 187.789 619.661 171.374 610.977 162.41C612.564 164.464 597.531 171.374 586.886 171.374C563.695 171.374 549.443 158.675 545.148 150.925C545.148 150.925 533.663 165.491 503.689 171.374C465.645 178.84 437.674 155.967 428.336 143.081C428.243 148.123 424.694 158.768 411.248 161.009C397.803 163.25 389.586 153.352 387.158 148.123C384.917 151.018 376.233 161.009 358.865 158.208C341.794 155.454 330.013 142.614 326.371 134.117C326.271 134.374 326.164 134.652 326.05 134.952C323.709 141.08 318.083 155.811 297.518 164.09C278.124 171.899 257.927 164.651 249.337 158.208C248.216 164.744 236.339 178.265 197.794 180.058C159.249 181.85 138.781 168.479 133.365 161.569C132.525 164.557 126.642 171.206 109.835 173.895C93.0276 176.584 80.7955 168.479 76.7804 164.09C76.0334 166.425 66.4158 178.657 43.4456 180.058C18.2835 181.592 4.67315 172.878 0.0965682 164.746C-0.11574 167.309 0.0326327 170.163 0.584612 173.335Z" fill="#B6E9FF"/>
<path d="M230.283 94.6172C236.773 106.522 248.491 127.812 284.347 123.33C266.139 131.874 234.485 129.353 230.283 94.6172Z" fill="#B6E9FF"/>
<path d="M286.783 20.7445C262.252 23.091 249.364 37.8986 245.986 45.0091C274.784 20.2635 313.625 28.8323 329.446 36.2098C325.446 30.077 311.314 18.3981 286.783 20.7445Z" fill="white"/>
</svg>
