<svg width="415" height="224" viewBox="0 0 415 224" fill="none" xmlns="http://www.w3.org/2000/svg">
<path d="M248.822 20.1925C230.867 4.0329 212.975 15.2554 205.044 21.9886C196.967 2.68792 148.035 -11.2295 124.693 12.561C101.351 36.3516 104.493 60.1422 114.369 78.0974C106.738 76.7507 93.6226 77.649 85.0938 85.28C78.2709 91.3847 75.9148 103.833 76.663 108.621C72.0764 106.826 64.4125 105.176 56.9123 110.866C52.3257 114.345 51.0769 121.415 51.0769 129.27C42.997 128.821 31.7751 131.963 29.5307 148.571C7.53558 144.531 -10.8684 169.669 7.53561 184.931C22.2588 197.14 40.0045 182.537 47.037 173.709C49.5806 178.197 56.9123 190.542 76.663 194.357C94.8374 197.867 109.132 184.482 114.369 175.953C115.865 178.796 121.461 185.02 131.875 187.175C142.289 189.33 153.272 183.285 157.461 179.993C158.209 184.781 163.207 196.242 177.212 203.783C191.217 211.325 206.988 200.641 213.122 194.357C218.958 203.634 235.297 222.367 253.97 223.085C277.312 223.983 290.778 207.375 293.023 189.868C324.444 195.704 329.831 190.317 344.644 179.993C358.11 190.317 380.105 187.624 386.838 169.669C396.489 173.934 407.266 171.689 411.309 166.527C415.225 161.527 418.381 148.687 407.266 137.799C396.955 127.698 380.554 125.679 369.332 131.963C371.128 126.576 372.923 102.786 344.644 92.9104C322.02 85.0101 307.088 100.092 302.449 108.621C301.851 105.479 298.679 98.4765 290.778 95.6037C282.878 92.7308 274.619 94.4066 271.478 95.6037C275.817 92.6111 279.301 76.7491 272.613 68.447C264.296 58.1228 255.331 59.6939 246.354 60.8161C255.78 54.8314 261.557 31.6538 248.822 20.1925Z" fill="#CEA6FF"/>
<path fill-rule="evenodd" clip-rule="evenodd" d="M15.3273 149.932C1.01657 155.565 -6.63525 173.171 7.53558 184.923C22.2588 197.132 40.0045 182.529 47.0369 173.701C49.5806 178.19 56.9123 190.534 76.663 194.349C94.8374 197.86 109.132 184.474 114.369 175.945C115.865 178.788 121.461 185.013 131.875 187.167C142.289 189.322 153.272 183.277 157.461 179.985C158.209 184.773 163.207 196.235 177.212 203.776C191.217 211.317 206.988 200.634 213.122 194.349C218.958 203.626 235.297 222.359 253.97 223.077C277.312 223.975 290.778 207.367 293.023 189.86C322.743 195.38 329.171 190.86 342.315 181.618C343.067 181.089 343.842 180.544 344.644 179.985C358.11 190.309 380.105 187.616 386.838 169.661C396.489 173.926 407.266 171.681 411.309 166.519C415.225 161.519 418.381 148.679 407.266 137.791C406.413 136.956 405.518 136.175 404.588 135.451C394.56 132.886 375.643 130.31 366.43 137.346C365.981 124.328 355.208 109.066 334.559 108.169C318.04 107.45 305.232 117.146 300.893 122.084C300.818 118.417 297.437 110.231 284.509 106.819C271.581 103.408 262.215 109.288 259.148 112.655C253.862 100.882 230.868 88.8195 198.998 104.352C217.675 88.8195 244.335 92.399 259.148 97.1122C258.699 82.2992 243.661 68.2154 230.868 67.991C236.479 55.4224 235.357 42.8538 226.379 37.6917C217.402 32.5295 205.731 34.1006 196.304 39.0383C188 31.1829 165.556 12.3293 136.155 30.0601C112.633 44.2446 121.044 72.6285 128.3 84.3741C141.019 84.7482 165.333 94.2524 175.656 111.307C146.5 88.7016 121.927 83.9935 97.5523 92.2295C89.9225 94.8075 82.2892 103.227 82.2892 115.796C68.374 116.02 54.6844 120.284 61.4164 143.177C47.2767 137.342 40.0958 143.626 33.3626 153.95C27.3932 151.297 21.2239 149.524 15.3273 149.932Z" fill="#AD6EF9"/>
<path d="M177.675 48.0162C198.324 49.9913 209.172 62.4552 212.015 68.4402C187.775 47.6114 155.082 54.8239 141.765 61.0337C145.132 55.8716 157.027 46.0412 177.675 48.0162Z" fill="#CEA6FF"/>
<path d="M325.805 153.733C342.682 154.271 359.471 145.578 365.755 141.164C361.491 148.047 348.159 161.768 328.947 161.588C309.735 161.409 296.852 149.992 292.812 144.306C296.777 147.224 308.927 153.194 325.805 153.733Z" fill="#9853F7"/>
<path fill-rule="evenodd" clip-rule="evenodd" d="M1.61475 177.503C2.83041 180.114 4.7663 182.634 7.53558 184.931C22.2588 197.14 40.0045 182.537 47.0369 173.709C49.5806 178.197 56.9123 190.542 76.663 194.357C94.8374 197.868 109.132 184.482 114.369 175.953C115.865 178.796 121.461 185.02 131.875 187.175C142.289 189.33 153.272 183.285 157.461 179.993C158.209 184.781 163.207 196.242 177.212 203.783C191.217 211.325 206.988 200.641 213.122 194.357C218.958 203.634 235.297 222.367 253.97 223.085C277.312 223.983 290.778 207.375 293.023 189.868C322.743 195.388 329.171 190.868 342.315 181.626C343.067 181.097 343.842 180.552 344.644 179.993C358.11 190.317 380.105 187.624 386.838 169.669C396.489 173.934 407.266 171.689 411.309 166.527C412.13 165.479 412.917 164.086 413.547 162.438C403.838 165.785 387.879 167.86 379.894 156.431C374.284 162.491 367.101 168.102 359.919 168.102C359.231 168.102 358.471 168.13 357.659 168.16C351.578 168.385 342.53 168.719 338.373 158.226C327.959 156.79 314.133 156.431 308.522 156.431C308.148 163.389 302.463 177.124 282.712 176.406C258.023 175.508 258.248 149.249 259.146 146.78C247.699 155.084 234.682 162.491 216.727 152.615C207.163 147.355 203.104 144.722 201.703 143.549C205.412 149.73 214.484 158.408 224.582 162.491C225.255 179.324 209.096 184.037 197.425 183.813C185.754 183.588 171.39 174.835 170.492 165.633C161.739 172.366 136.602 176.406 128.522 169.448C122.058 163.882 121.19 156.805 121.564 153.962L94.1827 140.047C95.5293 151.119 92.9258 173.084 71.7387 172.366C50.5516 171.648 45.8534 163.089 46.1526 158.9C43.0105 168.027 31.8783 185.114 12.4867 180.446C7.96011 179.356 4.39722 178.376 1.61475 177.503ZM201.24 142.74C200.965 142.74 200.999 142.961 201.703 143.549C201.538 143.274 201.384 143.005 201.24 142.74Z" fill="#9853F7"/>
<path d="M122.463 150.141C146.927 152.386 166.528 147.074 172.737 140.939C170.418 148.196 154.468 164.012 125.381 160.241C96.2932 156.471 87.974 136.376 85.4303 127.922C87.2259 132.261 96.2078 147.733 122.463 150.141Z" fill="#9853F7"/>
</svg>
