<svg width="84" height="57" viewBox="0 0 84 57" fill="none" xmlns="http://www.w3.org/2000/svg">
<path d="M0.00202499 32.7775C0.226124 16.6424 14.1016 15.4098 21.0113 16.8104C21.0113 7.28993 30.3766 0.00503635 41.4584 4.1499e-06C54.9043 -0.00610164 66.1093 6.72561 65.549 19.0511C73.6726 18.7709 80.6757 21.8406 82.9167 31.3651C88.2555 54.056 65.549 53.4949 65.549 53.4949C65.549 53.4949 37.5366 65.2601 27.4542 44.5423C18.2101 47.3437 -0.222074 48.9126 0.00202499 32.7775Z" fill="#E8F8FF"/>
<path fill-rule="evenodd" clip-rule="evenodd" d="M0.0126433 32.2959C0.00778486 32.4524 0.00423881 32.6103 0.00202499 32.7697C-0.222074 48.9048 18.2101 47.3359 27.4542 44.5345C37.5366 65.2523 65.549 53.4871 65.549 53.4871C65.549 53.4871 88.2555 54.0482 82.9167 31.3573C81.4548 25.1441 77.9665 21.6778 73.4626 20.0963C77.8861 30.0008 73.8038 37.7876 64.709 42.8403C54.6245 48.4428 42.299 44.2409 30.2537 34.4366C22.9551 44.8631 3.77139 46.5549 0.0126433 32.2959Z" fill="#B6E9FF"/>
<path d="M32.8924 37.0965C42.2111 36.9582 47.5196 31.7683 49.0091 29.1906C37.4009 37.6428 23.02 33.2314 17.2805 29.9691C18.6017 32.4026 23.5737 37.2349 32.8924 37.0965Z" fill="#B6E9FF"/>
<path d="M44.5488 6.20104C35.2584 5.46317 29.4856 10.1313 27.7606 12.5576C40.1116 5.23354 54.0144 10.9768 59.4219 14.764C58.3352 12.2171 53.8393 6.93891 44.5488 6.20104Z" fill="white"/>
</svg>
