<svg width="766" height="412" viewBox="0 0 766 412" fill="none" xmlns="http://www.w3.org/2000/svg">
<path d="M459.071 37.2547C425.944 7.44059 392.933 28.1459 378.302 40.5684C363.398 4.95914 273.12 -20.7182 230.055 23.1748C186.991 67.0678 192.788 110.961 211.008 144.088C196.929 141.603 172.731 143.26 156.996 157.339C144.408 168.602 140.061 191.569 141.441 200.403C132.979 197.092 118.839 194.047 105.002 204.544C96.5396 210.963 94.2355 224.007 94.2355 238.499C79.3285 237.671 58.6242 243.468 54.4834 274.11C13.9031 266.657 -20.0519 313.034 13.9031 341.192C41.067 363.718 73.8074 336.775 86.782 320.488C91.475 328.77 105.002 351.545 141.441 358.584C174.973 365.06 201.346 340.364 211.008 324.629C213.768 329.874 224.093 341.358 243.306 345.333C262.52 349.308 282.782 338.156 290.512 332.082C291.892 340.916 301.112 362.062 326.951 375.975C352.79 389.889 381.887 370.178 393.205 358.584C403.971 375.699 434.117 410.262 468.569 411.587C511.633 413.243 536.478 382.601 540.619 350.302C598.591 361.068 608.529 351.13 635.859 332.082C660.704 351.13 701.284 346.161 713.707 313.034C731.513 320.903 751.395 316.762 758.854 307.238C766.079 298.013 771.901 274.324 751.394 254.235C732.371 235.6 702.112 231.874 681.408 243.468C684.721 233.53 688.034 189.637 635.859 171.417C594.119 156.841 566.569 184.668 558.011 200.403C556.907 194.606 551.054 181.687 536.478 176.386C521.903 171.086 506.666 174.178 500.869 176.386C508.875 170.865 515.303 141.6 502.964 126.283C487.62 107.235 471.079 110.134 454.516 112.204C471.908 101.163 482.566 58.4005 459.071 37.2547Z" fill="url(#paint0_linear_57_2307)"/>
<path fill-rule="evenodd" clip-rule="evenodd" d="M28.2916 276.629C1.88031 287.017 -12.2462 319.507 13.903 341.192C41.067 363.718 73.8073 336.775 86.782 320.488C91.475 328.77 105.002 351.545 141.441 358.584C174.973 365.06 201.346 340.364 211.008 324.629C213.768 329.874 224.093 341.358 243.306 345.333C262.52 349.308 282.782 338.155 290.512 332.082C291.892 340.916 301.112 362.062 326.951 375.975C352.79 389.889 381.887 370.178 393.205 358.584C403.971 375.699 434.117 410.262 468.569 411.587C511.633 413.243 536.478 382.601 540.619 350.302C595.452 360.485 607.312 352.146 631.562 335.095C632.95 334.118 634.379 333.114 635.859 332.082C660.704 351.13 701.284 346.161 713.707 313.034C731.513 320.903 751.395 316.762 758.854 307.238C766.079 298.013 771.901 274.324 751.394 254.235C749.819 252.692 748.167 251.252 746.45 249.914C727.949 245.183 693.047 240.429 676.048 253.41C675.22 229.393 655.343 201.235 617.248 199.579C586.771 198.254 563.141 216.142 555.135 225.252C554.997 218.487 548.758 203.383 524.907 197.089C501.055 190.795 483.774 201.644 478.115 207.855C468.363 186.135 425.94 163.88 367.14 192.537C401.6 163.88 450.785 170.484 478.115 179.18C477.287 151.85 449.543 125.866 425.94 125.452C436.292 102.263 434.222 79.0746 417.659 69.5507C401.095 60.0267 379.563 62.9253 362.171 72.0352C346.85 57.5422 305.442 22.7579 251.196 55.4706C207.8 81.6408 223.317 134.008 236.706 155.679C260.17 156.369 305.03 173.904 324.075 205.369C270.284 163.663 224.947 154.976 179.976 170.172C165.899 174.928 151.816 190.462 151.816 213.65C126.143 214.065 100.886 221.932 113.306 264.169C87.2188 253.403 73.9702 264.997 61.5476 284.045C50.5406 279.153 39.165 275.883 28.2916 276.629Z" fill="#E8F8FF"/>
<path d="M327.803 88.594C365.899 92.2379 385.913 115.233 391.158 126.276C346.437 87.847 286.118 101.154 261.549 112.611C267.76 103.087 289.707 84.95 327.803 88.594Z" fill="#E8F8FF"/>
<path d="M601.103 283.634C632.242 284.628 663.216 268.589 674.81 260.445C666.942 273.144 642.346 298.458 606.9 298.127C571.454 297.796 547.686 276.733 540.232 266.243C547.548 271.626 569.964 282.64 601.103 283.634Z" fill="#7EF6FF"/>
<path fill-rule="evenodd" clip-rule="evenodd" d="M2.97949 327.482C5.22235 332.298 8.79388 336.948 13.9028 341.184C41.0668 363.711 73.8071 336.767 86.7818 320.48C91.4748 328.762 105.002 351.537 141.441 358.576C174.972 365.053 201.345 340.356 211.007 324.621C213.768 329.866 224.092 341.35 243.306 345.325C262.519 349.3 282.782 338.148 290.512 332.074C291.892 340.908 301.112 362.054 326.951 375.967C352.79 389.881 381.887 370.17 393.205 358.576C403.971 375.691 434.117 410.254 468.568 411.579C511.633 413.235 536.478 382.593 540.619 350.294C595.452 360.477 607.312 352.138 631.562 335.087C632.95 334.111 634.379 333.106 635.859 332.074C660.704 351.122 701.284 346.153 713.707 313.027C731.512 320.895 751.394 316.754 758.853 307.23C760.369 305.296 761.822 302.725 762.984 299.685C745.07 305.861 715.624 309.69 700.892 288.603C690.542 299.784 677.289 310.136 664.039 310.136C662.769 310.136 661.368 310.187 659.868 310.243C648.65 310.658 631.957 311.275 624.286 291.916C605.073 289.266 579.565 288.603 569.213 288.603C568.523 301.44 558.033 326.782 521.593 325.457C476.044 323.8 476.458 275.352 478.114 270.798C456.996 286.119 432.979 299.784 399.852 281.564C382.207 271.859 374.72 267 372.134 264.837C378.977 276.241 395.714 292.251 414.345 299.784C415.588 330.84 385.773 339.536 364.241 339.122C342.709 338.707 316.207 322.558 314.551 305.581C298.401 318.003 252.024 325.457 237.117 312.62C225.191 302.351 223.59 289.293 224.28 284.048L173.762 258.375C176.246 278.803 171.443 319.328 132.353 318.003C93.2637 316.678 84.5956 300.888 85.1477 293.158C79.3505 309.998 58.8119 341.523 23.0349 332.91C14.6851 330.9 8.11261 329.092 2.97949 327.482ZM371.28 263.344C370.773 263.344 370.836 263.751 372.134 264.837C371.83 264.33 371.545 263.832 371.28 263.344Z" fill="#7EF6FF"/>
<path d="M225.942 277.002C271.077 281.143 307.24 271.343 318.697 260.025C314.418 273.413 284.99 302.593 231.325 295.636C177.659 288.679 162.311 251.605 157.618 236.008C160.93 244.013 177.502 272.558 225.942 277.002Z" fill="#7EF6FF"/>
<defs>
<linearGradient id="paint0_linear_57_2307" x1="167.203" y1="-15.91" x2="707.253" y2="233.495" gradientUnits="userSpaceOnUse">
<stop stop-color="white"/>
<stop offset="0.755208" stop-color="#E8F8FF"/>
</linearGradient>
</defs>
</svg>
