<svg width="353" height="748" viewBox="0 0 353 748" fill="none" xmlns="http://www.w3.org/2000/svg">
<g clip-path="url(#clip0_34_389)">
<path d="M344.004 318.149C344.219 296.636 339.13 275.403 329.186 256.332C338.6 237.651 343.408 216.983 343.207 196.059C343.207 146.246 317.776 104.717 284.071 95.2942C280.833 46.0577 239.499 7.0081 188.925 7.0081C172.848 6.96896 157.022 10.9943 142.912 18.7108C128.802 26.4273 116.864 37.5852 108.207 51.1511C100.449 49.1797 92.4749 48.1873 84.471 48.197C68.8629 48.1627 53.4844 51.9579 39.6793 59.2506C25.8742 66.5432 14.0629 77.1115 5.27853 90.0312C-5.93566 91.6804 -16.2399 97.1484 -23.8994 105.515C-30.7602 87.3152 -43.0068 71.6473 -59.0009 60.6064C-74.995 49.5655 -93.9742 43.6781 -113.4 43.7319C-118.636 43.7329 -123.864 44.1587 -129.032 45.0053C-135.585 38.3992 -143.381 33.1584 -151.968 29.5857C-160.555 26.0131 -169.764 24.1794 -179.063 24.1901C-196.595 24.1942 -213.499 30.7278 -226.487 42.5203C-239.476 54.3129 -247.621 70.5215 -249.338 87.994C-251.033 87.8242 -252.729 87.705 -254.424 87.705C-293.418 87.705 -325.038 130.897 -325.038 184.175C-325.161 201.375 -321.697 218.411 -314.865 234.192C-333.65 251.527 -346.01 280.899 -346.01 314.21C-346.01 338.2 -339.601 360.051 -329.056 377.029C-332.673 387.895 -334.5 399.277 -334.464 410.73C-334.464 450.34 -313.526 483.261 -285.959 490.018C-280.703 518.202 -264.58 540.443 -244.031 547.913C-244.031 549.221 -244.031 550.528 -244.031 551.835C-244.031 596.352 -217.617 632.43 -185.031 632.43C-178.685 632.415 -172.415 631.049 -166.636 628.423C-156.667 659.103 -130.846 680.971 -100.515 680.971H-100.227C-89.8847 714.656 -64.4533 738.51 -34.6989 738.51C-22.2352 738.403 -10.1331 734.304 -0.163672 726.812C4.00865 727.802 8.2809 728.309 12.5689 728.323C40.4753 728.323 64.5839 707.355 76.0109 676.964C90.5236 670.75 102.934 658.628 111.614 642.787C114.307 643.888 117.184 644.464 120.092 644.485C132.214 644.485 142.488 634.875 146.184 621.514C190.112 618.288 225.054 574.195 226.139 519.747C258.963 508.236 282.427 477.624 282.427 441.647C282.423 434.392 281.454 427.169 279.545 420.17C315.793 413.837 344.004 370.628 344.004 318.149ZM53.8183 499.424C25.9288 499.424 -18.5078 522.005 -22.0003 557.863C-26.1727 556.872 -30.4449 556.365 -34.7329 556.352C-36.9317 556.359 -39.1283 556.495 -41.3113 556.759C-53.6199 534.959 -74.8632 520.392 -99.1414 519.849C-92.4036 509.288 -88.8268 497.016 -88.8336 484.484C-88.8427 474.199 -91.2511 464.058 -95.8665 454.87C-100.482 445.682 -107.177 437.701 -115.417 431.563C-105.954 419.869 -100.794 405.272 -100.803 390.221C-100.79 375.582 -105.666 361.358 -114.655 349.813C-103.192 337.605 -96.8124 321.477 -96.8189 304.719C-96.8202 301.446 -97.0638 298.177 -97.5478 294.94C-82.0416 308.367 -62.2176 315.74 -41.7182 315.704C-25.806 315.737 -10.2034 311.3 3.31614 302.896C16.8357 294.493 27.7304 282.46 34.7619 268.165C37.7177 268.567 40.6969 268.771 43.6798 268.777C52.9547 268.797 62.1328 266.889 70.6337 263.175C79.1347 259.461 86.7733 254.02 93.0668 247.198C100.374 268.183 112.632 285.177 127.721 295.228C119.034 302.891 112.074 312.315 107.301 322.876C102.527 333.437 100.051 344.893 100.035 356.485C100.016 375.593 106.721 394.096 118.973 408.744C117.744 411.513 116.669 414.346 115.752 417.233C85.4377 428.727 62.3629 460.459 56.9715 499.577C55.9204 499.475 54.8864 499.424 53.8183 499.424Z" fill="url(#paint0_linear_34_389)"/>
<g style="mix-blend-mode:multiply">
<g style="mix-blend-mode:multiply">
<path d="M344.005 318.149C344.221 296.636 339.131 275.402 329.188 256.331C338.602 237.651 343.409 216.983 343.209 196.059C343.209 146.245 317.777 104.717 284.073 95.294C280.834 46.0575 239.501 7.00787 188.927 7.00787C177.915 6.9959 166.983 8.88558 156.612 12.5937C229.023 0.878842 283.954 60.3194 286.463 98.5541C320.185 107.994 356.484 240.576 264.559 256.348C274.512 275.416 279.602 296.652 279.377 318.166C279.377 370.645 251.182 413.905 214.765 420.136C216.688 427.133 217.663 434.357 217.664 441.614C217.664 477.59 194.182 508.202 161.359 519.713C160.274 574.162 125.332 618.186 81.4039 621.48C77.7249 634.841 67.4505 644.451 55.3283 644.451C52.4206 644.429 49.5436 643.853 46.8513 642.753C38.2386 658.594 25.8282 670.716 11.2477 676.93C-0.17936 707.321 -24.3557 728.289 -52.1944 728.289C-56.4768 728.277 -60.7436 727.77 -64.9099 726.778V729.749C-55.8882 735.398 -45.4736 738.42 -34.8334 738.475C-22.3697 738.369 -10.2676 734.269 -0.298137 726.778C3.87419 727.768 8.14642 728.275 12.4344 728.289C40.3408 728.289 64.4498 707.321 75.8769 676.93C90.3895 670.716 102.8 658.594 111.48 642.753C114.173 643.854 117.05 644.43 119.957 644.451C132.08 644.451 142.354 634.841 146.05 621.48C189.978 618.254 224.92 574.162 226.005 519.713C258.828 508.202 282.293 477.59 282.293 441.614C282.289 434.358 281.32 427.135 279.41 420.136C315.794 413.837 344.005 370.628 344.005 318.149Z" fill="#E0C1FD"/>
</g>
</g>
<path d="M137.965 382.676C137.965 382.676 121.113 356.53 134.117 330.367" stroke="#F1E4FD" stroke-width="17.399" stroke-linecap="round" stroke-linejoin="round"/>
<g style="mix-blend-mode:multiply">
<path d="M-68.0833 311.545C-59.568 314.31 -50.671 315.713 -41.7196 315.705C-25.8074 315.738 -10.2049 311.301 3.31471 302.897C16.8343 294.494 27.7289 282.461 34.7605 268.166C37.7163 268.568 40.6955 268.772 43.6783 268.778C52.9532 268.798 62.1313 266.89 70.6323 263.176C79.1332 259.462 86.7719 254.021 93.0654 247.199C93.0654 247.199 103.967 220.356 107.154 207.164C92.3873 241.12 57.6823 263.107 26.5715 251.511C19.7899 285.229 -25.5116 312.666 -68.0833 311.545Z" fill="#E0C1FD"/>
</g>
<path d="M266.73 142.883V172.544" stroke="#F1E4FD" stroke-width="4.34974" stroke-linecap="round" stroke-linejoin="round"/>
<path d="M278.631 159.969H254.844" stroke="#F1E4FD" stroke-width="4.34974" stroke-linecap="round" stroke-linejoin="round"/>
<g style="mix-blend-mode:multiply">
<g style="mix-blend-mode:multiply">
<path d="M295.854 133.688V152.16" stroke="#E0C1FD" stroke-width="4.34974" stroke-linecap="round" stroke-linejoin="round"/>
</g>
<g style="mix-blend-mode:multiply">
<path d="M303.263 144.328H288.445" stroke="#E0C1FD" stroke-width="4.34974" stroke-linecap="round" stroke-linejoin="round"/>
</g>
</g>
<path d="M19.6069 604.586V634.247" stroke="#F1E4FD" stroke-width="4.34974" stroke-linecap="round" stroke-linejoin="round"/>
<path d="M31.5041 621.672H7.71753" stroke="#F1E4FD" stroke-width="4.34974" stroke-linecap="round" stroke-linejoin="round"/>
<g style="mix-blend-mode:multiply">
<g style="mix-blend-mode:multiply">
<path d="M1.63647 640.398V658.871" stroke="#E0C1FD" stroke-width="4.34974" stroke-linecap="round" stroke-linejoin="round"/>
</g>
<g style="mix-blend-mode:multiply">
<path d="M9.04493 651.039H-5.77295" stroke="#E0C1FD" stroke-width="4.34974" stroke-linecap="round" stroke-linejoin="round"/>
</g>
</g>
<g style="mix-blend-mode:multiply">
<g style="mix-blend-mode:multiply">
<path d="M344.005 318.148C344.22 296.635 339.13 275.401 329.187 256.331C330.764 253.308 332.222 250.15 333.544 246.891C325.434 251.671 316.495 254.874 307.198 256.331C317.141 275.401 322.231 296.635 322.015 318.148C322.015 370.627 293.804 413.887 257.403 420.118C259.313 427.117 260.282 434.34 260.286 441.596C260.286 477.572 236.821 508.184 203.981 519.695C202.913 574.144 167.971 618.168 124.043 621.462C120.347 634.823 110.073 644.433 97.9504 644.433C95.0426 644.412 92.1655 643.836 89.4734 642.735C80.8607 658.576 68.4503 670.698 53.8698 676.912C43.9856 703.194 24.6238 722.413 1.51538 727.133C5.10277 727.872 8.75432 728.253 12.4167 728.271C40.3232 728.271 64.4322 707.303 75.8592 676.912C90.3719 670.698 102.782 658.576 111.463 642.735C114.155 643.836 117.032 644.412 119.94 644.433C132.062 644.433 142.336 634.823 146.032 621.462C189.96 618.236 224.903 574.144 225.988 519.695C258.811 508.184 282.275 477.572 282.275 441.596C282.272 434.34 281.302 427.117 279.393 420.118C315.793 413.836 344.005 370.627 344.005 318.148Z" fill="#E0C1FD"/>
</g>
<g style="mix-blend-mode:multiply">
<path d="M210.237 9.38281C206.515 10.2274 202.847 11.293 199.251 12.5745C205.037 11.6328 210.886 11.1335 216.748 11.0806C214.611 10.4355 212.441 9.87518 210.237 9.38281Z" fill="#E0C1FD"/>
</g>
</g>
</g>
<defs>
<linearGradient id="paint0_linear_34_389" x1="-0.999603" y1="7.00781" x2="-0.999603" y2="738.51" gradientUnits="userSpaceOnUse">
<stop stop-color="#E0C1FD"/>
<stop offset="1" stop-color="#F57AFF"/>
</linearGradient>
<clipPath id="clip0_34_389">
<rect width="353" height="748" fill="white"/>
</clipPath>
</defs>
</svg>
