<svg width="448" height="103" viewBox="0 0 448 103" fill="none" xmlns="http://www.w3.org/2000/svg">
<path d="M0.0731798 41.2524C0.0731798 41.2524 -5.92001 138.316 90.5665 87.3818C128.92 109.555 173.25 96.3802 185.848 80.2001C207.41 93.3751 246.358 101.576 267.937 71.711C309.873 83.1882 334.763 71.813 334.457 54.4274C333.897 23.6631 294.304 34.6647 294.304 34.6647C294.304 34.6647 279.923 -11.4816 231.977 20.8787C217.002 -6.08252 176.849 -3.68886 156.476 21.4727C149.294 -2.50039 98.3594 -10.2764 78.5799 18.4845C55.201 -6.694 3.65556 9.4864 0.0731798 41.2524Z" fill="#E0C1FD"/>
<g style="mix-blend-mode:multiply">
<path d="M0.0731798 41.2524C0.0731798 41.2524 -5.92001 138.316 90.5665 87.3818C128.92 109.555 173.25 96.3802 185.848 80.2001C207.41 93.3751 246.358 101.576 267.937 71.711C309.873 83.1882 334.763 71.813 334.457 54.4274C333.897 23.6631 294.304 34.6647 294.304 34.6647C294.304 34.6647 279.923 -11.4816 231.977 20.8787C217.002 -6.08252 176.849 -3.68886 156.476 21.4727C149.294 -2.50039 98.3594 -10.2764 78.5799 18.4845C55.201 -6.694 3.65556 9.4864 0.0731798 41.2524Z" fill="#E0C1FD"/>
</g>
<g style="mix-blend-mode:multiply">
<path d="M0.0731798 41.2524C0.0731798 41.2524 -5.92001 138.316 90.5665 87.3818C128.92 109.555 173.25 96.3802 185.848 80.2001C207.41 93.3751 246.358 101.576 267.937 71.711C309.873 83.1882 334.763 71.813 334.457 54.4274C333.897 23.6631 294.304 34.6647 294.304 34.6647C294.304 34.6647 279.923 -11.4816 231.977 20.8787C217.002 -6.08252 176.849 -3.68886 156.476 21.4727C149.294 -2.50039 98.3594 -10.2764 78.5799 18.4845C55.201 -6.694 3.65556 9.4864 0.0731798 41.2524Z" fill="#E0C1FD"/>
</g>
<g style="mix-blend-mode:multiply">
<path d="M334.316 56.7366C325.437 68.4345 300.36 74.8693 267.117 65.769C245.538 95.6335 207.184 86.9406 185.622 73.7656C173.024 89.9458 127.285 101.117 88.9489 78.944C22.1401 114.225 4.56756 75.1578 0.0683594 47.7891C0.798418 68.7061 9.62711 130.116 90.5617 87.3821C128.915 109.556 173.245 96.3805 185.843 80.2004C207.405 93.3754 246.353 101.576 267.932 71.7114C307.983 82.7471 332.466 72.7809 334.316 56.7366Z" fill="#E0C1FD"/>
</g>
<path d="M333.03 45.8648C325.814 25.9665 294.371 34.6761 294.371 34.6761C294.371 34.6761 279.99 -11.4702 232.044 20.8901C217.07 -6.07114 176.916 -3.67748 156.543 21.4841C154.03 13.1139 146.186 6.73044 136.169 3.16504C134.924 6.40693 134.509 9.90889 134.964 13.3519C136.661 29.6339 150.583 31.5181 160.193 30.822C144.658 34.0139 115.676 43.1142 125.761 65.6781C137.646 92.2828 183.691 63.2844 192.078 48.9039C208.869 68.0722 236.034 49.2942 242.01 38.9206C252.01 56.8834 271.977 51.1447 271.977 51.1447C271.977 51.1447 275.576 63.2845 302.333 60.8906C321.654 59.1079 329.736 52.3165 333.03 45.8648Z" fill="url(#paint0_linear_38_503)"/>
<path d="M373.368 54.5594C373.368 54.5594 365.388 70.1453 382.162 73.3372C393.741 84.1183 419.718 78.9231 424.505 71.3339C436.899 76.9367 449.277 72.5391 446.883 61.7581C444.489 50.977 435.304 47.7682 427.698 52.5561C422.91 45.7648 409.734 32.9806 390.159 34.984C370.583 36.9874 373.368 54.5594 373.368 54.5594Z" fill="#E0C1FD"/>
<g style="mix-blend-mode:multiply">
<path d="M446.883 61.7711C446.546 60.2124 446.003 58.7054 445.27 57.2891C441.314 61.7203 431.84 70.2774 423.114 62.4675C417.528 68.6475 408.716 82.5866 382.451 73.5882C394.166 84.0467 419.803 78.8853 424.506 71.347C436.9 76.9498 449.277 72.5692 446.883 61.7711Z" fill="#E0C1FD"/>
</g>
<defs>
<linearGradient id="paint0_linear_38_503" x1="228.354" y1="1.625" x2="228.354" y2="76.5096" gradientUnits="userSpaceOnUse">
<stop stop-color="#FDC1F0"/>
<stop offset="0.755208" stop-color="#E0C1FD"/>
</linearGradient>
</defs>
</svg>
