<svg width="1119" height="173" viewBox="0 0 1119 173" fill="none" xmlns="http://www.w3.org/2000/svg">
<path fill-rule="evenodd" clip-rule="evenodd" d="M1072.86 0.229248C1081.48 0.229248 1088.8 5.83601 1091.37 13.605C1093.28 8.07667 1098.53 4.10573 1104.7 4.10573C1112.49 4.10573 1118.81 10.42 1118.81 18.209C1118.81 21.5732 1117.63 24.6623 1115.66 27.0864C1117.65 30.1411 1118.81 33.7879 1118.81 37.7044C1118.81 48.4688 1110.08 57.1951 1099.31 57.1951C1091.92 57.1951 1085.49 53.077 1082.18 47.009C1079.64 50.7118 1075.38 53.1404 1070.55 53.1404C1065.42 53.1404 1060.94 50.4077 1058.47 46.32C1055.89 49.6607 1051.85 51.8123 1047.3 51.8123C1045.79 51.8123 1044.33 51.5748 1042.97 51.1352C1043.31 52.3559 1043.5 53.6437 1043.5 54.9747C1043.5 57.8363 1042.65 60.4989 1041.18 62.7224C1041.51 62.7077 1041.84 62.7002 1042.17 62.7002C1048.6 62.7002 1054.37 65.5268 1058.31 70.0057C1059.58 66.7607 1062.74 64.4628 1066.43 64.4628C1068.98 64.4628 1071.27 65.5528 1072.87 67.2916C1076.78 62.5806 1082.68 59.5805 1089.28 59.5805C1101.05 59.5805 1110.6 69.1254 1110.6 80.8996C1110.6 85.0669 1109.4 88.9549 1107.33 92.2393C1107.84 93.3937 1108.13 94.6701 1108.13 96.0125C1108.13 101.187 1103.93 105.383 1098.75 105.383C1095.9 105.383 1093.34 104.105 1091.62 102.091C1091.15 102.142 1090.68 102.179 1090.2 102.199C1086.65 107.754 1080.43 111.437 1073.35 111.437C1067.37 111.437 1062.01 108.812 1058.34 104.651C1057.6 105.32 1056.61 105.726 1055.53 105.726C1053.88 105.726 1052.46 104.787 1051.76 103.415C1049.5 104.548 1047 105.292 1044.37 105.56C1045.26 108.427 1045.75 111.477 1045.75 114.639C1045.75 122.382 1042.86 129.451 1038.1 134.825L1038.86 136.635L1041.03 136.909C1043.44 130.752 1049.43 126.393 1056.45 126.393C1061.88 126.393 1066.71 129.014 1069.73 133.061C1069.75 129.002 1073.05 125.72 1077.12 125.72C1080.21 125.72 1082.86 127.622 1083.96 130.32C1087.53 125.766 1093.08 122.839 1099.31 122.839C1110.08 122.839 1118.81 131.565 1118.81 142.329C1118.81 146.666 1117.39 150.671 1114.99 153.909C1116.3 155.241 1117.1 157.062 1117.1 159.071C1117.1 163.152 1113.79 166.461 1109.71 166.461C1107.86 166.461 1106.16 165.78 1104.87 164.656C1103.54 166.608 1101.3 167.89 1098.76 167.89C1095.61 167.89 1092.92 165.926 1091.86 163.157C1089.28 166.528 1085.22 168.703 1080.65 168.703C1076.11 168.703 1072.08 166.565 1069.5 163.242C1066.92 166.097 1063.19 167.89 1059.03 167.89C1054.15 167.89 1049.84 165.405 1047.31 161.63C1047.12 165.133 1044.22 167.914 1040.67 167.914C1038.2 167.914 1036.04 166.571 1034.9 164.577C1032.44 166.659 1029.26 167.914 1025.78 167.914C1021.63 167.914 1017.9 166.119 1015.32 163.264C1012.05 165.741 1007.98 167.211 1003.56 167.211C992.793 167.211 984.066 158.484 984.066 147.72C984.066 141.783 986.721 136.465 990.909 132.89C987.095 127.804 984.836 121.485 984.836 114.639C984.836 107.966 986.982 101.795 990.621 96.777C988.42 94.2892 987.084 91.0184 987.084 87.4356C987.084 82.941 989.186 78.9375 992.462 76.3549C991.603 75.2867 991.09 73.9297 991.09 72.4528C991.09 70.9533 991.619 69.5775 992.501 68.5019C987.535 66.3195 984.066 61.3568 984.066 55.584C984.066 49.4634 987.965 44.2534 993.415 42.3023C986.519 39.3 981.697 32.4246 981.697 24.4231C981.697 13.6587 990.424 4.93237 1001.19 4.93237C1007.8 4.93237 1013.64 8.22559 1017.17 13.2615C1019.34 8.26459 1024.32 4.76979 1030.11 4.76979C1034.97 4.76979 1039.25 7.22617 1041.79 10.9647C1042.43 7.53084 1045.44 4.9305 1049.06 4.9305C1052.28 4.9305 1055.02 6.9948 1056.03 9.87369C1059.42 4.1036 1065.68 0.229248 1072.86 0.229248Z" fill="#AD6EF9"/>
<mask id="mask0_6_1540" style="mask-type:alpha" maskUnits="userSpaceOnUse" x="981" y="0" width="138" height="169">
<path fill-rule="evenodd" clip-rule="evenodd" d="M1072.86 0.229248C1081.48 0.229248 1088.8 5.83601 1091.37 13.605C1093.28 8.07667 1098.53 4.10573 1104.7 4.10573C1112.49 4.10573 1118.81 10.42 1118.81 18.209C1118.81 21.5732 1117.63 24.6623 1115.66 27.0864C1117.65 30.1411 1118.81 33.7879 1118.81 37.7044C1118.81 48.4688 1110.08 57.1951 1099.31 57.1951C1091.92 57.1951 1085.49 53.077 1082.18 47.009C1079.64 50.7118 1075.38 53.1404 1070.55 53.1404C1065.42 53.1404 1060.94 50.4077 1058.47 46.32C1055.89 49.6607 1051.85 51.8123 1047.3 51.8123C1045.79 51.8123 1044.33 51.5748 1042.97 51.1352C1043.31 52.3559 1043.5 53.6437 1043.5 54.9747C1043.5 57.8363 1042.65 60.4989 1041.18 62.7224C1041.51 62.7077 1041.84 62.7002 1042.17 62.7002C1048.6 62.7002 1054.37 65.5268 1058.31 70.0057C1059.58 66.7607 1062.74 64.4628 1066.43 64.4628C1068.98 64.4628 1071.27 65.5528 1072.87 67.2916C1076.78 62.5806 1082.68 59.5805 1089.28 59.5805C1101.05 59.5805 1110.6 69.1254 1110.6 80.8996C1110.6 85.0669 1109.4 88.9549 1107.33 92.2393C1107.84 93.3937 1108.13 94.6701 1108.13 96.0125C1108.13 101.187 1103.93 105.383 1098.75 105.383C1095.9 105.383 1093.34 104.105 1091.62 102.091C1091.15 102.142 1090.68 102.179 1090.2 102.199C1086.65 107.754 1080.43 111.437 1073.35 111.437C1067.37 111.437 1062.01 108.812 1058.34 104.651C1057.6 105.32 1056.61 105.726 1055.53 105.726C1053.88 105.726 1052.46 104.787 1051.76 103.415C1049.5 104.548 1047 105.292 1044.37 105.56C1045.26 108.427 1045.75 111.477 1045.75 114.639C1045.75 122.382 1042.86 129.451 1038.1 134.825L1038.86 136.635L1041.03 136.909C1043.44 130.752 1049.43 126.393 1056.45 126.393C1061.88 126.393 1066.71 129.014 1069.73 133.061C1069.75 129.002 1073.05 125.72 1077.12 125.72C1080.21 125.72 1082.86 127.622 1083.96 130.32C1087.53 125.766 1093.08 122.839 1099.31 122.839C1110.08 122.839 1118.81 131.565 1118.81 142.329C1118.81 146.666 1117.39 150.671 1114.99 153.909C1116.3 155.241 1117.1 157.062 1117.1 159.071C1117.1 163.152 1113.79 166.461 1109.71 166.461C1107.86 166.461 1106.16 165.78 1104.87 164.656C1103.54 166.608 1101.3 167.89 1098.76 167.89C1095.61 167.89 1092.92 165.926 1091.86 163.157C1089.28 166.528 1085.22 168.703 1080.65 168.703C1076.11 168.703 1072.08 166.565 1069.5 163.242C1066.92 166.097 1063.19 167.89 1059.03 167.89C1054.15 167.89 1049.84 165.405 1047.31 161.63C1047.12 165.133 1044.22 167.914 1040.67 167.914C1038.2 167.914 1036.04 166.571 1034.9 164.577C1032.44 166.659 1029.26 167.914 1025.78 167.914C1021.63 167.914 1017.9 166.119 1015.32 163.264C1012.05 165.741 1007.98 167.211 1003.56 167.211C992.793 167.211 984.066 158.484 984.066 147.72C984.066 141.783 986.721 136.465 990.909 132.89C987.095 127.804 984.836 121.485 984.836 114.639C984.836 107.966 986.982 101.795 990.621 96.777C988.42 94.2892 987.084 91.0184 987.084 87.4356C987.084 82.941 989.186 78.9375 992.462 76.3549C991.603 75.2867 991.09 73.9297 991.09 72.4528C991.09 70.9533 991.619 69.5775 992.501 68.5019C987.535 66.3195 984.066 61.3568 984.066 55.584C984.066 49.4634 987.965 44.2534 993.415 42.3023C986.519 39.3 981.697 32.4246 981.697 24.4231C981.697 13.6587 990.424 4.93237 1001.19 4.93237C1007.8 4.93237 1013.64 8.22559 1017.17 13.2615C1019.34 8.26459 1024.32 4.76979 1030.11 4.76979C1034.97 4.76979 1039.25 7.22617 1041.79 10.9647C1042.43 7.53084 1045.44 4.9305 1049.06 4.9305C1052.28 4.9305 1055.02 6.9948 1056.03 9.87369C1059.42 4.1036 1065.68 0.229248 1072.86 0.229248Z" fill="#AD6EF9"/>
</mask>
<g mask="url(#mask0_6_1540)">
<path d="M1015.6 158.781C994.41 168.281 982.535 144.781 987.098 136.906C985.66 137.531 982.735 138.831 982.535 139.031C982.335 139.231 981.327 146.573 980.848 150.219L987.785 168.344C998.077 168.844 1018.86 169.844 1019.66 169.844C1020.66 169.844 1071.85 170.656 1073.16 170.656C1074.47 170.656 1104.6 169.969 1107.54 169.906C1110.47 169.844 1121.41 166.469 1121.72 166.094C1121.97 165.794 1120.95 144.885 1120.41 134.469C1120.12 133.323 1118 130.269 1111.85 127.219C1119.1 140.469 1115.66 145.844 1110.91 152.969C1113.66 158.344 1108.66 161.656 1104.6 158.844C1099.16 164.906 1095.04 160.281 1092.04 155.969C1080.97 165.594 1075.79 158.781 1069.91 154.844C1060.72 164.844 1051.54 160.156 1046.47 155.156C1044.22 163.531 1038.04 161.594 1035.85 155.969C1028.85 165.531 1020.85 160.844 1015.6 158.781Z" fill="#9853F7"/>
<path d="M1072.04 138.156C1061.94 127.256 1047.24 132.906 1041.16 137.094C1040.79 136.323 1040 134.656 1039.85 134.156C1039.66 133.531 1049.35 126.031 1050.22 125.656C1050.92 125.356 1064.85 125.156 1071.72 125.094L1084.79 124.219L1093.79 120.156C1096.79 119.969 1104.15 120.806 1109.6 125.656C1097.91 120.156 1087.16 131.469 1083.91 135.719C1080.16 128.469 1073.22 133.281 1072.04 138.156Z" fill="#CEA6FF"/>
<path d="M1051.85 98.656C1048.75 103.106 1041.39 102.76 1038.1 102.031C1039.85 105.181 1043.95 105.969 1045.79 105.969C1052.06 109.198 1065.2 115.656 1067.6 115.656C1070.6 115.656 1082.1 113.406 1086.04 112.719C1089.97 112.031 1105.6 106.469 1107.47 105.969C1108.97 105.569 1109.85 99.1352 1110.1 95.9685L1111.1 82.3435C1111.39 81.6352 1111.49 78.8935 1109.54 73.5935C1108.41 88.281 1106.1 84.5935 1103.04 89.5935C1103.29 97.8435 1096.35 98.656 1090.04 95.9685C1078.72 106.344 1064.1 102.969 1059.04 100.156C1057.04 102.469 1054.85 101.156 1051.85 98.656Z" fill="#9853F7"/>
<path d="M1056.29 66.1559C1044.69 58.4559 1035.16 63.7393 1031.85 67.3434C1050.79 62.3434 1057.1 72.906 1058.91 76.7185C1061.79 68.2185 1071.22 68.531 1073.91 71.4685C1087.96 58.3624 1106.1 65.3435 1109.16 72.406L1107.79 64.4685C1102.24 62.3227 1090.92 58.031 1089.97 58.031C1088.79 58.031 1071.6 61.906 1070.22 61.906C1068.85 61.906 1064.22 63.5934 1056.29 66.1559Z" fill="#CEA6FF"/>
<path d="M1058.04 40.3435C1051.34 50.6435 1040.74 47.0935 1036.29 44.031C1037.54 49.081 1041.89 51.5518 1043.91 52.156L1068.72 56.281L1085.72 55.9685L1105.85 58.906C1109.12 56.031 1115.7 50.231 1115.85 50.031C1116.04 49.781 1119.54 45.4685 1119.1 41.031C1104.54 63.0935 1084.47 49.5935 1082.41 39.531C1071.85 50.656 1063.97 44.5935 1058.04 40.3435Z" fill="#9853F7"/>
<path d="M1017.22 18.2809C1004.56 2.54961 984.098 11.406 981.66 26.9684C980.931 23.9268 979.473 17.7185 979.473 17.2185C979.473 16.5935 984.91 7.34351 985.223 7.09351C985.535 6.84351 993.41 3.46851 994.223 3.21851C995.035 2.96851 1026.72 1.40601 1027.16 1.34351C1027.51 1.29351 1051.26 -0.677301 1063.1 -1.65645C1075.62 -1.69812 1100.72 -1.75645 1100.97 -1.65645C1101.22 -1.55645 1111.29 4.59354 1116.29 7.65604C1117.66 8.36434 1120.12 11.3184 1118.97 17.4684C1109.41 -1.65645 1091.54 11.656 1090.54 21.7809C1080.66 -2.28149 1058.41 9.28101 1055.54 15.031C1051.22 8.03101 1043.1 12.0935 1042.66 18.2809C1031.54 7.46825 1020.79 14.9059 1017.22 18.2809Z" fill="#CEA6FF"/>
</g>
<path fill-rule="evenodd" clip-rule="evenodd" d="M883.982 8.77899C881.918 5.95037 878.578 4.11238 874.809 4.11238C868.543 4.11238 863.463 9.19218 863.463 15.4584C863.463 15.4936 863.463 15.5286 863.463 15.5637C860.498 13.7412 857.008 12.6902 853.272 12.6902C842.508 12.6902 833.781 21.4165 833.781 32.1809C833.781 34.2613 834.107 36.2656 834.711 38.1455C833.734 37.9949 832.734 37.9167 831.715 37.9167C820.951 37.9167 812.225 46.6431 812.225 57.4075C812.225 64.4227 815.931 70.5722 821.492 74.005C817.666 77.8585 815.303 83.1655 815.303 89.0246C815.303 97.8203 820.629 105.372 828.233 108.63C823.574 113.979 820.752 120.972 820.752 128.623C820.752 145.443 834.387 159.078 851.207 159.078C858.329 159.078 864.879 156.634 870.066 152.538C873.412 158.453 879.761 162.445 887.042 162.445C890.991 162.445 894.667 161.27 897.737 159.251C898.639 164.616 903.305 168.703 908.926 168.703C913.517 168.703 917.47 165.977 919.257 162.055C922.466 163.989 926.225 165.101 930.245 165.101C942.019 165.101 951.564 155.557 951.564 143.782C951.564 143.286 951.547 142.794 951.513 142.306C951.89 142.326 952.269 142.336 952.651 142.336C964.425 142.336 973.97 132.791 973.97 121.017C973.97 109.243 964.425 99.6977 952.651 99.6977C946.516 99.6977 940.986 102.289 937.096 106.438C934.465 104.048 930.97 102.592 927.136 102.592C918.95 102.592 912.314 109.227 912.314 117.413C912.314 118.693 912.477 119.935 912.782 121.119C907.427 121.267 902.818 124.4 900.56 128.913C897.055 125.539 892.291 123.464 887.042 123.464C885.065 123.464 883.156 123.758 881.358 124.305C880.285 116.74 876.431 110.07 870.865 105.361C874.315 101.573 876.419 96.5367 876.419 91.0089C876.419 84.3406 873.358 78.3874 868.564 74.4781C874.998 72.1121 879.588 65.9289 879.588 58.6738C879.588 55.5674 878.746 52.6574 877.279 50.1595C878.656 50.6086 880.127 50.8514 881.654 50.8514C886.956 50.8514 891.575 47.9254 893.984 43.6C895.626 47.8427 899.746 50.8514 904.569 50.8514C907.131 50.8514 909.496 50.0018 911.395 48.569C911.234 49.5774 911.15 50.6116 911.15 51.6653C911.15 62.4298 919.877 71.1561 930.641 71.1561C938.722 71.1561 945.655 66.2378 948.609 59.2313C949.566 64.5286 954.201 68.5467 959.774 68.5467C966.04 68.5467 971.12 63.4669 971.12 57.2006C971.12 52.0425 967.678 47.6883 962.965 46.3096C966.472 43.7439 968.75 39.5979 968.75 34.92C968.75 27.1309 962.435 20.8167 954.646 20.8167C952.263 20.8167 950.018 21.4078 948.049 22.4514C947.073 14.0838 939.96 7.58999 931.33 7.58999C924.755 7.58999 919.06 11.3595 916.289 16.8554C913.822 8.92045 906.421 3.15894 897.674 3.15894C892.337 3.15894 887.501 5.30399 883.982 8.77899ZM872.011 26.4568C871.984 26.4817 871.958 26.5066 871.931 26.5317L871.9 26.4281C871.937 26.4379 871.974 26.4474 872.011 26.4568Z" fill="#AD6EF9"/>
<mask id="mask1_6_1540" style="mask-type:alpha" maskUnits="userSpaceOnUse" x="812" y="3" width="162" height="166">
<path fill-rule="evenodd" clip-rule="evenodd" d="M883.982 8.77899C881.918 5.95037 878.578 4.11238 874.809 4.11238C868.543 4.11238 863.463 9.19218 863.463 15.4584C863.463 15.4936 863.463 15.5286 863.463 15.5637C860.498 13.7412 857.008 12.6902 853.272 12.6902C842.508 12.6902 833.781 21.4165 833.781 32.1809C833.781 34.2613 834.107 36.2656 834.711 38.1455C833.734 37.9949 832.734 37.9167 831.715 37.9167C820.951 37.9167 812.225 46.6431 812.225 57.4075C812.225 64.4227 815.931 70.5722 821.492 74.005C817.666 77.8585 815.303 83.1655 815.303 89.0246C815.303 97.8203 820.629 105.372 828.233 108.63C823.574 113.979 820.752 120.972 820.752 128.623C820.752 145.443 834.387 159.078 851.207 159.078C858.329 159.078 864.879 156.634 870.066 152.538C873.412 158.453 879.761 162.445 887.042 162.445C890.991 162.445 894.667 161.27 897.737 159.251C898.639 164.616 903.305 168.703 908.926 168.703C913.517 168.703 917.47 165.977 919.257 162.055C922.466 163.989 926.225 165.101 930.245 165.101C942.019 165.101 951.564 155.557 951.564 143.782C951.564 143.286 951.547 142.794 951.513 142.306C951.89 142.326 952.269 142.336 952.651 142.336C964.425 142.336 973.97 132.791 973.97 121.017C973.97 109.243 964.425 99.6977 952.651 99.6977C946.516 99.6977 940.986 102.289 937.096 106.438C934.465 104.048 930.97 102.592 927.136 102.592C918.95 102.592 912.314 109.227 912.314 117.413C912.314 118.693 912.477 119.935 912.782 121.119C907.427 121.267 902.818 124.4 900.56 128.913C897.055 125.539 892.291 123.464 887.042 123.464C885.065 123.464 883.156 123.758 881.358 124.305C880.285 116.74 876.431 110.07 870.865 105.361C874.315 101.573 876.419 96.5367 876.419 91.0089C876.419 84.3406 873.358 78.3874 868.564 74.4781C874.998 72.1121 879.588 65.9289 879.588 58.6738C879.588 55.5674 878.746 52.6574 877.279 50.1595C878.656 50.6086 880.127 50.8514 881.654 50.8514C886.956 50.8514 891.575 47.9254 893.984 43.6C895.626 47.8427 899.746 50.8514 904.569 50.8514C907.131 50.8514 909.496 50.0018 911.395 48.569C911.234 49.5774 911.15 50.6116 911.15 51.6653C911.15 62.4298 919.877 71.1561 930.641 71.1561C938.722 71.1561 945.655 66.2378 948.609 59.2313C949.566 64.5286 954.201 68.5467 959.774 68.5467C966.04 68.5467 971.12 63.4669 971.12 57.2006C971.12 52.0425 967.678 47.6883 962.965 46.3096C966.472 43.7439 968.75 39.5979 968.75 34.92C968.75 27.1309 962.435 20.8167 954.646 20.8167C952.263 20.8167 950.018 21.4078 948.049 22.4514C947.073 14.0838 939.96 7.58999 931.33 7.58999C924.755 7.58999 919.06 11.3595 916.289 16.8554C913.822 8.92045 906.421 3.15894 897.674 3.15894C892.337 3.15894 887.501 5.30399 883.982 8.77899ZM872.011 26.4568C871.984 26.4817 871.958 26.5066 871.931 26.5317L871.9 26.4281C871.937 26.4379 871.974 26.4474 872.011 26.4568Z" fill="#AD6EF9"/>
</mask>
<g mask="url(#mask1_6_1540)">
<path d="M871.973 142.906C839.723 157.781 823.473 138.156 821.848 118.281L815.223 126.156C818.056 135.323 823.923 153.831 824.723 154.531L824.747 154.552C825.929 155.586 839.867 167.784 842.473 168.156C845.098 168.531 876.473 176.031 883.348 176.031C890.223 176.031 924.723 173.781 939.598 170.531C954.473 167.281 966.098 154.531 967.473 153.656C968.848 152.781 975.598 127.406 975.848 126.781C976.098 126.156 978.598 119.156 973.098 114.406C978.348 135.781 956.598 144.031 946.723 136.406C946.723 156.781 927.723 160.656 918.973 153.656C912.973 161.656 900.973 159.406 900.348 150.281C883.723 161.031 872.723 148.656 871.973 142.906Z" fill="#9853F7"/>
<path d="M883.035 116.843C876.785 103.393 871.348 104.719 862.41 106.344C874.098 108.406 879.348 126.094 878.91 130.781C891.535 123.719 898.66 132.719 902.66 136.406C906.41 122.656 918.285 125.781 920.723 125.656C919.535 109.281 933.66 111.094 939.098 113.281C948.198 98.581 967.517 101.278 972.348 112.344L973.785 106.156L954.91 91.4685C945.556 92.0518 925.998 93.2935 922.598 93.5935C918.348 93.9685 901.723 113.156 901.16 113.906C900.598 114.656 896.91 119.531 883.035 116.843Z" fill="#CEA6FF"/>
<path d="M894.41 37.281C885.86 48.781 874.389 45.6977 869.723 42.7185C873.123 48.3685 877.056 50.6143 878.598 51.031C886.368 53.5518 901.998 58.606 902.348 58.656C902.698 58.706 918.91 68.8852 926.973 73.9685C940.577 73.1143 967.898 71.356 968.348 71.156C968.798 70.956 971.243 61.8227 972.41 57.281C972.952 56.1768 973.273 53.706 970.223 52.656C971.348 64.031 952.223 68.156 949.16 53.406C933.864 73.5327 910.848 55.531 915.16 42.7185C904.848 49.531 896.098 44.031 894.41 37.281Z" fill="#9853F7"/>
<path d="M865.285 21.156C851.935 11.956 838.035 17.406 833.848 28.5935L823.848 21.156C828.118 18.656 837.01 13.5435 838.41 13.0935C839.81 12.6435 857.118 7.19767 865.598 4.53101C874.181 1.94768 891.448 -3.24397 891.848 -3.34397C892.348 -3.46897 933.598 3.21853 937.598 3.71853C941.598 4.21853 962.098 16.906 962.598 17.3435C962.998 17.6935 968.139 26.2394 970.66 30.4685C970.785 31.5727 970.585 34.556 968.785 37.656C968.785 23.531 955.848 21.156 946.598 26.531C931.535 8.40603 918.785 24.031 914.223 27.9685C905.66 6.03103 887.285 12.5935 883.785 14.8435C875.285 4.53101 863.848 14.8435 865.285 21.156Z" fill="#CEA6FF"/>
<path d="M841.473 43.406C829.523 38.006 817.91 45.031 813.598 49.2185L812.973 44.5309C814.868 41.0518 820.035 34.1934 825.535 34.5934C832.41 35.0934 834.535 37.8435 841.473 43.406Z" fill="#CEA6FF"/>
<path d="M852.973 73.781C852.982 73.7784 852.998 73.7756 853.021 73.7725C871.601 70.5449 873.787 78.5367 875.535 85.0935C870.7 73.1592 854.119 73.6304 853.021 73.7725C853.005 73.7754 852.989 73.7782 852.973 73.781Z" fill="#CEA6FF"/>
</g>
<path fill-rule="evenodd" clip-rule="evenodd" d="M426.183 7.78405C429.397 5.44972 433.351 4.073 437.626 4.073C443.727 4.073 449.174 6.87614 452.748 11.2647C453.589 8.10778 456.467 5.78207 459.889 5.78207C463.971 5.78207 467.279 9.09074 467.279 13.1722C467.279 15.0209 466.6 16.711 465.478 18.007C467.43 19.3373 468.711 21.5778 468.711 24.1175C468.711 27.2653 466.743 29.9533 463.97 31.0185C467.343 33.5955 469.52 37.6598 469.52 42.2325C469.52 47.2376 466.912 51.6338 462.982 54.1369C468.4 58.1827 471.908 64.6456 471.908 71.9279C471.908 78.1446 469.352 83.7641 465.233 87.7926C467.411 90.2751 468.732 93.5292 468.732 97.0918C468.732 101.244 466.938 104.977 464.082 107.558C466.561 110.827 468.031 114.903 468.031 119.322C468.031 123.036 466.992 126.507 465.19 129.461C465.439 129.436 465.691 129.423 465.947 129.423C470.028 129.423 473.337 132.731 473.337 136.813C473.337 140.01 471.306 142.733 468.464 143.763C471.532 146.35 473.48 150.222 473.48 154.548C473.48 162.337 467.166 168.652 459.377 168.652C455.457 168.652 451.911 167.053 449.355 164.471C448.038 166.505 445.749 167.851 443.146 167.851C440.205 167.851 437.665 166.133 436.475 163.646C433.916 166.258 430.348 167.878 426.402 167.878C418.613 167.878 412.299 161.564 412.299 153.775C412.299 148.665 415.017 144.189 419.086 141.715C415.878 140.024 413.691 136.656 413.691 132.777C413.691 128.856 415.927 125.456 419.193 123.784C415.71 120.263 413.559 115.421 413.559 110.077C413.559 109.31 413.603 108.554 413.689 107.811C410.114 112.147 404.701 114.911 398.643 114.911C391.411 114.911 385.098 110.972 381.734 105.121C379.234 107.377 375.923 108.75 372.291 108.75L372.248 108.75C372.204 108.75 372.16 108.749 372.116 108.749C373.528 110.945 374.347 113.56 374.347 116.365C374.347 120.375 372.674 123.994 369.988 126.561C370.857 128.771 371.335 131.178 371.335 133.697C371.335 137.519 370.235 141.084 368.334 144.093C370.784 146.63 372.291 150.083 372.291 153.889C372.291 161.678 365.976 167.992 358.187 167.992C353.175 167.992 348.774 165.378 346.273 161.438C342.735 165.049 337.804 167.289 332.35 167.289C321.586 167.289 312.859 158.563 312.859 147.798C312.859 141.937 315.447 136.679 319.542 133.106C317.917 130.808 316.963 128.003 316.963 124.975C316.963 120.735 318.834 116.933 321.794 114.347C319.558 112.495 318.133 109.697 318.133 106.566C318.133 103.5 319.5 100.752 321.657 98.9004C318.153 96.3345 315.877 92.1899 315.877 87.5137C315.877 83.0209 317.978 79.0187 321.251 76.436C320.395 75.3686 319.883 74.0135 319.883 72.5388C319.883 71.0366 320.414 69.6585 321.299 68.5821C316.33 66.4007 312.859 61.4367 312.859 55.6622C312.859 47.8731 319.174 41.5589 326.963 41.5589L327.016 41.559C321.021 38.2349 316.963 31.842 316.963 24.5013C316.963 13.7368 325.689 5.0105 336.454 5.0105C341.932 5.0105 346.883 7.27086 350.424 10.9099C352.971 7.24618 357.211 4.84791 362.011 4.84791C369.801 4.84791 376.115 11.1622 376.115 18.9512C376.115 22.8617 374.523 26.4004 371.953 28.9551C375.484 30.737 377.906 34.3971 377.906 38.6229C377.906 43.2856 374.958 47.2596 370.823 48.7818C371.762 50.6707 372.291 52.8001 372.291 55.0528C372.291 56.907 371.933 58.6777 371.282 60.2995C374.058 59.0507 377.136 58.3559 380.377 58.3559C387.574 58.3559 393.97 61.7816 398.024 67.0912C399.656 59.6106 405.583 53.7351 413.091 52.179C409.352 50.4748 406.752 46.704 406.752 42.326C406.752 37.7299 409.617 33.8029 413.659 32.2338C407.516 30.7097 402.963 25.159 402.963 18.545C402.963 10.7559 409.278 4.44167 417.067 4.44167C420.543 4.44167 423.725 5.69916 426.183 7.78405Z" fill="#AD6EF9"/>
<mask id="mask2_6_1540" style="mask-type:alpha" maskUnits="userSpaceOnUse" x="312" y="4" width="162" height="165">
<path fill-rule="evenodd" clip-rule="evenodd" d="M426.183 7.78405C429.397 5.44972 433.351 4.073 437.626 4.073C443.727 4.073 449.174 6.87614 452.748 11.2647C453.589 8.10778 456.467 5.78207 459.889 5.78207C463.971 5.78207 467.279 9.09074 467.279 13.1722C467.279 15.0209 466.6 16.711 465.478 18.007C467.43 19.3373 468.711 21.5778 468.711 24.1175C468.711 27.2653 466.743 29.9533 463.97 31.0185C467.343 33.5955 469.52 37.6598 469.52 42.2325C469.52 47.2376 466.912 51.6338 462.982 54.1369C468.4 58.1827 471.908 64.6456 471.908 71.9279C471.908 78.1446 469.352 83.7641 465.233 87.7926C467.411 90.2751 468.732 93.5292 468.732 97.0918C468.732 101.244 466.938 104.977 464.082 107.558C466.561 110.827 468.031 114.903 468.031 119.322C468.031 123.036 466.992 126.507 465.19 129.461C465.439 129.436 465.691 129.423 465.947 129.423C470.028 129.423 473.337 132.731 473.337 136.813C473.337 140.01 471.306 142.733 468.464 143.763C471.532 146.35 473.48 150.222 473.48 154.548C473.48 162.337 467.166 168.652 459.377 168.652C455.457 168.652 451.911 167.053 449.355 164.471C448.038 166.505 445.749 167.851 443.146 167.851C440.205 167.851 437.665 166.133 436.475 163.646C433.916 166.258 430.348 167.878 426.402 167.878C418.613 167.878 412.299 161.564 412.299 153.775C412.299 148.665 415.017 144.189 419.086 141.715C415.878 140.024 413.691 136.656 413.691 132.777C413.691 128.856 415.927 125.456 419.193 123.784C415.71 120.263 413.559 115.421 413.559 110.077C413.559 109.31 413.603 108.554 413.689 107.811C410.114 112.147 404.701 114.911 398.643 114.911C391.411 114.911 385.098 110.972 381.734 105.121C379.234 107.377 375.923 108.75 372.291 108.75L372.248 108.75C372.204 108.75 372.16 108.749 372.116 108.749C373.528 110.945 374.347 113.56 374.347 116.365C374.347 120.375 372.674 123.994 369.988 126.561C370.857 128.771 371.335 131.178 371.335 133.697C371.335 137.519 370.235 141.084 368.334 144.093C370.784 146.63 372.291 150.083 372.291 153.889C372.291 161.678 365.976 167.992 358.187 167.992C353.175 167.992 348.774 165.378 346.273 161.438C342.735 165.049 337.804 167.289 332.35 167.289C321.586 167.289 312.859 158.563 312.859 147.798C312.859 141.937 315.447 136.679 319.542 133.106C317.917 130.808 316.963 128.003 316.963 124.975C316.963 120.735 318.834 116.933 321.794 114.347C319.558 112.495 318.133 109.697 318.133 106.566C318.133 103.5 319.5 100.752 321.657 98.9004C318.153 96.3345 315.877 92.1899 315.877 87.5137C315.877 83.0209 317.978 79.0187 321.251 76.436C320.395 75.3686 319.883 74.0135 319.883 72.5388C319.883 71.0366 320.414 69.6585 321.299 68.5821C316.33 66.4007 312.859 61.4367 312.859 55.6622C312.859 47.8731 319.174 41.5589 326.963 41.5589L327.016 41.559C321.021 38.2349 316.963 31.842 316.963 24.5013C316.963 13.7368 325.689 5.0105 336.454 5.0105C341.932 5.0105 346.883 7.27086 350.424 10.9099C352.971 7.24618 357.211 4.84791 362.011 4.84791C369.801 4.84791 376.115 11.1622 376.115 18.9512C376.115 22.8617 374.523 26.4004 371.953 28.9551C375.484 30.737 377.906 34.3971 377.906 38.6229C377.906 43.2856 374.958 47.2596 370.823 48.7818C371.762 50.6707 372.291 52.8001 372.291 55.0528C372.291 56.907 371.933 58.6777 371.282 60.2995C374.058 59.0507 377.136 58.3559 380.377 58.3559C387.574 58.3559 393.97 61.7816 398.024 67.0912C399.656 59.6106 405.583 53.7351 413.091 52.179C409.352 50.4748 406.752 46.704 406.752 42.326C406.752 37.7299 409.617 33.8029 413.659 32.2338C407.516 30.7097 402.963 25.159 402.963 18.545C402.963 10.7559 409.278 4.44167 417.067 4.44167C420.543 4.44167 423.725 5.69916 426.183 7.78405Z" fill="#AD6EF9"/>
</mask>
<g mask="url(#mask2_6_1540)">
<path d="M346.598 153.531C331.973 164.656 309.098 158.156 316.473 135.531C312.848 138.989 305.498 146.106 305.098 146.906C304.598 147.906 306.973 159.906 307.473 160.531C307.973 161.156 322.598 170.906 324.098 170.781C325.598 170.656 361.473 174.406 365.598 174.406C368.898 174.406 377.306 164.239 381.098 159.156C382.39 156.823 381.823 150.656 369.223 144.656C374.473 161.906 350.598 168.781 346.598 153.531Z" fill="#9853F7"/>
<path d="M425.598 139.531C419.598 139.531 413.598 135.531 415.723 125.906L407.223 139.531L410.723 168.781C430.681 170.448 470.873 173.681 471.973 173.281C473.073 172.881 475.681 158.698 476.848 151.656C476.098 149.323 473.248 144.481 467.848 143.781C475.266 160.531 455.098 166.156 448.598 157.031C446.723 161.656 436.848 160.531 436.848 153.531C429.098 164.906 408.973 154.156 425.598 139.531Z" fill="#9853F7"/>
<path d="M381.723 99.281C373.123 106.281 366.223 103.698 363.848 101.531C367.148 108.431 372.389 109.323 374.473 109.281C380.431 112.323 393.623 118.781 399.723 117.281C407.348 115.406 410.098 114.156 417.098 101.531C403.848 110.781 393.098 106.156 381.723 99.281Z" fill="#9853F7"/>
<path d="M373.422 58.2185C374.672 52.7685 370.859 48.4477 368.797 46.9685C372.422 54.5935 368.797 63.8435 360.91 72.8435C377.597 62.281 395.547 72.7185 401.797 76.9685C405.422 61.8435 415.535 55.0935 422.859 53.281C408.484 50.0935 383.172 55.0935 373.422 58.2185Z" fill="#CEA6FF"/>
<path d="M349.912 18.1559C334.099 6.21837 316.223 25.656 324.037 40.0934L313.474 37.5935C313.182 27.6977 312.836 7.46851 313.786 5.71851C314.974 3.53101 349.912 -5.59404 351.786 -6.03154C353.285 -6.38154 369.911 4.48929 378.036 9.96846C378.849 12.6976 379.561 18.9934 375.911 22.3434C373.661 5.8434 352.285 10.406 349.912 18.1559Z" fill="#CEA6FF"/>
<path d="M413.097 13.3435C405.597 18.3935 408.847 27.6977 411.41 31.7185C408.535 31.6143 402.498 31.331 401.348 31.031C399.91 30.656 399.034 23.3435 398.722 22.531C398.472 21.881 399.451 12.8018 399.972 8.34351C413.513 3.92681 441.122 -4.99407 443.222 -5.34407C445.322 -5.69407 460.18 0.801761 467.347 4.09343C468.638 6.1976 470.447 10.8684 467.347 12.7184C464.152 2.64486 453.785 10.281 452.784 15.5936C444.934 5.89355 430.41 8.90601 426.847 15.9685C425.389 12.9894 418.893 9.44116 413.097 13.3435Z" fill="#CEA6FF"/>
</g>
<path fill-rule="evenodd" clip-rule="evenodd" d="M227.786 22.6497C227.786 11.8852 219.06 3.15894 208.295 3.15894C203.888 3.15894 199.823 4.62165 196.558 7.08808C194.158 5.19579 191.128 4.06667 187.834 4.06667C184.471 4.06667 181.383 5.24361 178.96 7.20804C175.905 5.22015 172.258 4.06519 168.342 4.06519C157.578 4.06519 148.852 12.7915 148.852 23.5559C148.852 30.949 152.968 37.3807 159.033 40.6842C155.332 43.2262 152.904 47.4888 152.904 52.3184C152.904 57.4454 155.64 61.9334 159.731 64.4023C156.388 66.9812 154.234 71.0272 154.234 75.5762C154.234 79.0362 155.48 82.2052 157.548 84.6589C155.516 86.4453 154.234 89.0637 154.234 91.9816C154.234 94.1709 154.956 96.1917 156.175 97.8189C151.583 100.961 148.57 106.241 148.57 112.225C148.57 118.152 151.527 123.389 156.045 126.541C150.824 128.456 147.098 133.472 147.098 139.358C147.098 145.252 150.834 150.273 156.068 152.182C152.231 152.45 149.201 155.648 149.201 159.554C149.201 163.635 152.51 166.944 156.591 166.944C159.597 166.944 162.183 165.15 163.338 162.574C166.89 166.318 171.913 168.653 177.481 168.653C183.683 168.653 189.208 165.757 192.777 161.243C195.274 165.204 199.688 167.836 204.717 167.836C212.506 167.836 218.82 161.522 218.82 153.732C218.82 145.953 212.521 139.645 204.745 139.629C207.29 137.078 208.863 133.558 208.863 129.67C208.863 123.663 205.108 118.533 199.817 116.5C202.048 113.679 203.381 110.113 203.381 106.237C203.381 103.672 202.798 101.243 201.756 99.0754C203.212 98.1021 204.262 96.5704 204.6 94.7867C207.179 98.755 211.413 101.549 216.323 102.192C214.662 104.506 213.684 107.342 213.684 110.408C213.684 118.197 219.998 124.511 227.787 124.511C228.734 124.511 229.659 124.418 230.553 124.24C230.012 126.029 229.721 127.926 229.721 129.892C229.721 139.678 236.933 147.78 246.333 149.172C246.338 159.932 255.062 168.653 265.824 168.653C271.719 168.653 277.004 166.036 280.578 161.899C280.742 161.89 280.906 161.881 281.069 161.872C282.041 164.818 284.817 166.944 288.088 166.944C292.17 166.944 295.479 163.635 295.479 159.554C295.479 157.705 294.799 156.014 293.677 154.718C295.628 153.388 296.908 151.148 296.908 148.609C296.908 145.461 294.94 142.773 292.168 141.708C295.541 139.131 297.717 135.066 297.717 130.494C297.717 125.489 295.11 121.092 291.179 118.589C296.597 114.543 300.105 108.081 300.105 100.798C300.105 94.5816 297.549 88.9621 293.43 84.9336C295.609 82.4511 296.93 79.197 296.93 75.6344C296.93 71.4827 295.136 67.75 292.281 65.1692C294.76 61.8997 296.23 57.824 296.23 53.4046C296.23 49.6872 295.19 46.2129 293.384 43.2571C293.634 43.2826 293.887 43.2957 294.144 43.2957C298.225 43.2957 301.534 39.987 301.534 35.9056C301.534 32.7082 299.504 29.9851 296.662 28.9554C299.729 26.3683 301.677 22.4967 301.677 18.17C301.677 10.3809 295.363 4.06667 287.574 4.06667C283.653 4.06667 280.105 5.66705 277.549 8.2503C276.232 6.21882 273.945 4.87482 271.343 4.87482C268.402 4.87482 265.862 6.59299 264.673 9.08036C262.113 6.46848 258.545 4.84792 254.599 4.84792C246.81 4.84792 240.496 11.1622 240.496 18.9512C240.496 24.0618 243.214 28.5375 247.284 31.0113C244.077 32.7031 241.891 36.0706 241.891 39.9487C241.891 43.8698 244.125 47.2689 247.391 48.9417C243.907 52.4628 241.756 57.305 241.756 62.6497C241.756 67.8429 243.787 72.5617 247.098 76.0552C246.179 77.1964 245.629 78.6471 245.629 80.2262C245.629 80.8333 245.711 81.4215 245.863 81.9804C245.665 81.9744 245.466 81.9714 245.266 81.9714C245.217 81.9714 245.168 81.9716 245.118 81.972C243.834 76.9194 240.225 72.7944 235.498 70.8014C236.979 68.5698 237.841 65.8925 237.841 63.0137C237.841 55.7934 232.416 49.8404 225.419 49.0095C226.14 47.9458 226.561 46.6625 226.561 45.2809C226.561 41.6048 223.581 38.6248 219.905 38.6248C219.749 38.6248 219.595 38.6302 219.442 38.6406C224.486 35.1179 227.786 29.2691 227.786 22.6497Z" fill="#AD6EF9"/>
<mask id="mask3_6_1540" style="mask-type:alpha" maskUnits="userSpaceOnUse" x="147" y="3" width="155" height="166">
<path fill-rule="evenodd" clip-rule="evenodd" d="M227.786 22.6497C227.786 11.8852 219.06 3.15894 208.295 3.15894C203.888 3.15894 199.823 4.62165 196.558 7.08808C194.158 5.19579 191.128 4.06667 187.834 4.06667C184.471 4.06667 181.383 5.24361 178.96 7.20804C175.905 5.22015 172.258 4.06519 168.342 4.06519C157.578 4.06519 148.852 12.7915 148.852 23.5559C148.852 30.949 152.968 37.3807 159.033 40.6842C155.332 43.2262 152.904 47.4888 152.904 52.3184C152.904 57.4454 155.64 61.9334 159.731 64.4023C156.388 66.9812 154.234 71.0272 154.234 75.5762C154.234 79.0362 155.48 82.2052 157.548 84.6589C155.516 86.4453 154.234 89.0637 154.234 91.9816C154.234 94.1709 154.956 96.1917 156.175 97.8189C151.583 100.961 148.57 106.241 148.57 112.225C148.57 118.152 151.527 123.389 156.045 126.541C150.824 128.456 147.098 133.472 147.098 139.358C147.098 145.252 150.834 150.273 156.068 152.182C152.231 152.45 149.201 155.648 149.201 159.554C149.201 163.635 152.51 166.944 156.591 166.944C159.597 166.944 162.183 165.15 163.338 162.574C166.89 166.318 171.913 168.653 177.481 168.653C183.683 168.653 189.208 165.757 192.777 161.243C195.274 165.204 199.688 167.836 204.717 167.836C212.506 167.836 218.82 161.522 218.82 153.732C218.82 145.953 212.521 139.645 204.745 139.629C207.29 137.078 208.863 133.558 208.863 129.67C208.863 123.663 205.108 118.533 199.817 116.5C202.048 113.679 203.381 110.113 203.381 106.237C203.381 103.672 202.798 101.243 201.756 99.0754C203.212 98.1021 204.262 96.5704 204.6 94.7867C207.179 98.755 211.413 101.549 216.323 102.192C214.662 104.506 213.684 107.342 213.684 110.408C213.684 118.197 219.998 124.511 227.787 124.511C228.734 124.511 229.659 124.418 230.553 124.24C230.012 126.029 229.721 127.926 229.721 129.892C229.721 139.678 236.933 147.78 246.333 149.172C246.338 159.932 255.062 168.653 265.824 168.653C271.719 168.653 277.004 166.036 280.578 161.899C280.742 161.89 280.906 161.881 281.069 161.872C282.041 164.818 284.817 166.944 288.088 166.944C292.17 166.944 295.479 163.635 295.479 159.554C295.479 157.705 294.799 156.014 293.677 154.718C295.628 153.388 296.908 151.148 296.908 148.609C296.908 145.461 294.94 142.773 292.168 141.708C295.541 139.131 297.717 135.066 297.717 130.494C297.717 125.489 295.11 121.092 291.179 118.589C296.597 114.543 300.105 108.081 300.105 100.798C300.105 94.5816 297.549 88.9621 293.43 84.9336C295.609 82.4511 296.93 79.197 296.93 75.6344C296.93 71.4827 295.136 67.75 292.281 65.1692C294.76 61.8997 296.23 57.824 296.23 53.4046C296.23 49.6872 295.19 46.2129 293.384 43.2571C293.634 43.2826 293.887 43.2957 294.144 43.2957C298.225 43.2957 301.534 39.987 301.534 35.9056C301.534 32.7082 299.504 29.9851 296.662 28.9554C299.729 26.3683 301.677 22.4967 301.677 18.17C301.677 10.3809 295.363 4.06667 287.574 4.06667C283.653 4.06667 280.105 5.66705 277.549 8.2503C276.232 6.21882 273.945 4.87482 271.343 4.87482C268.402 4.87482 265.862 6.59299 264.673 9.08036C262.113 6.46848 258.545 4.84792 254.599 4.84792C246.81 4.84792 240.496 11.1622 240.496 18.9512C240.496 24.0618 243.214 28.5375 247.284 31.0113C244.077 32.7031 241.891 36.0706 241.891 39.9487C241.891 43.8698 244.125 47.2689 247.391 48.9417C243.907 52.4628 241.756 57.305 241.756 62.6497C241.756 67.8429 243.787 72.5617 247.098 76.0552C246.179 77.1964 245.629 78.6471 245.629 80.2262C245.629 80.8333 245.711 81.4215 245.863 81.9804C245.665 81.9744 245.466 81.9714 245.266 81.9714C245.217 81.9714 245.168 81.9716 245.118 81.972C243.834 76.9194 240.225 72.7944 235.498 70.8014C236.979 68.5698 237.841 65.8925 237.841 63.0137C237.841 55.7934 232.416 49.8404 225.419 49.0095C226.14 47.9458 226.561 46.6625 226.561 45.2809C226.561 41.6048 223.581 38.6248 219.905 38.6248C219.749 38.6248 219.595 38.6302 219.442 38.6406C224.486 35.1179 227.786 29.2691 227.786 22.6497Z" fill="#AD6EF9"/>
</mask>
<g mask="url(#mask3_6_1540)">
<path d="M206.098 106.781L203.598 86.031C207.098 101.656 221.723 99.781 221.723 99.781C219.348 119.656 237.348 119.281 243.16 117.469C235.16 134.719 247.785 143.281 254.723 144.281C252.41 159.469 274.348 164.656 280.66 155.031C282.16 160.094 289.785 158.969 289.785 153.094C295.385 151.144 294.66 143.656 291.098 141.906L299.973 140.531C300.931 148.739 302.698 166.131 302.098 170.031C301.348 174.906 285.473 175.406 283.598 175.906C281.723 176.406 242.223 168.531 241.848 167.906C241.548 167.406 217.889 126.948 206.098 106.781Z" fill="#9853F7"/>
<path d="M162.285 148.469C150.435 146.319 148.327 136.364 149.473 130.969C148.431 130.385 146.185 129.219 145.535 129.219C144.723 129.219 144.348 134.781 144.035 138.281C143.723 141.781 143.973 152.031 143.285 153.781C142.598 155.531 143.035 163.406 142.66 164.531C142.285 165.656 161.972 174.219 163.285 174.656C164.335 175.006 190.264 172.177 203.097 170.719C209.722 168.281 223.047 163.056 223.347 161.656C223.722 159.906 222.972 147.531 221.91 144.219C221.06 141.569 216.097 138.364 213.722 137.094L205.347 139.594C207.368 140.906 213.373 147.106 208.223 153.906C203.073 160.706 193.701 154.864 191.285 152.031C191.285 152.031 188.223 160.781 178.222 161.656C171.049 162.284 162.285 157.969 162.285 148.469Z" fill="#9853F7"/>
<path d="M179.723 15.9685C170.41 6.90611 144.348 13.781 154.723 38.156C142.848 38.156 142.885 10.7685 142.535 9.21851C142.098 7.28101 147.473 2.40601 147.91 2.34351C148.26 2.29351 166.639 -1.92733 175.785 -4.03149C184.16 -4.34399 201.01 -4.98149 201.41 -5.03149C201.91 -5.09399 217.848 -1.15649 218.848 0.468509C219.848 2.09351 229.285 13.781 229.66 14.7185C229.96 15.4685 235.452 38.406 238.16 49.781L241.723 71.0935L247.535 85.656C246.535 84.8435 244.41 84.531 243.973 87.656C240.285 76.656 233.723 72.781 226.973 72.781C236.598 61.531 224.973 51.031 219.598 51.7185C223.223 45.156 216.848 38.781 212.785 39.656C223.848 23.156 203.848 9.21851 196.848 15.9685C191.535 7.40612 181.098 9.90601 179.723 15.9685Z" fill="#CEA6FF"/>
<path d="M265.411 15.0311C259.473 5.09351 238.46 9.19675 243.098 27.9061C241.14 27.7602 237.136 27.4435 236.786 27.3435C236.348 27.2185 235.848 19.156 236.786 16.031C237.723 12.906 239.598 3.53101 240.161 2.96851C240.723 2.40601 281.036 0.281111 282.973 0.0936106C284.523 -0.0563894 296.119 2.78111 301.723 4.21861L303.723 22.8436C303.411 23.9894 301.798 26.6936 297.848 28.3436C303.723 6.21851 280.91 7.53101 277.723 12.5312C273.911 7.71867 265.848 9.96851 265.411 15.0311Z" fill="#CEA6FF"/>
</g>
<path fill-rule="evenodd" clip-rule="evenodd" d="M730.876 149.162C730.876 159.927 739.602 168.653 750.367 168.653C754.774 168.653 758.839 167.19 762.104 164.724C764.505 166.616 767.535 167.745 770.828 167.745C774.191 167.745 777.279 166.568 779.703 164.604C782.757 166.592 786.404 167.747 790.32 167.747C801.084 167.747 809.811 159.021 809.811 148.256C809.811 140.863 805.694 134.431 799.629 131.128C803.33 128.586 805.758 124.323 805.758 119.494C805.758 114.367 803.022 109.879 798.931 107.41C802.274 104.831 804.428 100.785 804.428 96.2358C804.428 92.7758 803.182 89.6068 801.114 87.1531C803.146 85.3667 804.428 82.7483 804.428 79.8304C804.428 77.6411 803.706 75.6203 802.487 73.9931C807.079 70.8511 810.092 65.571 810.092 59.5872C810.092 53.6598 807.135 48.4229 802.617 45.2707C807.839 43.3555 811.564 38.3401 811.564 32.4545C811.564 26.5602 807.828 21.5388 802.594 19.6299C806.431 19.3616 809.461 16.1636 809.461 12.258C809.461 8.17654 806.152 4.86787 802.071 4.86787C799.065 4.86787 796.479 6.6621 795.324 9.23793C791.772 5.49375 786.749 3.15881 781.181 3.15881C774.98 3.15881 769.454 6.05514 765.885 10.5689C763.388 6.60784 758.974 3.97625 753.946 3.97625C746.156 3.97625 739.842 10.2905 739.842 18.0796C739.842 25.859 746.141 32.1673 753.917 32.1828C751.372 34.7339 749.799 38.2543 749.799 42.142C749.799 48.1488 753.555 53.2786 758.845 55.3116C756.614 58.133 755.281 61.6986 755.281 65.5753C755.281 68.1405 755.865 70.5694 756.906 72.7366C755.451 73.7099 754.4 75.2416 754.062 77.0254C751.483 73.057 747.25 70.2627 742.339 69.62C744 67.3065 744.978 64.4695 744.978 61.4042C744.978 53.6152 738.664 47.3009 730.875 47.3009C729.928 47.3009 729.004 47.3941 728.109 47.5719C728.65 45.7831 728.941 43.8856 728.941 41.9201C728.941 32.1337 721.729 24.0319 712.329 22.6405C712.324 11.8802 703.6 3.15881 692.838 3.15881C686.943 3.15881 681.658 5.7765 678.084 9.91302C677.92 9.92198 677.756 9.93106 677.593 9.94026C676.621 6.99412 673.846 4.86787 670.574 4.86787C666.492 4.86787 663.184 8.17654 663.184 12.258C663.184 14.1071 663.863 15.7976 664.985 17.0936C663.035 18.424 661.754 20.6641 661.754 23.2033C661.754 26.3511 663.722 29.0391 666.495 30.1043C663.121 32.6813 660.945 36.7456 660.945 41.3183C660.945 46.3234 663.553 50.7196 667.483 53.2227C662.065 57.2685 658.557 63.7314 658.557 71.0137C658.557 77.2304 661.113 82.85 665.232 86.8784C663.053 89.3609 661.732 92.615 661.732 96.1776C661.732 100.329 663.526 104.062 666.381 106.643C663.902 109.912 662.432 113.988 662.432 118.407C662.432 122.125 663.472 125.599 665.278 128.555C665.028 128.529 664.775 128.516 664.518 128.516C660.437 128.516 657.128 131.825 657.128 135.906C657.128 139.104 659.158 141.827 662 142.857C658.933 145.444 656.985 149.315 656.985 153.642C656.985 161.431 663.299 167.745 671.088 167.745C675.009 167.745 678.557 166.145 681.113 163.562C682.43 165.593 684.718 166.937 687.319 166.937C690.26 166.937 692.8 165.219 693.99 162.732C696.549 165.344 700.117 166.964 704.063 166.964C711.852 166.964 718.166 160.65 718.166 152.861C718.166 147.75 715.448 143.274 711.378 140.801C714.585 139.109 716.771 135.741 716.771 131.863C716.771 127.942 714.537 124.543 711.271 122.87C714.755 119.349 716.906 114.507 716.906 109.162C716.906 103.969 714.875 99.2503 711.564 95.7568C712.483 94.6156 713.033 93.165 713.033 91.5858C713.033 90.9787 712.951 90.3905 712.799 89.8316C712.997 89.8376 713.196 89.8406 713.396 89.8406C713.445 89.8406 713.495 89.8404 713.544 89.84C714.829 94.8926 718.437 99.0176 723.164 101.011C721.683 103.242 720.821 105.92 720.821 108.798C720.821 116.019 726.247 121.972 733.243 122.802C732.523 123.866 732.102 125.15 732.102 126.531C732.102 130.207 735.082 133.187 738.758 133.187C738.913 133.187 739.067 133.182 739.22 133.171C734.176 136.694 730.876 142.543 730.876 149.162Z" fill="#AD6EF9"/>
<mask id="mask4_6_1540" style="mask-type:alpha" maskUnits="userSpaceOnUse" x="656" y="3" width="156" height="166">
<path fill-rule="evenodd" clip-rule="evenodd" d="M730.876 149.162C730.876 159.927 739.602 168.653 750.367 168.653C754.774 168.653 758.839 167.19 762.104 164.724C764.505 166.616 767.535 167.745 770.828 167.745C774.191 167.745 777.279 166.568 779.703 164.604C782.757 166.592 786.404 167.747 790.32 167.747C801.084 167.747 809.811 159.021 809.811 148.256C809.811 140.863 805.694 134.431 799.629 131.128C803.33 128.586 805.758 124.323 805.758 119.494C805.758 114.367 803.022 109.879 798.931 107.41C802.274 104.831 804.428 100.785 804.428 96.2358C804.428 92.7758 803.182 89.6068 801.114 87.1531C803.146 85.3667 804.428 82.7483 804.428 79.8304C804.428 77.6411 803.706 75.6203 802.487 73.9931C807.079 70.8511 810.092 65.571 810.092 59.5872C810.092 53.6598 807.135 48.4229 802.617 45.2707C807.839 43.3555 811.564 38.3401 811.564 32.4545C811.564 26.5602 807.828 21.5388 802.594 19.6299C806.431 19.3616 809.461 16.1636 809.461 12.258C809.461 8.17654 806.152 4.86787 802.071 4.86787C799.065 4.86787 796.479 6.6621 795.324 9.23793C791.772 5.49375 786.749 3.15881 781.181 3.15881C774.98 3.15881 769.454 6.05514 765.885 10.5689C763.388 6.60784 758.974 3.97625 753.946 3.97625C746.156 3.97625 739.842 10.2905 739.842 18.0796C739.842 25.859 746.141 32.1673 753.917 32.1828C751.372 34.7339 749.799 38.2543 749.799 42.142C749.799 48.1488 753.555 53.2786 758.845 55.3116C756.614 58.133 755.281 61.6986 755.281 65.5753C755.281 68.1405 755.865 70.5694 756.906 72.7366C755.451 73.7099 754.4 75.2416 754.062 77.0254C751.483 73.057 747.25 70.2627 742.339 69.62C744 67.3065 744.978 64.4695 744.978 61.4042C744.978 53.6152 738.664 47.3009 730.875 47.3009C729.928 47.3009 729.004 47.3941 728.109 47.5719C728.65 45.7831 728.941 43.8856 728.941 41.9201C728.941 32.1337 721.729 24.0319 712.329 22.6405C712.324 11.8802 703.6 3.15881 692.838 3.15881C686.943 3.15881 681.658 5.7765 678.084 9.91302C677.92 9.92198 677.756 9.93106 677.593 9.94026C676.621 6.99412 673.846 4.86787 670.574 4.86787C666.492 4.86787 663.184 8.17654 663.184 12.258C663.184 14.1071 663.863 15.7976 664.985 17.0936C663.035 18.424 661.754 20.6641 661.754 23.2033C661.754 26.3511 663.722 29.0391 666.495 30.1043C663.121 32.6813 660.945 36.7456 660.945 41.3183C660.945 46.3234 663.553 50.7196 667.483 53.2227C662.065 57.2685 658.557 63.7314 658.557 71.0137C658.557 77.2304 661.113 82.85 665.232 86.8784C663.053 89.3609 661.732 92.615 661.732 96.1776C661.732 100.329 663.526 104.062 666.381 106.643C663.902 109.912 662.432 113.988 662.432 118.407C662.432 122.125 663.472 125.599 665.278 128.555C665.028 128.529 664.775 128.516 664.518 128.516C660.437 128.516 657.128 131.825 657.128 135.906C657.128 139.104 659.158 141.827 662 142.857C658.933 145.444 656.985 149.315 656.985 153.642C656.985 161.431 663.299 167.745 671.088 167.745C675.009 167.745 678.557 166.145 681.113 163.562C682.43 165.593 684.718 166.937 687.319 166.937C690.26 166.937 692.8 165.219 693.99 162.732C696.549 165.344 700.117 166.964 704.063 166.964C711.852 166.964 718.166 160.65 718.166 152.861C718.166 147.75 715.448 143.274 711.378 140.801C714.585 139.109 716.771 135.741 716.771 131.863C716.771 127.942 714.537 124.543 711.271 122.87C714.755 119.349 716.906 114.507 716.906 109.162C716.906 103.969 714.875 99.2503 711.564 95.7568C712.483 94.6156 713.033 93.165 713.033 91.5858C713.033 90.9787 712.951 90.3905 712.799 89.8316C712.997 89.8376 713.196 89.8406 713.396 89.8406C713.445 89.8406 713.495 89.8404 713.544 89.84C714.829 94.8926 718.437 99.0176 723.164 101.011C721.683 103.242 720.821 105.92 720.821 108.798C720.821 116.019 726.247 121.972 733.243 122.802C732.523 123.866 732.102 125.15 732.102 126.531C732.102 130.207 735.082 133.187 738.758 133.187C738.913 133.187 739.067 133.182 739.22 133.171C734.176 136.694 730.876 142.543 730.876 149.162Z" fill="#AD6EF9"/>
</mask>
<g mask="url(#mask4_6_1540)">
<path d="M752.564 65.031L755.064 85.781C751.564 70.156 736.939 72.031 736.939 72.031C739.314 52.156 721.314 52.531 715.502 54.3435C723.502 37.0935 710.877 28.531 703.939 27.531C706.252 12.3435 684.314 7.15601 678.002 16.781C676.502 11.7185 668.877 12.8435 668.877 18.7185C663.277 20.6685 664.002 28.156 667.564 29.906L658.689 31.281C657.731 23.0727 655.964 5.68101 656.564 1.78101C657.314 -3.09399 673.189 -3.59399 675.064 -4.09399C676.939 -4.59399 716.439 3.28101 716.814 3.90601C717.114 4.40601 740.773 44.8643 752.564 65.031Z" fill="#CEA6FF"/>
<path d="M796.377 23.3435C808.227 25.4935 810.335 35.4477 809.19 40.8435C810.231 41.4268 812.477 42.5935 813.127 42.5935C813.939 42.5935 814.314 37.031 814.627 33.531C814.939 30.031 814.689 19.781 815.377 18.031C816.064 16.281 815.628 8.40601 816.003 7.28101C816.378 6.15601 796.69 -2.40649 795.378 -2.84399C794.328 -3.19399 768.398 -0.364826 755.565 1.09351C748.94 3.53101 735.615 8.756 735.315 10.156C734.94 11.906 735.69 24.281 736.753 27.5935C737.603 30.2435 742.565 33.4477 744.94 34.7185L753.315 32.2185C751.294 30.906 745.289 24.706 750.439 17.906C755.589 11.106 764.961 16.9477 767.378 19.781C767.378 19.781 770.439 11.031 780.44 10.156C787.613 9.52839 796.377 13.8435 796.377 23.3435Z" fill="#CEA6FF"/>
<path d="M778.939 155.844C788.252 164.906 814.314 158.031 803.939 133.656C815.814 133.656 815.777 161.044 816.127 162.594C816.565 164.531 811.19 169.406 810.752 169.469C810.402 169.519 792.023 173.739 782.877 175.844C774.502 176.156 757.652 176.794 757.252 176.844C756.752 176.906 740.815 172.969 739.815 171.344C738.815 169.719 729.377 158.031 729.002 157.094C728.702 156.344 723.21 133.406 720.502 122.031L716.94 100.719L711.127 86.156C712.127 86.9685 714.252 87.281 714.689 84.156C718.377 95.156 724.939 99.031 731.69 99.031C722.064 110.281 733.689 120.781 739.065 120.094C735.439 126.656 741.814 133.031 745.877 132.156C734.814 148.656 754.814 162.594 761.815 155.844C767.127 164.406 777.564 161.906 778.939 155.844Z" fill="#9853F7"/>
<path d="M693.252 156.781C699.189 166.719 720.202 162.615 715.564 143.906C717.522 144.052 721.527 144.369 721.877 144.469C722.314 144.594 722.814 152.656 721.877 155.781C720.939 158.906 719.064 168.281 718.502 168.844C717.939 169.406 677.627 171.531 675.689 171.718C674.139 171.868 662.543 169.031 656.939 167.593L654.939 148.968C655.252 147.823 656.864 145.118 660.814 143.468C654.939 165.594 677.752 164.281 680.939 159.281C684.752 164.093 692.814 161.844 693.252 156.781Z" fill="#9853F7"/>
</g>
<path fill-rule="evenodd" clip-rule="evenodd" d="M100.722 42.4449C104.29 46.9996 109.84 49.9266 116.075 49.9266C126.839 49.9266 135.565 41.2003 135.565 30.4358C135.565 26.1002 134.15 22.0951 131.756 18.8578C133.057 17.5256 133.858 15.7037 133.858 13.6946C133.858 9.61312 130.55 6.30444 126.468 6.30444C124.618 6.30444 122.927 6.98411 121.631 8.10734C120.301 6.15158 118.058 4.86694 115.515 4.86694C112.368 4.86694 109.681 6.83375 108.615 9.60513C106.038 6.23564 101.976 4.06226 97.406 4.06226C92.8752 4.06226 88.8434 6.19881 86.2631 9.51937C83.6821 6.66234 79.9481 4.86694 75.7947 4.86694C70.9079 4.86694 66.6016 7.35239 64.071 11.1281C63.8744 7.62855 60.9743 4.85132 57.4256 4.85132C54.9582 4.85132 52.8045 6.19381 51.6549 8.18819C49.1973 6.1066 46.0176 4.85132 42.5447 4.85132C38.3928 4.85132 34.6599 6.64545 32.079 9.50073C28.8103 7.02393 24.7362 5.55444 20.3189 5.55444C9.55443 5.55444 0.828125 14.2808 0.828125 25.0452C0.828125 30.9062 3.41505 36.1629 7.50937 39.7359C5.88443 42.0341 4.92969 44.8399 4.92969 47.8687C4.92969 52.1087 6.80073 55.9116 9.76219 58.497C7.52605 60.3492 6.10156 63.1469 6.10156 66.2774C6.10156 69.3438 7.46834 72.091 9.62593 73.9429C6.1215 76.5088 3.8457 80.6535 3.8457 85.3296C3.8457 89.8225 5.94657 93.8246 9.21951 96.4073C8.36357 97.4748 7.85156 98.8299 7.85156 100.305C7.85156 101.807 8.38284 103.185 9.26775 104.261C4.29867 106.443 0.828125 111.407 0.828125 117.181C0.828125 124.97 7.14239 131.284 14.9314 131.284L14.9831 131.284C8.98784 134.608 4.92969 141.001 4.92969 148.342C4.92969 159.107 13.656 167.833 24.4204 167.833C29.899 167.833 34.8496 165.572 38.3906 161.933C40.9378 165.597 45.178 167.995 49.9783 167.995C54.5936 167.995 58.6911 165.778 61.264 162.351C62.1048 165.509 64.9836 167.835 68.4058 167.835C70.7785 167.835 72.8901 166.716 74.2422 164.978C77.8091 169.55 83.3702 172.489 89.6177 172.489C98.2388 172.489 105.553 166.892 108.123 159.133C110.026 164.672 115.281 168.652 121.465 168.652C129.254 168.652 135.568 162.337 135.568 154.548C135.568 151.186 134.391 148.098 132.427 145.674C134.413 142.621 135.567 138.975 135.567 135.061C135.567 124.296 126.841 115.57 116.077 115.57C108.682 115.57 102.249 119.688 98.9461 125.756C96.4043 122.053 92.1409 119.625 87.3103 119.625C82.1861 119.625 77.7002 122.358 75.2305 126.445C72.6514 123.105 68.6072 120.953 64.0603 120.953C62.5498 120.953 61.0947 121.19 59.7304 121.63C60.075 120.409 60.2593 119.121 60.2593 117.791C60.2593 114.691 59.2592 111.824 57.5641 109.497C57.81 109.515 58.0584 109.524 58.3089 109.524C62.2184 109.524 65.609 107.302 67.287 104.052C68.9504 105.258 70.9958 105.969 73.2073 105.969C76.1027 105.969 78.7134 104.751 80.5547 102.798C84.1284 106.921 89.4035 109.528 95.2876 109.528C100.647 109.528 105.501 107.365 109.025 103.864C111.513 106.065 114.784 107.402 118.367 107.402C126.156 107.402 132.47 101.087 132.47 93.2984C132.47 89.289 130.797 85.6704 128.111 83.1026C129.075 81.1938 129.619 79.0361 129.619 76.7515C129.619 68.9625 123.304 62.6482 115.515 62.6482C111.3 62.6482 107.517 64.4972 104.933 67.4283C103.115 64.7643 100.055 63.0154 96.5862 63.0154C92.3881 63.0154 88.7883 65.5773 87.2649 69.223C85.4881 67.0865 82.8097 65.7263 79.8137 65.7263C76.4558 65.7263 73.497 67.4349 71.7591 70.0301C69.2029 66.4372 65.0049 64.0935 60.2595 64.0935C60.2005 64.0935 60.1414 64.0939 60.0825 64.0946C61.4948 61.8979 62.314 59.2836 62.314 56.4781C62.314 52.4678 60.6402 48.8484 57.9531 46.2805C58.8224 44.0712 59.2999 41.6647 59.2999 39.1468C59.2999 39.0286 59.2988 38.9106 59.2967 38.7929C62.2464 43.3492 67.3739 46.3641 73.2056 46.3641C78.6428 46.3641 83.4679 43.7433 86.4864 39.696C86.5082 43.7588 89.8085 47.0456 93.8765 47.0456C96.971 47.0456 99.6213 45.1436 100.722 42.4449Z" fill="#AD6EF9"/>
<path fill-rule="evenodd" clip-rule="evenodd" d="M563.69 7.23471C558.784 9.44685 555.24 13.4375 553.474 18.1016C551.569 16.2268 549.245 14.7158 546.575 13.7275C536.48 9.99036 525.267 15.1443 521.53 25.2392C519.497 30.7321 520.096 36.556 522.691 41.3265C520.371 42.9175 518.504 45.2159 517.453 48.054C515.977 52.041 516.418 56.269 518.31 59.7269C515.562 60.6845 513.248 62.8166 512.158 65.7588C511.096 68.6295 511.421 71.6748 512.795 74.1583C508.622 75.3497 505.052 78.4452 503.43 82.8275C501.872 87.0364 502.45 91.514 504.617 95.0705C503.448 95.7746 502.5 96.8656 501.99 98.245C501.465 99.6614 501.488 101.147 501.952 102.469C496.531 102.786 491.549 106.237 489.543 111.656C486.839 118.96 490.568 127.074 497.873 129.778L497.935 129.801C491.153 130.833 485.121 135.421 482.571 142.309C478.834 152.404 483.988 163.617 494.083 167.355C499.963 169.532 506.223 168.692 511.163 165.616C513.114 167.496 515.477 169.013 518.18 170.014C528.665 173.896 540.312 168.542 544.194 158.057C545.232 155.252 545.61 152.363 545.405 149.562C549.259 152.478 554.545 153.252 559.261 151.126C562.375 149.721 564.706 147.293 566.035 144.418C570.483 146.96 576.044 147.409 581.071 145.142C582.771 144.376 584.279 143.357 585.57 142.151C588.172 143.832 591.148 144.877 594.238 145.186C592.258 149.978 592.183 155.545 594.483 160.644C598.908 170.457 610.45 174.824 620.263 170.399C622.973 169.177 625.268 167.412 627.076 165.291C630.82 170.32 637.678 172.254 643.628 169.571C650.499 166.472 653.557 158.391 650.458 151.52C649.107 148.523 646.806 146.251 644.072 144.9C645.357 140.573 645.154 135.783 643.153 131.346C641.24 127.103 637.997 123.879 634.138 121.942C635.528 118.499 635.564 114.516 633.917 110.864C631.81 106.191 627.472 103.225 622.729 102.655C624.714 98.9313 625.012 94.3603 623.143 90.2157C621.72 87.0602 619.28 84.6828 616.385 83.2963C617.504 80.8318 617.597 77.9161 616.397 75.2548C615.497 73.2586 614.008 71.7131 612.228 70.7307C615.121 65.979 615.697 59.9276 613.237 54.4732C610.803 49.0741 605.96 45.5168 600.55 44.4976C604.516 40.6048 605.847 34.5065 603.429 29.1454C601.126 24.0384 596.07 21.0379 590.804 21.1065C590.775 20.9625 590.743 20.8187 590.711 20.675C593.566 18.6794 594.69 14.8748 593.206 11.5833C591.528 7.86271 587.152 6.20669 583.431 7.88453C582.994 8.08168 582.586 8.31608 582.207 8.58229C576.847 5.15998 569.92 4.42523 563.69 7.23471ZM560.077 65.7748C562.52 70.3765 567.29 73.0588 572.255 73.0144C571.812 76.0363 572.199 79.2161 573.548 82.2068C575.107 85.665 577.707 88.3271 580.811 89.99C577.68 89.9219 574.485 90.5341 571.44 91.9075C566.328 94.2127 562.544 98.2536 560.471 103.02C557.888 99.9681 554.457 97.8317 550.701 96.8094C557.273 91.3473 559.683 81.9795 555.999 73.8103C555.337 72.3425 554.516 70.9966 553.566 69.7837C554.238 69.5982 554.904 69.3586 555.56 69.063C557.333 68.2634 558.852 67.1318 560.077 65.7748Z" fill="#AD6EF9"/>
<mask id="mask5_6_1540" style="mask-type:alpha" maskUnits="userSpaceOnUse" x="0" y="4" width="136" height="169">
<path fill-rule="evenodd" clip-rule="evenodd" d="M100.722 42.4449C104.29 46.9996 109.84 49.9266 116.075 49.9266C126.839 49.9266 135.565 41.2003 135.565 30.4358C135.565 26.1002 134.15 22.0951 131.756 18.8578C133.057 17.5256 133.858 15.7037 133.858 13.6946C133.858 9.61312 130.55 6.30444 126.468 6.30444C124.618 6.30444 122.927 6.98411 121.631 8.10734C120.301 6.15158 118.058 4.86694 115.515 4.86694C112.368 4.86694 109.681 6.83375 108.615 9.60513C106.038 6.23564 101.976 4.06226 97.406 4.06226C92.8752 4.06226 88.8434 6.19881 86.2631 9.51937C83.6821 6.66234 79.9481 4.86694 75.7947 4.86694C70.9079 4.86694 66.6016 7.35239 64.071 11.1281C63.8744 7.62855 60.9743 4.85132 57.4256 4.85132C54.9582 4.85132 52.8045 6.19381 51.6549 8.18819C49.1973 6.1066 46.0176 4.85132 42.5447 4.85132C38.3928 4.85132 34.6599 6.64545 32.079 9.50073C28.8103 7.02393 24.7362 5.55444 20.3189 5.55444C9.55443 5.55444 0.828125 14.2808 0.828125 25.0452C0.828125 30.9062 3.41505 36.1629 7.50937 39.7359C5.88443 42.0341 4.92969 44.8399 4.92969 47.8687C4.92969 52.1087 6.80073 55.9116 9.76219 58.497C7.52605 60.3492 6.10156 63.1469 6.10156 66.2774C6.10156 69.3438 7.46834 72.091 9.62593 73.9429C6.1215 76.5088 3.8457 80.6535 3.8457 85.3296C3.8457 89.8225 5.94657 93.8246 9.21951 96.4073C8.36357 97.4748 7.85156 98.8299 7.85156 100.305C7.85156 101.807 8.38284 103.185 9.26775 104.261C4.29867 106.443 0.828125 111.407 0.828125 117.181C0.828125 124.97 7.14239 131.284 14.9314 131.284L14.9831 131.284C8.98784 134.608 4.92969 141.001 4.92969 148.342C4.92969 159.107 13.656 167.833 24.4204 167.833C29.899 167.833 34.8496 165.572 38.3906 161.933C40.9378 165.597 45.178 167.995 49.9783 167.995C54.5936 167.995 58.6911 165.778 61.264 162.351C62.1048 165.509 64.9836 167.835 68.4058 167.835C70.7785 167.835 72.8901 166.716 74.2422 164.978C77.8091 169.55 83.3702 172.489 89.6177 172.489C98.2388 172.489 105.553 166.892 108.123 159.133C110.026 164.672 115.281 168.652 121.465 168.652C129.254 168.652 135.568 162.337 135.568 154.548C135.568 151.186 134.391 148.098 132.427 145.674C134.413 142.621 135.567 138.975 135.567 135.061C135.567 124.296 126.841 115.57 116.077 115.57C108.682 115.57 102.249 119.688 98.9461 125.756C96.4043 122.053 92.1409 119.625 87.3103 119.625C82.1861 119.625 77.7002 122.358 75.2305 126.445C72.6514 123.105 68.6072 120.953 64.0603 120.953C62.5498 120.953 61.0947 121.19 59.7304 121.63C60.075 120.409 60.2593 119.121 60.2593 117.791C60.2593 114.691 59.2592 111.824 57.5641 109.497C57.81 109.515 58.0584 109.524 58.3089 109.524C62.2184 109.524 65.609 107.302 67.287 104.052C68.9504 105.258 70.9958 105.969 73.2073 105.969C76.1027 105.969 78.7134 104.751 80.5547 102.798C84.1284 106.921 89.4035 109.528 95.2876 109.528C100.647 109.528 105.501 107.365 109.025 103.864C111.513 106.065 114.784 107.402 118.367 107.402C126.156 107.402 132.47 101.087 132.47 93.2984C132.47 89.289 130.797 85.6704 128.111 83.1026C129.075 81.1938 129.619 79.0361 129.619 76.7515C129.619 68.9625 123.304 62.6482 115.515 62.6482C111.3 62.6482 107.517 64.4972 104.933 67.4283C103.115 64.7643 100.055 63.0154 96.5862 63.0154C92.3881 63.0154 88.7883 65.5773 87.2649 69.223C85.4881 67.0865 82.8097 65.7263 79.8137 65.7263C76.4558 65.7263 73.497 67.4349 71.7591 70.0301C69.2029 66.4372 65.0049 64.0935 60.2595 64.0935C60.2005 64.0935 60.1414 64.0939 60.0825 64.0946C61.4948 61.8979 62.314 59.2836 62.314 56.4781C62.314 52.4678 60.6402 48.8484 57.9531 46.2805C58.8224 44.0712 59.2999 41.6647 59.2999 39.1468C59.2999 39.0286 59.2988 38.9106 59.2967 38.7929C62.2464 43.3492 67.3739 46.3641 73.2056 46.3641C78.6428 46.3641 83.4679 43.7433 86.4864 39.696C86.5082 43.7588 89.8085 47.0456 93.8765 47.0456C96.971 47.0456 99.6213 45.1436 100.722 42.4449Z" fill="#AD6EF9"/>
</mask>
<g mask="url(#mask5_6_1540)">
<path d="M19.3477 158.406C10.5352 155.344 6.97266 148.719 6.97266 139.906L2.91016 140.594C1.70182 143.989 -0.714844 150.869 -0.714844 151.219C-0.714844 151.569 0.826823 161.031 1.59766 165.719C10.0977 167.844 27.2227 172.106 27.7227 172.156C28.3477 172.219 75.4102 179.219 75.8477 179.844C76.2852 180.469 121.91 173.656 127.598 173.406C132.148 173.206 140.118 155.864 143.535 147.219L133.723 145.781C134.262 145.878 134.598 156.006 125.848 160.656C117.098 165.306 110.077 155.469 107.66 149.969C107.66 149.969 102.973 159.906 93.5352 161.906C83.0095 164.137 77.4518 159.781 75.4102 156.844C74.7643 158.239 72.6409 161.247 69.3477 161.906C65.3477 162.706 62.3477 156.781 61.7852 153.656C61.7852 153.656 57.8477 160.406 50.2852 160.406C44.4912 160.406 40.2435 157.073 38.5977 154.094C33.5977 158.406 26.7953 160.994 19.3477 158.406Z" fill="#9853F7"/>
<path d="M51.0352 103.094C54.2018 105.198 61.7977 107.569 66.8477 100.219C70.5977 101.531 75.8477 103.656 80.7227 99.0935C83.0352 102.531 88.9727 106.344 98.1602 103.906C105.51 101.956 108.139 95.8852 108.535 93.0935C111.681 97.2185 119.535 101.594 126.535 96.656C130.847 93.6144 132.037 90.5304 131.955 88.1197L130.098 83.8435C130.87 84.4611 131.885 86.0397 131.955 88.1197L137.348 100.531C135.702 103.406 132.273 109.194 131.723 109.344C131.173 109.494 121.16 111.281 116.223 112.156C105.848 112.844 84.3352 114.156 81.2852 113.906C78.2352 113.656 64.931 111.385 58.6602 110.281C56.5768 110.114 52.1352 108.444 51.0352 103.094Z" fill="#9853F7"/>
<path d="M4.2236 131.656C15.1236 133.806 20.7236 129.969 22.1611 127.781C8.21186 130.181 0.890587 118.614 -1.0264 112.531C-3.81806 118.01 -6.67639 129.506 4.2236 131.656Z" fill="#9853F7"/>
<path d="M88.3477 30.6248C82.5977 42.781 63.8477 40.156 57.9727 34.4998C58.5727 40.7748 64.3893 45.8852 66.0977 47.906C86.306 51.1143 125.373 57.831 128.973 57.031C132.573 56.231 137.056 47.1977 138.848 42.781C139.681 38.031 139.848 27.256 133.848 22.156C136.723 50.156 102.723 47.406 100.691 36.8123C93.4102 42.2498 86.7227 36.8123 88.3477 30.6248Z" fill="#9853F7"/>
<path d="M73.3477 62.0311C66.2477 63.6311 54.8477 62.0311 49.9727 72.031C60.5977 64.6561 70.9727 70.5311 72.3477 78.5916C73.5977 70.281 84.5977 70.281 87.9102 74.7166C89.8477 67.781 100.848 66.281 105.285 73.3416C108.473 62.8415 131.723 65.781 129.473 80.9666L134.035 62.8415L133.475 62.8165C113.79 61.9377 80.3804 60.4463 73.3477 62.0311Z" fill="#CEA6FF"/>
<path d="M16.7227 12.531C4.52266 14.031 1.22266 18.281 1.22266 30.906C-0.360677 25.406 -4.60158 13.031 -4.90158 12.531C-5.27658 11.906 0.223418 1.65601 0.223418 1.15601C0.223418 0.656006 80.2234 -7.09399 84.4734 -7.09399C87.8734 -7.09399 110.807 -2.67733 121.848 -0.468994C126.265 2.07267 135.173 8.73101 135.473 15.031C132.848 4.28101 123.223 9.03101 121.848 15.031C120.223 10.781 111.848 8.28101 108.348 13.906C101.723 8.78095 91.5984 10.7809 86.4734 15.7809C80.8477 6.28101 68.4727 7.90601 63.4734 13.906C59.8484 10.1559 53.0977 9.40601 52.0984 16.7811C48.4264 7.1133 32.7744 9.66592 33.4098 26.5502C33.4627 26.9668 33.4834 27.3393 33.4734 27.6561C33.4445 27.2808 33.4234 26.9122 33.4098 26.5502C32.8019 21.7612 27.9464 11.151 16.7227 12.531Z" fill="#CEA6FF"/>
<path d="M70.6602 119.529C60.6602 120.179 53.056 123.885 51.9727 126.031C65.2852 123.469 75.2227 130.967 76.7227 135.279C85.0352 125.029 97.3477 130.154 99.6602 133.967C106.598 115.342 138.723 116.781 134.16 144.217L138.723 139.404C136.202 131.362 131.06 115.292 130.66 115.342C130.26 115.392 111.702 112.448 101.848 112.906C96.0352 113.552 80.6602 118.879 70.6602 119.529Z" fill="#CEA6FF"/>
</g>
<path d="M284.896 38.3541C290.21 38.8625 293.003 42.0706 293.734 43.6111C287.495 38.2499 279.08 40.1064 275.653 41.7047C276.519 40.376 279.581 37.8457 284.896 38.3541Z" fill="#CEA6FF"/>
<path d="M50.1457 42.2069C55.4605 42.7153 58.2526 45.9234 58.9844 47.4639C52.7453 42.1027 44.3303 43.9591 40.9026 45.5575C41.7692 44.2288 44.8309 41.6985 50.1457 42.2069Z" fill="#CEA6FF"/>
<path d="M673.766 133.458C668.452 132.95 665.659 129.741 664.928 128.201C671.167 133.562 679.582 131.706 683.009 130.107C682.143 131.436 679.081 133.966 673.766 133.458Z" fill="#9853F7"/>
<path d="M900.516 152.09C895.202 151.582 892.409 148.374 891.678 146.833C897.917 152.195 906.332 150.338 909.759 148.74C908.893 150.069 905.831 152.599 900.516 152.09Z" fill="#9853F7"/>
<path d="M457.114 83.5599C462.429 84.0683 465.221 87.2764 465.953 88.8169C459.714 83.4557 451.299 85.3122 447.871 86.9105C448.738 85.5818 451.8 83.0516 457.114 83.5599Z" fill="#CEA6FF"/>
<path d="M623.128 102.522C628.443 103.03 631.235 106.239 631.967 107.779C625.728 102.418 617.313 104.274 613.885 105.873C614.752 104.544 617.813 102.014 623.128 102.522Z" fill="#CEA6FF"/>
<path d="M87.3508 14.3981C92.6655 14.9064 95.4577 18.1145 96.1895 19.6551C89.9504 14.2939 81.5353 16.1503 78.1077 17.7487C78.9742 16.42 82.036 13.8897 87.3508 14.3981Z" fill="#CEA6FF"/>
<path d="M120.415 77.6449C125.261 78.0411 127.305 81.6417 127.973 82.8423C122.284 78.6642 114.612 80.111 111.487 81.3566C112.277 80.3211 115.569 77.2487 120.415 77.6449Z" fill="#CEA6FF"/>
<path d="M44.2667 102.284C50.5636 102.862 55.6088 101.495 57.207 99.9158C56.6101 101.784 52.5046 105.854 45.0177 104.884C37.5309 103.913 35.3895 98.7412 34.7348 96.5652C35.197 97.6821 37.5089 101.664 44.2667 102.284Z" fill="#9853F7"/>
<path d="M244.223 118.531C248.962 122.717 254.086 122.919 256.308 122.589C254.723 123.743 247.191 125.987 241.723 120.781C236.255 115.575 239.397 108.754 240.154 106.611C239.867 107.785 239.136 114.039 244.223 118.531Z" fill="#9853F7"/>
<path d="M288.606 86.0814C282.309 85.5037 278.055 88.3668 276.457 89.9458C277.054 88.0779 281.807 81.8187 289.294 82.7892C296.781 83.7597 298.275 91.1204 298.929 93.2964C298.467 92.1795 295.363 86.7014 288.606 86.0814Z" fill="#9853F7"/>
<path d="M12.846 58.3173C16.8005 58.6801 19.9689 57.8215 20.9727 56.8298C20.5978 58.0029 18.0195 60.5594 13.3176 59.9499C8.61577 59.3404 7.271 56.0921 6.85983 54.7256C7.15007 55.427 8.60196 57.9279 12.846 58.3173Z" fill="#9853F7"/>
<path d="M80.7667 98.0512C87.0636 98.6289 92.1088 97.2617 93.707 95.6826C93.1101 97.5505 89.0046 101.621 81.5177 100.651C74.0309 99.6803 71.8895 94.508 71.2348 92.332C71.697 93.4489 74.0089 97.4312 80.7667 98.0512Z" fill="#9853F7"/>
<path d="M279.634 79.8912C275.209 79.4853 272.221 81.497 271.098 82.6066C271.517 81.2941 274.857 76.8959 280.118 77.5778C285.378 78.2598 286.428 83.4319 286.888 84.9609C286.563 84.1761 284.383 80.3268 279.634 79.8912Z" fill="#9853F7"/>
<path d="M278.894 152.463C283.65 153.111 286.863 149.902 288.07 148.131C287.619 150.225 284.03 157.242 278.375 156.154C272.72 155.066 271.591 146.815 271.097 144.375C271.446 145.627 273.79 151.768 278.894 152.463Z" fill="#9853F7"/>
<path d="M25.0167 57.6559C31.3136 58.2336 36.3588 56.8664 37.957 55.2874C37.3601 57.1552 33.2546 61.226 25.7677 60.2555C18.2809 59.285 16.1395 54.1127 15.4848 51.9368C15.947 53.0536 18.2589 57.0359 25.0167 57.6559Z" fill="#9853F7"/>
<path d="M714.438 53.281C709.698 49.0954 704.575 48.8931 702.352 49.2232C703.937 48.0686 711.47 45.8255 716.937 51.031C722.405 56.2365 719.263 63.0583 718.506 65.2008C718.793 64.0266 719.524 57.7731 714.438 53.281Z" fill="#CEA6FF"/>
<path d="M670.057 85.7306C676.353 86.3083 680.607 83.4453 682.205 81.8662C681.608 83.7341 676.855 89.9934 669.368 89.0228C661.881 88.0523 660.388 80.6916 659.733 78.5156C660.195 79.6325 663.299 85.1106 670.057 85.7306Z" fill="#9853F7"/>
<path d="M513.057 96.3392C519.353 96.9169 523.607 94.0539 525.205 92.4749C524.608 94.3427 519.855 100.602 512.368 99.6315C504.881 98.661 503.388 91.3002 502.733 89.1243C503.195 90.2411 506.299 95.7192 513.057 96.3392Z" fill="#9853F7"/>
<path d="M513.057 151.481C519.353 152.058 523.607 149.195 525.205 147.616C524.608 149.484 519.855 155.743 512.368 154.773C504.881 153.802 503.388 146.442 502.733 144.266C503.195 145.382 506.299 150.861 513.057 151.481Z" fill="#9853F7"/>
<path d="M998.277 97.3055C1004.57 97.7056 1008.83 95.7226 1010.43 94.629C1009.83 95.9227 1005.08 100.258 997.589 99.5857C990.102 98.9135 988.608 93.8154 987.954 92.3083C988.416 93.0819 991.519 96.8761 998.277 97.3055Z" fill="#9853F7"/>
<path d="M1016.56 156.71C1022.86 157.288 1027.11 154.425 1028.71 152.846C1028.11 154.714 1023.36 160.973 1015.87 160.003C1008.39 159.032 1006.89 151.671 1006.24 149.495C1006.7 150.612 1009.8 156.09 1016.56 156.71Z" fill="#9853F7"/>
<path d="M861.531 105.39C867.828 105.968 872.081 103.105 873.68 101.526C873.083 103.394 868.33 109.653 860.843 108.682C853.356 107.712 851.862 100.351 851.207 98.175C851.67 99.2919 854.773 104.77 861.531 105.39Z" fill="#9853F7"/>
<path d="M195.247 99.8745C201.493 98.8858 204.911 95.0646 206.072 93.141C205.953 95.0983 202.885 102.334 195.39 103.235C187.894 104.136 184.636 97.3683 183.466 95.4202C184.189 96.3891 188.544 100.936 195.247 99.8745Z" fill="#9853F7"/>
<path d="M180.824 17.7445C174.527 17.1668 170.274 20.0298 168.676 21.6089C169.273 19.741 174.026 13.4817 181.513 14.4523C188.999 15.4228 190.493 22.7835 191.148 24.9595C190.686 23.8426 187.582 18.3645 180.824 17.7445Z" fill="#CEA6FF"/>
<path d="M328.711 138.681C334.97 139.584 339.366 136.945 341.043 135.451C340.351 137.285 335.28 143.29 327.854 141.934C320.427 140.577 319.316 133.149 318.775 130.942C319.178 132.081 321.995 137.713 328.711 138.681Z" fill="#9853F7"/>
<path d="M679.028 91.9208C683.453 92.3267 686.441 90.315 687.564 89.2055C687.145 90.5179 683.805 94.9161 678.544 94.2342C673.284 93.5522 672.234 88.3801 671.774 86.8511C672.099 87.6359 674.279 91.4852 679.028 91.9208Z" fill="#9853F7"/>
<path d="M452.461 109.64C458.72 110.543 463.116 107.903 464.793 106.409C464.101 108.244 459.03 114.249 451.604 112.892C444.177 111.536 443.066 104.108 442.525 101.901C442.928 103.04 445.745 108.671 452.461 109.64Z" fill="#9853F7"/>
<path d="M619.461 128.007C625.72 128.91 630.116 126.271 631.793 124.777C631.101 126.611 626.03 132.616 618.604 131.26C611.177 129.903 610.066 122.475 609.525 120.268C609.928 121.407 612.745 127.039 619.461 128.007Z" fill="#9853F7"/>
<path d="M1008.94 106.276C1013.36 106.682 1016.35 104.67 1017.47 103.561C1017.05 104.873 1013.71 109.271 1008.45 108.589C1003.19 107.907 1002.14 102.735 1001.68 101.206C1002.01 101.991 1004.19 105.84 1008.94 106.276Z" fill="#9853F7"/>
<path d="M189.444 150.44C195.741 151.018 200.786 149.651 202.385 148.072C201.788 149.94 197.682 154.01 190.195 153.04C182.709 152.069 180.567 146.897 179.913 144.721C180.375 145.838 182.687 149.82 189.444 150.44Z" fill="#9853F7"/>
<path d="M161.77 63.1032C166.796 63.6809 170.822 62.3137 172.098 60.7346C171.621 62.6025 168.345 66.6733 162.369 65.7028C156.394 64.7323 154.685 59.56 154.163 57.384C154.531 58.5009 156.377 62.4832 161.77 63.1032Z" fill="#9853F7"/>
<path d="M679.768 19.3487C675.012 18.7011 671.799 21.9105 670.592 23.6805C671.043 21.5867 674.633 14.5702 680.287 15.6581C685.942 16.746 687.071 24.9973 687.565 27.4365C687.216 26.1845 684.872 20.0436 679.768 19.3487Z" fill="#CEA6FF"/>
<path d="M556.679 28.9018C551.923 28.3735 548.71 30.9918 547.503 32.4358C547.954 30.7276 551.544 25.0035 557.199 25.891C562.854 26.7786 563.982 33.5101 564.476 35.5C564.127 34.4786 561.783 29.4688 556.679 28.9018Z" fill="#CEA6FF"/>
<path d="M1059.43 77.8181C1054.67 77.1705 1051.46 80.38 1050.25 82.15C1050.7 80.0562 1054.29 73.0396 1059.95 74.1276C1065.6 75.2155 1066.73 83.4668 1067.23 85.906C1066.88 84.654 1064.53 78.5131 1059.43 77.8181Z" fill="#CEA6FF"/>
<path d="M1090.96 22.0604C1086.2 21.6299 1082.99 23.7633 1081.78 24.9399C1082.23 23.548 1085.82 18.884 1091.48 19.6072C1097.13 20.3304 1098.26 25.8151 1098.75 27.4365C1098.41 26.6043 1096.06 22.5224 1090.96 22.0604Z" fill="#CEA6FF"/>
<path d="M381.851 99.0775C386.249 99.7117 389.338 97.8572 390.517 96.8073C390.03 98.0963 386.467 102.316 381.249 101.363C376.03 100.41 375.25 95.19 374.869 93.6393C375.153 94.4398 377.132 98.3968 381.851 99.0775Z" fill="#9853F7"/>
<path d="M348.584 153.445C352.982 154.079 356.07 152.224 357.249 151.174C356.763 152.464 353.2 156.683 347.981 155.73C342.763 154.777 341.982 149.557 341.602 148.006C341.885 148.807 343.864 152.764 348.584 153.445Z" fill="#9853F7"/>
<path d="M439.084 153.445C443.482 154.079 446.57 152.224 447.749 151.174C447.263 152.464 443.7 156.683 438.481 155.73C433.263 154.777 432.482 149.557 432.102 148.006C432.385 148.807 434.364 152.764 439.084 153.445Z" fill="#9853F7"/>
<path d="M763.413 71.9375C757.168 72.9262 753.749 76.7474 752.588 78.671C752.707 76.7137 755.775 69.4778 763.27 68.5771C770.766 67.6765 774.024 74.4437 775.194 76.3918C774.471 75.4229 770.116 70.8764 763.413 71.9375Z" fill="#CEA6FF"/>
<path d="M792.825 109.328C786.58 110.316 783.161 114.138 782 116.061C782.119 114.104 785.187 106.868 792.682 105.967C800.178 105.067 803.436 111.834 804.606 113.782C803.884 112.813 799.528 108.267 792.825 109.328Z" fill="#CEA6FF"/>
<path d="M1014.29 20.7815C1008.05 21.7702 1004.63 25.5914 1003.47 27.515C1003.59 25.5577 1006.65 18.3217 1014.15 17.4211C1021.64 16.5205 1024.9 23.2877 1026.07 25.2358C1025.35 24.2669 1020.99 19.7204 1014.29 20.7815Z" fill="#CEA6FF"/>
<path d="M865.733 22.6365C859.488 23.6252 856.069 27.4464 854.908 29.37C855.028 27.4127 858.095 20.1767 865.591 19.2761C873.086 18.3755 876.345 25.1427 877.514 27.0908C876.792 26.1219 872.436 21.5754 865.733 22.6365Z" fill="#CEA6FF"/>
<path d="M777.838 154.068C784.135 154.645 788.388 151.782 789.986 150.203C789.389 152.071 784.636 158.33 777.15 157.36C769.663 156.389 768.169 149.029 767.514 146.853C767.976 147.969 771.08 153.448 777.838 154.068Z" fill="#9853F7"/>
<path d="M429.471 18.5831C423.174 18.0054 418.921 20.8685 417.322 22.4475C417.919 20.5796 422.672 14.3204 430.159 15.2909C437.646 16.2614 439.14 23.6221 439.794 25.7981C439.332 24.6812 436.229 19.2031 429.471 18.5831Z" fill="#CEA6FF"/>
<path d="M563.971 113.053C557.674 112.475 553.421 115.338 551.822 116.917C552.419 115.05 557.172 108.79 564.659 109.761C572.146 110.731 573.64 118.092 574.294 120.268C573.832 119.151 570.729 113.673 563.971 113.053Z" fill="#CEA6FF"/>
<path d="M112.017 150.095C118.314 150.672 123.359 149.305 124.957 147.726C124.36 149.594 120.255 153.665 112.768 152.694C105.281 151.724 103.14 146.551 102.485 144.375C102.947 145.492 105.259 149.475 112.017 150.095Z" fill="#9853F7"/>
<path d="M37.0031 153.65C43.2999 154.228 48.3451 152.86 49.9434 151.281C49.3464 153.149 45.241 157.22 37.7541 156.249C30.2672 155.279 28.1259 150.107 27.4712 147.931C27.9333 149.048 30.2452 153.03 37.0031 153.65Z" fill="#9853F7"/>
<path d="M769.216 21.3717C762.919 20.794 757.874 22.1612 756.275 23.7402C756.872 21.8723 760.978 17.8015 768.465 18.7721C775.952 19.7426 778.093 24.9148 778.748 27.0908C778.285 25.9739 775.974 21.9917 769.216 21.3717Z" fill="#CEA6FF"/>
<mask id="mask6_6_1540" style="mask-type:alpha" maskUnits="userSpaceOnUse" x="481" y="5" width="171" height="168">
<path fill-rule="evenodd" clip-rule="evenodd" d="M563.69 7.23471C558.784 9.44685 555.24 13.4375 553.474 18.1016C551.569 16.2268 549.245 14.7158 546.575 13.7275C536.48 9.99036 525.267 15.1443 521.53 25.2392C519.497 30.7321 520.096 36.556 522.691 41.3265C520.371 42.9175 518.504 45.2159 517.453 48.054C515.977 52.041 516.418 56.269 518.31 59.7269C515.562 60.6845 513.248 62.8166 512.158 65.7588C511.096 68.6295 511.421 71.6748 512.795 74.1583C508.622 75.3497 505.052 78.4452 503.43 82.8275C501.872 87.0364 502.45 91.514 504.617 95.0705C503.448 95.7746 502.5 96.8656 501.99 98.245C501.465 99.6614 501.488 101.147 501.952 102.469C496.531 102.786 491.549 106.237 489.543 111.656C486.839 118.96 490.568 127.074 497.873 129.778L497.935 129.801C491.153 130.833 485.121 135.421 482.571 142.309C478.834 152.404 483.988 163.617 494.083 167.355C499.963 169.532 506.223 168.692 511.163 165.616C513.114 167.496 515.477 169.013 518.18 170.014C528.665 173.896 540.312 168.542 544.194 158.057C545.232 155.252 545.61 152.363 545.405 149.562C549.259 152.478 554.545 153.252 559.261 151.126C562.375 149.721 564.706 147.293 566.035 144.418C570.483 146.96 576.044 147.409 581.071 145.142C582.771 144.376 584.279 143.357 585.57 142.151C588.172 143.832 591.148 144.877 594.238 145.186C592.258 149.978 592.183 155.545 594.483 160.644C598.908 170.457 610.45 174.824 620.263 170.399C622.973 169.177 625.268 167.412 627.076 165.291C630.82 170.32 637.678 172.254 643.628 169.571C650.499 166.472 653.557 158.391 650.458 151.52C649.107 148.523 646.806 146.251 644.072 144.9C645.357 140.573 645.154 135.783 643.153 131.346C641.24 127.103 637.997 123.879 634.138 121.942C635.528 118.499 635.564 114.516 633.917 110.864C631.81 106.191 627.472 103.225 622.729 102.655C624.714 98.9313 625.012 94.3603 623.143 90.2157C621.72 87.0602 619.28 84.6828 616.385 83.2963C617.504 80.8318 617.597 77.9161 616.397 75.2548C615.497 73.2586 614.008 71.7131 612.228 70.7307C615.121 65.979 615.697 59.9276 613.237 54.4732C610.803 49.0741 605.96 45.5168 600.55 44.4976C604.516 40.6048 605.847 34.5065 603.429 29.1454C601.126 24.0384 596.07 21.0379 590.804 21.1065C590.775 20.9625 590.743 20.8187 590.711 20.675C593.566 18.6794 594.69 14.8748 593.206 11.5833C591.528 7.86271 587.152 6.20669 583.431 7.88453C582.994 8.08168 582.586 8.31608 582.207 8.58229C576.847 5.15998 569.92 4.42523 563.69 7.23471ZM560.077 65.7748C562.52 70.3765 567.29 73.0588 572.255 73.0144C571.812 76.0363 572.199 79.2161 573.548 82.2068C575.107 85.665 577.707 88.3271 580.811 89.99C577.68 89.9219 574.485 90.5341 571.44 91.9075C566.328 94.2127 562.544 98.2536 560.471 103.02C557.888 99.9681 554.457 97.8317 550.701 96.8094C557.273 91.3473 559.683 81.9795 555.999 73.8103C555.337 72.3425 554.516 70.9966 553.566 69.7837C554.238 69.5982 554.904 69.3586 555.56 69.063C557.333 68.2634 558.852 67.1318 560.077 65.7748Z" fill="#AD6EF9"/>
</mask>
<g mask="url(#mask6_6_1540)">
<path d="M495.974 154.281C488.349 149.469 487.348 134.218 495.974 130.343C493.015 130.343 486.91 129.894 486.16 130.344C485.223 130.906 479.349 138.469 478.161 139.781C476.974 141.094 479.911 166.594 480.036 167.906C480.161 169.219 508.536 176.781 510.286 176.781C512.036 176.781 569.599 174.094 570.911 173.781C571.961 173.531 607.39 174.052 624.974 174.344C634.182 172.989 652.774 170.031 653.474 169.031C654.349 167.781 652.536 151.969 652.599 150.031C652.661 148.094 652.036 143.031 644.724 145.219C654.536 161.906 631.285 166.031 627.599 156.219C607.036 170.844 594.473 148.281 599.224 136.219C596.849 140.469 588.098 140.219 587.036 133.531C580.349 143.656 570.099 138.906 565.286 136.219C560.336 148.669 548.14 145.323 542.661 142.094C542.369 145.76 542.035 155.531 530.724 159.969C521.023 163.774 514.078 157.927 511.286 153.469C508.724 155.344 503.245 158.87 495.974 154.281Z" fill="#9853F7"/>
<path d="M557.848 98.4059C552.048 95.3059 544.556 97.4476 541.535 98.9059C555.098 97.9683 559.785 108.656 562.473 113.594C565.285 95.5935 581.723 91.4685 593.66 93.1559C577.723 86.7809 566.848 90.5309 557.848 98.4059Z" fill="#CEA6FF"/>
<path d="M536.597 19.9685C522.997 21.1685 521.056 34.1769 521.785 40.531C520.369 36.9269 517.523 29.6185 517.473 29.2185C517.411 28.7185 522.098 13.281 522.911 12.781C523.723 12.281 554.348 1.53104 555.911 1.15604C557.473 0.781041 591.036 4.09354 591.411 4.21854C591.711 4.31854 601.411 18.6352 606.223 25.781L607.598 44.2185C605.932 44.1352 601.361 44.2435 596.411 45.3435C607.098 28.0935 591.973 22.406 587.223 22.781C591.411 18.031 584.785 12.031 581.535 16.156C571.598 7.09351 555.035 16.156 554.348 28.0935C554.098 24.8852 550.197 18.7685 536.597 19.9685Z" fill="#CEA6FF"/>
<path d="M560.723 60.531C555.873 68.331 546.868 65.9477 542.973 63.781C554.723 71.906 556.285 70.8435 564.66 72.781C576.51 74.981 578.639 70.531 578.223 68.031C569.285 70.0935 561.223 65.406 560.723 60.531Z" fill="#9853F7"/>
</g>
</svg>
