<svg width="1514" height="1438" viewBox="0 0 1514 1438" fill="none" xmlns="http://www.w3.org/2000/svg">
<g clip-path="url(#clip0_77_2335)">
<path d="M303.564 -115.315C185.955 -147.987 51.6425 -109.48 -0.8125 -86.1432V1484.68H1525.21L1514.86 -149.16C1495.53 -161.218 1441.15 -181.832 1378.2 -167.83C1299.52 -150.327 1206.98 -94.3504 1123.76 -115.315C989.415 -149.16 800.506 -143.327 718.718 -107.15C636.929 -70.9727 601.729 -122.319 557.212 -129.32C512.694 -136.321 503.376 -98.9819 444.365 -107.15C385.353 -115.318 344.976 -125.816 303.564 -115.315Z" fill="url(#paint0_linear_77_2335)"/>
<path d="M1092.11 559.365L1087.11 574.365" stroke="#00D700" stroke-width="5" stroke-linecap="round"/>
<path d="M1100.36 559.365L1095.36 574.365" stroke="#00D700" stroke-width="5" stroke-linecap="round"/>
<path d="M118.109 127.926L113.109 142.926" stroke="#00D700" stroke-width="5" stroke-linecap="round"/>
<path d="M126.359 127.926L121.359 142.926" stroke="#00D700" stroke-width="5" stroke-linecap="round"/>
<path d="M1281.59 556.055L1276.59 571.055" stroke="#00D700" stroke-width="5" stroke-linecap="round"/>
<path d="M1294.84 550.918L1289.84 565.918" stroke="#00D700" stroke-width="5" stroke-linecap="round"/>
<path d="M406.109 454.088L401.109 469.088" stroke="#00D700" stroke-width="5" stroke-linecap="round"/>
<path d="M419.359 448.951L414.359 463.951" stroke="#00D700" stroke-width="5" stroke-linecap="round"/>
<path d="M533.309 287.578L528.309 302.578" stroke="#00D700" stroke-width="5" stroke-linecap="round"/>
<path d="M541.059 295.078L536.059 310.078" stroke="#00D700" stroke-width="5" stroke-linecap="round"/>
<path d="M554.109 287.578L549.109 302.578" stroke="#00D700" stroke-width="5" stroke-linecap="round"/>
<path d="M654.186 305.078L649.186 320.078" stroke="#00D700" stroke-width="5" stroke-linecap="round"/>
<path d="M980.844 282.098L975.844 297.098" stroke="#00D700" stroke-width="5" stroke-linecap="round"/>
<path d="M965.77 289.598L960.77 304.598" stroke="#00D700" stroke-width="5" stroke-linecap="round"/>
<path d="M307.586 124.617L302.586 139.617" stroke="#00D700" stroke-width="5" stroke-linecap="round"/>
<path d="M320.836 119.48L315.836 134.48" stroke="#00D700" stroke-width="5" stroke-linecap="round"/>
<path d="M266 -121.55C108.4 -151.15 -3 -109.216 -39 -84.5497C-43 -79.8834 -54.4 -50.1508 -68 31.4492C15 -89.5508 139 -100.55 266 -121.55Z" fill="#80FE80"/>
<path d="M1153.46 484.698C1146.74 474.935 1129.12 461.265 1112.45 484.698C1100.74 472.331 1084.46 487.951 1082.51 494.461" stroke="#00D700" stroke-width="5" stroke-linecap="round"/>
<path d="M1243.61 701.855C1250.33 692.091 1267.95 678.422 1284.62 701.855C1296.33 689.487 1312.61 705.108 1314.56 711.617" stroke="#00D700" stroke-width="5" stroke-linecap="round"/>
<path d="M831.357 311.618C834.613 306.892 843.14 300.276 851.205 311.618C856.876 305.632 864.752 313.192 865.697 316.343" stroke="#00D700" stroke-width="5" stroke-linecap="round"/>
<path d="M313.462 439.056C306.736 429.292 289.117 415.623 272.454 439.056C260.737 426.688 244.464 442.309 242.512 448.818" stroke="#00D700" stroke-width="5" stroke-linecap="round"/>
<path d="M323.511 690.503C330.237 680.739 347.855 667.07 364.519 690.503C376.235 678.136 392.508 693.756 394.461 700.265" stroke="#00D700" stroke-width="5" stroke-linecap="round"/>
<path d="M1260.34 306.581C1267.07 296.817 1284.69 283.148 1301.35 306.581C1313.07 294.214 1329.34 309.834 1331.29 316.343" stroke="#00D700" stroke-width="5" stroke-linecap="round"/>
<path d="M179.462 53.2589C172.736 43.4951 155.117 29.8259 138.454 53.2589C126.737 40.8915 110.464 56.5119 108.512 63.0211" stroke="#00D700" stroke-width="5" stroke-linecap="round"/>
<path d="M926.876 679.153C920.15 669.39 902.531 655.72 885.868 679.153C874.151 666.786 857.879 682.406 855.926 688.916" stroke="#00D700" stroke-width="5" stroke-linecap="round"/>
<path d="M1048.69 451.675C1048.4 449.133 1049.67 444.338 1057.07 445.488C1057.19 451.675 1052.51 452.362 1048.69 451.675Z" fill="#00D700"/>
<circle cx="1038.9" cy="458.488" r="4.40039" fill="#FEFEFE"/>
<circle cx="1046.53" cy="448.488" r="4.40039" fill="#FEFEFE"/>
<circle cx="1050.03" cy="455.738" r="4.40039" fill="#FEFEFE"/>
<ellipse cx="1039.34" cy="450.913" rx="4.62574" ry="4.4502" fill="#FEFEFE"/>
<ellipse cx="1045.63" cy="460.139" rx="3.96289" ry="3.8125" fill="#FEFEFE"/>
<ellipse cx="1043.97" cy="454.676" rx="3.96289" ry="3.8125" fill="#FFF43A"/>
<path d="M594.247 244.357C593.955 241.815 595.222 237.019 602.622 238.169C602.747 244.357 598.06 245.044 594.247 244.357Z" fill="#00D700"/>
<circle cx="584.459" cy="251.17" r="4.40039" fill="#FEFEFE"/>
<circle cx="592.084" cy="241.17" r="4.40039" fill="#FEFEFE"/>
<circle cx="595.584" cy="248.42" r="4.40039" fill="#FEFEFE"/>
<ellipse cx="584.897" cy="243.595" rx="4.62574" ry="4.4502" fill="#FEFEFE"/>
<ellipse cx="591.184" cy="252.82" rx="3.96289" ry="3.8125" fill="#FEFEFE"/>
<ellipse cx="589.523" cy="247.357" rx="3.96289" ry="3.8125" fill="#FFF43A"/>
<path d="M1220.38 623.192C1217.92 623.907 1212.98 623.465 1212.87 615.977C1218.95 614.813 1220.41 619.318 1220.38 623.192Z" fill="#00D700"/>
<circle cx="1228.74" cy="631.694" r="4.40039" transform="rotate(-99.6799 1228.74 631.694)" fill="#FEFEFE"/>
<circle cx="1217.6" cy="625.86" r="4.40039" transform="rotate(-99.6799 1217.6 625.86)" fill="#FEFEFE"/>
<circle cx="1224.16" cy="621.19" r="4.40039" transform="rotate(-99.6799 1224.16 621.19)" fill="#FEFEFE"/>
<ellipse cx="1221.2" cy="632.536" rx="4.62574" ry="4.4502" transform="rotate(-99.6799 1221.2 632.536)" fill="#FEFEFE"/>
<ellipse cx="1229.24" cy="624.789" rx="3.96289" ry="3.8125" transform="rotate(-99.6799 1229.24 624.789)" fill="#FEFEFE"/>
<ellipse cx="1224.13" cy="627.343" rx="3.96289" ry="3.8125" transform="rotate(-99.6799 1224.13 627.343)" fill="#FFF43A"/>
<path d="M344.902 521.225C342.445 521.94 337.505 521.498 337.394 514.01C343.472 512.846 344.938 517.351 344.902 521.225Z" fill="#00D700"/>
<circle cx="353.263" cy="529.727" r="4.40039" transform="rotate(-99.6799 353.263 529.727)" fill="#FEFEFE"/>
<circle cx="342.124" cy="523.893" r="4.40039" transform="rotate(-99.6799 342.124 523.893)" fill="#FEFEFE"/>
<circle cx="348.681" cy="519.223" r="4.40039" transform="rotate(-99.6799 348.681 519.223)" fill="#FEFEFE"/>
<ellipse cx="345.722" cy="530.569" rx="4.62574" ry="4.4502" transform="rotate(-99.6799 345.722 530.569)" fill="#FEFEFE"/>
<ellipse cx="353.759" cy="522.822" rx="3.96289" ry="3.8125" transform="rotate(-99.6799 353.759 522.822)" fill="#FEFEFE"/>
<ellipse cx="348.654" cy="525.377" rx="3.96289" ry="3.8125" transform="rotate(-99.6799 348.654 525.377)" fill="#FFF43A"/>
<path d="M1281.73 137.303C1279.28 138.018 1274.34 137.576 1274.23 130.088C1280.3 128.924 1281.77 133.429 1281.73 137.303Z" fill="#00D700"/>
<circle cx="1290.1" cy="145.805" r="4.40039" transform="rotate(-99.6799 1290.1 145.805)" fill="#FEFEFE"/>
<circle cx="1278.96" cy="139.971" r="4.40039" transform="rotate(-99.6799 1278.96 139.971)" fill="#FEFEFE"/>
<circle cx="1285.51" cy="135.302" r="4.40039" transform="rotate(-99.6799 1285.51 135.302)" fill="#FEFEFE"/>
<ellipse cx="1282.55" cy="146.647" rx="4.62574" ry="4.4502" transform="rotate(-99.6799 1282.55 146.647)" fill="#FEFEFE"/>
<ellipse cx="1290.59" cy="138.9" rx="3.96289" ry="3.8125" transform="rotate(-99.6799 1290.59 138.9)" fill="#FEFEFE"/>
<ellipse cx="1285.49" cy="141.455" rx="3.96289" ry="3.8125" transform="rotate(-99.6799 1285.49 141.455)" fill="#FFF43A"/>
<path d="M222.699 669.931C217.179 671.538 206.077 670.544 205.828 653.717C219.488 651.102 222.78 661.224 222.699 669.931Z" fill="#00D700"/>
<circle cx="241.489" cy="689.038" r="9.88864" transform="rotate(-99.6799 241.489 689.038)" fill="#FEFEFE"/>
<circle cx="216.458" cy="675.926" r="9.88864" transform="rotate(-99.6799 216.458 675.926)" fill="#FEFEFE"/>
<circle cx="231.193" cy="665.432" r="9.88864" transform="rotate(-99.6799 231.193 665.432)" fill="#FEFEFE"/>
<ellipse cx="224.542" cy="690.928" rx="10.395" ry="10.0006" transform="rotate(-99.6799 224.542 690.928)" fill="#FEFEFE"/>
<ellipse cx="242.604" cy="673.518" rx="8.90548" ry="8.56752" transform="rotate(-99.6799 242.604 673.518)" fill="#FEFEFE"/>
<ellipse cx="231.132" cy="679.26" rx="8.90548" ry="8.56752" transform="rotate(-99.6799 231.132 679.26)" fill="#FFF43A"/>
<path d="M74.6921 20.2356C74.4004 17.694 75.6671 12.8981 83.0671 14.0481C83.1921 20.2356 78.5053 20.9225 74.6921 20.2356Z" fill="#00D700"/>
<circle cx="64.9043" cy="27.0488" r="4.40039" fill="#FEFEFE"/>
<circle cx="72.5293" cy="17.0488" r="4.40039" fill="#FEFEFE"/>
<circle cx="76.0293" cy="24.2988" r="4.40039" fill="#FEFEFE"/>
<ellipse cx="65.3425" cy="19.4736" rx="4.62574" ry="4.4502" fill="#FEFEFE"/>
<ellipse cx="71.6289" cy="28.6992" rx="3.96289" ry="3.8125" fill="#FEFEFE"/>
<ellipse cx="69.9688" cy="23.2363" rx="3.96289" ry="3.8125" fill="#FFF43A"/>
<path d="M246.378 191.754C243.922 192.469 238.981 192.027 238.871 184.539C244.949 183.375 246.414 187.88 246.378 191.754Z" fill="#00D700"/>
<circle cx="254.74" cy="200.257" r="4.40039" transform="rotate(-99.6799 254.74 200.257)" fill="#FEFEFE"/>
<circle cx="243.601" cy="194.423" r="4.40039" transform="rotate(-99.6799 243.601 194.423)" fill="#FEFEFE"/>
<circle cx="250.158" cy="189.753" r="4.40039" transform="rotate(-99.6799 250.158 189.753)" fill="#FEFEFE"/>
<ellipse cx="247.198" cy="201.098" rx="4.62574" ry="4.4502" transform="rotate(-99.6799 247.198 201.098)" fill="#FEFEFE"/>
<ellipse cx="255.236" cy="193.351" rx="3.96289" ry="3.8125" transform="rotate(-99.6799 255.236 193.351)" fill="#FEFEFE"/>
<ellipse cx="250.13" cy="195.906" rx="3.96289" ry="3.8125" transform="rotate(-99.6799 250.13 195.906)" fill="#FFF43A"/>
<path d="M1159.53 286.009C1154.01 287.616 1142.91 286.622 1142.66 269.795C1156.32 267.18 1159.61 277.303 1159.53 286.009Z" fill="#00D700"/>
<circle cx="1178.32" cy="305.116" r="9.88864" transform="rotate(-99.6799 1178.32 305.116)" fill="#FEFEFE"/>
<circle cx="1153.29" cy="292.004" r="9.88864" transform="rotate(-99.6799 1153.29 292.004)" fill="#FEFEFE"/>
<circle cx="1168.02" cy="281.51" r="9.88864" transform="rotate(-99.6799 1168.02 281.51)" fill="#FEFEFE"/>
<ellipse cx="1161.37" cy="307.006" rx="10.395" ry="10.0006" transform="rotate(-99.6799 1161.37 307.006)" fill="#FEFEFE"/>
<ellipse cx="1179.44" cy="289.596" rx="8.90548" ry="8.56752" transform="rotate(-99.6799 1179.44 289.596)" fill="#FEFEFE"/>
<ellipse cx="1167.96" cy="295.338" rx="8.90548" ry="8.56752" transform="rotate(-99.6799 1167.96 295.338)" fill="#FFF43A"/>
<path d="M1395.88 -190.446C1507.08 -232.046 1568.21 -223.113 1584.88 -213.446L1608.88 76.5508C1587.54 82.8841 1501.08 70.9508 1325.88 -27.4492C1150.67 -125.849 906.208 -141.051 811.875 -128.051C877.875 -156.051 909.875 -172.449 1007.88 -182.449C1105.88 -192.449 1256.88 -138.446 1395.88 -190.446Z" fill="#80FE80"/>
</g>
<defs>
<linearGradient id="paint0_linear_77_2335" x1="762.2" y1="-172.527" x2="762.2" y2="1484.68" gradientUnits="userSpaceOnUse">
<stop stop-color="#77FFC9"/>
<stop offset="1" stop-color="#1AFF1A"/>
</linearGradient>
<clipPath id="clip0_77_2335">
<rect width="1514" height="1438" fill="white" transform="matrix(1 0 0 -1 0 1438)"/>
</clipPath>
</defs>
</svg>
