<svg width="1514" height="332" viewBox="0 0 1514 332" fill="none" xmlns="http://www.w3.org/2000/svg">
<g clip-path="url(#clip0_73_2065)">
<path d="M754.188 54.9351C748.577 49.8853 742.985 53.3923 740.507 55.4964C737.983 49.465 722.692 45.1158 715.398 52.5503C708.103 59.9848 709.085 67.4193 712.171 73.0303C709.787 72.6095 705.688 72.8902 703.023 75.2748C700.891 77.1826 700.154 81.0727 700.388 82.5689C698.955 82.008 696.56 81.4923 694.216 83.2703C692.783 84.3576 692.393 86.5669 692.393 89.0215C689.868 88.8812 686.361 89.8632 685.659 95.0533C678.786 93.7908 673.035 101.646 678.786 106.415C683.387 110.231 688.933 105.667 691.13 102.909C691.925 104.311 694.216 108.169 700.388 109.361C706.068 110.458 710.535 106.275 712.171 103.61C712.639 104.498 714.388 106.444 717.642 107.117C720.896 107.79 724.328 105.901 725.638 104.872C725.871 106.369 727.433 109.95 731.81 112.307C736.186 114.664 741.114 111.325 743.032 109.361C744.855 112.26 749.961 118.114 755.796 118.339C763.091 118.619 767.299 113.429 768 107.958C777.819 109.782 779.503 108.099 784.132 104.872C788.34 108.099 795.213 107.257 797.318 101.646C800.333 102.979 803.701 102.278 804.964 100.664C806.188 99.1018 807.174 95.0895 803.701 91.6869C800.479 88.5305 795.354 87.8993 791.847 89.8632C792.408 88.1799 792.969 80.7454 784.132 77.6593C777.062 75.1905 772.396 79.9037 770.946 82.5689C770.759 81.587 769.768 79.3987 767.299 78.501C764.83 77.6032 762.249 78.1269 761.267 78.501C762.623 77.5658 763.712 72.609 761.622 70.0146C759.023 66.7883 756.222 67.2792 753.416 67.6299C756.362 65.7597 758.167 58.5168 754.188 54.9351Z" fill="url(#paint0_linear_73_2065)"/>
<path fill-rule="evenodd" clip-rule="evenodd" d="M681.224 95.4796C676.75 97.2388 674.357 102.742 678.786 106.415C683.387 110.231 688.933 105.667 691.13 102.909C691.925 104.311 694.216 108.169 700.388 109.361C706.068 110.458 710.535 106.275 712.171 103.61C712.639 104.498 714.388 106.444 717.642 107.117C720.896 107.79 724.328 105.901 725.638 104.872C725.871 106.369 727.433 109.95 731.81 112.307C736.186 114.664 741.114 111.325 743.032 109.361C744.855 112.26 749.961 118.114 755.796 118.339C763.091 118.619 767.299 113.429 768 107.959C777.288 109.683 779.297 108.271 783.404 105.383C783.639 105.217 783.881 105.047 784.132 104.872C788.34 108.099 795.213 107.257 797.318 101.646C800.333 102.979 803.701 102.278 804.964 100.664C806.188 99.1018 807.174 95.0895 803.701 91.6869C803.434 91.4253 803.154 91.1811 802.863 90.9543C799.729 90.1531 793.818 89.3484 790.939 91.5469C790.799 87.4789 787.433 82.7095 780.98 82.429C775.818 82.2045 771.815 85.2345 770.459 86.7775C770.436 85.6316 769.379 83.0734 765.339 82.0073C761.3 80.9412 758.372 82.7788 757.414 83.8309C755.762 80.1518 748.577 76.3824 738.617 81.2363C744.454 76.3824 752.785 77.501 757.414 78.9739C757.274 74.3449 752.574 69.9437 748.577 69.8736C750.33 65.9459 749.979 62.0182 747.174 60.4051C744.368 58.7919 740.721 59.2829 737.776 60.8259C735.181 58.3711 728.167 52.4794 718.979 58.0202C711.629 62.4529 714.257 71.3228 716.524 74.9933C720.499 75.1102 728.097 78.0802 731.323 83.4097C722.212 76.3456 714.533 74.8743 706.916 77.4481C704.531 78.2537 702.146 80.8848 702.146 84.8124C697.798 84.8826 693.52 86.2152 695.623 93.3691C691.205 91.5456 688.961 93.5094 686.857 96.7357C684.992 95.9072 683.066 95.3533 681.224 95.4796Z" fill="#D3FBFF"/>
<path d="M731.953 63.6315C738.405 64.2487 741.795 68.1437 742.684 70.014C735.109 63.505 724.892 65.7589 720.731 67.6995C721.783 66.0863 725.5 63.0143 731.953 63.6315Z" fill="#E8F8FF"/>
<path d="M778.244 96.666C783.518 96.8343 788.765 94.1176 790.729 92.7383C789.396 94.8891 785.23 99.1769 779.226 99.1207C773.222 99.0646 769.196 95.497 767.934 93.7202C769.173 94.632 772.97 96.4976 778.244 96.666Z" fill="#7EF6FF"/>
<path fill-rule="evenodd" clip-rule="evenodd" d="M676.935 104.092C677.315 104.908 677.92 105.696 678.786 106.414C683.387 110.229 688.933 105.665 691.13 102.907C691.925 104.309 694.216 108.167 700.388 109.359C706.068 110.456 710.535 106.273 712.171 103.608C712.639 104.496 714.388 106.442 717.642 107.115C720.896 107.788 724.328 105.899 725.638 104.871C725.871 106.367 727.433 109.948 731.81 112.305C736.186 114.662 741.114 111.323 743.032 109.359C744.855 112.258 749.961 118.112 755.796 118.337C763.091 118.617 767.299 113.427 768 107.957C777.288 109.681 779.297 108.269 783.404 105.381C783.639 105.215 783.881 105.045 784.132 104.871C788.34 108.097 795.213 107.255 797.318 101.644C800.333 102.977 803.701 102.276 804.964 100.662C805.221 100.335 805.467 99.899 805.664 99.3838C802.63 100.43 797.643 101.078 795.147 97.5067C793.394 99.4004 791.15 101.154 788.905 101.154C788.69 101.154 788.453 101.163 788.199 101.172C786.299 101.242 783.471 101.347 782.172 98.0678C778.918 97.6189 774.597 97.5067 772.844 97.5067C772.727 99.681 770.95 103.973 764.778 103.749C757.063 103.468 757.133 95.2623 757.414 94.4908C753.837 97.0859 749.769 99.4004 744.158 96.3144C741.169 94.6706 739.901 93.8477 739.463 93.4812C740.622 95.4128 743.457 98.1245 746.613 99.4004C746.823 104.661 741.773 106.134 738.126 106.063C734.479 105.993 729.99 103.258 729.71 100.382C726.974 102.486 719.119 103.749 716.594 101.575C714.574 99.8353 714.303 97.6236 714.42 96.7352L705.863 92.3867C706.284 95.8468 705.47 102.711 698.849 102.486C692.228 102.262 690.76 99.5874 690.854 98.2782C689.872 101.13 686.393 106.47 680.333 105.011C678.918 104.671 677.805 104.364 676.935 104.092ZM739.318 93.2284C739.232 93.2284 739.243 93.2973 739.463 93.4812C739.411 93.3953 739.363 93.311 739.318 93.2284Z" fill="#7EF6FF"/>
<path d="M714.701 95.5432C722.346 96.2445 728.472 94.5846 730.412 92.6676C729.687 94.9353 724.703 99.8776 715.613 98.6993C706.523 97.521 703.924 91.2414 703.129 88.5996C703.69 89.9556 706.497 94.7904 714.701 95.5432Z" fill="#7EF6FF"/>
<path d="M313.713 187.299L317.213 176.049L338.463 168.549H348.713L313.713 187.299Z" fill="#75C4FE"/>
<path d="M1380.19 168.549C1380.19 90.9779 1317.31 28.0942 1239.74 28.0942C1162.17 28.0942 1099.28 90.9779 1099.28 168.549" stroke="#AD6EF9" stroke-width="8.01072"/>
<path d="M1372.71 168.547C1372.71 95.1107 1313.17 35.5791 1239.74 35.5791C1166.3 35.5791 1106.77 95.1107 1106.77 168.547" stroke="#F57AFF" stroke-width="8.01072"/>
<path d="M1366.3 168.547C1366.3 98.6502 1309.63 41.9878 1239.74 41.9878C1169.84 41.9878 1113.18 98.6502 1113.18 168.547" stroke="#FFF43A" stroke-width="8.01072"/>
<path d="M1388.38 168.549C1388.38 86.4569 1321.83 19.9082 1239.74 19.9082C1157.65 19.9082 1091.1 86.4569 1091.1 168.549" stroke="#9556E1" stroke-width="8.01072"/>
<path d="M1095.74 54.4351C1090.13 49.3853 1084.53 52.8923 1082.06 54.9964C1079.53 48.965 1064.24 44.6158 1056.95 52.0503C1049.65 59.4848 1050.63 66.9193 1053.72 72.5303C1051.34 72.1095 1047.24 72.3902 1044.57 74.7748C1042.44 76.6826 1041.7 80.5727 1041.94 82.0689C1040.5 81.508 1038.11 80.9923 1035.77 82.7703C1034.33 83.8576 1033.94 86.0669 1033.94 88.5215C1031.42 88.3812 1027.91 89.3632 1027.21 94.5533C1020.33 93.2908 1014.58 101.146 1020.33 105.915C1024.94 109.731 1030.48 105.167 1032.68 102.409C1033.47 103.811 1035.77 107.669 1041.94 108.861C1047.62 109.958 1052.08 105.775 1053.72 103.11C1054.19 103.998 1055.94 105.944 1059.19 106.617C1062.45 107.29 1065.88 105.401 1067.19 104.372C1067.42 105.869 1068.98 109.45 1073.36 111.807C1077.73 114.164 1082.66 110.825 1084.58 108.861C1086.4 111.76 1091.51 117.614 1097.35 117.839C1104.64 118.119 1108.85 112.929 1109.55 107.458C1119.37 109.282 1121.05 107.599 1125.68 104.372C1129.89 107.599 1136.76 106.757 1138.87 101.146C1141.88 102.479 1145.25 101.778 1146.51 100.164C1147.74 98.6018 1148.72 94.5895 1145.25 91.1869C1142.03 88.0305 1136.9 87.3993 1133.4 89.3632C1133.96 87.6799 1134.52 80.2454 1125.68 77.1593C1118.61 74.6905 1113.94 79.4037 1112.49 82.0689C1112.31 81.087 1111.32 78.8987 1108.85 78.001C1106.38 77.1032 1103.8 77.6269 1102.82 78.001C1104.17 77.0658 1105.26 72.109 1103.17 69.5146C1100.57 66.2883 1097.77 66.7792 1094.97 67.1299C1097.91 65.2597 1099.72 58.0168 1095.74 54.4351Z" fill="url(#paint1_linear_73_2065)"/>
<path fill-rule="evenodd" clip-rule="evenodd" d="M1022.77 94.9796C1018.3 96.7388 1015.91 102.242 1020.33 105.915C1024.94 109.731 1030.48 105.167 1032.68 102.409C1033.47 103.811 1035.77 107.669 1041.94 108.861C1047.62 109.958 1052.08 105.775 1053.72 103.11C1054.19 103.998 1055.94 105.944 1059.19 106.617C1062.45 107.29 1065.88 105.401 1067.19 104.372C1067.42 105.869 1068.98 109.45 1073.36 111.807C1077.73 114.164 1082.66 110.825 1084.58 108.861C1086.4 111.76 1091.51 117.614 1097.35 117.839C1104.64 118.119 1108.85 112.929 1109.55 107.459C1118.84 109.183 1120.85 107.771 1124.95 104.883C1125.19 104.717 1125.43 104.547 1125.68 104.372C1129.89 107.599 1136.76 106.757 1138.87 101.146C1141.88 102.479 1145.25 101.778 1146.51 100.164C1147.74 98.6018 1148.72 94.5895 1145.25 91.1869C1144.98 90.9253 1144.7 90.6811 1144.41 90.4543C1141.28 89.6531 1135.37 88.8484 1132.49 91.0469C1132.35 86.9789 1128.98 82.2095 1122.53 81.929C1117.37 81.7045 1113.36 84.7345 1112.01 86.2775C1111.98 85.1316 1110.93 82.5734 1106.89 81.5073C1102.85 80.4412 1099.92 82.2788 1098.96 83.3309C1097.31 79.6518 1090.13 75.8824 1080.17 80.7363C1086 75.8824 1094.33 77.001 1098.96 78.4739C1098.82 73.8449 1094.12 69.4437 1090.13 69.3736C1091.88 65.4459 1091.53 61.5182 1088.72 59.9051C1085.92 58.2919 1082.27 58.7829 1079.32 60.3259C1076.73 57.8711 1069.72 51.9794 1060.53 57.5202C1053.18 61.9529 1055.81 70.8228 1058.07 74.4933C1062.05 74.6102 1069.65 77.5802 1072.87 82.9097C1063.76 75.8456 1056.08 74.3743 1048.46 76.9481C1046.08 77.7537 1043.69 80.3848 1043.69 84.3124C1039.35 84.3826 1035.07 85.7152 1037.17 92.8691C1032.75 91.0456 1030.51 93.0094 1028.41 96.2357C1026.54 95.4072 1024.61 94.8533 1022.77 94.9796Z" fill="#D3FBFF"/>
<path d="M1073.5 63.1315C1079.95 63.7487 1083.34 67.6437 1084.23 69.514C1076.66 63.005 1066.44 65.2589 1062.28 67.1995C1063.33 65.5863 1067.05 62.5143 1073.5 63.1315Z" fill="#E8F8FF"/>
<path d="M1119.79 96.166C1125.07 96.3343 1130.31 93.6176 1132.28 92.2383C1130.94 94.3891 1126.78 98.6769 1120.77 98.6207C1114.77 98.5646 1110.75 94.997 1109.48 93.2202C1110.72 94.132 1114.52 95.9976 1119.79 96.166Z" fill="#7EF6FF"/>
<path fill-rule="evenodd" clip-rule="evenodd" d="M1018.48 103.592C1018.86 104.408 1019.47 105.196 1020.33 105.914C1024.94 109.729 1030.48 105.165 1032.68 102.407C1033.47 103.809 1035.77 107.667 1041.94 108.859C1047.62 109.956 1052.08 105.773 1053.72 103.108C1054.19 103.996 1055.94 105.942 1059.19 106.615C1062.45 107.288 1065.88 105.399 1067.19 104.371C1067.42 105.867 1068.98 109.448 1073.36 111.805C1077.73 114.162 1082.66 110.823 1084.58 108.859C1086.4 111.758 1091.51 117.612 1097.35 117.837C1104.64 118.117 1108.85 112.927 1109.55 107.457C1118.84 109.181 1120.85 107.769 1124.95 104.881C1125.19 104.715 1125.43 104.545 1125.68 104.371C1129.89 107.597 1136.76 106.755 1138.87 101.144C1141.88 102.477 1145.25 101.776 1146.51 100.162C1146.77 99.8347 1147.02 99.399 1147.21 98.8838C1144.18 99.9299 1139.19 100.578 1136.7 97.0067C1134.94 98.9004 1132.7 100.654 1130.45 100.654C1130.24 100.654 1130 100.663 1129.75 100.672C1127.85 100.742 1125.02 100.847 1123.72 97.5678C1120.47 97.1189 1116.15 97.0067 1114.39 97.0067C1114.28 99.181 1112.5 103.473 1106.33 103.249C1098.61 102.968 1098.68 94.7623 1098.96 93.9908C1095.39 96.5859 1091.32 98.9004 1085.71 95.8144C1082.72 94.1706 1081.45 93.3477 1081.01 92.9812C1082.17 94.9128 1085.01 97.6245 1088.16 98.9004C1088.37 104.161 1083.32 105.634 1079.67 105.563C1076.03 105.493 1071.54 102.758 1071.26 99.8823C1068.52 101.986 1060.67 103.249 1058.14 101.075C1056.12 99.3353 1055.85 97.1236 1055.97 96.2352L1047.41 91.8867C1047.83 95.3468 1047.02 102.211 1040.4 101.986C1033.78 101.762 1032.31 99.0874 1032.4 97.7782C1031.42 100.63 1027.94 105.97 1021.88 104.511C1020.47 104.171 1019.35 103.864 1018.48 103.592ZM1080.87 92.7284C1080.78 92.7284 1080.79 92.7973 1081.01 92.9812C1080.96 92.8953 1080.91 92.811 1080.87 92.7284Z" fill="#7EF6FF"/>
<path d="M1056.25 95.0432C1063.9 95.7445 1070.02 94.0846 1071.96 92.1676C1071.24 94.4353 1066.25 99.3776 1057.16 98.1993C1048.07 97.021 1045.47 90.7414 1044.68 88.0996C1045.24 89.4556 1048.05 94.2904 1056.25 95.0432Z" fill="#7EF6FF"/>
<path d="M1033.14 203.459L1040.69 231.76" stroke="#00D700" stroke-width="5" stroke-linecap="round"/>
<path d="M1024.42 200.78C1023.64 206.476 1018.21 216.21 1002.74 209.583C1005.92 196.043 1016.51 197.159 1024.42 200.78Z" fill="#00D700"/>
<circle cx="1049.53" cy="191.403" r="9.88864" transform="rotate(-165.641 1049.53 191.403)" fill="#9E4EFF"/>
<circle cx="1027.36" cy="208.922" r="9.88864" transform="rotate(-165.641 1027.36 208.922)" fill="#9E4EFF"/>
<circle cx="1023.78" cy="191.191" r="9.88864" transform="rotate(-165.641 1023.78 191.191)" fill="#9E4EFF"/>
<ellipse cx="1044.35" cy="207.65" rx="10.395" ry="10.0006" transform="rotate(-165.641 1044.35 207.65)" fill="#9E4EFF"/>
<ellipse cx="1035.81" cy="184.062" rx="8.90548" ry="8.56752" transform="rotate(-165.641 1035.81 184.062)" fill="#9E4EFF"/>
<ellipse cx="1036.38" cy="196.879" rx="8.90548" ry="8.56752" transform="rotate(-165.641 1036.38 196.879)" fill="#FFF43A"/>
<path d="M293.162 280.094L300.705 308.395" stroke="#00D700" stroke-width="5" stroke-linecap="round"/>
<path d="M305.052 269.813C303.543 264.265 304.732 253.182 321.561 253.23C323.935 266.933 313.755 270.047 305.052 269.813Z" fill="#00D700"/>
<circle cx="285.617" cy="288.264" r="9.88864" transform="rotate(-8.67125 285.617 288.264)" fill="#AD6EF9"/>
<circle cx="299.167" cy="263.467" r="9.88864" transform="rotate(-8.67125 299.167 263.467)" fill="#AD6EF9"/>
<circle cx="309.4" cy="278.384" r="9.88864" transform="rotate(-8.67125 309.4 278.384)" fill="#AD6EF9"/>
<ellipse cx="284.026" cy="271.286" rx="10.395" ry="10.0006" transform="rotate(-8.67125 284.026 271.286)" fill="#AD6EF9"/>
<ellipse cx="301.115" cy="289.652" rx="8.90548" ry="8.56752" transform="rotate(-8.67125 301.115 289.652)" fill="#AD6EF9"/>
<ellipse cx="295.575" cy="278.08" rx="8.90548" ry="8.56752" transform="rotate(-8.67125 295.575 278.08)" fill="#FFF43A"/>
<path d="M127.137 230.437L132.514 250.611" stroke="#00D700" stroke-width="5" stroke-linecap="round"/>
<path d="M121.876 222.088C117.941 223.234 110.027 222.525 109.849 210.53C119.586 208.666 121.933 215.882 121.876 222.088Z" fill="#00D700"/>
<circle cx="135.27" cy="235.708" r="7.04891" transform="rotate(-99.6799 135.27 235.708)" fill="#C872FB"/>
<circle cx="117.426" cy="226.362" r="7.04891" transform="rotate(-99.6799 117.426 226.362)" fill="#C872FB"/>
<circle cx="127.93" cy="218.881" r="7.04891" transform="rotate(-99.6799 127.93 218.881)" fill="#C872FB"/>
<ellipse cx="123.189" cy="237.056" rx="7.40989" ry="7.12869" transform="rotate(-99.6799 123.189 237.056)" fill="#C872FB"/>
<ellipse cx="136.064" cy="224.645" rx="6.34808" ry="6.10718" transform="rotate(-99.6799 136.064 224.645)" fill="#C872FB"/>
<ellipse cx="127.886" cy="228.738" rx="6.34808" ry="6.10718" transform="rotate(-99.6799 127.886 228.738)" fill="#FFF43A"/>
<path d="M317.262 175.987L281.762 169.487C277.595 170.82 182.096 161.488 182.096 161.488C182.096 161.488 15.0972 195.236 13.0972 198.736C11.0972 202.236 -39.904 274.236 -36.904 276.736C-34.504 278.736 412.762 224.153 507.762 230.486L491.762 185.986L444.762 169.487H415.262C396.762 169.487 387.762 163.487 377.762 161.487C367.762 159.487 352.762 169.487 343.262 169.487C335.662 169.487 322.762 173.82 317.262 175.987Z" fill="#48B2FF"/>
<path d="M317.262 199.986L202.096 242.236L304.262 306.486H1121.76V259.986L1102.26 247.986L1054.26 227.486H957.262C953.928 223.486 946.562 215.486 943.762 215.486C940.962 215.486 927.928 212.486 921.762 210.986L901.262 185.486L889.262 164.486H864.762L852.262 166.986L842.762 161.486L839.762 144.486L818.262 140.986L805.762 144.486C798.428 146.486 783.262 150.486 781.262 150.486C779.262 150.486 765.762 155.82 759.262 158.486L750.262 155.986L744.762 152.986H722.762L709.262 150.486L693.762 155.986L676.262 140.986L665.762 135.486V125.486H648.762L635.762 91.9863L617.762 88.4863L599.262 83.4863L587.262 88.4863H581.262L540.262 130.486L536.762 125.486L491.762 164.486L477.262 150.486L452.762 172.486L442.762 164.486L418.762 176.486H408.762L394.262 187.986H376.262C369.095 193.986 354.262 205.986 352.262 205.986C350.262 205.986 328.095 201.986 317.262 199.986Z" fill="#75C4FE"/>
<path d="M376.137 187.986H394.512L375.012 209.861L376.137 187.986Z" fill="#48B2FF"/>
<path d="M408.637 176.986H419.387L420.262 191.361L409.387 252.111L394.512 208.861L408.637 176.986Z" fill="#48B2FF"/>
<path d="M436.762 172.861L442.637 164.236L452.512 172.861L437.887 205.861L436.762 191.361L441.137 183.361L436.762 172.861Z" fill="#48B2FF"/>
<path d="M465.512 187.986L477.012 149.611L491.637 164.236L477.012 199.486L454.012 258.361L465.512 187.986Z" fill="#48B2FF"/>
<path d="M517.012 163.111L536.512 124.986L540.137 130.111L542.262 159.361C531.428 192.778 509.687 259.736 509.387 260.236C509.087 260.736 506.762 262.028 505.637 262.611L507.262 201.111L518.262 189.111L517.012 163.111Z" fill="#48B2FF"/>
<path d="M596.762 107.486L599.012 82.9863L619.262 88.7363L600.762 113.736L596.762 107.486Z" fill="#48B2FF"/>
<path d="M647.757 126.691L648.846 125.611H665.746C665.746 125.611 655.845 152.153 652.012 157.236C631.178 166.903 589.262 186.286 588.262 186.486C587.279 186.683 626.703 147.576 647.757 126.691Z" fill="#48B2FF"/>
<path d="M705.512 182.486L710.012 150.736C704.928 152.153 694.562 155.136 693.762 155.736C692.962 156.336 696.762 173.82 698.762 182.486H705.512Z" fill="#48B2FF"/>
<path d="M742.512 196.736L749.512 155.736L759.512 159.361L745.762 196.736H742.512Z" fill="#48B2FF"/>
<path d="M173.596 179.738L181.721 161.488L281.846 169.613L173.596 179.738Z" fill="#75C4FE"/>
<path d="M303.564 216.685C185.955 184.013 51.6425 222.52 -0.8125 245.857V1816.68H1525.21L1514.86 182.84C1495.53 170.782 1441.15 150.168 1378.2 164.17C1299.52 181.673 1206.98 237.65 1123.76 216.685C989.415 182.84 800.506 188.673 718.718 224.85C636.929 261.027 601.729 209.681 557.212 202.68C512.694 195.679 503.376 233.018 444.365 224.85C385.353 216.682 344.976 206.184 303.564 216.685Z" fill="url(#paint2_linear_73_2065)"/>
<path d="M266 210.45C108.4 180.85 -3 222.784 -39 247.45C-43 252.117 -54.4 281.849 -68 363.449C15 242.449 139 231.45 266 210.45Z" fill="#80FE80"/>
<path d="M1395.88 141.554C1507.08 99.954 1568.21 108.887 1584.88 118.554L1608.88 408.551C1587.54 414.884 1501.08 402.951 1325.88 304.551C1150.67 206.151 906.208 190.949 811.875 203.949C877.875 175.949 909.875 159.551 1007.88 149.551C1105.88 139.551 1256.88 193.554 1395.88 141.554Z" fill="#80FE80"/>
<path d="M1048.05 206.221L1055.59 234.522" stroke="#00D700" stroke-width="5" stroke-linecap="round"/>
<path d="M1039.33 203.542C1038.55 209.237 1033.12 218.972 1017.65 212.344C1020.82 198.804 1031.41 199.921 1039.33 203.542Z" fill="#00D700"/>
<circle cx="1064.43" cy="194.165" r="9.88864" transform="rotate(-165.641 1064.43 194.165)" fill="#9E4EFF"/>
<circle cx="1042.26" cy="211.684" r="9.88864" transform="rotate(-165.641 1042.26 211.684)" fill="#9E4EFF"/>
<circle cx="1038.68" cy="193.952" r="9.88864" transform="rotate(-165.641 1038.68 193.952)" fill="#9E4EFF"/>
<ellipse cx="1059.25" cy="210.412" rx="10.395" ry="10.0006" transform="rotate(-165.641 1059.25 210.412)" fill="#9E4EFF"/>
<ellipse cx="1050.71" cy="186.824" rx="8.90548" ry="8.56752" transform="rotate(-165.641 1050.71 186.824)" fill="#9E4EFF"/>
<ellipse cx="1051.28" cy="199.641" rx="8.90548" ry="8.56752" transform="rotate(-165.641 1051.28 199.641)" fill="#FFF43A"/>
<path d="M308.066 282.856L315.609 311.157" stroke="#00D700" stroke-width="5" stroke-linecap="round"/>
<path d="M319.956 272.575C318.447 267.027 319.636 255.944 336.465 255.991C338.839 269.695 328.66 272.808 319.956 272.575Z" fill="#00D700"/>
<circle cx="300.521" cy="291.025" r="9.88864" transform="rotate(-8.67125 300.521 291.025)" fill="#AD6EF9"/>
<circle cx="314.071" cy="266.229" r="9.88864" transform="rotate(-8.67125 314.071 266.229)" fill="#AD6EF9"/>
<circle cx="324.305" cy="281.146" r="9.88864" transform="rotate(-8.67125 324.305 281.146)" fill="#AD6EF9"/>
<ellipse cx="298.93" cy="274.048" rx="10.395" ry="10.0006" transform="rotate(-8.67125 298.93 274.048)" fill="#AD6EF9"/>
<ellipse cx="316.019" cy="292.414" rx="8.90548" ry="8.56752" transform="rotate(-8.67125 316.019 292.414)" fill="#AD6EF9"/>
<ellipse cx="310.48" cy="280.841" rx="8.90548" ry="8.56752" transform="rotate(-8.67125 310.48 280.841)" fill="#FFF43A"/>
<path d="M142.041 233.199L147.418 253.373" stroke="#00D700" stroke-width="5" stroke-linecap="round"/>
<path d="M136.78 224.85C132.845 225.995 124.931 225.287 124.754 213.292C134.491 211.428 136.837 218.644 136.78 224.85Z" fill="#00D700"/>
<circle cx="150.174" cy="238.47" r="7.04891" transform="rotate(-99.6799 150.174 238.47)" fill="#C872FB"/>
<circle cx="132.331" cy="229.124" r="7.04891" transform="rotate(-99.6799 132.331 229.124)" fill="#C872FB"/>
<circle cx="142.834" cy="221.643" r="7.04891" transform="rotate(-99.6799 142.834 221.643)" fill="#C872FB"/>
<ellipse cx="138.093" cy="239.817" rx="7.40989" ry="7.12869" transform="rotate(-99.6799 138.093 239.817)" fill="#C872FB"/>
<ellipse cx="150.968" cy="227.407" rx="6.34808" ry="6.10718" transform="rotate(-99.6799 150.968 227.407)" fill="#C872FB"/>
<ellipse cx="142.791" cy="231.5" rx="6.34808" ry="6.10718" transform="rotate(-99.6799 142.791 231.5)" fill="#FFF43A"/>
</g>
<defs>
<linearGradient id="paint0_linear_73_2065" x1="704.752" y1="45.9302" x2="796.224" y2="88.1739" gradientUnits="userSpaceOnUse">
<stop stop-color="white"/>
<stop offset="0.203125" stop-color="#E8F8FF"/>
</linearGradient>
<linearGradient id="paint1_linear_73_2065" x1="1046.3" y1="45.4302" x2="1137.77" y2="87.6739" gradientUnits="userSpaceOnUse">
<stop stop-color="white"/>
<stop offset="0.203125" stop-color="#E8F8FF"/>
</linearGradient>
<linearGradient id="paint2_linear_73_2065" x1="762.2" y1="159.473" x2="762.2" y2="1816.68" gradientUnits="userSpaceOnUse">
<stop stop-color="#77FFC9"/>
<stop offset="1" stop-color="#1AFF1A"/>
</linearGradient>
<clipPath id="clip0_73_2065">
<rect width="1514" height="332" fill="white"/>
</clipPath>
</defs>
</svg>
