<svg width="103" height="110" viewBox="0 0 103 110" fill="none" xmlns="http://www.w3.org/2000/svg">
<g clip-path="url(#clip0_88_2696)">
<path fill-rule="evenodd" clip-rule="evenodd" d="M73.4111 83.8412C87.2466 82.1955 99.2933 73.7034 100.807 65.9439C103.193 53.7205 102.996 36.1148 102.996 36.1148C102.996 12.2524 87.302 5.25797 87.302 5.25797C79.3889 1.63749 65.8008 0.114974 51.6839 0H51.3371C37.2201 0.114974 23.641 1.63749 15.7273 5.25797C15.7273 5.25797 0.032647 12.2524 0.032647 36.1148C0.032647 37.5614 0.0251413 39.0829 0.0173276 40.6669C-0.00437261 45.066 -0.0284482 49.9466 0.0992784 55.041C0.669215 78.377 4.39403 101.376 26.0528 107.087C36.0392 109.72 44.6132 110.271 51.5185 109.893C64.0411 109.201 71.0707 105.441 71.0707 105.441L70.6578 96.39C70.6578 96.39 61.709 99.2009 51.6589 98.8583C41.7017 98.5182 31.19 97.7886 29.5795 85.6103C29.4308 84.5406 29.3564 83.3968 29.3564 82.1955C29.3564 82.1955 39.131 84.5755 51.5185 85.1409C59.0931 85.487 66.1965 84.6988 73.4111 83.8412ZM84.4839 66.8593V37.966C84.4839 32.0608 82.9745 27.3682 79.9434 23.8965C76.8165 20.4248 72.7222 18.6451 67.6404 18.6451C61.7596 18.6451 57.3066 20.8965 54.3629 25.4L51.5001 30.1797L48.6379 25.4C45.6936 20.8965 41.2407 18.6451 35.3604 18.6451C30.278 18.6451 26.1837 20.4248 23.0574 23.8965C20.0257 27.3682 18.5164 32.0608 18.5164 37.966V66.8593H30.0073V38.8152C30.0073 32.9036 32.5042 29.903 37.4986 29.903C43.0207 29.903 45.7888 33.4624 45.7888 40.5007V55.8509H57.212V40.5007C57.212 33.4624 59.9795 29.903 65.5016 29.903C70.496 29.903 72.9929 32.9036 72.9929 38.8152V66.8593H84.4839Z" fill="#32ff47"/>
</g>
<defs>
<clipPath id="clip0_88_2696">
<rect width="103" height="110" fill="white"/>
</clipPath>
</defs>
</svg>
