<svg width="163" height="24" viewBox="0 0 163 24" fill="none" xmlns="http://www.w3.org/2000/svg">
<g clip-path="url(#clip0_5_1502)">
<path d="M1.23302 7.29095C4.36839 10.9437 8.25825 13.8355 12.6203 15.7565C16.9823 17.6775 21.7071 18.5796 26.4518 18.3971C34.9971 18.2065 43.5224 17.4699 51.9781 16.1917C51.8528 14.9083 51.8528 13.6154 51.9781 12.3321H53.2084C53.0807 13.5363 53.0807 14.7512 53.2084 15.9554L62.1272 14.6163C62.0892 14.3288 62.0892 14.0374 62.1272 13.7499C62.1272 6.3458 70.8923 5.32178 71.1229 12.4108V13.1198L77.5045 12.0957C77.4667 11.7819 77.4667 11.4645 77.5045 11.1506C77.5045 3.27387 87.346 1.22592 87.346 9.73277C87.346 9.73277 87.346 9.73276 87.346 10.2841L96.0342 8.63003V7.9211C96.0342 1.06836 102.954 -0.664488 102.954 6.66085C102.954 6.66085 102.954 7.13343 102.954 7.36973C116.546 4.42305 130.313 2.397 144.165 1.30469C155.775 1.30469 162.618 8.63 162.618 16.3492H161.234C161.234 9.1026 154.852 2.7225 144.165 2.7225C133.837 3.43907 123.564 4.83348 113.411 6.89715C113.264 8.45799 112.735 9.9555 111.871 11.2503C111.008 12.5452 109.839 13.5952 108.473 14.3027C107.107 15.0102 105.589 15.3523 104.059 15.2969C102.53 15.2416 101.038 14.7907 99.7247 13.9862C97.5337 16.0394 94.9066 17.5424 92.0509 18.3763C89.1953 19.2102 86.1894 19.3522 83.271 18.791C81.1155 20.4881 78.5909 21.6252 75.913 22.1053C73.2352 22.5854 70.4837 22.3942 67.8937 21.5478C66.7894 22.7801 65.3785 23.6812 63.8124 24.1546C62.2462 24.6279 60.5837 24.6555 59.0034 24.2346C57.423 23.8137 55.9843 22.96 54.8415 21.7651C53.6987 20.5702 52.8949 19.0792 52.5164 17.4519C43.9882 18.7856 35.3843 19.5487 26.7594 19.7362C21.7662 19.994 16.7806 19.0937 12.1744 17.1025C7.5682 15.1113 3.46014 12.0805 0.156616 8.23617L1.23302 7.29095ZM66.2022 20.6026C65.2467 20.1017 64.4042 19.4014 63.7288 18.5467C63.0535 17.6921 62.5603 16.702 62.281 15.6403L53.5159 16.9793C53.8701 18.2875 54.5482 19.4797 55.4845 20.4402C56.4209 21.4008 57.5837 22.0971 58.8601 22.4616C60.1366 22.8262 61.4833 22.8466 62.7697 22.5209C64.0561 22.1952 65.2385 21.5344 66.2022 20.6026ZM69.739 12.0957C69.739 6.58205 63.2805 7.60606 63.2805 13.4348V14.1437L69.739 13.041V12.0957ZM63.5111 15.404C63.7603 16.3563 64.2142 17.2395 64.8394 17.989C65.4647 18.7386 66.2455 19.3355 67.1248 19.7362C68.4519 18.2758 69.3105 16.4341 69.5852 14.4588L63.5111 15.404ZM71.1998 14.2225C70.9505 16.4547 70.0685 18.5632 68.6626 20.2875C70.8583 20.9175 73.1632 21.0394 75.4106 20.6444C77.6579 20.2493 79.7913 19.3471 81.6564 18.0033C80.6693 17.5598 79.8031 16.8758 79.1331 16.0109C78.463 15.146 78.0095 14.1265 77.812 13.041L71.1998 14.2225ZM86.1158 9.41769C86.1158 2.48618 78.4271 4.69167 78.4271 10.8355V11.5444L86.1158 10.2054V9.41769ZM82.6559 17.2944C84.2837 15.828 85.4145 13.8696 85.8852 11.7019C83.5786 11.7019 81.3489 12.5684 79.0423 12.8835C79.2212 13.8213 79.614 14.7026 80.1885 15.4555C80.7631 16.2083 81.5031 16.8114 82.3484 17.2156L82.6559 17.2944ZM84.0399 17.6883C86.6217 18.0199 89.243 17.7764 91.7245 16.9743C94.206 16.1722 96.4891 14.8305 98.4176 13.041C97.3988 12.2113 96.6484 11.0857 96.2648 9.81155L87.1922 11.4657C86.7254 13.846 85.5101 16.004 83.7323 17.6095L84.0399 17.6883ZM101.724 6.42456C101.724 0.674562 97.2643 2.40741 97.2643 7.68481V8.15739L101.57 7.36973C101.563 7.02296 101.511 6.67868 101.416 6.34578L101.724 6.42456ZM97.495 9.5752C97.8061 10.609 98.4243 11.5177 99.2634 12.1745C100.115 11.2009 100.791 10.081 101.262 8.86632L97.495 9.5752ZM100.263 12.8835C101.379 13.6048 102.657 14.0198 103.975 14.0887C105.292 14.1575 106.605 13.8779 107.787 13.2765C108.968 12.6752 109.979 11.7725 110.722 10.6553C111.464 9.53802 111.914 8.24382 112.027 6.89715L102.646 8.63003C102.133 10.2068 101.264 11.6372 100.109 12.8047L100.263 12.8835Z" fill="#9556E1"/>
</g>
<defs>
<clipPath id="clip0_5_1502">
<rect width="162" height="23" fill="white" transform="translate(0.232788 0.992188)"/>
</clipPath>
</defs>
</svg>
