<svg width="163" height="24" viewBox="0 0 163 24" fill="none" xmlns="http://www.w3.org/2000/svg">
<g clip-path="url(#clip0_5_1502)">
<path d="M1.23302 6.29095C4.36839 9.9437 8.25825 12.8355 12.6203 14.7565C16.9823 16.6775 21.7071 17.5796 26.4518 17.3971C34.9971 17.2065 43.5224 16.4699 51.9781 15.1917C51.8528 13.9083 51.8528 12.6154 51.9781 11.3321H53.2084C53.0807 12.5363 53.0807 13.7512 53.2084 14.9554L62.1272 13.6163C62.0892 13.3288 62.0892 13.0374 62.1272 12.7499C62.1272 5.3458 70.8923 4.32178 71.1229 11.4108V12.1198L77.5045 11.0957C77.4667 10.7819 77.4667 10.4645 77.5045 10.1506C77.5045 2.27387 87.346 0.225918 87.346 8.73277C87.346 8.73277 87.346 8.73276 87.346 9.28413L96.0342 7.63003V6.9211C96.0342 0.0683572 102.954 -1.66449 102.954 5.66085C102.954 5.66085 102.954 6.13343 102.954 6.36973C116.546 3.42305 130.313 1.397 144.165 0.304688C155.775 0.304687 162.618 7.63 162.618 15.3492H161.234C161.234 8.1026 154.852 1.7225 144.165 1.7225C133.837 2.43907 123.564 3.83348 113.411 5.89715C113.264 7.45799 112.735 8.9555 111.871 10.2503C111.008 11.5452 109.839 12.5952 108.473 13.3027C107.107 14.0102 105.589 14.3523 104.059 14.2969C102.53 14.2416 101.038 13.7907 99.7247 12.9862C97.5337 15.0394 94.9066 16.5424 92.0509 17.3763C89.1953 18.2102 86.1894 18.3522 83.271 17.791C81.1155 19.4881 78.5909 20.6252 75.913 21.1053C73.2352 21.5854 70.4837 21.3942 67.8937 20.5478C66.7894 21.7801 65.3785 22.6812 63.8124 23.1546C62.2462 23.6279 60.5837 23.6555 59.0034 23.2346C57.423 22.8137 55.9843 21.96 54.8415 20.7651C53.6987 19.5702 52.8949 18.0792 52.5164 16.4519C43.9882 17.7856 35.3843 18.5487 26.7594 18.7362C21.7662 18.994 16.7806 18.0937 12.1744 16.1025C7.5682 14.1113 3.46014 11.0805 0.156616 7.23617L1.23302 6.29095ZM66.2022 19.6026C65.2467 19.1017 64.4042 18.4014 63.7288 17.5467C63.0535 16.6921 62.5603 15.702 62.281 14.6403L53.5159 15.9793C53.8701 17.2875 54.5482 18.4797 55.4845 19.4402C56.4209 20.4008 57.5837 21.0971 58.8601 21.4616C60.1366 21.8262 61.4833 21.8466 62.7697 21.5209C64.0561 21.1952 65.2385 20.5344 66.2022 19.6026ZM69.739 11.0957C69.739 5.58205 63.2805 6.60606 63.2805 12.4348V13.1437L69.739 12.041V11.0957ZM63.5111 14.404C63.7603 15.3563 64.2142 16.2395 64.8394 16.989C65.4647 17.7386 66.2455 18.3355 67.1248 18.7362C68.4519 17.2758 69.3105 15.4341 69.5852 13.4588L63.5111 14.404ZM71.1998 13.2225C70.9505 15.4547 70.0685 17.5632 68.6626 19.2875C70.8583 19.9175 73.1632 20.0394 75.4106 19.6444C77.6579 19.2493 79.7913 18.3471 81.6564 17.0033C80.6693 16.5598 79.8031 15.8758 79.1331 15.0109C78.463 14.146 78.0095 13.1265 77.812 12.041L71.1998 13.2225ZM86.1158 8.41769C86.1158 1.48618 78.4271 3.69167 78.4271 9.8355V10.5444L86.1158 9.20535V8.41769ZM82.6559 16.2944C84.2837 14.828 85.4145 12.8696 85.8852 10.7019C83.5786 10.7019 81.3489 11.5684 79.0423 11.8835C79.2212 12.8213 79.614 13.7026 80.1885 14.4555C80.7631 15.2083 81.5031 15.8114 82.3484 16.2156L82.6559 16.2944ZM84.0399 16.6883C86.6217 17.0199 89.243 16.7764 91.7245 15.9743C94.206 15.1722 96.4891 13.8305 98.4176 12.041C97.3988 11.2113 96.6484 10.0857 96.2648 8.81155L87.1922 10.4657C86.7254 12.846 85.5101 15.004 83.7323 16.6095L84.0399 16.6883ZM101.724 5.42456C101.724 -0.325438 97.2643 1.40741 97.2643 6.68481V7.15739L101.57 6.36973C101.563 6.02296 101.511 5.67868 101.416 5.34578L101.724 5.42456ZM97.495 8.5752C97.8061 9.60903 98.4243 10.5177 99.2634 11.1745C100.115 10.2009 100.791 9.08098 101.262 7.86632L97.495 8.5752ZM100.263 11.8835C101.379 12.6048 102.657 13.0198 103.975 13.0887C105.292 13.1575 106.605 12.8779 107.787 12.2765C108.968 11.6752 109.979 10.7725 110.722 9.65528C111.464 8.53802 111.914 7.24382 112.027 5.89715L102.646 7.63003C102.133 9.20684 101.264 10.6372 100.109 11.8047L100.263 11.8835Z" fill="#9556E1"/>
</g>
<defs>
<clipPath id="clip0_5_1502">
<rect width="163" height="24" fill="white"/>
</clipPath>
</defs>
</svg>
