<svg width="73" height="73" viewBox="0 0 73 73" fill="none" xmlns="http://www.w3.org/2000/svg">
<g clip-path="url(#clip0_2_3)">
<path d="M33.04 15.11V1.17998C33.04 0.489977 32.43 -0.0500233 31.74 0.0399767C25.57 0.919977 19.9 3.32998 15.14 6.88998C14.59 7.29998 14.54 8.11998 15.03 8.60998L24.91 18.44C25.29 18.82 25.87 18.87 26.32 18.59C28.1 17.51 30.06 16.7 32.14 16.2C32.66 16.08 33.03 15.63 33.03 15.1L33.04 15.11Z" fill="currentColor"/>
<path d="M19.42 23.91L9.53999 14.08C9.04999 13.59 8.23 13.64 7.81 14.19C4.24 18.93 1.80999 24.57 0.929995 30.71C0.829995 31.39 1.37999 32 2.06999 32H16.06C16.59 32 17.04 31.63 17.17 31.11C17.67 29.04 18.49 27.09 19.57 25.32C19.85 24.87 19.8 24.29 19.42 23.91Z" fill="currentColor"/>
<path d="M57.76 31.99H71.75C72.44 31.99 72.99 31.38 72.89 30.7C72.01 24.56 69.58 18.92 66.01 14.18C65.59 13.63 64.77 13.59 64.28 14.07L54.4 23.9C54.02 24.28 53.97 24.85 54.25 25.31C55.34 27.08 56.15 29.03 56.65 31.1C56.77 31.62 57.22 31.99 57.76 31.99Z" fill="currentColor"/>
<path d="M48.92 18.45L58.8 8.61999C59.29 8.12999 59.25 7.30999 58.69 6.89999C53.93 3.34999 48.26 0.92999 42.09 0.0499898C41.41 -0.0500102 40.79 0.49999 40.79 1.18999V15.11C40.79 15.64 41.16 16.09 41.68 16.21C43.76 16.71 45.72 17.52 47.5 18.6C47.96 18.88 48.53 18.82 48.91 18.45H48.92Z" fill="currentColor"/>
<path d="M56.66 40.6C56.16 42.67 55.34 44.62 54.26 46.39C53.98 46.84 54.03 47.42 54.41 47.8L64.29 57.63C64.78 58.12 65.6 58.07 66.02 57.52C69.59 52.78 72.02 47.14 72.9 41C73 40.32 72.45 39.71 71.76 39.71H57.77C57.24 39.71 56.79 40.08 56.66 40.6Z" fill="currentColor"/>
<path d="M15.03 63.09C14.54 63.58 14.58 64.4 15.14 64.81C21.21 69.34 28.75 72.03 36.92 72.03C45.09 72.03 52.63 69.34 58.7 64.81C59.25 64.4 59.3 63.58 58.81 63.09L37.73 42.12C37.28 41.68 36.56 41.68 36.11 42.12L15.03 63.09Z" fill="currentColor"/>
<path d="M16.08 39.71H2.06999C1.37999 39.71 0.829995 40.32 0.929995 41C1.80999 47.14 4.24 52.78 7.81 57.52C8.23 58.07 9.04999 58.11 9.53999 57.63L19.44 47.78C19.82 47.4 19.87 46.83 19.59 46.37C18.5 44.6 17.68 42.67 17.18 40.6C17.05 40.08 16.61 39.71 16.07 39.71H16.08Z" fill="currentColor"/>
</g>
<defs>
<clipPath id="clip0_2_3">
<rect width="73" height="73" fill="white"/>
</clipPath>
</defs>
</svg>
