<svg viewBox="0 0 192 57" xmlns="http://www.w3.org/2000/svg"><g fill="none" fill-rule="evenodd"><g fill="#fd6d6d" transform="translate(66 6)"><path d="m71.733 32.095c-3.626 0-6.565-2.94-6.565-6.565 0-3.626 2.94-6.565 6.565-6.565 3.626 0 6.565 2.94 6.565 6.565 0 3.626-2.94 6.565-6.565 6.565m12.09-19.886h-3.903c-.854 0-1.353.57-1.633 1.25-.102.24-.38.36-.622.24-1.848-.89-3.88-1.42-5.932-1.42-7.794 0-14.015 6.73-13.165 14.7.634 5.94 5.302 10.79 11.213 11.64 2.65.38 5.16-.03 7.36-1.02h.01c.54-.26.82-.07.85.32-.09 4.74-2.52 6.85-6.81 6.85-2.35 0-4.17-1.058-5.18-2.69-.19-.31-.53-.49-.89-.49h-5.121c-.546 0-.963.51-.82 1.035 1.19 4.455 5.695 8.224 12.217 8.224 9.627 0 13.425-6.4 13.425-13.425v-24.223c0-.55-.446-.996-.997-.996"/><path d="m13.09 32.095c-3.626 0-6.565-2.94-6.565-6.565 0-3.626 2.94-6.565 6.565-6.565 3.626 0 6.565 2.94 6.565 6.565 0 3.626-2.94 6.565-6.565 6.565m1.952-19.666c-2.803-.41-5.457.08-7.745 1.2-.22.1-.477-.05-.477-.29v-11.659c0-.55-.45-1-1.006-1h-4.804c-.557.005-1.007.455-1.007 1.01v35.665c0 .553.448 1 1 1h4.247c.6 0 1.115-.362 1.34-.88.078-.182.28-.264.456-.173 1.812.936 3.863 1.47 6.044 1.47 7.794 0 14.015-6.732 13.165-14.698-.634-5.94-5.3-10.79-11.213-11.645"/><path d="m124.206 17.017c-1.773-4.603-6.83-6.25-11.412-5.358-1.253.24-2.47.68-3.584 1.3-.085.05-.265.19-.44.31-.178.08-.466 0-.543-.18-.225-.52-.738-.89-1.34-.89h-.02c-.02 0-.036-.01-.057-.01l-4.162-.007c-.556 0-1.007.45-1.007 1.01v24.17c0 .54.44.98.98.98h4.97c.54 0 .98-.437.98-.98v-14.282c0-2.965 1.77-5.306 4.79-5.306 3.33 0 4.74 2.236 4.74 5.098v14.47c0 .562.46 1.014 1.02 1.014h4.879c.56 0 1.013-.46 1.013-1.02v-15.656c0-1.582-.227-3.183-.797-4.663m-28.456-4.807h-4.92c-.554 0-1.003.448-1.003 1.002v24.14c0 .555.447 1.004 1 1.004h4.916c.554 0 1.003-.45 1.003-1.003v-24.14c0-.555-.45-1.004-1.004-1.004m-47.8 10.11h-11.292c-.258 0-.464-.22-.424-.47.342-2.09 2.93-4.07 6.07-4.07 3.142 0 5.73 1.98 6.07 4.07.04.24-.164.46-.423.46m-5.706-10.1c-7.815 0-13.642 6.81-13.165 14.37.403 6.38 5.612 11.57 12.04 12.11v.01c9.23.67 12.735-4.93 13.724-7.29.206-.495-.16-1.03-.7-1.03h-5.45c-.318 0-.617.13-.855.34-2.8 2.49-6.64 1.86-7.14 1.764l-.05-.01c-2.32-.53-4.2-2.21-5-4.4-.09-.25.09-.51.35-.51h18.25c.65 0 1.18-.52 1.18-1.155v-1.29c-.33-6.89-5.36-12.907-13.17-12.907m51.039-11.528c-2.17 0-3.955 1.783-3.955 4.002 0 2.122 1.785 3.906 3.955 3.906 2.218 0 3.955-1.78 3.955-3.9 0-2.22-1.737-4.003-3.955-4.003"/></g><path d="m23.626 10.47v-9.534c0-.55-.478-.992-1.025-.93-4.91.55-9.4 2.483-13.08 5.4-.43.343-.45.99-.06 1.38l6.77 6.742c.32.32.82.35 1.2.094 1.61-1.095 3.45-1.872 5.43-2.242.45-.083.78-.456.78-.91" fill="#ff9e00"/><path d="m13.667 33.47c-1.098-1.6-1.878-3.43-2.25-5.407-.084-.446-.458-.777-.913-.777h-9.564c-.55 0-.996.476-.934 1.02.552 4.9 2.49 9.378 5.42 13.04.34.428.992.45 1.38.063l6.766-6.75c.322-.32.352-.82.095-1.2" fill="#fd7854"/><path d="m41.48 5.408c-3.675-2.92-8.167-4.85-13.08-5.402-.548-.062-1.026.38-1.026.93v9.534c0 .454.333.827.78.91 1.984.37 3.82 1.147 5.426 2.242.376.256.876.227 1.198-.094l6.765-6.743c.39-.388.366-1.036-.064-1.377" fill="#ff9e00"/><path d="m24.843 28.716-15.386 15.337c-.39.387-.366 1.034.063 1.375 4.385 3.485 9.936 5.572 15.98 5.572s11.595-2.087 15.98-5.572c.43-.342.453-.988.064-1.375l-15.386-15.337c-.363-.362-.952-.362-1.315 0" fill="#fd6d6d"/><path d="m13.57 16.17-6.763-6.743c-.39-.387-1.04-.364-1.382.064-2.928 3.669-4.865 8.139-5.42 13.039-.06.545.384 1.022.934 1.022h9.56c.45 0 .83-.332.91-.778.37-1.977 1.15-3.808 2.25-5.408.25-.375.22-.873-.1-1.194m26.93 7.378h9.56c.55 0 .99-.477.93-1.022-.55-4.898-2.49-9.376-5.416-13.036-.343-.43-.993-.452-1.38-.064l-6.76 6.742c-.324.32-.354.82-.097 1.194 1.096 1.6 1.876 3.43 2.25 5.408.08.446.455.778.91.778" fill="#fe8d26"/><path d="m39.583 28.063c-.37 1.978-1.15 3.81-2.25 5.41-.256.373-.226.872.096 1.193l6.76 6.743c.39.38 1.04.36 1.38-.07 2.92-3.66 4.86-8.14 5.42-13.04.06-.55-.39-1.02-.94-1.02h-9.56c-.46 0-.83.33-.92.77" fill="#fd7e5b"/></g></svg>